<svg width="1200" height="900" viewBox="0 0 1200 900" fill="none" xmlns="http://www.w3.org/2000/svg">
  <rect width="1200" height="900" fill="#F7F1E8"/>
  <path d="M192 380C305 204 552 139 759 221C955 299 1047 524 941 679C826 847 562 823 381 724C175 611 83 550 192 380Z" stroke="#2F3338" stroke-width="8"/>
  <path d="M255 392C342 260 538 213 699 278C853 339 924 517 840 634C748 760 548 746 405 669C245 582 172 521 255 392Z" stroke="#51565D" stroke-width="5"/>
  <path d="M317 408C383 310 531 276 651 322C766 365 819 496 755 584C686 679 535 669 425 612C304 551 254 502 317 408Z" stroke="#6B7078" stroke-width="4"/>
  <path d="M500 164C557 131 633 137 690 170C750 205 783 266 768 319C754 366 695 398 629 391C521 379 424 208 500 164Z" stroke="#3A3F45" stroke-width="6"/>
  <path d="M471 602C522 573 594 575 649 604C702 631 735 680 724 723C712 769 662 794 605 791C511 787 400 643 471 602Z" stroke="#3A3F45" stroke-width="6"/>
  <path d="M514 626C551 606 603 609 644 631C684 651 706 687 699 718C690 750 653 766 610 764C539 761 463 654 514 626Z" stroke="#767B84" stroke-width="3"/>
</svg>
