<svg width="1200" height="900" viewBox="0 0 1200 900" fill="none" xmlns="http://www.w3.org/2000/svg">
  <rect width="1200" height="900" fill="#F7F1E8"/>
  <path d="M182 600C250 440 424 326 589 350C740 372 850 490 844 621C837 756 706 820 560 801C359 774 116 706 182 600Z" stroke="#2E3137" stroke-width="9"/>
  <path d="M228 592C283 468 421 381 553 398C677 414 767 513 762 612C758 720 652 789 533 775C371 756 175 687 228 592Z" stroke="#4B4F55" stroke-width="5"/>
  <path d="M274 587C318 494 429 430 533 444C628 457 697 532 694 607C690 688 611 741 519 730C394 715 231 663 274 587Z" stroke="#676C73" stroke-width="4"/>
  <path d="M404 301C438 252 507 219 568 225C629 231 680 276 678 331C676 386 620 432 554 430C472 428 360 365 404 301Z" stroke="#3B3F45" stroke-width="6"/>
  <path d="M438 307C466 272 517 248 563 252C610 256 648 288 646 327C644 368 603 401 554 399C494 397 403 352 438 307Z" stroke="#676C73" stroke-width="3"/>
  <path d="M768 242C798 204 859 181 912 193C958 203 992 245 990 289C987 339 942 382 884 383C811 384 728 292 768 242Z" stroke="#2E3137" stroke-width="7"/>
  <path d="M794 248C818 221 863 205 901 214C935 222 961 252 959 284C957 322 923 355 879 356C823 357 763 283 794 248Z" stroke="#727780" stroke-width="3"/>
</svg>
