<svg width="1200" height="900" viewBox="0 0 1200 900" fill="none" xmlns="http://www.w3.org/2000/svg">
  <rect width="1200" height="900" fill="#F7F1E8"/>
  <path d="M230 482C258 324 418 224 595 236C758 247 910 349 941 500C970 640 867 782 715 815C553 850 357 812 270 676C223 603 215 561 230 482Z" stroke="#2D3036" stroke-width="8"/>
  <path d="M303 482C327 358 455 281 596 291C730 300 851 381 878 499C903 608 822 722 701 748C572 775 416 744 346 636C309 580 289 543 303 482Z" stroke="#50545B" stroke-width="5"/>
  <path d="M368 483C388 388 489 331 600 339C707 347 799 414 821 505C843 592 776 682 680 703C577 725 454 696 398 612C371 571 356 539 368 483Z" stroke="#6D727A" stroke-width="4"/>
  <path d="M486 224C523 201 573 203 608 226C642 250 660 287 652 320C645 352 611 375 572 372C510 366 437 255 486 224Z" stroke="#31353B" stroke-width="6"/>
  <path d="M640 530C679 504 731 501 775 520C819 539 849 575 845 612C840 653 801 685 754 686C681 687 582 568 640 530Z" stroke="#31353B" stroke-width="6"/>
  <path d="M653 553C679 536 713 534 741 546C769 558 787 581 784 605C781 630 756 650 726 651C679 652 615 578 653 553Z" stroke="#767B84" stroke-width="3"/>
</svg>
