<?xml version="1.0" encoding="UTF-8"?>
<svg width="640" height="960" viewBox="0 0 640 960" fill="none" xmlns="http://www.w3.org/2000/svg">
  <rect width="640" height="960" rx="42" fill="#090B0E"/>
  <rect x="18" y="18" width="604" height="924" rx="30" fill="#0F1217" stroke="#2A2F36" stroke-width="2"/>
  <rect x="38" y="38" width="564" height="884" rx="24" fill="#11141A" stroke="rgba(255,255,255,0.08)" stroke-width="1.5"/>
  <g opacity="0.09">
    <path d="M92 119C178 101 258 185 344 127C430 107 494 161 548 141" stroke="#FFFFFF" stroke-width="2.2"/>
    <path d="M92 325C170 301 250 189 332 341C404 431 488 329 550 263" stroke="#FFFFFF" stroke-width="1.8"/>
    <path d="M94 473C202 427 286 521 364 473C442 423 510 543 548 497" stroke="#FFFFFF" stroke-width="1.6"/>
  </g>
  <rect x="76" y="92" width="128" height="128" rx="22" fill="#07080A" stroke="#2C3138" stroke-width="2"/>
  <text x="140" y="173" text-anchor="middle" fill="#F5F1EB" font-family="IBM Plex Mono, monospace" font-size="54" font-weight="600">MC</text>
  <text x="76" y="278" fill="#8E98A5" font-family="IBM Plex Mono, monospace" font-size="18" letter-spacing="2.6">SYSTEMS & SENSEMAKING · ESSAY</text>
  <text x="76" y="356" fill="#F5F1EB" font-family="Fraunces, Georgia, serif" font-size="44" font-weight="600">Conway's law</text>
  <text x="76" y="706" fill="#9AA3AE" font-family="Manrope, sans-serif" font-size="24">Mel Conway</text>
  <path d="M76 846H564" stroke="#30353D" stroke-width="1.4"/>
  <text x="76" y="894" fill="#D6D0C7" font-family="IBM Plex Mono, monospace" font-size="18" letter-spacing="2.2">2020-01-11</text>
</svg>
