<?xml version="1.0" encoding="UTF-8"?>
<svg width="640" height="960" viewBox="0 0 640 960" fill="none" xmlns="http://www.w3.org/2000/svg">
  <rect width="640" height="960" rx="42" fill="#090B0E"/>
  <rect x="18" y="18" width="604" height="924" rx="30" fill="#0F1217" stroke="#2A2F36" stroke-width="2"/>
  <rect x="38" y="38" width="564" height="884" rx="24" fill="#11141A" stroke="rgba(255,255,255,0.08)" stroke-width="1.5"/>
  <g opacity="0.10">
    <path d="M92 49C178 31 258 115 344 57C430 37 494 91 548 191" stroke="#FFFFFF" stroke-width="2.2"/>
    <path d="M92 255C170 231 250 239 332 271C404 361 488 259 550 313" stroke="#FFFFFF" stroke-width="1.8"/>
    <path d="M94 523C202 477 286 571 364 523C442 473 510 593 548 547" stroke="#FFFFFF" stroke-width="1.6"/>
  </g>
  <rect x="76" y="92" width="128" height="128" rx="22" fill="#07080A" stroke="#2C3138" stroke-width="2"/>
  <text x="140" y="173" text-anchor="middle" fill="#F5F1EB" font-family="IBM Plex Mono, monospace" font-size="54" font-weight="600">EK</text>
  <text x="76" y="278" fill="#8E98A5" font-family="IBM Plex Mono, monospace" font-size="18" letter-spacing="2.6">BOOKS, MANUALS & NOTEBOOKS · BOOK</text>
  <text x="76" y="356" fill="#F5F1EB" font-family="Fraunces, Georgia, serif" font-size="44" font-weight="600">How Forests Think</text>
  <text x="76" y="706" fill="#9AA3AE" font-family="Manrope, sans-serif" font-size="24">Eduardo Kohn</text>
  <path d="M76 846H564" stroke="#30353D" stroke-width="1.4"/>
  <text x="76" y="894" fill="#D6D0C7" font-family="IBM Plex Mono, monospace" font-size="18" letter-spacing="2.2">2021-02-13</text>
</svg>
