<?xml version="1.0" encoding="UTF-8"?>
<svg width="640" height="960" viewBox="0 0 640 960" fill="none" xmlns="http://www.w3.org/2000/svg">
  <rect width="640" height="960" rx="42" fill="#090B0E"/>
  <rect x="18" y="18" width="604" height="924" rx="30" fill="#0F1217" stroke="#2A2F36" stroke-width="2"/>
  <rect x="38" y="38" width="564" height="884" rx="24" fill="#11141A" stroke="rgba(255,255,255,0.08)" stroke-width="1.5"/>
  <g opacity="0.10">
    <path d="M92 111C178 93 258 177 344 119C430 99 494 153 548 213" stroke="#FFFFFF" stroke-width="2.2"/>
    <path d="M92 317C170 293 250 261 332 333C404 423 488 321 550 335" stroke="#FFFFFF" stroke-width="1.8"/>
    <path d="M94 545C202 499 286 593 364 545C442 495 510 615 548 569" stroke="#FFFFFF" stroke-width="1.6"/>
  </g>
  <rect x="76" y="92" width="128" height="128" rx="22" fill="#07080A" stroke="#2C3138" stroke-width="2"/>
  <text x="140" y="173" text-anchor="middle" fill="#F5F1EB" font-family="IBM Plex Mono, monospace" font-size="54" font-weight="600">ST</text>
  <text x="76" y="278" fill="#8E98A5" font-family="IBM Plex Mono, monospace" font-size="18" letter-spacing="2.6">TOOLS FOR THOUGHT · ESSAY</text>
  <text x="76" y="356" fill="#F5F1EB" font-family="Fraunces, Georgia, serif" font-size="44" font-weight="600">Knowledge</text>
  <text x="76" y="414" fill="#F5F1EB" font-family="Fraunces, Georgia, serif" font-size="44" font-weight="600">Management—Emerging</text>
  <text x="76" y="472" fill="#F5F1EB" font-family="Fraunces, Georgia, serif" font-size="44" font-weight="600">Perspectives</text>
  <text x="76" y="706" fill="#9AA3AE" font-family="Manrope, sans-serif" font-size="24">Systems Thinking</text>
  <path d="M76 846H564" stroke="#30353D" stroke-width="1.4"/>
  <text x="76" y="894" fill="#D6D0C7" font-family="IBM Plex Mono, monospace" font-size="18" letter-spacing="2.2">2020-06-27</text>
</svg>
