<?xml version="1.0" encoding="UTF-8"?>
<svg width="640" height="960" viewBox="0 0 640 960" fill="none" xmlns="http://www.w3.org/2000/svg">
  <rect width="640" height="960" rx="42" fill="#090B0E"/>
  <rect x="18" y="18" width="604" height="924" rx="30" fill="#0F1217" stroke="#2A2F36" stroke-width="2"/>
  <rect x="38" y="38" width="564" height="884" rx="24" fill="#11141A" stroke="rgba(255,255,255,0.08)" stroke-width="1.5"/>
  <g opacity="0.10">
    <path d="M92 104C178 86 258 140 344 112C430 92 494 116 548 176" stroke="#FFFFFF" stroke-width="2.2"/>
    <path d="M92 280C170 256 250 224 332 296C404 386 488 314 550 298" stroke="#FFFFFF" stroke-width="1.8"/>
    <path d="M94 508C202 462 286 556 364 508C442 458 510 578 548 532" stroke="#FFFFFF" stroke-width="1.6"/>
  </g>
  <rect x="76" y="92" width="128" height="128" rx="22" fill="#07080A" stroke="#2C3138" stroke-width="2"/>
  <text x="140" y="173" text-anchor="middle" fill="#F5F1EB" font-family="IBM Plex Mono, monospace" font-size="54" font-weight="600">KN</text>
  <text x="76" y="278" fill="#8E98A5" font-family="IBM Plex Mono, monospace" font-size="18" letter-spacing="2.6">BOOKS, MANUALS & NOTEBOOKS · BOOK</text>
  <text x="76" y="356" fill="#F5F1EB" font-family="Fraunces, Georgia, serif" font-size="44" font-weight="600">Sensemaking: A</text>
  <text x="76" y="414" fill="#F5F1EB" font-family="Fraunces, Georgia, serif" font-size="44" font-weight="600">Structure for an</text>
  <text x="76" y="472" fill="#F5F1EB" font-family="Fraunces, Georgia, serif" font-size="44" font-weight="600">Intelligence</text>
  <text x="76" y="530" fill="#F5F1EB" font-family="Fraunces, Georgia, serif" font-size="44" font-weight="600">Revolution</text>
  <text x="76" y="706" fill="#9AA3AE" font-family="Manrope, sans-serif" font-size="24">Kindle notes</text>
  <path d="M76 846H564" stroke="#30353D" stroke-width="1.4"/>
  <text x="76" y="894" fill="#D6D0C7" font-family="IBM Plex Mono, monospace" font-size="18" letter-spacing="2.2">2024-09-16</text>
</svg>
