<?xml version="1.0" encoding="UTF-8"?>
<svg width="640" height="896" viewBox="0 0 640 896" fill="none" xmlns="http://www.w3.org/2000/svg">
  <rect width="640" height="896" rx="42" fill="#090B0E"/>
  <rect x="18" y="18" width="604" height="860" rx="30" fill="#0F1217" stroke="#2A2F36" stroke-width="2"/>
  <rect x="38" y="38" width="564" height="820" rx="24" fill="#11141A" stroke="rgba(255,255,255,0.08)" stroke-width="1.5"/>
  <g opacity="0.09">
    <path d="M92 124C178 106 258 130 344 132C430 112 494 106 548 246" stroke="#FFFFFF" stroke-width="2.2"/>
    <path d="M92 270C170 246 250 294 332 286C404 376 488 334 550 368" stroke="#FFFFFF" stroke-width="1.8"/>
    <path d="M94 578C202 532 286 626 364 578C442 528 510 648 548 602" stroke="#FFFFFF" stroke-width="1.6"/>
  </g>
  <rect x="76" y="92" width="128" height="128" rx="22" fill="#07080A" stroke="#2C3138" stroke-width="2"/>
  <text x="140" y="173" text-anchor="middle" fill="#F5F1EB" font-family="IBM Plex Mono, monospace" font-size="54" font-weight="600">DH</text>
  <text x="76" y="278" fill="#8E98A5" font-family="IBM Plex Mono, monospace" font-size="18" letter-spacing="2.6">SYSTEMS & SENSEMAKING · PAPER</text>
  <text x="76" y="356" fill="#F5F1EB" font-family="Fraunces, Georgia, serif" font-size="44" font-weight="600">The Interface</text>
  <text x="76" y="414" fill="#F5F1EB" font-family="Fraunces, Georgia, serif" font-size="44" font-weight="600">Theory of</text>
  <text x="76" y="472" fill="#F5F1EB" font-family="Fraunces, Georgia, serif" font-size="44" font-weight="600">Perception</text>
  <text x="76" y="706" fill="#9AA3AE" font-family="Manrope, sans-serif" font-size="24">Donald Hoffman</text>
  <path d="M76 782H564" stroke="#30353D" stroke-width="1.4"/>
  <text x="76" y="830" fill="#D6D0C7" font-family="IBM Plex Mono, monospace" font-size="18" letter-spacing="2.2">2024-09-22</text>
</svg>
