<?xml version="1.0" encoding="UTF-8"?>
<svg width="640" height="960" viewBox="0 0 640 960" fill="none" xmlns="http://www.w3.org/2000/svg">
  <rect width="640" height="960" rx="42" fill="#090B0E"/>
  <rect x="18" y="18" width="604" height="924" rx="30" fill="#0F1217" stroke="#2A2F36" stroke-width="2"/>
  <rect x="38" y="38" width="564" height="884" rx="24" fill="#11141A" stroke="rgba(255,255,255,0.08)" stroke-width="1.5"/>
  <g opacity="0.11">
    <path d="M92 37C178 19 258 103 344 45C430 25 494 79 548 139" stroke="#FFFFFF" stroke-width="2.2"/>
    <path d="M92 243C170 219 250 187 332 259C404 349 488 247 550 261" stroke="#FFFFFF" stroke-width="1.8"/>
    <path d="M94 471C202 425 286 519 364 471C442 421 510 541 548 495" stroke="#FFFFFF" stroke-width="1.6"/>
  </g>
  <rect x="76" y="92" width="128" height="128" rx="22" fill="#07080A" stroke="#2C3138" stroke-width="2"/>
  <text x="140" y="173" text-anchor="middle" fill="#F5F1EB" font-family="IBM Plex Mono, monospace" font-size="54" font-weight="600">JA</text>
  <text x="76" y="278" fill="#8E98A5" font-family="IBM Plex Mono, monospace" font-size="18" letter-spacing="2.6">DESIGN & INTERFACES · ESSAY</text>
  <text x="76" y="356" fill="#F5F1EB" font-family="Fraunces, Georgia, serif" font-size="44" font-weight="600">The Illustrated</text>
  <text x="76" y="414" fill="#F5F1EB" font-family="Fraunces, Georgia, serif" font-size="44" font-weight="600">Transformer</text>
  <text x="76" y="706" fill="#9AA3AE" font-family="Manrope, sans-serif" font-size="24">Jay Alammar</text>
  <path d="M76 846H564" stroke="#30353D" stroke-width="1.4"/>
  <text x="76" y="894" fill="#D6D0C7" font-family="IBM Plex Mono, monospace" font-size="18" letter-spacing="2.2">2024-06-25</text>
</svg>
