<?xml version="1.0" encoding="UTF-8"?>
<svg xmlns="http://www.w3.org/2000/svg" viewBox="0 0 960 640" role="img" aria-labelledby="title-83 desc-83">
  <title id="title-83">Abstract geometric post art 84</title>
  <desc id="desc-83">An iridescent prism composition built from planes, lattices, and reflective block faces.</desc>
  <defs>
    <linearGradient id="bg-83" x1="0%" y1="0%" x2="100%" y2="100%">
      <stop offset="0%" stop-color="#f6f0e7" />
      <stop offset="55%" stop-color="rgba(221, 233, 248, 0.96)" />
      <stop offset="100%" stop-color="rgba(246, 216, 191, 0.92)" />
    </linearGradient>
    <linearGradient id="top-83" x1="0%" y1="0%" x2="100%" y2="100%">
      <stop offset="0%" stop-color="rgba(221, 233, 248, 0.94)" />
      <stop offset="50%" stop-color="rgba(246, 216, 191, 0.7)" />
      <stop offset="100%" stop-color="rgba(146, 162, 227, 0.56)" />
    </linearGradient>
    <linearGradient id="left-83" x1="0%" y1="0%" x2="0%" y2="100%">
      <stop offset="0%" stop-color="rgba(221, 233, 248, 0.7)" />
      <stop offset="100%" stop-color="rgba(146, 162, 227, 0.28)" />
    </linearGradient>
    <linearGradient id="right-83" x1="0%" y1="0%" x2="0%" y2="100%">
      <stop offset="0%" stop-color="rgba(246, 216, 191, 0.72)" />
      <stop offset="100%" stop-color="rgba(241, 178, 193, 0.24)" />
    </linearGradient>
  </defs>
  <rect width="960" height="640" fill="url(#bg-83)" />
  <rect x="24" y="24" width="912" height="592" rx="28" fill="none" stroke="rgba(146, 162, 227, 0.1)" stroke-width="1.4" />
  <polygon points="413.0,100.9 807.7,100.9 889.5,169.1 494.8,169.1" fill="rgba(221, 233, 248, 0.22)" stroke="rgba(146, 162, 227, 0.12)" stroke-width="1.2" />
  <polygon points="284.4,467.2 570.6,467.2 531.9,563.4 245.7,563.4" fill="rgba(246, 216, 191, 0.22)" stroke="rgba(146, 162, 227, 0.12)" stroke-width="1.2" />
  <polygon points="371.4,256.9 611.0,256.9 623.7,328.2 384.2,328.2" fill="rgba(221, 233, 248, 0.22)" stroke="rgba(146, 162, 227, 0.12)" stroke-width="1.2" />
  <polygon points="257.2,160.9 659.8,160.9 560.2,205.5 157.5,205.5" fill="rgba(246, 216, 191, 0.22)" stroke="rgba(146, 162, 227, 0.12)" stroke-width="1.2" />
  <polygon points="184.7,306.1 444.8,306.1 370.7,371.9 110.7,371.9" fill="rgba(221, 233, 248, 0.22)" stroke="rgba(146, 162, 227, 0.12)" stroke-width="1.2" />
  <polyline points="317.1,90.0 518.4,37.3 567.9,25.7" fill="none" stroke="rgba(146, 162, 227, 0.24)" stroke-width="2.06" stroke-linecap="round" stroke-linejoin="round" />
  <polyline points="76.4,158.0 267.6,235.4 296.6,275.0" fill="none" stroke="rgba(241, 178, 193, 0.24)" stroke-width="2.36" stroke-linecap="round" stroke-linejoin="round" />
  <polyline points="570.1,275.3 665.4,241.2 729.2,258.9" fill="none" stroke="rgba(146, 162, 227, 0.24)" stroke-width="2.24" stroke-linecap="round" stroke-linejoin="round" />
  <polyline points="302.1,127.7 509.0,162.9 542.9,171.9" fill="none" stroke="rgba(241, 178, 193, 0.24)" stroke-width="1.54" stroke-linecap="round" stroke-linejoin="round" />
  <polyline points="648.2,364.3 826.1,426.2 850.7,426.9" fill="none" stroke="rgba(146, 162, 227, 0.24)" stroke-width="2.26" stroke-linecap="round" stroke-linejoin="round" />
  <polyline points="657.4,229.1 853.9,150.0 892.4,182.2" fill="none" stroke="rgba(241, 178, 193, 0.24)" stroke-width="2.16" stroke-linecap="round" stroke-linejoin="round" />
  <polygon points="330.8,392.1 410.3,392.1 360.5,439.0 281.0,439.0" fill="rgba(221, 233, 248, 0.3)" stroke="rgba(241, 178, 193, 0.16)" stroke-width="1.2" />
  <polygon points="332.8,291.4 471.3,291.4 526.1,349.2 387.5,349.2" fill="rgba(246, 216, 191, 0.3)" stroke="rgba(241, 178, 193, 0.16)" stroke-width="1.2" />
  <polygon points="649.6,344.6 723.2,344.6 727.6,378.1 654.0,378.1" fill="rgba(221, 233, 248, 0.3)" stroke="rgba(241, 178, 193, 0.16)" stroke-width="1.2" />
  <polygon points="681.9,441.6 771.8,441.6 792.8,473.2 702.8,473.2" fill="rgba(246, 216, 191, 0.3)" stroke="rgba(241, 178, 193, 0.16)" stroke-width="1.2" />
  <polygon points="477.1,201.9 586.0,253.7 477.1,303.7 368.2,253.7" fill="rgba(221, 233, 248, 0.52)" stroke="rgba(146, 162, 227, 0.28)" stroke-width="1.5" />
  <polygon points="368.2,253.7 477.1,303.7 477.1,470.0 368.2,420.0" fill="rgba(221, 233, 248, 0.34)" stroke="rgba(146, 162, 227, 0.26)" stroke-width="1.3" />
  <polygon points="477.1,303.7 586.0,253.7 586.0,420.0 477.1,470.0" fill="rgba(221, 233, 248, 0.34)" stroke="rgba(241, 178, 193, 0.24)" stroke-width="1.3" />
  <polygon points="257.1,444.2 637.1,444.2 727.1,512.2 347.1,512.2" fill="none" stroke="rgba(146, 162, 227, 0.16)" stroke-width="1.2" />
  <polygon points="297.1,494.2 617.1,494.2 539.1,546.2 219.1,546.2" fill="none" stroke="rgba(241, 178, 193, 0.14)" stroke-width="1.1" />
  <polygon points="883.8,154.2 898.6,168.9 883.8,183.7 869.0,168.9" fill="rgba(241, 178, 193, 0.18)" stroke="rgba(146, 162, 227, 0.2)" stroke-width="1.2" />
  <polygon points="792.5,285.1 803.8,296.4 792.5,307.8 781.1,296.4" fill="rgba(221, 233, 248, 0.18)" stroke="rgba(146, 162, 227, 0.2)" stroke-width="1.2" />
  <polygon points="725.6,411.7 741.5,427.6 725.6,443.6 709.7,427.6" fill="rgba(241, 178, 193, 0.18)" stroke="rgba(146, 162, 227, 0.2)" stroke-width="1.2" />
  <polygon points="106.3,404.2 118.1,416.0 106.3,427.8 94.5,416.0" fill="rgba(221, 233, 248, 0.18)" stroke="rgba(146, 162, 227, 0.2)" stroke-width="1.2" />
  <polygon points="650.9,543.9 665.6,558.6 650.9,573.3 636.1,558.6" fill="rgba(241, 178, 193, 0.18)" stroke="rgba(146, 162, 227, 0.2)" stroke-width="1.2" />
</svg>
