<?xml version="1.0" encoding="UTF-8"?>
<svg xmlns="http://www.w3.org/2000/svg" viewBox="0 0 960 640" role="img" aria-labelledby="title-60 desc-60">
  <title id="title-60">Abstract geometric post art 61</title>
  <desc id="desc-60">An iridescent prism composition built from planes, lattices, and reflective block faces.</desc>
  <defs>
    <linearGradient id="bg-60" x1="0%" y1="0%" x2="100%" y2="100%">
      <stop offset="0%" stop-color="#f6f0e7" />
      <stop offset="55%" stop-color="rgba(217, 242, 239, 0.96)" />
      <stop offset="100%" stop-color="rgba(246, 210, 180, 0.92)" />
    </linearGradient>
    <linearGradient id="top-60" x1="0%" y1="0%" x2="100%" y2="100%">
      <stop offset="0%" stop-color="rgba(217, 242, 239, 0.94)" />
      <stop offset="50%" stop-color="rgba(246, 210, 180, 0.7)" />
      <stop offset="100%" stop-color="rgba(143, 207, 208, 0.56)" />
    </linearGradient>
    <linearGradient id="left-60" x1="0%" y1="0%" x2="0%" y2="100%">
      <stop offset="0%" stop-color="rgba(217, 242, 239, 0.7)" />
      <stop offset="100%" stop-color="rgba(143, 207, 208, 0.28)" />
    </linearGradient>
    <linearGradient id="right-60" x1="0%" y1="0%" x2="0%" y2="100%">
      <stop offset="0%" stop-color="rgba(246, 210, 180, 0.72)" />
      <stop offset="100%" stop-color="rgba(255, 179, 157, 0.24)" />
    </linearGradient>
  </defs>
  <rect width="960" height="640" fill="url(#bg-60)" />
  <rect x="24" y="24" width="912" height="592" rx="28" fill="none" stroke="rgba(143, 207, 208, 0.1)" stroke-width="1.4" />
  <polygon points="382.9,412.5 803.9,412.5 769.9,518.3 348.8,518.3" fill="rgba(217, 242, 239, 0.22)" stroke="rgba(143, 207, 208, 0.12)" stroke-width="1.2" />
  <polygon points="554.8,154.6 991.9,154.6 924.2,233.6 487.1,233.6" fill="rgba(246, 210, 180, 0.22)" stroke="rgba(143, 207, 208, 0.12)" stroke-width="1.2" />
  <polygon points="318.2,423.3 564.2,423.3 607.1,498.5 361.1,498.5" fill="rgba(217, 242, 239, 0.22)" stroke="rgba(143, 207, 208, 0.12)" stroke-width="1.2" />
  <polyline points="682.0,95.1 802.1,17.5 872.1,48.5" fill="none" stroke="rgba(143, 207, 208, 0.24)" stroke-width="2.29" stroke-linecap="round" stroke-linejoin="round" />
  <polyline points="210.9,227.9 311.8,245.1 377.0,264.7" fill="none" stroke="rgba(255, 179, 157, 0.24)" stroke-width="1.51" stroke-linecap="round" stroke-linejoin="round" />
  <polyline points="225.9,108.3 425.4,167.8 464.5,178.1" fill="none" stroke="rgba(143, 207, 208, 0.24)" stroke-width="2.41" stroke-linecap="round" stroke-linejoin="round" />
  <polyline points="551.3,171.1 702.4,198.4 748.0,201.5" fill="none" stroke="rgba(255, 179, 157, 0.24)" stroke-width="2.27" stroke-linecap="round" stroke-linejoin="round" />
  <polyline points="633.7,284.4 767.1,315.4 813.9,334.9" fill="none" stroke="rgba(143, 207, 208, 0.24)" stroke-width="1.67" stroke-linecap="round" stroke-linejoin="round" />
  <polyline points="631.3,101.6 725.0,42.9 761.3,34.9" fill="none" stroke="rgba(255, 179, 157, 0.24)" stroke-width="1.93" stroke-linecap="round" stroke-linejoin="round" />
  <polygon points="397.4,361.4 519.9,361.4 523.2,397.4 400.6,397.4" fill="rgba(217, 242, 239, 0.3)" stroke="rgba(255, 179, 157, 0.16)" stroke-width="1.2" />
  <polygon points="160.2,230.4 310.0,230.4 263.1,270.6 113.3,270.6" fill="rgba(246, 210, 180, 0.3)" stroke="rgba(255, 179, 157, 0.16)" stroke-width="1.2" />
  <polygon points="610.2,239.2 713.6,239.2 707.5,294.0 604.1,294.0" fill="rgba(217, 242, 239, 0.3)" stroke="rgba(255, 179, 157, 0.16)" stroke-width="1.2" />
  <polygon points="229.5,185.7 352.2,185.7 330.8,228.0 208.0,228.0" fill="rgba(246, 210, 180, 0.3)" stroke="rgba(255, 179, 157, 0.16)" stroke-width="1.2" />
  <polygon points="582.3,229.6 679.6,275.9 582.3,320.5 485.0,275.9" fill="url(#top-60)" stroke="rgba(143, 207, 208, 0.42)" stroke-width="1.6" />
  <polygon points="485.0,275.9 582.3,320.5 582.3,491.9 485.0,447.2" fill="rgba(217, 242, 239, 0.48)" stroke="rgba(143, 207, 208, 0.32)" stroke-width="1.4" />
  <polygon points="582.3,320.5 679.6,275.9 679.6,447.2 582.3,491.9" fill="rgba(246, 210, 180, 0.48)" stroke="rgba(255, 179, 157, 0.28)" stroke-width="1.4" />
  <polygon points="608.8,216.5 707.6,263.5 608.8,308.9 510.1,263.5" fill="none" stroke="rgba(143, 207, 208, 0.16)" stroke-width="1.3" />
  <polygon points="510.1,263.5 608.8,308.9 608.8,475.2 510.1,429.9" fill="none" stroke="rgba(143, 207, 208, 0.14)" stroke-width="1.2" />
  <polygon points="608.8,308.9 707.6,263.5 707.6,429.9 608.8,475.2" fill="none" stroke="rgba(255, 179, 157, 0.14)" stroke-width="1.2" />
  <polygon points="474.6,153.8 491.5,170.6 474.6,187.4 457.8,170.6" fill="rgba(255, 179, 157, 0.18)" stroke="rgba(143, 207, 208, 0.2)" stroke-width="1.2" />
  <polygon points="440.6,343.0 458.1,360.5 440.6,378.1 423.1,360.5" fill="rgba(217, 242, 239, 0.18)" stroke="rgba(143, 207, 208, 0.2)" stroke-width="1.2" />
  <polygon points="83.8,492.6 101.0,509.8 83.8,527.0 66.6,509.8" fill="rgba(255, 179, 157, 0.18)" stroke="rgba(143, 207, 208, 0.2)" stroke-width="1.2" />
  <polygon points="609.7,291.8 630.6,312.6 609.7,333.4 588.9,312.6" fill="rgba(217, 242, 239, 0.18)" stroke="rgba(143, 207, 208, 0.2)" stroke-width="1.2" />
  <polygon points="826.2,160.1 836.7,170.7 826.2,181.2 815.7,170.7" fill="rgba(255, 179, 157, 0.18)" stroke="rgba(143, 207, 208, 0.2)" stroke-width="1.2" />
</svg>
