<?xml version="1.0" encoding="UTF-8"?>
<svg xmlns="http://www.w3.org/2000/svg" viewBox="0 0 960 640" role="img" aria-labelledby="title-64 desc-64">
  <title id="title-64">Abstract geometric post art 65</title>
  <desc id="desc-64">An iridescent prism composition built from planes, lattices, and reflective block faces.</desc>
  <defs>
    <linearGradient id="bg-64" x1="0%" y1="0%" x2="100%" y2="100%">
      <stop offset="0%" stop-color="#f6f0e7" />
      <stop offset="55%" stop-color="rgba(226, 241, 235, 0.96)" />
      <stop offset="100%" stop-color="rgba(247, 219, 197, 0.92)" />
    </linearGradient>
    <linearGradient id="top-64" x1="0%" y1="0%" x2="100%" y2="100%">
      <stop offset="0%" stop-color="rgba(226, 241, 235, 0.94)" />
      <stop offset="50%" stop-color="rgba(247, 219, 197, 0.7)" />
      <stop offset="100%" stop-color="rgba(139, 199, 184, 0.56)" />
    </linearGradient>
    <linearGradient id="left-64" x1="0%" y1="0%" x2="0%" y2="100%">
      <stop offset="0%" stop-color="rgba(226, 241, 235, 0.7)" />
      <stop offset="100%" stop-color="rgba(139, 199, 184, 0.28)" />
    </linearGradient>
    <linearGradient id="right-64" x1="0%" y1="0%" x2="0%" y2="100%">
      <stop offset="0%" stop-color="rgba(247, 219, 197, 0.72)" />
      <stop offset="100%" stop-color="rgba(243, 192, 154, 0.24)" />
    </linearGradient>
  </defs>
  <rect width="960" height="640" fill="url(#bg-64)" />
  <rect x="24" y="24" width="912" height="592" rx="28" fill="none" stroke="rgba(139, 199, 184, 0.1)" stroke-width="1.4" />
  <polygon points="503.5,167.1 900.1,167.1 912.7,268.1 516.0,268.1" fill="rgba(226, 241, 235, 0.22)" stroke="rgba(139, 199, 184, 0.12)" stroke-width="1.2" />
  <polygon points="119.3,412.9 520.2,412.9 614.8,511.3 214.0,511.3" fill="rgba(247, 219, 197, 0.22)" stroke="rgba(139, 199, 184, 0.12)" stroke-width="1.2" />
  <polygon points="36.8,460.5 525.2,460.5 446.8,530.6 -41.5,530.6" fill="rgba(226, 241, 235, 0.22)" stroke="rgba(139, 199, 184, 0.12)" stroke-width="1.2" />
  <polygon points="360.7,272.9 749.9,272.9 861.0,373.8 471.8,373.8" fill="rgba(247, 219, 197, 0.22)" stroke="rgba(139, 199, 184, 0.12)" stroke-width="1.2" />
  <polyline points="672.5,170.4 805.9,228.9 854.7,237.8" fill="none" stroke="rgba(139, 199, 184, 0.24)" stroke-width="1.58" stroke-linecap="round" stroke-linejoin="round" />
  <polyline points="278.5,363.0 447.2,283.6 480.1,278.2" fill="none" stroke="rgba(243, 192, 154, 0.24)" stroke-width="1.56" stroke-linecap="round" stroke-linejoin="round" />
  <polyline points="684.3,393.1 844.1,375.1 915.3,372.6" fill="none" stroke="rgba(139, 199, 184, 0.24)" stroke-width="2.50" stroke-linecap="round" stroke-linejoin="round" />
  <polyline points="379.7,371.7 562.0,399.8 600.4,390.1" fill="none" stroke="rgba(243, 192, 154, 0.24)" stroke-width="1.91" stroke-linecap="round" stroke-linejoin="round" />
  <polyline points="303.6,344.3 407.3,367.4 473.6,362.5" fill="none" stroke="rgba(139, 199, 184, 0.24)" stroke-width="2.31" stroke-linecap="round" stroke-linejoin="round" />
  <polyline points="108.2,247.6 232.1,297.4 263.6,282.3" fill="none" stroke="rgba(243, 192, 154, 0.24)" stroke-width="1.78" stroke-linecap="round" stroke-linejoin="round" />
  <polygon points="470.7,263.1 576.2,263.1 579.0,293.4 473.5,293.4" fill="rgba(226, 241, 235, 0.3)" stroke="rgba(243, 192, 154, 0.16)" stroke-width="1.2" />
  <polygon points="204.0,164.1 282.1,164.1 239.9,207.6 161.7,207.6" fill="rgba(247, 219, 197, 0.3)" stroke="rgba(243, 192, 154, 0.16)" stroke-width="1.2" />
  <polygon points="214.3,353.9 342.7,353.9 348.3,415.0 219.9,415.0" fill="rgba(226, 241, 235, 0.3)" stroke="rgba(243, 192, 154, 0.16)" stroke-width="1.2" />
  <polygon points="689.6,457.0 799.1,457.0 772.0,511.4 662.6,511.4" fill="rgba(247, 219, 197, 0.3)" stroke="rgba(243, 192, 154, 0.16)" stroke-width="1.2" />
  <polygon points="389.5,185.1 483.1,229.7 389.5,272.6 296.0,229.7" fill="url(#top-64)" stroke="rgba(139, 199, 184, 0.26)" stroke-width="1.5" />
  <polygon points="296.0,229.7 389.5,272.6 389.5,433.6 296.0,390.7" fill="url(#left-64)" stroke="rgba(139, 199, 184, 0.22)" stroke-width="1.3" />
  <polygon points="389.5,272.6 483.1,229.7 483.1,390.7 389.5,433.6" fill="url(#right-64)" stroke="rgba(243, 192, 154, 0.22)" stroke-width="1.3" />
  <polygon points="229.5,261.9 273.5,305.9 229.5,349.9 185.5,305.9" fill="rgba(226, 241, 235, 0.16)" stroke="rgba(139, 199, 184, 0.18)" stroke-width="1.2" />
  <polygon points="569.5,227.9 607.5,265.9 569.5,303.9 531.5,265.9" fill="rgba(247, 219, 197, 0.16)" stroke="rgba(243, 192, 154, 0.18)" stroke-width="1.2" />
  <polygon points="514.2,163.3 534.6,183.7 514.2,204.2 493.7,183.7" fill="rgba(243, 192, 154, 0.18)" stroke="rgba(139, 199, 184, 0.2)" stroke-width="1.2" />
  <polygon points="227.0,419.9 242.8,435.6 227.0,451.4 211.3,435.6" fill="rgba(226, 241, 235, 0.18)" stroke="rgba(139, 199, 184, 0.2)" stroke-width="1.2" />
  <polygon points="562.8,253.3 581.7,272.2 562.8,291.1 543.9,272.2" fill="rgba(243, 192, 154, 0.18)" stroke="rgba(139, 199, 184, 0.2)" stroke-width="1.2" />
  <polygon points="826.2,122.0 846.3,142.0 826.2,162.0 806.2,142.0" fill="rgba(226, 241, 235, 0.18)" stroke="rgba(139, 199, 184, 0.2)" stroke-width="1.2" />
  <polygon points="561.1,194.0 581.0,213.9 561.1,233.8 541.2,213.9" fill="rgba(243, 192, 154, 0.18)" stroke="rgba(139, 199, 184, 0.2)" stroke-width="1.2" />
</svg>
