<?xml version="1.0" encoding="UTF-8"?>
<svg xmlns="http://www.w3.org/2000/svg" viewBox="0 0 960 640" role="img" aria-labelledby="title-71 desc-71">
  <title id="title-71">Abstract geometric post art 72</title>
  <desc id="desc-71">An iridescent prism composition built from planes, lattices, and reflective block faces.</desc>
  <defs>
    <linearGradient id="bg-71" x1="0%" y1="0%" x2="100%" y2="100%">
      <stop offset="0%" stop-color="#f6f0e7" />
      <stop offset="55%" stop-color="rgba(220, 239, 246, 0.96)" />
      <stop offset="100%" stop-color="rgba(240, 212, 177, 0.92)" />
    </linearGradient>
    <linearGradient id="top-71" x1="0%" y1="0%" x2="100%" y2="100%">
      <stop offset="0%" stop-color="rgba(220, 239, 246, 0.94)" />
      <stop offset="50%" stop-color="rgba(240, 212, 177, 0.7)" />
      <stop offset="100%" stop-color="rgba(143, 182, 220, 0.56)" />
    </linearGradient>
    <linearGradient id="left-71" x1="0%" y1="0%" x2="0%" y2="100%">
      <stop offset="0%" stop-color="rgba(220, 239, 246, 0.7)" />
      <stop offset="100%" stop-color="rgba(143, 182, 220, 0.28)" />
    </linearGradient>
    <linearGradient id="right-71" x1="0%" y1="0%" x2="0%" y2="100%">
      <stop offset="0%" stop-color="rgba(240, 212, 177, 0.72)" />
      <stop offset="100%" stop-color="rgba(247, 185, 172, 0.24)" />
    </linearGradient>
  </defs>
  <rect width="960" height="640" fill="url(#bg-71)" />
  <rect x="24" y="24" width="912" height="592" rx="28" fill="none" stroke="rgba(143, 182, 220, 0.1)" stroke-width="1.4" />
  <polygon points="15.1,272.7 293.9,272.7 388.0,332.3 109.2,332.3" fill="rgba(220, 239, 246, 0.22)" stroke="rgba(143, 182, 220, 0.12)" stroke-width="1.2" />
  <polygon points="393.6,463.9 655.9,463.9 734.7,546.6 472.4,546.6" fill="rgba(240, 212, 177, 0.22)" stroke="rgba(143, 182, 220, 0.12)" stroke-width="1.2" />
  <polygon points="63.6,527.5 451.0,527.5 340.7,588.7 -46.7,588.7" fill="rgba(220, 239, 246, 0.22)" stroke="rgba(143, 182, 220, 0.12)" stroke-width="1.2" />
  <polygon points="283.2,437.3 721.1,437.3 833.7,501.0 395.8,501.0" fill="rgba(240, 212, 177, 0.22)" stroke="rgba(143, 182, 220, 0.12)" stroke-width="1.2" />
  <polygon points="14.5,272.9 387.5,272.9 269.7,340.4 -103.3,340.4" fill="rgba(220, 239, 246, 0.22)" stroke="rgba(143, 182, 220, 0.12)" stroke-width="1.2" />
  <polyline points="526.1,330.8 675.5,272.8 742.9,262.6" fill="none" stroke="rgba(143, 182, 220, 0.24)" stroke-width="1.60" stroke-linecap="round" stroke-linejoin="round" />
  <polyline points="104.9,295.7 213.9,302.3 279.1,308.1" fill="none" stroke="rgba(247, 185, 172, 0.24)" stroke-width="1.77" stroke-linecap="round" stroke-linejoin="round" />
  <polyline points="604.7,358.9 741.1,294.2 785.0,316.2" fill="none" stroke="rgba(143, 182, 220, 0.24)" stroke-width="2.54" stroke-linecap="round" stroke-linejoin="round" />
  <polyline points="524.1,302.7 716.0,306.7 757.7,314.1" fill="none" stroke="rgba(247, 185, 172, 0.24)" stroke-width="2.45" stroke-linecap="round" stroke-linejoin="round" />
  <polyline points="319.3,224.5 483.0,174.2 520.5,163.2" fill="none" stroke="rgba(143, 182, 220, 0.24)" stroke-width="2.39" stroke-linecap="round" stroke-linejoin="round" />
  <polyline points="435.8,299.1 542.3,329.4 582.9,343.4" fill="none" stroke="rgba(247, 185, 172, 0.24)" stroke-width="2.24" stroke-linecap="round" stroke-linejoin="round" />
  <polygon points="413.2,133.3 507.3,133.3 484.5,166.2 390.4,166.2" fill="rgba(220, 239, 246, 0.3)" stroke="rgba(247, 185, 172, 0.16)" stroke-width="1.2" />
  <polygon points="193.2,148.5 291.3,148.5 316.8,179.4 218.6,179.4" fill="rgba(240, 212, 177, 0.3)" stroke="rgba(247, 185, 172, 0.16)" stroke-width="1.2" />
  <polygon points="370.3,159.2 475.0,159.2 441.2,209.8 336.5,209.8" fill="rgba(220, 239, 246, 0.3)" stroke="rgba(247, 185, 172, 0.16)" stroke-width="1.2" />
  <polygon points="202.5,400.6 315.0,400.6 352.4,429.7 240.0,429.7" fill="rgba(240, 212, 177, 0.3)" stroke="rgba(247, 185, 172, 0.16)" stroke-width="1.2" />
  <polygon points="421.8,215.5 535.1,269.4 421.8,321.5 308.5,269.4" fill="rgba(220, 239, 246, 0.52)" stroke="rgba(143, 182, 220, 0.34)" stroke-width="1.5" />
  <polygon points="308.5,269.4 421.8,321.5 421.8,504.4 308.5,452.4" fill="url(#left-71)" stroke="rgba(143, 182, 220, 0.28)" stroke-width="1.4" />
  <polygon points="421.8,321.5 535.1,269.4 535.1,452.4 421.8,504.4" fill="url(#right-71)" stroke="rgba(247, 185, 172, 0.28)" stroke-width="1.4" />
  <polygon points="241.8,421.2 561.8,421.2 633.8,495.2 313.8,495.2" fill="rgba(240, 212, 177, 0.2)" stroke="rgba(247, 185, 172, 0.18)" stroke-width="1.1" />
  <polygon points="301.8,133.2 561.8,133.2 495.8,191.2 235.8,191.2" fill="rgba(220, 239, 246, 0.2)" stroke="rgba(143, 182, 220, 0.18)" stroke-width="1.1" />
  <polygon points="225.0,93.6 239.3,107.9 225.0,122.3 210.7,107.9" fill="rgba(247, 185, 172, 0.18)" stroke="rgba(143, 182, 220, 0.2)" stroke-width="1.2" />
  <polygon points="845.8,500.3 858.8,513.3 845.8,526.2 832.9,513.3" fill="rgba(220, 239, 246, 0.18)" stroke="rgba(143, 182, 220, 0.2)" stroke-width="1.2" />
  <polygon points="442.0,205.2 458.1,221.2 442.0,237.3 425.9,221.2" fill="rgba(247, 185, 172, 0.18)" stroke="rgba(143, 182, 220, 0.2)" stroke-width="1.2" />
  <polygon points="460.9,338.9 481.3,359.3 460.9,379.7 440.6,359.3" fill="rgba(220, 239, 246, 0.18)" stroke="rgba(143, 182, 220, 0.2)" stroke-width="1.2" />
  <polygon points="693.8,331.7 715.2,353.1 693.8,374.4 672.5,353.1" fill="rgba(247, 185, 172, 0.18)" stroke="rgba(143, 182, 220, 0.2)" stroke-width="1.2" />
</svg>
