<?xml version="1.0" encoding="UTF-8"?>
<svg xmlns="http://www.w3.org/2000/svg" viewBox="0 0 960 640" role="img" aria-labelledby="title-95 desc-95">
  <title id="title-95">Abstract geometric post art 96</title>
  <desc id="desc-95">An iridescent prism composition built from planes, lattices, and reflective block faces.</desc>
  <defs>
    <linearGradient id="bg-95" x1="0%" y1="0%" x2="100%" y2="100%">
      <stop offset="0%" stop-color="#f6f0e7" />
      <stop offset="55%" stop-color="rgba(217, 242, 239, 0.96)" />
      <stop offset="100%" stop-color="rgba(246, 210, 180, 0.92)" />
    </linearGradient>
    <linearGradient id="top-95" x1="0%" y1="0%" x2="100%" y2="100%">
      <stop offset="0%" stop-color="rgba(217, 242, 239, 0.94)" />
      <stop offset="50%" stop-color="rgba(246, 210, 180, 0.7)" />
      <stop offset="100%" stop-color="rgba(143, 207, 208, 0.56)" />
    </linearGradient>
    <linearGradient id="left-95" x1="0%" y1="0%" x2="0%" y2="100%">
      <stop offset="0%" stop-color="rgba(217, 242, 239, 0.7)" />
      <stop offset="100%" stop-color="rgba(143, 207, 208, 0.28)" />
    </linearGradient>
    <linearGradient id="right-95" x1="0%" y1="0%" x2="0%" y2="100%">
      <stop offset="0%" stop-color="rgba(246, 210, 180, 0.72)" />
      <stop offset="100%" stop-color="rgba(255, 179, 157, 0.24)" />
    </linearGradient>
  </defs>
  <rect width="960" height="640" fill="url(#bg-95)" />
  <rect x="24" y="24" width="912" height="592" rx="28" fill="none" stroke="rgba(143, 207, 208, 0.1)" stroke-width="1.4" />
  <polygon points="51.6,201.9 372.9,201.9 354.5,255.8 33.2,255.8" fill="rgba(217, 242, 239, 0.22)" stroke="rgba(143, 207, 208, 0.12)" stroke-width="1.2" />
  <polygon points="147.4,416.1 624.9,416.1 593.2,504.4 115.8,504.4" fill="rgba(246, 210, 180, 0.22)" stroke="rgba(143, 207, 208, 0.12)" stroke-width="1.2" />
  <polygon points="417.3,365.9 783.8,365.9 673.1,421.9 306.6,421.9" fill="rgba(217, 242, 239, 0.22)" stroke="rgba(143, 207, 208, 0.12)" stroke-width="1.2" />
  <polygon points="368.2,336.1 768.5,336.1 671.5,411.4 271.2,411.4" fill="rgba(246, 210, 180, 0.22)" stroke="rgba(143, 207, 208, 0.12)" stroke-width="1.2" />
  <polygon points="515.8,470.1 839.7,470.1 831.7,568.1 507.8,568.1" fill="rgba(217, 242, 239, 0.22)" stroke="rgba(143, 207, 208, 0.12)" stroke-width="1.2" />
  <polyline points="673.0,422.3 878.8,363.2 941.8,398.9" fill="none" stroke="rgba(143, 207, 208, 0.24)" stroke-width="1.85" stroke-linecap="round" stroke-linejoin="round" />
  <polyline points="85.9,332.1 192.4,400.5 251.2,406.7" fill="none" stroke="rgba(255, 179, 157, 0.24)" stroke-width="1.66" stroke-linecap="round" stroke-linejoin="round" />
  <polyline points="408.5,427.5 541.1,414.9 596.2,397.3" fill="none" stroke="rgba(143, 207, 208, 0.24)" stroke-width="2.03" stroke-linecap="round" stroke-linejoin="round" />
  <polyline points="530.1,449.9 635.3,392.8 662.7,387.6" fill="none" stroke="rgba(255, 179, 157, 0.24)" stroke-width="2.20" stroke-linecap="round" stroke-linejoin="round" />
  <polyline points="141.4,173.6 279.8,234.0 311.1,231.9" fill="none" stroke="rgba(143, 207, 208, 0.24)" stroke-width="2.10" stroke-linecap="round" stroke-linejoin="round" />
  <polyline points="159.3,453.5 341.4,506.3 410.2,526.9" fill="none" stroke="rgba(255, 179, 157, 0.24)" stroke-width="2.00" stroke-linecap="round" stroke-linejoin="round" />
  <polygon points="334.1,156.3 418.1,156.3 370.0,205.5 286.1,205.5" fill="rgba(217, 242, 239, 0.3)" stroke="rgba(255, 179, 157, 0.16)" stroke-width="1.2" />
  <polygon points="309.7,412.3 385.1,412.3 411.0,454.5 335.7,454.5" fill="rgba(246, 210, 180, 0.3)" stroke="rgba(255, 179, 157, 0.16)" stroke-width="1.2" />
  <polygon points="609.1,175.1 697.5,175.1 658.9,238.2 570.6,238.2" fill="rgba(217, 242, 239, 0.3)" stroke="rgba(255, 179, 157, 0.16)" stroke-width="1.2" />
  <polygon points="721.4,447.1 797.3,447.1 743.5,485.1 667.6,485.1" fill="rgba(246, 210, 180, 0.3)" stroke="rgba(255, 179, 157, 0.16)" stroke-width="1.2" />
  <polygon points="532.5,196.6 630.2,243.1 532.5,288.0 434.8,243.1" fill="url(#top-95)" stroke="rgba(143, 207, 208, 0.42)" stroke-width="1.6" />
  <polygon points="434.8,243.1 532.5,288.0 532.5,423.3 434.8,378.4" fill="rgba(217, 242, 239, 0.48)" stroke="rgba(143, 207, 208, 0.32)" stroke-width="1.4" />
  <polygon points="532.5,288.0 630.2,243.1 630.2,378.4 532.5,423.3" fill="rgba(246, 210, 180, 0.48)" stroke="rgba(255, 179, 157, 0.28)" stroke-width="1.4" />
  <polygon points="574.3,182.6 665.6,226.0 574.3,268.0 483.0,226.0" fill="none" stroke="rgba(143, 207, 208, 0.16)" stroke-width="1.3" />
  <polygon points="483.0,226.0 574.3,268.0 574.3,400.7 483.0,358.8" fill="none" stroke="rgba(143, 207, 208, 0.14)" stroke-width="1.2" />
  <polygon points="574.3,268.0 665.6,226.0 665.6,358.8 574.3,400.7" fill="none" stroke="rgba(255, 179, 157, 0.14)" stroke-width="1.2" />
  <polygon points="693.4,487.2 710.8,504.6 693.4,522.0 676.0,504.6" fill="rgba(255, 179, 157, 0.18)" stroke="rgba(143, 207, 208, 0.2)" stroke-width="1.2" />
  <polygon points="713.3,177.7 730.0,194.4 713.3,211.1 696.6,194.4" fill="rgba(217, 242, 239, 0.18)" stroke="rgba(143, 207, 208, 0.2)" stroke-width="1.2" />
  <polygon points="790.6,374.8 803.7,387.9 790.6,400.9 777.6,387.9" fill="rgba(255, 179, 157, 0.18)" stroke="rgba(143, 207, 208, 0.2)" stroke-width="1.2" />
  <polygon points="386.0,485.4 401.1,500.5 386.0,515.6 370.9,500.5" fill="rgba(217, 242, 239, 0.18)" stroke="rgba(143, 207, 208, 0.2)" stroke-width="1.2" />
  <polygon points="815.6,215.7 836.3,236.5 815.6,257.2 794.8,236.5" fill="rgba(255, 179, 157, 0.18)" stroke="rgba(143, 207, 208, 0.2)" stroke-width="1.2" />
</svg>
