<?xml version="1.0" encoding="UTF-8"?>
<svg xmlns="http://www.w3.org/2000/svg" viewBox="0 0 960 640" role="img" aria-labelledby="title-68 desc-68">
  <title id="title-68">Abstract geometric post art 69</title>
  <desc id="desc-68">An iridescent prism composition built from planes, lattices, and reflective block faces.</desc>
  <defs>
    <linearGradient id="bg-68" x1="0%" y1="0%" x2="100%" y2="100%">
      <stop offset="0%" stop-color="#f6f0e7" />
      <stop offset="55%" stop-color="rgba(221, 233, 248, 0.96)" />
      <stop offset="100%" stop-color="rgba(246, 216, 191, 0.92)" />
    </linearGradient>
    <linearGradient id="top-68" x1="0%" y1="0%" x2="100%" y2="100%">
      <stop offset="0%" stop-color="rgba(221, 233, 248, 0.94)" />
      <stop offset="50%" stop-color="rgba(246, 216, 191, 0.7)" />
      <stop offset="100%" stop-color="rgba(146, 162, 227, 0.56)" />
    </linearGradient>
    <linearGradient id="left-68" x1="0%" y1="0%" x2="0%" y2="100%">
      <stop offset="0%" stop-color="rgba(221, 233, 248, 0.7)" />
      <stop offset="100%" stop-color="rgba(146, 162, 227, 0.28)" />
    </linearGradient>
    <linearGradient id="right-68" x1="0%" y1="0%" x2="0%" y2="100%">
      <stop offset="0%" stop-color="rgba(246, 216, 191, 0.72)" />
      <stop offset="100%" stop-color="rgba(241, 178, 193, 0.24)" />
    </linearGradient>
  </defs>
  <rect width="960" height="640" fill="url(#bg-68)" />
  <rect x="24" y="24" width="912" height="592" rx="28" fill="none" stroke="rgba(146, 162, 227, 0.1)" stroke-width="1.4" />
  <polygon points="-76.3,339.8 295.8,339.8 355.0,436.0 -17.2,436.0" fill="rgba(221, 233, 248, 0.22)" stroke="rgba(146, 162, 227, 0.12)" stroke-width="1.2" />
  <polygon points="349.0,273.6 713.5,273.6 730.5,325.3 366.0,325.3" fill="rgba(246, 216, 191, 0.22)" stroke="rgba(146, 162, 227, 0.12)" stroke-width="1.2" />
  <polygon points="515.7,498.5 946.4,498.5 986.9,563.5 556.2,563.5" fill="rgba(221, 233, 248, 0.22)" stroke="rgba(146, 162, 227, 0.12)" stroke-width="1.2" />
  <polygon points="-60.0,480.8 228.4,480.8 340.3,569.8 51.9,569.8" fill="rgba(246, 216, 191, 0.22)" stroke="rgba(146, 162, 227, 0.12)" stroke-width="1.2" />
  <polygon points="216.4,215.9 723.5,215.9 829.2,308.4 322.1,308.4" fill="rgba(221, 233, 248, 0.22)" stroke="rgba(146, 162, 227, 0.12)" stroke-width="1.2" />
  <polyline points="267.1,247.7 475.4,231.4 503.4,269.3" fill="none" stroke="rgba(146, 162, 227, 0.24)" stroke-width="1.95" stroke-linecap="round" stroke-linejoin="round" />
  <polyline points="442.5,442.2 572.7,491.0 618.5,505.1" fill="none" stroke="rgba(241, 178, 193, 0.24)" stroke-width="1.95" stroke-linecap="round" stroke-linejoin="round" />
  <polyline points="645.1,225.8 802.2,275.8 860.2,306.6" fill="none" stroke="rgba(146, 162, 227, 0.24)" stroke-width="1.69" stroke-linecap="round" stroke-linejoin="round" />
  <polyline points="467.1,222.1 564.5,169.3 607.7,165.2" fill="none" stroke="rgba(241, 178, 193, 0.24)" stroke-width="2.28" stroke-linecap="round" stroke-linejoin="round" />
  <polyline points="276.0,177.2 479.6,167.2 551.4,156.9" fill="none" stroke="rgba(146, 162, 227, 0.24)" stroke-width="1.53" stroke-linecap="round" stroke-linejoin="round" />
  <polyline points="390.4,148.0 500.4,145.3 545.4,132.3" fill="none" stroke="rgba(241, 178, 193, 0.24)" stroke-width="1.98" stroke-linecap="round" stroke-linejoin="round" />
  <polygon points="393.9,522.6 526.9,522.6 558.6,554.9 425.6,554.9" fill="rgba(221, 233, 248, 0.3)" stroke="rgba(241, 178, 193, 0.16)" stroke-width="1.2" />
  <polygon points="199.4,118.5 333.4,118.5 366.1,162.4 232.1,162.4" fill="rgba(246, 216, 191, 0.3)" stroke="rgba(241, 178, 193, 0.16)" stroke-width="1.2" />
  <polygon points="651.5,406.8 792.6,406.8 824.5,459.1 683.4,459.1" fill="rgba(221, 233, 248, 0.3)" stroke="rgba(241, 178, 193, 0.16)" stroke-width="1.2" />
  <polygon points="361.8,392.8 437.7,392.8 438.9,429.3 362.9,429.3" fill="rgba(246, 216, 191, 0.3)" stroke="rgba(241, 178, 193, 0.16)" stroke-width="1.2" />
  <polygon points="408.0,114.2 532.8,173.7 408.0,231.0 283.2,173.7" fill="rgba(221, 233, 248, 0.52)" stroke="rgba(146, 162, 227, 0.28)" stroke-width="1.5" />
  <polygon points="283.2,173.7 408.0,231.0 408.0,381.6 283.2,324.3" fill="rgba(246, 216, 191, 0.34)" stroke="rgba(146, 162, 227, 0.26)" stroke-width="1.3" />
  <polygon points="408.0,231.0 532.8,173.7 532.8,324.3 408.0,381.6" fill="rgba(221, 233, 248, 0.34)" stroke="rgba(241, 178, 193, 0.24)" stroke-width="1.3" />
  <polygon points="188.0,368.6 568.0,368.6 658.0,436.6 278.0,436.6" fill="none" stroke="rgba(146, 162, 227, 0.16)" stroke-width="1.2" />
  <polygon points="228.0,418.6 548.0,418.6 470.0,470.6 150.0,470.6" fill="none" stroke="rgba(241, 178, 193, 0.14)" stroke-width="1.1" />
  <polygon points="887.6,129.4 907.3,149.0 887.6,168.7 868.0,149.0" fill="rgba(241, 178, 193, 0.18)" stroke="rgba(146, 162, 227, 0.2)" stroke-width="1.2" />
  <polygon points="455.6,143.1 476.3,163.8 455.6,184.4 435.0,163.8" fill="rgba(221, 233, 248, 0.18)" stroke="rgba(146, 162, 227, 0.2)" stroke-width="1.2" />
  <polygon points="220.7,345.4 231.5,356.2 220.7,367.0 209.9,356.2" fill="rgba(241, 178, 193, 0.18)" stroke="rgba(146, 162, 227, 0.2)" stroke-width="1.2" />
  <polygon points="801.0,452.6 811.6,463.2 801.0,473.7 790.5,463.2" fill="rgba(221, 233, 248, 0.18)" stroke="rgba(146, 162, 227, 0.2)" stroke-width="1.2" />
  <polygon points="447.6,547.7 458.5,558.6 447.6,569.4 436.8,558.6" fill="rgba(241, 178, 193, 0.18)" stroke="rgba(146, 162, 227, 0.2)" stroke-width="1.2" />
</svg>
