<?xml version="1.0" encoding="UTF-8"?>
<svg xmlns="http://www.w3.org/2000/svg" viewBox="0 0 960 640" role="img" aria-labelledby="title-89 desc-89">
  <title id="title-89">Abstract geometric post art 90</title>
  <desc id="desc-89">An iridescent prism composition built from planes, lattices, and reflective block faces.</desc>
  <defs>
    <linearGradient id="bg-89" x1="0%" y1="0%" x2="100%" y2="100%">
      <stop offset="0%" stop-color="#f6f0e7" />
      <stop offset="55%" stop-color="rgba(226, 241, 235, 0.96)" />
      <stop offset="100%" stop-color="rgba(247, 219, 197, 0.92)" />
    </linearGradient>
    <linearGradient id="top-89" x1="0%" y1="0%" x2="100%" y2="100%">
      <stop offset="0%" stop-color="rgba(226, 241, 235, 0.94)" />
      <stop offset="50%" stop-color="rgba(247, 219, 197, 0.7)" />
      <stop offset="100%" stop-color="rgba(139, 199, 184, 0.56)" />
    </linearGradient>
    <linearGradient id="left-89" x1="0%" y1="0%" x2="0%" y2="100%">
      <stop offset="0%" stop-color="rgba(226, 241, 235, 0.7)" />
      <stop offset="100%" stop-color="rgba(139, 199, 184, 0.28)" />
    </linearGradient>
    <linearGradient id="right-89" x1="0%" y1="0%" x2="0%" y2="100%">
      <stop offset="0%" stop-color="rgba(247, 219, 197, 0.72)" />
      <stop offset="100%" stop-color="rgba(243, 192, 154, 0.24)" />
    </linearGradient>
  </defs>
  <rect width="960" height="640" fill="url(#bg-89)" />
  <rect x="24" y="24" width="912" height="592" rx="28" fill="none" stroke="rgba(139, 199, 184, 0.1)" stroke-width="1.4" />
  <polygon points="461.4,380.1 969.3,380.1 881.0,441.2 373.0,441.2" fill="rgba(226, 241, 235, 0.22)" stroke="rgba(139, 199, 184, 0.12)" stroke-width="1.2" />
  <polygon points="212.0,441.9 593.8,441.9 678.7,534.2 296.8,534.2" fill="rgba(247, 219, 197, 0.22)" stroke="rgba(139, 199, 184, 0.12)" stroke-width="1.2" />
  <polygon points="-6.6,310.5 446.4,310.5 397.5,374.2 -55.6,374.2" fill="rgba(226, 241, 235, 0.22)" stroke="rgba(139, 199, 184, 0.12)" stroke-width="1.2" />
  <polygon points="312.6,481.6 714.1,481.6 615.7,541.6 214.2,541.6" fill="rgba(247, 219, 197, 0.22)" stroke="rgba(139, 199, 184, 0.12)" stroke-width="1.2" />
  <polygon points="357.7,391.5 649.7,391.5 608.6,473.4 316.6,473.4" fill="rgba(226, 241, 235, 0.22)" stroke="rgba(139, 199, 184, 0.12)" stroke-width="1.2" />
  <polyline points="155.1,256.2 358.6,280.2 390.8,292.3" fill="none" stroke="rgba(139, 199, 184, 0.24)" stroke-width="2.56" stroke-linecap="round" stroke-linejoin="round" />
  <polyline points="81.1,245.1 230.0,238.0 297.9,260.8" fill="none" stroke="rgba(243, 192, 154, 0.24)" stroke-width="2.01" stroke-linecap="round" stroke-linejoin="round" />
  <polyline points="489.3,161.4 663.3,218.0 698.7,218.1" fill="none" stroke="rgba(139, 199, 184, 0.24)" stroke-width="1.54" stroke-linecap="round" stroke-linejoin="round" />
  <polyline points="416.1,288.8 572.1,277.8 602.8,309.7" fill="none" stroke="rgba(243, 192, 154, 0.24)" stroke-width="1.87" stroke-linecap="round" stroke-linejoin="round" />
  <polyline points="734.8,459.0 832.9,440.1 884.9,439.4" fill="none" stroke="rgba(139, 199, 184, 0.24)" stroke-width="1.58" stroke-linecap="round" stroke-linejoin="round" />
  <polyline points="748.3,151.3 937.6,138.1 967.3,164.5" fill="none" stroke="rgba(243, 192, 154, 0.24)" stroke-width="1.48" stroke-linecap="round" stroke-linejoin="round" />
  <polygon points="332.5,484.9 414.2,484.9 365.3,532.9 283.6,532.9" fill="rgba(226, 241, 235, 0.3)" stroke="rgba(243, 192, 154, 0.16)" stroke-width="1.2" />
  <polygon points="309.2,362.0 456.1,362.0 496.5,394.0 349.5,394.0" fill="rgba(247, 219, 197, 0.3)" stroke="rgba(243, 192, 154, 0.16)" stroke-width="1.2" />
  <polygon points="629.2,264.2 710.2,264.2 693.1,294.5 612.1,294.5" fill="rgba(226, 241, 235, 0.3)" stroke="rgba(243, 192, 154, 0.16)" stroke-width="1.2" />
  <polygon points="383.0,429.7 465.9,429.7 449.4,482.6 366.5,482.6" fill="rgba(247, 219, 197, 0.3)" stroke="rgba(243, 192, 154, 0.16)" stroke-width="1.2" />
  <polygon points="504.8,122.0 625.6,179.5 504.8,235.0 384.0,179.5" fill="url(#top-89)" stroke="rgba(139, 199, 184, 0.26)" stroke-width="1.5" />
  <polygon points="384.0,179.5 504.8,235.0 504.8,385.8 384.0,330.3" fill="url(#left-89)" stroke="rgba(139, 199, 184, 0.22)" stroke-width="1.3" />
  <polygon points="504.8,235.0 625.6,179.5 625.6,330.3 504.8,385.8" fill="url(#right-89)" stroke="rgba(243, 192, 154, 0.22)" stroke-width="1.3" />
  <polygon points="344.8,219.3 388.8,263.3 344.8,307.3 300.8,263.3" fill="rgba(226, 241, 235, 0.16)" stroke="rgba(139, 199, 184, 0.18)" stroke-width="1.2" />
  <polygon points="684.8,185.3 722.8,223.3 684.8,261.3 646.8,223.3" fill="rgba(247, 219, 197, 0.16)" stroke="rgba(243, 192, 154, 0.18)" stroke-width="1.2" />
  <polygon points="378.6,70.7 394.7,86.8 378.6,102.8 362.5,86.8" fill="rgba(243, 192, 154, 0.18)" stroke="rgba(139, 199, 184, 0.2)" stroke-width="1.2" />
  <polygon points="752.9,475.4 772.9,495.4 752.9,515.5 732.8,495.4" fill="rgba(226, 241, 235, 0.18)" stroke="rgba(139, 199, 184, 0.2)" stroke-width="1.2" />
  <polygon points="348.1,143.3 362.6,157.8 348.1,172.2 333.6,157.8" fill="rgba(243, 192, 154, 0.18)" stroke="rgba(139, 199, 184, 0.2)" stroke-width="1.2" />
  <polygon points="246.2,188.8 265.6,208.3 246.2,227.7 226.7,208.3" fill="rgba(226, 241, 235, 0.18)" stroke="rgba(139, 199, 184, 0.2)" stroke-width="1.2" />
  <polygon points="323.2,135.8 335.0,147.5 323.2,159.3 311.5,147.5" fill="rgba(243, 192, 154, 0.18)" stroke="rgba(139, 199, 184, 0.2)" stroke-width="1.2" />
</svg>
