<?xml version="1.0" encoding="UTF-8"?>
<svg xmlns="http://www.w3.org/2000/svg" viewBox="0 0 960 640" role="img" aria-labelledby="title-81 desc-81">
  <title id="title-81">Abstract geometric post art 82</title>
  <desc id="desc-81">An iridescent prism composition built from planes, lattices, and reflective block faces.</desc>
  <defs>
    <linearGradient id="bg-81" x1="0%" y1="0%" x2="100%" y2="100%">
      <stop offset="0%" stop-color="#f6f0e7" />
      <stop offset="55%" stop-color="rgba(220, 239, 246, 0.96)" />
      <stop offset="100%" stop-color="rgba(240, 212, 177, 0.92)" />
    </linearGradient>
    <linearGradient id="top-81" x1="0%" y1="0%" x2="100%" y2="100%">
      <stop offset="0%" stop-color="rgba(220, 239, 246, 0.94)" />
      <stop offset="50%" stop-color="rgba(240, 212, 177, 0.7)" />
      <stop offset="100%" stop-color="rgba(143, 182, 220, 0.56)" />
    </linearGradient>
    <linearGradient id="left-81" x1="0%" y1="0%" x2="0%" y2="100%">
      <stop offset="0%" stop-color="rgba(220, 239, 246, 0.7)" />
      <stop offset="100%" stop-color="rgba(143, 182, 220, 0.28)" />
    </linearGradient>
    <linearGradient id="right-81" x1="0%" y1="0%" x2="0%" y2="100%">
      <stop offset="0%" stop-color="rgba(240, 212, 177, 0.72)" />
      <stop offset="100%" stop-color="rgba(247, 185, 172, 0.24)" />
    </linearGradient>
  </defs>
  <rect width="960" height="640" fill="url(#bg-81)" />
  <rect x="24" y="24" width="912" height="592" rx="28" fill="none" stroke="rgba(143, 182, 220, 0.1)" stroke-width="1.4" />
  <polygon points="449.8,459.2 706.7,459.2 765.2,529.8 508.3,529.8" fill="rgba(220, 239, 246, 0.22)" stroke="rgba(143, 182, 220, 0.12)" stroke-width="1.2" />
  <polygon points="424.3,362.3 878.6,362.3 878.7,415.8 424.4,415.8" fill="rgba(240, 212, 177, 0.22)" stroke="rgba(143, 182, 220, 0.12)" stroke-width="1.2" />
  <polygon points="469.6,239.3 737.9,239.3 691.3,313.2 422.9,313.2" fill="rgba(220, 239, 246, 0.22)" stroke="rgba(143, 182, 220, 0.12)" stroke-width="1.2" />
  <polyline points="258.2,307.7 444.7,380.8 472.7,368.6" fill="none" stroke="rgba(143, 182, 220, 0.24)" stroke-width="2.10" stroke-linecap="round" stroke-linejoin="round" />
  <polyline points="236.8,377.0 384.3,367.9 450.6,385.1" fill="none" stroke="rgba(247, 185, 172, 0.24)" stroke-width="1.81" stroke-linecap="round" stroke-linejoin="round" />
  <polyline points="286.4,324.5 426.2,298.9 488.4,318.6" fill="none" stroke="rgba(143, 182, 220, 0.24)" stroke-width="1.99" stroke-linecap="round" stroke-linejoin="round" />
  <polyline points="183.2,226.5 340.4,217.2 377.9,228.8" fill="none" stroke="rgba(247, 185, 172, 0.24)" stroke-width="2.32" stroke-linecap="round" stroke-linejoin="round" />
  <polyline points="313.1,89.6 431.1,108.6 486.4,97.5" fill="none" stroke="rgba(143, 182, 220, 0.24)" stroke-width="1.98" stroke-linecap="round" stroke-linejoin="round" />
  <polyline points="452.7,329.5 625.4,378.7 697.4,378.0" fill="none" stroke="rgba(247, 185, 172, 0.24)" stroke-width="1.87" stroke-linecap="round" stroke-linejoin="round" />
  <polygon points="506.9,186.6 602.5,186.6 577.1,233.8 481.5,233.8" fill="rgba(220, 239, 246, 0.3)" stroke="rgba(247, 185, 172, 0.16)" stroke-width="1.2" />
  <polygon points="210.5,162.1 306.2,162.1 278.8,220.0 183.1,220.0" fill="rgba(240, 212, 177, 0.3)" stroke="rgba(247, 185, 172, 0.16)" stroke-width="1.2" />
  <polygon points="508.7,223.6 640.8,223.6 664.1,258.2 532.0,258.2" fill="rgba(220, 239, 246, 0.3)" stroke="rgba(247, 185, 172, 0.16)" stroke-width="1.2" />
  <polygon points="340.8,431.9 476.5,431.9 462.7,462.3 327.0,462.3" fill="rgba(240, 212, 177, 0.3)" stroke="rgba(247, 185, 172, 0.16)" stroke-width="1.2" />
  <polygon points="467.9,109.3 561.2,153.7 467.9,196.6 374.7,153.7" fill="rgba(220, 239, 246, 0.52)" stroke="rgba(143, 182, 220, 0.34)" stroke-width="1.5" />
  <polygon points="374.7,153.7 467.9,196.6 467.9,368.0 374.7,325.2" fill="url(#left-81)" stroke="rgba(143, 182, 220, 0.28)" stroke-width="1.4" />
  <polygon points="467.9,196.6 561.2,153.7 561.2,325.2 467.9,368.0" fill="url(#right-81)" stroke="rgba(247, 185, 172, 0.28)" stroke-width="1.4" />
  <polygon points="287.9,299.8 607.9,299.8 679.9,373.8 359.9,373.8" fill="rgba(240, 212, 177, 0.2)" stroke="rgba(247, 185, 172, 0.18)" stroke-width="1.1" />
  <polygon points="347.9,11.8 607.9,11.8 541.9,69.8 281.9,69.8" fill="rgba(220, 239, 246, 0.2)" stroke="rgba(143, 182, 220, 0.18)" stroke-width="1.1" />
  <polygon points="606.1,179.3 618.0,191.1 606.1,203.0 594.2,191.1" fill="rgba(247, 185, 172, 0.18)" stroke="rgba(143, 182, 220, 0.2)" stroke-width="1.2" />
  <polygon points="447.7,178.9 459.5,190.8 447.7,202.6 435.9,190.8" fill="rgba(220, 239, 246, 0.18)" stroke="rgba(143, 182, 220, 0.2)" stroke-width="1.2" />
  <polygon points="640.9,321.8 657.4,338.2 640.9,354.6 624.5,338.2" fill="rgba(247, 185, 172, 0.18)" stroke="rgba(143, 182, 220, 0.2)" stroke-width="1.2" />
  <polygon points="365.3,486.4 381.2,502.2 365.3,518.1 349.4,502.2" fill="rgba(220, 239, 246, 0.18)" stroke="rgba(143, 182, 220, 0.2)" stroke-width="1.2" />
  <polygon points="785.6,330.9 806.6,351.9 785.6,372.9 764.6,351.9" fill="rgba(247, 185, 172, 0.18)" stroke="rgba(143, 182, 220, 0.2)" stroke-width="1.2" />
</svg>
