<?xml version="1.0" encoding="UTF-8"?>
<svg xmlns="http://www.w3.org/2000/svg" viewBox="0 0 960 640" role="img" aria-labelledby="title-91 desc-91">
  <title id="title-91">Abstract geometric post art 92</title>
  <desc id="desc-91">An iridescent prism composition built from planes, lattices, and reflective block faces.</desc>
  <defs>
    <linearGradient id="bg-91" x1="0%" y1="0%" x2="100%" y2="100%">
      <stop offset="0%" stop-color="#f6f0e7" />
      <stop offset="55%" stop-color="rgba(220, 239, 246, 0.96)" />
      <stop offset="100%" stop-color="rgba(240, 212, 177, 0.92)" />
    </linearGradient>
    <linearGradient id="top-91" x1="0%" y1="0%" x2="100%" y2="100%">
      <stop offset="0%" stop-color="rgba(220, 239, 246, 0.94)" />
      <stop offset="50%" stop-color="rgba(240, 212, 177, 0.7)" />
      <stop offset="100%" stop-color="rgba(143, 182, 220, 0.56)" />
    </linearGradient>
    <linearGradient id="left-91" x1="0%" y1="0%" x2="0%" y2="100%">
      <stop offset="0%" stop-color="rgba(220, 239, 246, 0.7)" />
      <stop offset="100%" stop-color="rgba(143, 182, 220, 0.28)" />
    </linearGradient>
    <linearGradient id="right-91" x1="0%" y1="0%" x2="0%" y2="100%">
      <stop offset="0%" stop-color="rgba(240, 212, 177, 0.72)" />
      <stop offset="100%" stop-color="rgba(247, 185, 172, 0.24)" />
    </linearGradient>
  </defs>
  <rect width="960" height="640" fill="url(#bg-91)" />
  <rect x="24" y="24" width="912" height="592" rx="28" fill="none" stroke="rgba(143, 182, 220, 0.1)" stroke-width="1.4" />
  <polygon points="-63.8,475.1 282.0,475.1 217.0,533.8 -128.8,533.8" fill="rgba(220, 239, 246, 0.22)" stroke="rgba(143, 182, 220, 0.12)" stroke-width="1.2" />
  <polygon points="-39.6,151.3 474.1,151.3 520.1,220.3 6.4,220.3" fill="rgba(240, 212, 177, 0.22)" stroke="rgba(143, 182, 220, 0.12)" stroke-width="1.2" />
  <polygon points="560.7,328.8 984.9,328.8 995.4,389.9 571.2,389.9" fill="rgba(220, 239, 246, 0.22)" stroke="rgba(143, 182, 220, 0.12)" stroke-width="1.2" />
  <polygon points="77.6,126.0 578.7,126.0 480.7,213.1 -20.3,213.1" fill="rgba(240, 212, 177, 0.22)" stroke="rgba(143, 182, 220, 0.12)" stroke-width="1.2" />
  <polyline points="257.3,202.3 423.2,197.8 449.2,182.5" fill="none" stroke="rgba(143, 182, 220, 0.24)" stroke-width="2.13" stroke-linecap="round" stroke-linejoin="round" />
  <polyline points="264.2,261.3 400.4,335.9 429.2,359.0" fill="none" stroke="rgba(247, 185, 172, 0.24)" stroke-width="2.41" stroke-linecap="round" stroke-linejoin="round" />
  <polyline points="550.4,439.5 742.4,400.4 802.2,437.0" fill="none" stroke="rgba(143, 182, 220, 0.24)" stroke-width="1.94" stroke-linecap="round" stroke-linejoin="round" />
  <polyline points="241.1,223.1 416.0,282.1 468.0,278.0" fill="none" stroke="rgba(247, 185, 172, 0.24)" stroke-width="1.43" stroke-linecap="round" stroke-linejoin="round" />
  <polyline points="348.3,334.1 532.2,354.2 595.5,337.4" fill="none" stroke="rgba(143, 182, 220, 0.24)" stroke-width="2.30" stroke-linecap="round" stroke-linejoin="round" />
  <polyline points="418.9,414.6 561.7,486.2 615.9,510.8" fill="none" stroke="rgba(247, 185, 172, 0.24)" stroke-width="1.54" stroke-linecap="round" stroke-linejoin="round" />
  <polygon points="347.4,458.1 492.5,458.1 534.4,491.1 389.3,491.1" fill="rgba(220, 239, 246, 0.3)" stroke="rgba(247, 185, 172, 0.16)" stroke-width="1.2" />
  <polygon points="120.5,230.5 229.6,230.5 217.7,290.9 108.5,290.9" fill="rgba(240, 212, 177, 0.3)" stroke="rgba(247, 185, 172, 0.16)" stroke-width="1.2" />
  <polygon points="301.4,226.2 451.2,226.2 450.1,285.6 300.3,285.6" fill="rgba(220, 239, 246, 0.3)" stroke="rgba(247, 185, 172, 0.16)" stroke-width="1.2" />
  <polygon points="580.4,237.1 717.2,237.1 729.6,266.4 592.8,266.4" fill="rgba(240, 212, 177, 0.3)" stroke="rgba(247, 185, 172, 0.16)" stroke-width="1.2" />
  <polygon points="514.0,113.0 615.5,161.3 514.0,207.9 412.6,161.3" fill="rgba(220, 239, 246, 0.52)" stroke="rgba(143, 182, 220, 0.34)" stroke-width="1.5" />
  <polygon points="412.6,161.3 514.0,207.9 514.0,353.5 412.6,306.9" fill="url(#left-91)" stroke="rgba(143, 182, 220, 0.28)" stroke-width="1.4" />
  <polygon points="514.0,207.9 615.5,161.3 615.5,306.9 514.0,353.5" fill="url(#right-91)" stroke="rgba(247, 185, 172, 0.28)" stroke-width="1.4" />
  <polygon points="334.0,309.7 654.0,309.7 726.0,383.7 406.0,383.7" fill="rgba(240, 212, 177, 0.2)" stroke="rgba(247, 185, 172, 0.18)" stroke-width="1.1" />
  <polygon points="394.0,21.7 654.0,21.7 588.0,79.7 328.0,79.7" fill="rgba(220, 239, 246, 0.2)" stroke="rgba(143, 182, 220, 0.18)" stroke-width="1.1" />
  <polygon points="798.7,415.8 814.4,431.5 798.7,447.2 783.0,431.5" fill="rgba(247, 185, 172, 0.18)" stroke="rgba(143, 182, 220, 0.2)" stroke-width="1.2" />
  <polygon points="244.7,330.9 255.2,341.4 244.7,351.9 234.2,341.4" fill="rgba(220, 239, 246, 0.18)" stroke="rgba(143, 182, 220, 0.2)" stroke-width="1.2" />
  <polygon points="325.9,93.0 342.0,109.0 325.9,125.1 309.9,109.0" fill="rgba(247, 185, 172, 0.18)" stroke="rgba(143, 182, 220, 0.2)" stroke-width="1.2" />
  <polygon points="876.4,225.4 888.2,237.2 876.4,249.0 864.6,237.2" fill="rgba(220, 239, 246, 0.18)" stroke="rgba(143, 182, 220, 0.2)" stroke-width="1.2" />
  <polygon points="613.1,386.4 629.3,402.6 613.1,418.9 596.8,402.6" fill="rgba(247, 185, 172, 0.18)" stroke="rgba(143, 182, 220, 0.2)" stroke-width="1.2" />
</svg>
