<?xml version="1.0" encoding="UTF-8"?>
<svg xmlns="http://www.w3.org/2000/svg" viewBox="0 0 960 640" role="img" aria-labelledby="title-25 desc-25">
  <title id="title-25">Abstract geometric post art 26</title>
  <desc id="desc-25">An iridescent prism composition built from planes, lattices, and reflective block faces.</desc>
  <defs>
    <linearGradient id="bg-25" x1="0%" y1="0%" x2="100%" y2="100%">
      <stop offset="0%" stop-color="#f6f0e7" />
      <stop offset="55%" stop-color="rgba(217, 242, 239, 0.96)" />
      <stop offset="100%" stop-color="rgba(246, 210, 180, 0.92)" />
    </linearGradient>
    <linearGradient id="top-25" x1="0%" y1="0%" x2="100%" y2="100%">
      <stop offset="0%" stop-color="rgba(217, 242, 239, 0.94)" />
      <stop offset="50%" stop-color="rgba(246, 210, 180, 0.7)" />
      <stop offset="100%" stop-color="rgba(143, 207, 208, 0.56)" />
    </linearGradient>
    <linearGradient id="left-25" x1="0%" y1="0%" x2="0%" y2="100%">
      <stop offset="0%" stop-color="rgba(217, 242, 239, 0.7)" />
      <stop offset="100%" stop-color="rgba(143, 207, 208, 0.28)" />
    </linearGradient>
    <linearGradient id="right-25" x1="0%" y1="0%" x2="0%" y2="100%">
      <stop offset="0%" stop-color="rgba(246, 210, 180, 0.72)" />
      <stop offset="100%" stop-color="rgba(255, 179, 157, 0.24)" />
    </linearGradient>
  </defs>
  <rect width="960" height="640" fill="url(#bg-25)" />
  <rect x="24" y="24" width="912" height="592" rx="28" fill="none" stroke="rgba(143, 207, 208, 0.1)" stroke-width="1.4" />
  <polygon points="-71.9,392.4 315.0,392.4 253.5,482.8 -133.4,482.8" fill="rgba(217, 242, 239, 0.22)" stroke="rgba(143, 207, 208, 0.12)" stroke-width="1.2" />
  <polygon points="33.6,204.7 381.2,204.7 464.3,308.5 116.6,308.5" fill="rgba(246, 210, 180, 0.22)" stroke="rgba(143, 207, 208, 0.12)" stroke-width="1.2" />
  <polygon points="-77.4,351.7 160.5,351.7 227.0,440.8 -10.8,440.8" fill="rgba(217, 242, 239, 0.22)" stroke="rgba(143, 207, 208, 0.12)" stroke-width="1.2" />
  <polygon points="32.0,268.1 510.9,268.1 430.7,360.7 -48.2,360.7" fill="rgba(246, 210, 180, 0.22)" stroke="rgba(143, 207, 208, 0.12)" stroke-width="1.2" />
  <polyline points="184.2,436.0 279.0,414.5 320.0,400.9" fill="none" stroke="rgba(143, 207, 208, 0.24)" stroke-width="1.49" stroke-linecap="round" stroke-linejoin="round" />
  <polyline points="545.7,438.7 650.6,433.5 703.4,433.7" fill="none" stroke="rgba(255, 179, 157, 0.24)" stroke-width="1.64" stroke-linecap="round" stroke-linejoin="round" />
  <polyline points="558.7,83.6 739.6,67.0 773.4,82.9" fill="none" stroke="rgba(143, 207, 208, 0.24)" stroke-width="1.90" stroke-linecap="round" stroke-linejoin="round" />
  <polyline points="292.0,436.8 396.5,404.2 458.7,428.4" fill="none" stroke="rgba(255, 179, 157, 0.24)" stroke-width="1.93" stroke-linecap="round" stroke-linejoin="round" />
  <polyline points="524.3,133.9 688.4,54.5 753.7,85.5" fill="none" stroke="rgba(143, 207, 208, 0.24)" stroke-width="1.96" stroke-linecap="round" stroke-linejoin="round" />
  <polyline points="244.8,439.2 346.6,416.3 407.8,400.3" fill="none" stroke="rgba(255, 179, 157, 0.24)" stroke-width="1.50" stroke-linecap="round" stroke-linejoin="round" />
  <polygon points="310.1,143.0 441.6,143.0 412.0,185.5 280.4,185.5" fill="rgba(217, 242, 239, 0.3)" stroke="rgba(255, 179, 157, 0.16)" stroke-width="1.2" />
  <polygon points="751.5,419.0 822.9,419.0 846.6,479.7 775.3,479.7" fill="rgba(246, 210, 180, 0.3)" stroke="rgba(255, 179, 157, 0.16)" stroke-width="1.2" />
  <polygon points="177.8,114.4 272.8,114.4 226.6,164.9 131.7,164.9" fill="rgba(217, 242, 239, 0.3)" stroke="rgba(255, 179, 157, 0.16)" stroke-width="1.2" />
  <polygon points="374.2,141.9 510.4,141.9 530.1,172.0 393.9,172.0" fill="rgba(246, 210, 180, 0.3)" stroke="rgba(255, 179, 157, 0.16)" stroke-width="1.2" />
  <polygon points="420.9,120.6 542.5,178.5 420.9,234.3 299.3,178.5" fill="url(#top-25)" stroke="rgba(143, 207, 208, 0.42)" stroke-width="1.6" />
  <polygon points="299.3,178.5 420.9,234.3 420.9,420.2 299.3,364.4" fill="rgba(217, 242, 239, 0.48)" stroke="rgba(143, 207, 208, 0.32)" stroke-width="1.4" />
  <polygon points="420.9,234.3 542.5,178.5 542.5,364.4 420.9,420.2" fill="rgba(246, 210, 180, 0.48)" stroke="rgba(255, 179, 157, 0.28)" stroke-width="1.4" />
  <polygon points="448.4,122.0 551.9,171.2 448.4,218.7 345.0,171.2" fill="none" stroke="rgba(143, 207, 208, 0.16)" stroke-width="1.3" />
  <polygon points="345.0,171.2 448.4,218.7 448.4,355.4 345.0,307.9" fill="none" stroke="rgba(143, 207, 208, 0.14)" stroke-width="1.2" />
  <polygon points="448.4,218.7 551.9,171.2 551.9,307.9 448.4,355.4" fill="none" stroke="rgba(255, 179, 157, 0.14)" stroke-width="1.2" />
  <polygon points="178.9,110.4 195.9,127.5 178.9,144.5 161.9,127.5" fill="rgba(255, 179, 157, 0.18)" stroke="rgba(143, 207, 208, 0.2)" stroke-width="1.2" />
  <polygon points="643.1,292.1 657.6,306.6 643.1,321.0 628.7,306.6" fill="rgba(217, 242, 239, 0.18)" stroke="rgba(143, 207, 208, 0.2)" stroke-width="1.2" />
  <polygon points="104.8,129.8 122.7,147.7 104.8,165.6 87.0,147.7" fill="rgba(255, 179, 157, 0.18)" stroke="rgba(143, 207, 208, 0.2)" stroke-width="1.2" />
  <polygon points="405.7,486.3 416.5,497.2 405.7,508.0 394.8,497.2" fill="rgba(217, 242, 239, 0.18)" stroke="rgba(143, 207, 208, 0.2)" stroke-width="1.2" />
  <polygon points="378.8,119.1 390.6,130.9 378.8,142.7 367.0,130.9" fill="rgba(255, 179, 157, 0.18)" stroke="rgba(143, 207, 208, 0.2)" stroke-width="1.2" />
</svg>
