<?xml version="1.0" encoding="UTF-8"?>
<svg xmlns="http://www.w3.org/2000/svg" viewBox="0 0 960 640" role="img" aria-labelledby="title-52 desc-52">
  <title id="title-52">Abstract geometric post art 53</title>
  <desc id="desc-52">An iridescent prism composition built from planes, lattices, and reflective block faces.</desc>
  <defs>
    <linearGradient id="bg-52" x1="0%" y1="0%" x2="100%" y2="100%">
      <stop offset="0%" stop-color="#f6f0e7" />
      <stop offset="55%" stop-color="rgba(215, 236, 232, 0.96)" />
      <stop offset="100%" stop-color="rgba(243, 221, 194, 0.92)" />
    </linearGradient>
    <linearGradient id="top-52" x1="0%" y1="0%" x2="100%" y2="100%">
      <stop offset="0%" stop-color="rgba(215, 236, 232, 0.94)" />
      <stop offset="50%" stop-color="rgba(243, 221, 194, 0.7)" />
      <stop offset="100%" stop-color="rgba(113, 182, 177, 0.56)" />
    </linearGradient>
    <linearGradient id="left-52" x1="0%" y1="0%" x2="0%" y2="100%">
      <stop offset="0%" stop-color="rgba(215, 236, 232, 0.7)" />
      <stop offset="100%" stop-color="rgba(113, 182, 177, 0.28)" />
    </linearGradient>
    <linearGradient id="right-52" x1="0%" y1="0%" x2="0%" y2="100%">
      <stop offset="0%" stop-color="rgba(243, 221, 194, 0.72)" />
      <stop offset="100%" stop-color="rgba(242, 176, 143, 0.24)" />
    </linearGradient>
  </defs>
  <rect width="960" height="640" fill="url(#bg-52)" />
  <rect x="24" y="24" width="912" height="592" rx="28" fill="none" stroke="rgba(113, 182, 177, 0.1)" stroke-width="1.4" />
  <polygon points="122.4,328.1 403.1,328.1 428.0,420.5 147.2,420.5" fill="rgba(215, 236, 232, 0.22)" stroke="rgba(113, 182, 177, 0.12)" stroke-width="1.2" />
  <polygon points="210.8,407.9 587.7,407.9 559.9,492.9 183.0,492.9" fill="rgba(243, 221, 194, 0.22)" stroke="rgba(113, 182, 177, 0.12)" stroke-width="1.2" />
  <polygon points="565.3,276.5 901.6,276.5 940.2,336.4 603.9,336.4" fill="rgba(215, 236, 232, 0.22)" stroke="rgba(113, 182, 177, 0.12)" stroke-width="1.2" />
  <polygon points="382.8,115.7 807.1,115.7 890.5,169.6 466.1,169.6" fill="rgba(243, 221, 194, 0.22)" stroke="rgba(113, 182, 177, 0.12)" stroke-width="1.2" />
  <polyline points="248.6,180.2 359.3,227.3 399.3,254.6" fill="none" stroke="rgba(113, 182, 177, 0.24)" stroke-width="2.34" stroke-linecap="round" stroke-linejoin="round" />
  <polyline points="665.1,350.7 758.4,274.8 820.7,271.9" fill="none" stroke="rgba(242, 176, 143, 0.24)" stroke-width="2.00" stroke-linecap="round" stroke-linejoin="round" />
  <polyline points="218.0,224.9 348.6,276.7 396.5,277.3" fill="none" stroke="rgba(113, 182, 177, 0.24)" stroke-width="1.56" stroke-linecap="round" stroke-linejoin="round" />
  <polyline points="611.9,299.1 744.6,338.6 794.7,348.5" fill="none" stroke="rgba(242, 176, 143, 0.24)" stroke-width="2.46" stroke-linecap="round" stroke-linejoin="round" />
  <polyline points="219.1,270.3 342.0,289.1 396.8,315.1" fill="none" stroke="rgba(113, 182, 177, 0.24)" stroke-width="1.87" stroke-linecap="round" stroke-linejoin="round" />
  <polyline points="707.7,361.2 863.8,379.6 900.4,405.0" fill="none" stroke="rgba(242, 176, 143, 0.24)" stroke-width="2.00" stroke-linecap="round" stroke-linejoin="round" />
  <polygon points="190.7,271.9 330.8,271.9 288.4,334.1 148.2,334.1" fill="rgba(215, 236, 232, 0.3)" stroke="rgba(242, 176, 143, 0.16)" stroke-width="1.2" />
  <polygon points="289.5,336.2 382.2,336.2 366.9,365.6 274.1,365.6" fill="rgba(243, 221, 194, 0.3)" stroke="rgba(242, 176, 143, 0.16)" stroke-width="1.2" />
  <polygon points="695.8,216.3 783.9,216.3 760.1,250.5 672.1,250.5" fill="rgba(215, 236, 232, 0.3)" stroke="rgba(242, 176, 143, 0.16)" stroke-width="1.2" />
  <polygon points="421.6,292.0 562.2,292.0 606.9,327.5 466.4,327.5" fill="rgba(243, 221, 194, 0.3)" stroke="rgba(242, 176, 143, 0.16)" stroke-width="1.2" />
  <polygon points="545.4,198.8 643.3,245.4 545.4,290.3 447.5,245.4" fill="url(#top-52)" stroke="rgba(113, 182, 177, 0.28)" stroke-width="1.5" />
  <polygon points="447.5,245.4 545.4,290.3 545.4,468.0 447.5,423.0" fill="rgba(215, 236, 232, 0.4)" stroke="rgba(113, 182, 177, 0.26)" stroke-width="1.3" />
  <polygon points="545.4,290.3 643.3,245.4 643.3,423.0 545.4,468.0" fill="rgba(243, 221, 194, 0.44)" stroke="rgba(242, 176, 143, 0.26)" stroke-width="1.3" />
  <polygon points="545.4,186.8 665.4,306.8 545.4,426.8 425.4,306.8" fill="none" stroke="rgba(113, 182, 177, 0.16)" stroke-width="1.2" />
  <polygon points="545.4,142.8 709.4,306.8 545.4,470.8 381.4,306.8" fill="none" stroke="rgba(242, 176, 143, 0.12)" stroke-width="1.1" />
  <polygon points="254.9,194.6 266.4,206.0 254.9,217.5 243.5,206.0" fill="rgba(242, 176, 143, 0.18)" stroke="rgba(113, 182, 177, 0.2)" stroke-width="1.2" />
  <polygon points="279.0,404.7 291.1,416.9 279.0,429.0 266.8,416.9" fill="rgba(215, 236, 232, 0.18)" stroke="rgba(113, 182, 177, 0.2)" stroke-width="1.2" />
  <polygon points="462.7,318.1 484.0,339.3 462.7,360.6 441.5,339.3" fill="rgba(242, 176, 143, 0.18)" stroke="rgba(113, 182, 177, 0.2)" stroke-width="1.2" />
  <polygon points="361.8,127.7 382.6,148.5 361.8,169.3 341.0,148.5" fill="rgba(215, 236, 232, 0.18)" stroke="rgba(113, 182, 177, 0.2)" stroke-width="1.2" />
  <polygon points="222.6,56.2 238.3,71.9 222.6,87.7 206.9,71.9" fill="rgba(242, 176, 143, 0.18)" stroke="rgba(113, 182, 177, 0.2)" stroke-width="1.2" />
</svg>
