<?xml version="1.0" encoding="UTF-8"?>
<svg xmlns="http://www.w3.org/2000/svg" viewBox="0 0 960 640" role="img" aria-labelledby="title-30 desc-30">
  <title id="title-30">Abstract geometric post art 31</title>
  <desc id="desc-30">An iridescent prism composition built from planes, lattices, and reflective block faces.</desc>
  <defs>
    <linearGradient id="bg-30" x1="0%" y1="0%" x2="100%" y2="100%">
      <stop offset="0%" stop-color="#f6f0e7" />
      <stop offset="55%" stop-color="rgba(217, 242, 239, 0.96)" />
      <stop offset="100%" stop-color="rgba(246, 210, 180, 0.92)" />
    </linearGradient>
    <linearGradient id="top-30" x1="0%" y1="0%" x2="100%" y2="100%">
      <stop offset="0%" stop-color="rgba(217, 242, 239, 0.94)" />
      <stop offset="50%" stop-color="rgba(246, 210, 180, 0.7)" />
      <stop offset="100%" stop-color="rgba(143, 207, 208, 0.56)" />
    </linearGradient>
    <linearGradient id="left-30" x1="0%" y1="0%" x2="0%" y2="100%">
      <stop offset="0%" stop-color="rgba(217, 242, 239, 0.7)" />
      <stop offset="100%" stop-color="rgba(143, 207, 208, 0.28)" />
    </linearGradient>
    <linearGradient id="right-30" x1="0%" y1="0%" x2="0%" y2="100%">
      <stop offset="0%" stop-color="rgba(246, 210, 180, 0.72)" />
      <stop offset="100%" stop-color="rgba(255, 179, 157, 0.24)" />
    </linearGradient>
  </defs>
  <rect width="960" height="640" fill="url(#bg-30)" />
  <rect x="24" y="24" width="912" height="592" rx="28" fill="none" stroke="rgba(143, 207, 208, 0.1)" stroke-width="1.4" />
  <polygon points="50.3,424.5 481.7,424.5 478.4,475.9 47.0,475.9" fill="rgba(217, 242, 239, 0.22)" stroke="rgba(143, 207, 208, 0.12)" stroke-width="1.2" />
  <polygon points="473.5,117.7 850.8,117.7 956.9,163.1 579.5,163.1" fill="rgba(246, 210, 180, 0.22)" stroke="rgba(143, 207, 208, 0.12)" stroke-width="1.2" />
  <polygon points="14.0,396.2 479.8,396.2 454.9,478.9 -10.9,478.9" fill="rgba(217, 242, 239, 0.22)" stroke="rgba(143, 207, 208, 0.12)" stroke-width="1.2" />
  <polyline points="541.3,369.9 681.7,377.8 713.9,405.2" fill="none" stroke="rgba(143, 207, 208, 0.24)" stroke-width="1.77" stroke-linecap="round" stroke-linejoin="round" />
  <polyline points="569.2,160.1 675.4,140.2 720.6,155.1" fill="none" stroke="rgba(255, 179, 157, 0.24)" stroke-width="2.01" stroke-linecap="round" stroke-linejoin="round" />
  <polyline points="177.5,129.0 320.4,125.2 355.0,152.7" fill="none" stroke="rgba(143, 207, 208, 0.24)" stroke-width="1.68" stroke-linecap="round" stroke-linejoin="round" />
  <polyline points="137.6,395.9 263.2,443.6 335.2,468.0" fill="none" stroke="rgba(255, 179, 157, 0.24)" stroke-width="2.29" stroke-linecap="round" stroke-linejoin="round" />
  <polyline points="271.4,352.7 477.7,354.3 507.8,355.2" fill="none" stroke="rgba(143, 207, 208, 0.24)" stroke-width="2.28" stroke-linecap="round" stroke-linejoin="round" />
  <polyline points="224.5,455.5 365.5,523.4 405.7,527.6" fill="none" stroke="rgba(255, 179, 157, 0.24)" stroke-width="1.63" stroke-linecap="round" stroke-linejoin="round" />
  <polygon points="498.2,346.8 587.5,346.8 622.7,384.0 533.4,384.0" fill="rgba(217, 242, 239, 0.3)" stroke="rgba(255, 179, 157, 0.16)" stroke-width="1.2" />
  <polygon points="408.6,511.3 484.8,511.3 489.9,541.3 413.6,541.3" fill="rgba(246, 210, 180, 0.3)" stroke="rgba(255, 179, 157, 0.16)" stroke-width="1.2" />
  <polygon points="493.3,229.2 633.1,229.2 639.2,266.8 499.4,266.8" fill="rgba(217, 242, 239, 0.3)" stroke="rgba(255, 179, 157, 0.16)" stroke-width="1.2" />
  <polygon points="156.2,458.3 298.2,458.3 313.4,487.3 171.4,487.3" fill="rgba(246, 210, 180, 0.3)" stroke="rgba(255, 179, 157, 0.16)" stroke-width="1.2" />
  <polygon points="444.0,212.9 534.7,256.1 444.0,297.7 353.3,256.1" fill="url(#top-30)" stroke="rgba(143, 207, 208, 0.42)" stroke-width="1.6" />
  <polygon points="353.3,256.1 444.0,297.7 444.0,430.7 353.3,389.0" fill="rgba(217, 242, 239, 0.48)" stroke="rgba(143, 207, 208, 0.32)" stroke-width="1.4" />
  <polygon points="444.0,297.7 534.7,256.1 534.7,389.0 444.0,430.7" fill="rgba(246, 210, 180, 0.48)" stroke="rgba(255, 179, 157, 0.28)" stroke-width="1.4" />
  <polygon points="469.8,190.8 574.3,240.6 469.8,288.6 365.3,240.6" fill="none" stroke="rgba(143, 207, 208, 0.16)" stroke-width="1.3" />
  <polygon points="365.3,240.6 469.8,288.6 469.8,452.8 365.3,404.8" fill="none" stroke="rgba(143, 207, 208, 0.14)" stroke-width="1.2" />
  <polygon points="469.8,288.6 574.3,240.6 574.3,404.8 469.8,452.8" fill="none" stroke="rgba(255, 179, 157, 0.14)" stroke-width="1.2" />
  <polygon points="72.8,541.9 85.6,554.8 72.8,567.7 59.9,554.8" fill="rgba(255, 179, 157, 0.18)" stroke="rgba(143, 207, 208, 0.2)" stroke-width="1.2" />
  <polygon points="408.1,151.8 427.8,171.6 408.1,191.3 388.3,171.6" fill="rgba(217, 242, 239, 0.18)" stroke="rgba(143, 207, 208, 0.2)" stroke-width="1.2" />
  <polygon points="585.2,111.6 604.9,131.3 585.2,151.1 565.5,131.3" fill="rgba(255, 179, 157, 0.18)" stroke="rgba(143, 207, 208, 0.2)" stroke-width="1.2" />
  <polygon points="122.8,547.7 133.6,558.4 122.8,569.1 112.1,558.4" fill="rgba(217, 242, 239, 0.18)" stroke="rgba(143, 207, 208, 0.2)" stroke-width="1.2" />
  <polygon points="691.6,489.2 704.4,502.0 691.6,514.9 678.7,502.0" fill="rgba(255, 179, 157, 0.18)" stroke="rgba(143, 207, 208, 0.2)" stroke-width="1.2" />
</svg>
