<?xml version="1.0" encoding="UTF-8"?>
<svg xmlns="http://www.w3.org/2000/svg" viewBox="0 0 960 640" role="img" aria-labelledby="title-38 desc-38">
  <title id="title-38">Abstract geometric post art 39</title>
  <desc id="desc-38">An iridescent prism composition built from planes, lattices, and reflective block faces.</desc>
  <defs>
    <linearGradient id="bg-38" x1="0%" y1="0%" x2="100%" y2="100%">
      <stop offset="0%" stop-color="#f6f0e7" />
      <stop offset="55%" stop-color="rgba(221, 233, 248, 0.96)" />
      <stop offset="100%" stop-color="rgba(246, 216, 191, 0.92)" />
    </linearGradient>
    <linearGradient id="top-38" x1="0%" y1="0%" x2="100%" y2="100%">
      <stop offset="0%" stop-color="rgba(221, 233, 248, 0.94)" />
      <stop offset="50%" stop-color="rgba(246, 216, 191, 0.7)" />
      <stop offset="100%" stop-color="rgba(146, 162, 227, 0.56)" />
    </linearGradient>
    <linearGradient id="left-38" x1="0%" y1="0%" x2="0%" y2="100%">
      <stop offset="0%" stop-color="rgba(221, 233, 248, 0.7)" />
      <stop offset="100%" stop-color="rgba(146, 162, 227, 0.28)" />
    </linearGradient>
    <linearGradient id="right-38" x1="0%" y1="0%" x2="0%" y2="100%">
      <stop offset="0%" stop-color="rgba(246, 216, 191, 0.72)" />
      <stop offset="100%" stop-color="rgba(241, 178, 193, 0.24)" />
    </linearGradient>
  </defs>
  <rect width="960" height="640" fill="url(#bg-38)" />
  <rect x="24" y="24" width="912" height="592" rx="28" fill="none" stroke="rgba(146, 162, 227, 0.1)" stroke-width="1.4" />
  <polygon points="354.4,405.2 681.4,405.2 695.3,491.6 368.2,491.6" fill="rgba(221, 233, 248, 0.22)" stroke="rgba(146, 162, 227, 0.12)" stroke-width="1.2" />
  <polygon points="676.4,252.6 897.5,252.6 786.0,347.5 564.8,347.5" fill="rgba(246, 216, 191, 0.22)" stroke="rgba(146, 162, 227, 0.12)" stroke-width="1.2" />
  <polygon points="304.4,534.2 817.4,534.2 913.5,586.5 400.5,586.5" fill="rgba(221, 233, 248, 0.22)" stroke="rgba(146, 162, 227, 0.12)" stroke-width="1.2" />
  <polygon points="-22.3,296.3 337.6,296.3 392.8,342.2 32.8,342.2" fill="rgba(246, 216, 191, 0.22)" stroke="rgba(146, 162, 227, 0.12)" stroke-width="1.2" />
  <polygon points="535.3,503.4 936.4,503.4 921.6,583.2 520.5,583.2" fill="rgba(221, 233, 248, 0.22)" stroke="rgba(146, 162, 227, 0.12)" stroke-width="1.2" />
  <polyline points="167.0,183.0 269.5,239.6 302.4,256.5" fill="none" stroke="rgba(146, 162, 227, 0.24)" stroke-width="1.73" stroke-linecap="round" stroke-linejoin="round" />
  <polyline points="494.7,250.6 622.7,242.3 654.2,265.5" fill="none" stroke="rgba(241, 178, 193, 0.24)" stroke-width="2.33" stroke-linecap="round" stroke-linejoin="round" />
  <polyline points="115.2,126.9 275.6,184.9 322.3,182.0" fill="none" stroke="rgba(146, 162, 227, 0.24)" stroke-width="1.78" stroke-linecap="round" stroke-linejoin="round" />
  <polyline points="117.1,411.0 235.4,342.0 297.4,371.8" fill="none" stroke="rgba(241, 178, 193, 0.24)" stroke-width="2.57" stroke-linecap="round" stroke-linejoin="round" />
  <polyline points="211.6,182.8 346.5,189.3 416.7,216.9" fill="none" stroke="rgba(146, 162, 227, 0.24)" stroke-width="2.47" stroke-linecap="round" stroke-linejoin="round" />
  <polyline points="536.4,365.7 713.4,355.9 771.5,372.4" fill="none" stroke="rgba(241, 178, 193, 0.24)" stroke-width="1.61" stroke-linecap="round" stroke-linejoin="round" />
  <polygon points="594.7,321.3 674.6,321.3 649.3,360.3 569.3,360.3" fill="rgba(221, 233, 248, 0.3)" stroke="rgba(241, 178, 193, 0.16)" stroke-width="1.2" />
  <polygon points="521.6,183.5 646.5,183.5 634.9,235.4 510.0,235.4" fill="rgba(246, 216, 191, 0.3)" stroke="rgba(241, 178, 193, 0.16)" stroke-width="1.2" />
  <polygon points="189.8,135.3 305.7,135.3 282.7,189.1 166.8,189.1" fill="rgba(221, 233, 248, 0.3)" stroke="rgba(241, 178, 193, 0.16)" stroke-width="1.2" />
  <polygon points="322.8,298.2 450.8,298.2 412.4,344.3 284.4,344.3" fill="rgba(246, 216, 191, 0.3)" stroke="rgba(241, 178, 193, 0.16)" stroke-width="1.2" />
  <polygon points="480.9,93.4 602.5,151.3 480.9,207.2 359.2,151.3" fill="rgba(221, 233, 248, 0.52)" stroke="rgba(146, 162, 227, 0.28)" stroke-width="1.5" />
  <polygon points="359.2,151.3 480.9,207.2 480.9,406.7 359.2,350.8" fill="rgba(221, 233, 248, 0.34)" stroke="rgba(146, 162, 227, 0.26)" stroke-width="1.3" />
  <polygon points="480.9,207.2 602.5,151.3 602.5,350.8 480.9,406.7" fill="rgba(221, 233, 248, 0.34)" stroke="rgba(241, 178, 193, 0.24)" stroke-width="1.3" />
  <polygon points="260.9,345.4 640.9,345.4 730.9,413.4 350.9,413.4" fill="none" stroke="rgba(146, 162, 227, 0.16)" stroke-width="1.2" />
  <polygon points="300.9,395.4 620.9,395.4 542.9,447.4 222.9,447.4" fill="none" stroke="rgba(241, 178, 193, 0.14)" stroke-width="1.1" />
  <polygon points="75.3,91.8 92.7,109.2 75.3,126.6 57.9,109.2" fill="rgba(241, 178, 193, 0.18)" stroke="rgba(146, 162, 227, 0.2)" stroke-width="1.2" />
  <polygon points="602.0,383.2 617.2,398.4 602.0,413.6 586.8,398.4" fill="rgba(221, 233, 248, 0.18)" stroke="rgba(146, 162, 227, 0.2)" stroke-width="1.2" />
  <polygon points="851.0,200.8 863.6,213.3 851.0,225.8 838.5,213.3" fill="rgba(241, 178, 193, 0.18)" stroke="rgba(146, 162, 227, 0.2)" stroke-width="1.2" />
  <polygon points="550.4,537.5 570.5,557.6 550.4,577.7 530.3,557.6" fill="rgba(221, 233, 248, 0.18)" stroke="rgba(146, 162, 227, 0.2)" stroke-width="1.2" />
  <polygon points="861.2,543.5 876.3,558.6 861.2,573.6 846.1,558.6" fill="rgba(241, 178, 193, 0.18)" stroke="rgba(146, 162, 227, 0.2)" stroke-width="1.2" />
</svg>
