<?xml version="1.0" encoding="UTF-8"?>
<svg xmlns="http://www.w3.org/2000/svg" viewBox="0 0 960 640" role="img" aria-labelledby="title-20 desc-20">
  <title id="title-20">Abstract geometric post art 21</title>
  <desc id="desc-20">An iridescent prism composition built from planes, lattices, and reflective block faces.</desc>
  <defs>
    <linearGradient id="bg-20" x1="0%" y1="0%" x2="100%" y2="100%">
      <stop offset="0%" stop-color="#f6f0e7" />
      <stop offset="55%" stop-color="rgba(217, 242, 239, 0.96)" />
      <stop offset="100%" stop-color="rgba(246, 210, 180, 0.92)" />
    </linearGradient>
    <linearGradient id="top-20" x1="0%" y1="0%" x2="100%" y2="100%">
      <stop offset="0%" stop-color="rgba(217, 242, 239, 0.94)" />
      <stop offset="50%" stop-color="rgba(246, 210, 180, 0.7)" />
      <stop offset="100%" stop-color="rgba(143, 207, 208, 0.56)" />
    </linearGradient>
    <linearGradient id="left-20" x1="0%" y1="0%" x2="0%" y2="100%">
      <stop offset="0%" stop-color="rgba(217, 242, 239, 0.7)" />
      <stop offset="100%" stop-color="rgba(143, 207, 208, 0.28)" />
    </linearGradient>
    <linearGradient id="right-20" x1="0%" y1="0%" x2="0%" y2="100%">
      <stop offset="0%" stop-color="rgba(246, 210, 180, 0.72)" />
      <stop offset="100%" stop-color="rgba(255, 179, 157, 0.24)" />
    </linearGradient>
  </defs>
  <rect width="960" height="640" fill="url(#bg-20)" />
  <rect x="24" y="24" width="912" height="592" rx="28" fill="none" stroke="rgba(143, 207, 208, 0.1)" stroke-width="1.4" />
  <polygon points="526.6,409.9 869.1,409.9 749.3,473.3 406.8,473.3" fill="rgba(217, 242, 239, 0.22)" stroke="rgba(143, 207, 208, 0.12)" stroke-width="1.2" />
  <polygon points="318.1,301.8 636.1,301.8 696.2,397.9 378.2,397.9" fill="rgba(246, 210, 180, 0.22)" stroke="rgba(143, 207, 208, 0.12)" stroke-width="1.2" />
  <polygon points="577.0,308.4 886.9,308.4 804.9,403.9 495.0,403.9" fill="rgba(217, 242, 239, 0.22)" stroke="rgba(143, 207, 208, 0.12)" stroke-width="1.2" />
  <polygon points="729.6,231.9 959.5,231.9 878.2,322.6 648.3,322.6" fill="rgba(246, 210, 180, 0.22)" stroke="rgba(143, 207, 208, 0.12)" stroke-width="1.2" />
  <polygon points="157.8,298.3 551.6,298.3 568.9,379.7 175.1,379.7" fill="rgba(217, 242, 239, 0.22)" stroke="rgba(143, 207, 208, 0.12)" stroke-width="1.2" />
  <polyline points="595.6,351.1 787.6,331.5 816.0,361.9" fill="none" stroke="rgba(143, 207, 208, 0.24)" stroke-width="2.31" stroke-linecap="round" stroke-linejoin="round" />
  <polyline points="159.4,145.3 331.0,190.6 374.9,230.3" fill="none" stroke="rgba(255, 179, 157, 0.24)" stroke-width="1.54" stroke-linecap="round" stroke-linejoin="round" />
  <polyline points="294.1,396.5 497.7,337.8 567.1,372.2" fill="none" stroke="rgba(143, 207, 208, 0.24)" stroke-width="2.14" stroke-linecap="round" stroke-linejoin="round" />
  <polyline points="680.1,366.3 772.7,374.1 797.0,357.2" fill="none" stroke="rgba(255, 179, 157, 0.24)" stroke-width="1.75" stroke-linecap="round" stroke-linejoin="round" />
  <polyline points="554.0,303.6 661.3,335.5 731.3,360.0" fill="none" stroke="rgba(143, 207, 208, 0.24)" stroke-width="2.10" stroke-linecap="round" stroke-linejoin="round" />
  <polyline points="243.6,366.4 450.1,359.3 503.0,378.4" fill="none" stroke="rgba(255, 179, 157, 0.24)" stroke-width="1.80" stroke-linecap="round" stroke-linejoin="round" />
  <polygon points="313.6,210.6 396.4,210.6 437.8,258.3 354.9,258.3" fill="rgba(217, 242, 239, 0.3)" stroke="rgba(255, 179, 157, 0.16)" stroke-width="1.2" />
  <polygon points="192.4,212.0 320.4,212.0 322.9,248.1 195.0,248.1" fill="rgba(246, 210, 180, 0.3)" stroke="rgba(255, 179, 157, 0.16)" stroke-width="1.2" />
  <polygon points="695.7,428.4 812.3,428.4 758.3,461.1 641.6,461.1" fill="rgba(217, 242, 239, 0.3)" stroke="rgba(255, 179, 157, 0.16)" stroke-width="1.2" />
  <polygon points="716.8,486.0 790.0,486.0 834.6,524.5 761.3,524.5" fill="rgba(246, 210, 180, 0.3)" stroke="rgba(255, 179, 157, 0.16)" stroke-width="1.2" />
  <polygon points="397.9,182.8 515.4,238.7 397.9,292.7 280.3,238.7" fill="url(#top-20)" stroke="rgba(143, 207, 208, 0.42)" stroke-width="1.6" />
  <polygon points="280.3,238.7 397.9,292.7 397.9,451.4 280.3,397.5" fill="rgba(217, 242, 239, 0.48)" stroke="rgba(143, 207, 208, 0.32)" stroke-width="1.4" />
  <polygon points="397.9,292.7 515.4,238.7 515.4,397.5 397.9,451.4" fill="rgba(246, 210, 180, 0.48)" stroke="rgba(255, 179, 157, 0.28)" stroke-width="1.4" />
  <polygon points="430.5,183.9 527.1,229.9 430.5,274.2 333.9,229.9" fill="none" stroke="rgba(143, 207, 208, 0.16)" stroke-width="1.3" />
  <polygon points="333.9,229.9 430.5,274.2 430.5,378.0 333.9,333.6" fill="none" stroke="rgba(143, 207, 208, 0.14)" stroke-width="1.2" />
  <polygon points="430.5,274.2 527.1,229.9 527.1,333.6 430.5,378.0" fill="none" stroke="rgba(255, 179, 157, 0.14)" stroke-width="1.2" />
  <polygon points="346.3,472.5 366.9,493.1 346.3,513.6 325.7,493.1" fill="rgba(255, 179, 157, 0.18)" stroke="rgba(143, 207, 208, 0.2)" stroke-width="1.2" />
  <polygon points="297.9,342.3 314.5,358.9 297.9,375.5 281.2,358.9" fill="rgba(217, 242, 239, 0.18)" stroke="rgba(143, 207, 208, 0.2)" stroke-width="1.2" />
  <polygon points="644.2,134.4 659.6,149.9 644.2,165.3 628.8,149.9" fill="rgba(255, 179, 157, 0.18)" stroke="rgba(143, 207, 208, 0.2)" stroke-width="1.2" />
  <polygon points="448.0,429.6 463.1,444.7 448.0,459.8 432.9,444.7" fill="rgba(217, 242, 239, 0.18)" stroke="rgba(143, 207, 208, 0.2)" stroke-width="1.2" />
  <polygon points="308.0,515.5 320.3,527.9 308.0,540.3 295.6,527.9" fill="rgba(255, 179, 157, 0.18)" stroke="rgba(143, 207, 208, 0.2)" stroke-width="1.2" />
</svg>
