<?xml version="1.0" encoding="UTF-8"?>
<svg xmlns="http://www.w3.org/2000/svg" viewBox="0 0 960 640" role="img" aria-labelledby="title-24 desc-24">
  <title id="title-24">Abstract geometric post art 25</title>
  <desc id="desc-24">An iridescent prism composition built from planes, lattices, and reflective block faces.</desc>
  <defs>
    <linearGradient id="bg-24" x1="0%" y1="0%" x2="100%" y2="100%">
      <stop offset="0%" stop-color="#f6f0e7" />
      <stop offset="55%" stop-color="rgba(226, 241, 235, 0.96)" />
      <stop offset="100%" stop-color="rgba(247, 219, 197, 0.92)" />
    </linearGradient>
    <linearGradient id="top-24" x1="0%" y1="0%" x2="100%" y2="100%">
      <stop offset="0%" stop-color="rgba(226, 241, 235, 0.94)" />
      <stop offset="50%" stop-color="rgba(247, 219, 197, 0.7)" />
      <stop offset="100%" stop-color="rgba(139, 199, 184, 0.56)" />
    </linearGradient>
    <linearGradient id="left-24" x1="0%" y1="0%" x2="0%" y2="100%">
      <stop offset="0%" stop-color="rgba(226, 241, 235, 0.7)" />
      <stop offset="100%" stop-color="rgba(139, 199, 184, 0.28)" />
    </linearGradient>
    <linearGradient id="right-24" x1="0%" y1="0%" x2="0%" y2="100%">
      <stop offset="0%" stop-color="rgba(247, 219, 197, 0.72)" />
      <stop offset="100%" stop-color="rgba(243, 192, 154, 0.24)" />
    </linearGradient>
  </defs>
  <rect width="960" height="640" fill="url(#bg-24)" />
  <rect x="24" y="24" width="912" height="592" rx="28" fill="none" stroke="rgba(139, 199, 184, 0.1)" stroke-width="1.4" />
  <polygon points="662.0,138.9 980.1,138.9 906.9,197.5 588.9,197.5" fill="rgba(226, 241, 235, 0.22)" stroke="rgba(139, 199, 184, 0.12)" stroke-width="1.2" />
  <polygon points="581.4,149.2 863.1,149.2 845.6,198.6 563.9,198.6" fill="rgba(247, 219, 197, 0.22)" stroke="rgba(139, 199, 184, 0.12)" stroke-width="1.2" />
  <polygon points="394.4,342.9 646.7,342.9 683.5,433.3 431.2,433.3" fill="rgba(226, 241, 235, 0.22)" stroke="rgba(139, 199, 184, 0.12)" stroke-width="1.2" />
  <polyline points="544.0,281.6 674.7,336.9 706.6,358.0" fill="none" stroke="rgba(139, 199, 184, 0.24)" stroke-width="1.48" stroke-linecap="round" stroke-linejoin="round" />
  <polyline points="411.1,458.7 620.7,477.0 645.0,490.8" fill="none" stroke="rgba(243, 192, 154, 0.24)" stroke-width="1.44" stroke-linecap="round" stroke-linejoin="round" />
  <polyline points="422.1,359.4 515.8,354.5 587.4,343.2" fill="none" stroke="rgba(139, 199, 184, 0.24)" stroke-width="2.32" stroke-linecap="round" stroke-linejoin="round" />
  <polyline points="266.6,121.7 427.0,188.4 465.4,173.4" fill="none" stroke="rgba(243, 192, 154, 0.24)" stroke-width="1.61" stroke-linecap="round" stroke-linejoin="round" />
  <polyline points="672.4,84.3 829.6,59.1 887.3,85.4" fill="none" stroke="rgba(139, 199, 184, 0.24)" stroke-width="1.43" stroke-linecap="round" stroke-linejoin="round" />
  <polyline points="270.7,310.6 378.4,358.0 406.6,342.1" fill="none" stroke="rgba(243, 192, 154, 0.24)" stroke-width="2.24" stroke-linecap="round" stroke-linejoin="round" />
  <polygon points="155.0,147.1 292.4,147.1 257.5,188.5 120.0,188.5" fill="rgba(226, 241, 235, 0.3)" stroke="rgba(243, 192, 154, 0.16)" stroke-width="1.2" />
  <polygon points="523.0,241.8 665.6,241.8 651.0,286.8 508.4,286.8" fill="rgba(247, 219, 197, 0.3)" stroke="rgba(243, 192, 154, 0.16)" stroke-width="1.2" />
  <polygon points="492.5,133.4 630.1,133.4 635.4,169.9 497.8,169.9" fill="rgba(226, 241, 235, 0.3)" stroke="rgba(243, 192, 154, 0.16)" stroke-width="1.2" />
  <polygon points="177.8,381.7 311.3,381.7 340.9,436.6 207.4,436.6" fill="rgba(247, 219, 197, 0.3)" stroke="rgba(243, 192, 154, 0.16)" stroke-width="1.2" />
  <polygon points="416.3,138.3 530.1,192.5 416.3,244.8 302.5,192.5" fill="url(#top-24)" stroke="rgba(139, 199, 184, 0.26)" stroke-width="1.5" />
  <polygon points="302.5,192.5 416.3,244.8 416.3,393.2 302.5,340.9" fill="url(#left-24)" stroke="rgba(139, 199, 184, 0.22)" stroke-width="1.3" />
  <polygon points="416.3,244.8 530.1,192.5 530.1,340.9 416.3,393.2" fill="url(#right-24)" stroke="rgba(243, 192, 154, 0.22)" stroke-width="1.3" />
  <polygon points="256.3,230.4 300.3,274.4 256.3,318.4 212.3,274.4" fill="rgba(226, 241, 235, 0.16)" stroke="rgba(139, 199, 184, 0.18)" stroke-width="1.2" />
  <polygon points="596.3,196.4 634.3,234.4 596.3,272.4 558.3,234.4" fill="rgba(247, 219, 197, 0.16)" stroke="rgba(243, 192, 154, 0.18)" stroke-width="1.2" />
  <polygon points="92.3,320.6 110.3,338.7 92.3,356.7 74.2,338.7" fill="rgba(243, 192, 154, 0.18)" stroke="rgba(139, 199, 184, 0.2)" stroke-width="1.2" />
  <polygon points="576.0,183.7 594.1,201.8 576.0,220.0 557.9,201.8" fill="rgba(226, 241, 235, 0.18)" stroke="rgba(139, 199, 184, 0.2)" stroke-width="1.2" />
  <polygon points="736.1,165.2 750.8,180.0 736.1,194.8 721.3,180.0" fill="rgba(243, 192, 154, 0.18)" stroke="rgba(139, 199, 184, 0.2)" stroke-width="1.2" />
  <polygon points="853.0,348.9 870.5,366.4 853.0,384.0 835.5,366.4" fill="rgba(226, 241, 235, 0.18)" stroke="rgba(139, 199, 184, 0.2)" stroke-width="1.2" />
  <polygon points="98.5,511.3 113.4,526.2 98.5,541.0 83.7,526.2" fill="rgba(243, 192, 154, 0.18)" stroke="rgba(139, 199, 184, 0.2)" stroke-width="1.2" />
</svg>
