<?xml version="1.0" encoding="UTF-8"?>
<svg xmlns="http://www.w3.org/2000/svg" viewBox="0 0 960 640" role="img" aria-labelledby="title-84 desc-84">
  <title id="title-84">Abstract geometric post art 85</title>
  <desc id="desc-84">An iridescent prism composition built from planes, lattices, and reflective block faces.</desc>
  <defs>
    <linearGradient id="bg-84" x1="0%" y1="0%" x2="100%" y2="100%">
      <stop offset="0%" stop-color="#f6f0e7" />
      <stop offset="55%" stop-color="rgba(226, 241, 235, 0.96)" />
      <stop offset="100%" stop-color="rgba(247, 219, 197, 0.92)" />
    </linearGradient>
    <linearGradient id="top-84" x1="0%" y1="0%" x2="100%" y2="100%">
      <stop offset="0%" stop-color="rgba(226, 241, 235, 0.94)" />
      <stop offset="50%" stop-color="rgba(247, 219, 197, 0.7)" />
      <stop offset="100%" stop-color="rgba(139, 199, 184, 0.56)" />
    </linearGradient>
    <linearGradient id="left-84" x1="0%" y1="0%" x2="0%" y2="100%">
      <stop offset="0%" stop-color="rgba(226, 241, 235, 0.7)" />
      <stop offset="100%" stop-color="rgba(139, 199, 184, 0.28)" />
    </linearGradient>
    <linearGradient id="right-84" x1="0%" y1="0%" x2="0%" y2="100%">
      <stop offset="0%" stop-color="rgba(247, 219, 197, 0.72)" />
      <stop offset="100%" stop-color="rgba(243, 192, 154, 0.24)" />
    </linearGradient>
  </defs>
  <rect width="960" height="640" fill="url(#bg-84)" />
  <rect x="24" y="24" width="912" height="592" rx="28" fill="none" stroke="rgba(139, 199, 184, 0.1)" stroke-width="1.4" />
  <polygon points="386.8,351.3 850.3,351.3 943.8,451.2 480.2,451.2" fill="rgba(226, 241, 235, 0.22)" stroke="rgba(139, 199, 184, 0.12)" stroke-width="1.2" />
  <polygon points="491.8,110.4 844.0,110.4 905.8,194.9 553.6,194.9" fill="rgba(247, 219, 197, 0.22)" stroke="rgba(139, 199, 184, 0.12)" stroke-width="1.2" />
  <polygon points="746.8,265.7 971.9,265.7 1014.4,335.7 789.3,335.7" fill="rgba(226, 241, 235, 0.22)" stroke="rgba(139, 199, 184, 0.12)" stroke-width="1.2" />
  <polyline points="596.9,161.9 728.2,211.2 756.4,232.3" fill="none" stroke="rgba(139, 199, 184, 0.24)" stroke-width="1.64" stroke-linecap="round" stroke-linejoin="round" />
  <polyline points="655.9,417.7 811.6,469.5 840.4,457.3" fill="none" stroke="rgba(243, 192, 154, 0.24)" stroke-width="1.50" stroke-linecap="round" stroke-linejoin="round" />
  <polyline points="164.0,399.3 268.5,454.3 312.2,463.4" fill="none" stroke="rgba(139, 199, 184, 0.24)" stroke-width="1.67" stroke-linecap="round" stroke-linejoin="round" />
  <polyline points="458.7,173.6 598.5,154.8 652.8,156.0" fill="none" stroke="rgba(243, 192, 154, 0.24)" stroke-width="1.46" stroke-linecap="round" stroke-linejoin="round" />
  <polyline points="112.6,413.8 315.2,446.3 380.6,482.5" fill="none" stroke="rgba(139, 199, 184, 0.24)" stroke-width="2.41" stroke-linecap="round" stroke-linejoin="round" />
  <polyline points="429.6,401.9 619.0,461.4 648.9,500.7" fill="none" stroke="rgba(243, 192, 154, 0.24)" stroke-width="1.56" stroke-linecap="round" stroke-linejoin="round" />
  <polygon points="696.8,480.2 768.3,480.2 723.0,543.2 651.5,543.2" fill="rgba(226, 241, 235, 0.3)" stroke="rgba(243, 192, 154, 0.16)" stroke-width="1.2" />
  <polygon points="131.6,289.4 274.1,289.4 311.5,339.8 169.0,339.8" fill="rgba(247, 219, 197, 0.3)" stroke="rgba(243, 192, 154, 0.16)" stroke-width="1.2" />
  <polygon points="535.6,271.7 628.8,271.7 597.5,306.8 504.3,306.8" fill="rgba(226, 241, 235, 0.3)" stroke="rgba(243, 192, 154, 0.16)" stroke-width="1.2" />
  <polygon points="343.2,441.5 443.1,441.5 422.1,495.0 322.2,495.0" fill="rgba(247, 219, 197, 0.3)" stroke="rgba(243, 192, 154, 0.16)" stroke-width="1.2" />
  <polygon points="481.7,184.2 598.5,239.7 481.7,293.3 365.0,239.7" fill="url(#top-84)" stroke="rgba(139, 199, 184, 0.26)" stroke-width="1.5" />
  <polygon points="365.0,239.7 481.7,293.3 481.7,417.0 365.0,363.4" fill="url(#left-84)" stroke="rgba(139, 199, 184, 0.22)" stroke-width="1.3" />
  <polygon points="481.7,293.3 598.5,239.7 598.5,363.4 481.7,417.0" fill="url(#right-84)" stroke="rgba(243, 192, 154, 0.22)" stroke-width="1.3" />
  <polygon points="321.7,278.4 365.7,322.4 321.7,366.4 277.7,322.4" fill="rgba(226, 241, 235, 0.16)" stroke="rgba(139, 199, 184, 0.18)" stroke-width="1.2" />
  <polygon points="661.7,244.4 699.7,282.4 661.7,320.4 623.7,282.4" fill="rgba(247, 219, 197, 0.16)" stroke="rgba(243, 192, 154, 0.18)" stroke-width="1.2" />
  <polygon points="596.4,533.9 611.7,549.2 596.4,564.5 581.1,549.2" fill="rgba(243, 192, 154, 0.18)" stroke="rgba(139, 199, 184, 0.2)" stroke-width="1.2" />
  <polygon points="773.8,163.0 786.4,175.7 773.8,188.3 761.1,175.7" fill="rgba(226, 241, 235, 0.18)" stroke="rgba(139, 199, 184, 0.2)" stroke-width="1.2" />
  <polygon points="565.5,545.0 584.4,563.9 565.5,582.8 546.6,563.9" fill="rgba(243, 192, 154, 0.18)" stroke="rgba(139, 199, 184, 0.2)" stroke-width="1.2" />
  <polygon points="820.2,79.7 838.7,98.2 820.2,116.7 801.8,98.2" fill="rgba(226, 241, 235, 0.18)" stroke="rgba(139, 199, 184, 0.2)" stroke-width="1.2" />
  <polygon points="262.1,69.8 282.2,89.8 262.1,109.9 242.1,89.8" fill="rgba(243, 192, 154, 0.18)" stroke="rgba(139, 199, 184, 0.2)" stroke-width="1.2" />
</svg>
