<?xml version="1.0" encoding="UTF-8"?>
<svg xmlns="http://www.w3.org/2000/svg" viewBox="0 0 960 640" role="img" aria-labelledby="title-58 desc-58">
  <title id="title-58">Abstract geometric post art 59</title>
  <desc id="desc-58">An iridescent prism composition built from planes, lattices, and reflective block faces.</desc>
  <defs>
    <linearGradient id="bg-58" x1="0%" y1="0%" x2="100%" y2="100%">
      <stop offset="0%" stop-color="#f6f0e7" />
      <stop offset="55%" stop-color="rgba(221, 233, 248, 0.96)" />
      <stop offset="100%" stop-color="rgba(246, 216, 191, 0.92)" />
    </linearGradient>
    <linearGradient id="top-58" x1="0%" y1="0%" x2="100%" y2="100%">
      <stop offset="0%" stop-color="rgba(221, 233, 248, 0.94)" />
      <stop offset="50%" stop-color="rgba(246, 216, 191, 0.7)" />
      <stop offset="100%" stop-color="rgba(146, 162, 227, 0.56)" />
    </linearGradient>
    <linearGradient id="left-58" x1="0%" y1="0%" x2="0%" y2="100%">
      <stop offset="0%" stop-color="rgba(221, 233, 248, 0.7)" />
      <stop offset="100%" stop-color="rgba(146, 162, 227, 0.28)" />
    </linearGradient>
    <linearGradient id="right-58" x1="0%" y1="0%" x2="0%" y2="100%">
      <stop offset="0%" stop-color="rgba(246, 216, 191, 0.72)" />
      <stop offset="100%" stop-color="rgba(241, 178, 193, 0.24)" />
    </linearGradient>
  </defs>
  <rect width="960" height="640" fill="url(#bg-58)" />
  <rect x="24" y="24" width="912" height="592" rx="28" fill="none" stroke="rgba(146, 162, 227, 0.1)" stroke-width="1.4" />
  <polygon points="419.3,327.2 702.7,327.2 645.3,435.4 362.0,435.4" fill="rgba(221, 233, 248, 0.22)" stroke="rgba(146, 162, 227, 0.12)" stroke-width="1.2" />
  <polygon points="179.1,438.0 484.3,438.0 455.3,540.3 150.2,540.3" fill="rgba(246, 216, 191, 0.22)" stroke="rgba(146, 162, 227, 0.12)" stroke-width="1.2" />
  <polygon points="417.2,405.0 692.0,405.0 675.4,482.7 400.6,482.7" fill="rgba(221, 233, 248, 0.22)" stroke="rgba(146, 162, 227, 0.12)" stroke-width="1.2" />
  <polygon points="304.2,409.1 694.6,409.1 804.4,494.7 414.0,494.7" fill="rgba(246, 216, 191, 0.22)" stroke="rgba(146, 162, 227, 0.12)" stroke-width="1.2" />
  <polyline points="600.1,457.8 705.7,482.0 747.8,505.2" fill="none" stroke="rgba(146, 162, 227, 0.24)" stroke-width="2.26" stroke-linecap="round" stroke-linejoin="round" />
  <polyline points="265.6,180.6 357.5,198.2 418.7,192.3" fill="none" stroke="rgba(241, 178, 193, 0.24)" stroke-width="2.49" stroke-linecap="round" stroke-linejoin="round" />
  <polyline points="244.4,213.9 426.9,240.4 464.0,245.0" fill="none" stroke="rgba(146, 162, 227, 0.24)" stroke-width="1.66" stroke-linecap="round" stroke-linejoin="round" />
  <polyline points="614.2,156.2 747.3,231.3 814.1,271.5" fill="none" stroke="rgba(241, 178, 193, 0.24)" stroke-width="1.40" stroke-linecap="round" stroke-linejoin="round" />
  <polyline points="591.6,454.0 703.3,416.1 756.4,403.5" fill="none" stroke="rgba(146, 162, 227, 0.24)" stroke-width="2.01" stroke-linecap="round" stroke-linejoin="round" />
  <polyline points="560.1,439.4 735.7,492.9 794.4,529.8" fill="none" stroke="rgba(241, 178, 193, 0.24)" stroke-width="2.02" stroke-linecap="round" stroke-linejoin="round" />
  <polygon points="635.3,426.9 727.2,426.9 710.4,472.1 618.5,472.1" fill="rgba(221, 233, 248, 0.3)" stroke="rgba(241, 178, 193, 0.16)" stroke-width="1.2" />
  <polygon points="201.8,497.1 277.8,497.1 234.7,539.5 158.8,539.5" fill="rgba(246, 216, 191, 0.3)" stroke="rgba(241, 178, 193, 0.16)" stroke-width="1.2" />
  <polygon points="237.2,305.0 357.1,305.0 377.1,355.9 257.1,355.9" fill="rgba(221, 233, 248, 0.3)" stroke="rgba(241, 178, 193, 0.16)" stroke-width="1.2" />
  <polygon points="710.4,119.0 812.5,119.0 806.9,176.5 704.8,176.5" fill="rgba(246, 216, 191, 0.3)" stroke="rgba(241, 178, 193, 0.16)" stroke-width="1.2" />
  <polygon points="573.1,110.6 689.7,166.1 573.1,219.6 456.4,166.1" fill="rgba(221, 233, 248, 0.52)" stroke="rgba(146, 162, 227, 0.28)" stroke-width="1.5" />
  <polygon points="456.4,166.1 573.1,219.6 573.1,396.1 456.4,342.6" fill="rgba(221, 233, 248, 0.34)" stroke="rgba(146, 162, 227, 0.26)" stroke-width="1.3" />
  <polygon points="573.1,219.6 689.7,166.1 689.7,342.6 573.1,396.1" fill="rgba(221, 233, 248, 0.34)" stroke="rgba(241, 178, 193, 0.24)" stroke-width="1.3" />
  <polygon points="353.1,358.7 733.1,358.7 823.1,426.7 443.1,426.7" fill="none" stroke="rgba(146, 162, 227, 0.16)" stroke-width="1.2" />
  <polygon points="393.1,408.7 713.1,408.7 635.1,460.7 315.1,460.7" fill="none" stroke="rgba(241, 178, 193, 0.14)" stroke-width="1.1" />
  <polygon points="176.0,254.5 197.2,275.7 176.0,296.9 154.8,275.7" fill="rgba(241, 178, 193, 0.18)" stroke="rgba(146, 162, 227, 0.2)" stroke-width="1.2" />
  <polygon points="691.2,363.9 708.1,380.8 691.2,397.8 674.2,380.8" fill="rgba(221, 233, 248, 0.18)" stroke="rgba(146, 162, 227, 0.2)" stroke-width="1.2" />
  <polygon points="697.5,396.3 711.8,410.6 697.5,424.9 683.2,410.6" fill="rgba(241, 178, 193, 0.18)" stroke="rgba(146, 162, 227, 0.2)" stroke-width="1.2" />
  <polygon points="499.9,180.7 520.6,201.3 499.9,221.9 479.3,201.3" fill="rgba(221, 233, 248, 0.18)" stroke="rgba(146, 162, 227, 0.2)" stroke-width="1.2" />
  <polygon points="183.7,381.8 197.1,395.2 183.7,408.6 170.3,395.2" fill="rgba(241, 178, 193, 0.18)" stroke="rgba(146, 162, 227, 0.2)" stroke-width="1.2" />
</svg>
