<?xml version="1.0" encoding="UTF-8"?>
<svg xmlns="http://www.w3.org/2000/svg" viewBox="0 0 960 640" role="img" aria-labelledby="title-36 desc-36">
  <title id="title-36">Abstract geometric post art 37</title>
  <desc id="desc-36">An iridescent prism composition built from planes, lattices, and reflective block faces.</desc>
  <defs>
    <linearGradient id="bg-36" x1="0%" y1="0%" x2="100%" y2="100%">
      <stop offset="0%" stop-color="#f6f0e7" />
      <stop offset="55%" stop-color="rgba(220, 239, 246, 0.96)" />
      <stop offset="100%" stop-color="rgba(240, 212, 177, 0.92)" />
    </linearGradient>
    <linearGradient id="top-36" x1="0%" y1="0%" x2="100%" y2="100%">
      <stop offset="0%" stop-color="rgba(220, 239, 246, 0.94)" />
      <stop offset="50%" stop-color="rgba(240, 212, 177, 0.7)" />
      <stop offset="100%" stop-color="rgba(143, 182, 220, 0.56)" />
    </linearGradient>
    <linearGradient id="left-36" x1="0%" y1="0%" x2="0%" y2="100%">
      <stop offset="0%" stop-color="rgba(220, 239, 246, 0.7)" />
      <stop offset="100%" stop-color="rgba(143, 182, 220, 0.28)" />
    </linearGradient>
    <linearGradient id="right-36" x1="0%" y1="0%" x2="0%" y2="100%">
      <stop offset="0%" stop-color="rgba(240, 212, 177, 0.72)" />
      <stop offset="100%" stop-color="rgba(247, 185, 172, 0.24)" />
    </linearGradient>
  </defs>
  <rect width="960" height="640" fill="url(#bg-36)" />
  <rect x="24" y="24" width="912" height="592" rx="28" fill="none" stroke="rgba(143, 182, 220, 0.1)" stroke-width="1.4" />
  <polygon points="216.1,316.1 705.4,316.1 695.9,404.8 206.6,404.8" fill="rgba(220, 239, 246, 0.22)" stroke="rgba(143, 182, 220, 0.12)" stroke-width="1.2" />
  <polygon points="77.2,125.6 466.5,125.6 393.8,177.7 4.5,177.7" fill="rgba(240, 212, 177, 0.22)" stroke="rgba(143, 182, 220, 0.12)" stroke-width="1.2" />
  <polygon points="605.6,514.5 847.4,514.5 884.1,569.4 642.3,569.4" fill="rgba(220, 239, 246, 0.22)" stroke="rgba(143, 182, 220, 0.12)" stroke-width="1.2" />
  <polyline points="161.4,314.9 297.8,273.8 356.7,289.9" fill="none" stroke="rgba(143, 182, 220, 0.24)" stroke-width="2.35" stroke-linecap="round" stroke-linejoin="round" />
  <polyline points="633.6,173.7 810.7,129.2 840.7,157.1" fill="none" stroke="rgba(247, 185, 172, 0.24)" stroke-width="1.43" stroke-linecap="round" stroke-linejoin="round" />
  <polyline points="731.2,124.9 837.4,197.7 863.3,185.8" fill="none" stroke="rgba(143, 182, 220, 0.24)" stroke-width="2.55" stroke-linecap="round" stroke-linejoin="round" />
  <polyline points="220.3,122.9 375.1,166.6 441.8,150.7" fill="none" stroke="rgba(247, 185, 172, 0.24)" stroke-width="1.81" stroke-linecap="round" stroke-linejoin="round" />
  <polyline points="71.9,339.0 263.6,314.5 306.6,319.2" fill="none" stroke="rgba(143, 182, 220, 0.24)" stroke-width="2.40" stroke-linecap="round" stroke-linejoin="round" />
  <polyline points="169.9,80.7 325.4,27.3 374.4,65.0" fill="none" stroke="rgba(247, 185, 172, 0.24)" stroke-width="1.45" stroke-linecap="round" stroke-linejoin="round" />
  <polygon points="589.8,436.3 701.7,436.3 752.5,473.3 640.6,473.3" fill="rgba(220, 239, 246, 0.3)" stroke="rgba(247, 185, 172, 0.16)" stroke-width="1.2" />
  <polygon points="220.4,278.9 359.3,278.9 332.0,311.0 193.0,311.0" fill="rgba(240, 212, 177, 0.3)" stroke="rgba(247, 185, 172, 0.16)" stroke-width="1.2" />
  <polygon points="163.3,142.7 295.9,142.7 343.5,205.3 211.0,205.3" fill="rgba(220, 239, 246, 0.3)" stroke="rgba(247, 185, 172, 0.16)" stroke-width="1.2" />
  <polygon points="530.6,300.0 652.7,300.0 682.6,360.5 560.5,360.5" fill="rgba(240, 212, 177, 0.3)" stroke="rgba(247, 185, 172, 0.16)" stroke-width="1.2" />
  <polygon points="471.6,128.8 577.7,179.3 471.6,228.0 365.6,179.3" fill="rgba(220, 239, 246, 0.52)" stroke="rgba(143, 182, 220, 0.34)" stroke-width="1.5" />
  <polygon points="365.6,179.3 471.6,228.0 471.6,352.6 365.6,304.0" fill="url(#left-36)" stroke="rgba(143, 182, 220, 0.28)" stroke-width="1.4" />
  <polygon points="471.6,228.0 577.7,179.3 577.7,304.0 471.6,352.6" fill="url(#right-36)" stroke="rgba(247, 185, 172, 0.28)" stroke-width="1.4" />
  <polygon points="291.6,329.0 611.6,329.0 683.6,403.0 363.6,403.0" fill="rgba(240, 212, 177, 0.2)" stroke="rgba(247, 185, 172, 0.18)" stroke-width="1.1" />
  <polygon points="351.6,41.0 611.6,41.0 545.6,99.0 285.6,99.0" fill="rgba(220, 239, 246, 0.2)" stroke="rgba(143, 182, 220, 0.18)" stroke-width="1.1" />
  <polygon points="153.1,266.7 164.4,278.0 153.1,289.2 141.9,278.0" fill="rgba(247, 185, 172, 0.18)" stroke="rgba(143, 182, 220, 0.2)" stroke-width="1.2" />
  <polygon points="742.6,87.7 764.3,109.4 742.6,131.1 720.9,109.4" fill="rgba(220, 239, 246, 0.18)" stroke="rgba(143, 182, 220, 0.2)" stroke-width="1.2" />
  <polygon points="156.9,185.4 178.5,207.0 156.9,228.6 135.3,207.0" fill="rgba(247, 185, 172, 0.18)" stroke="rgba(143, 182, 220, 0.2)" stroke-width="1.2" />
  <polygon points="548.2,498.9 558.6,509.2 548.2,519.6 537.9,509.2" fill="rgba(220, 239, 246, 0.18)" stroke="rgba(143, 182, 220, 0.2)" stroke-width="1.2" />
  <polygon points="226.5,216.2 246.1,235.8 226.5,255.4 206.9,235.8" fill="rgba(247, 185, 172, 0.18)" stroke="rgba(143, 182, 220, 0.2)" stroke-width="1.2" />
</svg>
