<?xml version="1.0" encoding="UTF-8"?>
<svg xmlns="http://www.w3.org/2000/svg" viewBox="0 0 960 640" role="img" aria-labelledby="title-73 desc-73">
  <title id="title-73">Abstract geometric post art 74</title>
  <desc id="desc-73">An iridescent prism composition built from planes, lattices, and reflective block faces.</desc>
  <defs>
    <linearGradient id="bg-73" x1="0%" y1="0%" x2="100%" y2="100%">
      <stop offset="0%" stop-color="#f6f0e7" />
      <stop offset="55%" stop-color="rgba(221, 233, 248, 0.96)" />
      <stop offset="100%" stop-color="rgba(246, 216, 191, 0.92)" />
    </linearGradient>
    <linearGradient id="top-73" x1="0%" y1="0%" x2="100%" y2="100%">
      <stop offset="0%" stop-color="rgba(221, 233, 248, 0.94)" />
      <stop offset="50%" stop-color="rgba(246, 216, 191, 0.7)" />
      <stop offset="100%" stop-color="rgba(146, 162, 227, 0.56)" />
    </linearGradient>
    <linearGradient id="left-73" x1="0%" y1="0%" x2="0%" y2="100%">
      <stop offset="0%" stop-color="rgba(221, 233, 248, 0.7)" />
      <stop offset="100%" stop-color="rgba(146, 162, 227, 0.28)" />
    </linearGradient>
    <linearGradient id="right-73" x1="0%" y1="0%" x2="0%" y2="100%">
      <stop offset="0%" stop-color="rgba(246, 216, 191, 0.72)" />
      <stop offset="100%" stop-color="rgba(241, 178, 193, 0.24)" />
    </linearGradient>
  </defs>
  <rect width="960" height="640" fill="url(#bg-73)" />
  <rect x="24" y="24" width="912" height="592" rx="28" fill="none" stroke="rgba(146, 162, 227, 0.1)" stroke-width="1.4" />
  <polygon points="49.0,367.4 465.5,367.4 582.9,424.7 166.4,424.7" fill="rgba(221, 233, 248, 0.22)" stroke="rgba(146, 162, 227, 0.12)" stroke-width="1.2" />
  <polygon points="79.3,167.4 473.5,167.4 513.4,226.9 119.2,226.9" fill="rgba(246, 216, 191, 0.22)" stroke="rgba(146, 162, 227, 0.12)" stroke-width="1.2" />
  <polygon points="-31.4,85.7 327.2,85.7 276.3,144.3 -82.3,144.3" fill="rgba(221, 233, 248, 0.22)" stroke="rgba(146, 162, 227, 0.12)" stroke-width="1.2" />
  <polygon points="138.4,87.0 375.9,87.0 488.9,177.8 251.5,177.8" fill="rgba(246, 216, 191, 0.22)" stroke="rgba(146, 162, 227, 0.12)" stroke-width="1.2" />
  <polyline points="441.0,119.4 556.3,69.3 615.0,86.7" fill="none" stroke="rgba(146, 162, 227, 0.24)" stroke-width="2.37" stroke-linecap="round" stroke-linejoin="round" />
  <polyline points="637.9,446.6 741.9,461.7 780.3,486.9" fill="none" stroke="rgba(241, 178, 193, 0.24)" stroke-width="2.57" stroke-linecap="round" stroke-linejoin="round" />
  <polyline points="324.2,92.0 509.8,167.2 560.1,154.0" fill="none" stroke="rgba(146, 162, 227, 0.24)" stroke-width="2.56" stroke-linecap="round" stroke-linejoin="round" />
  <polyline points="707.8,314.9 904.0,272.5 948.0,277.9" fill="none" stroke="rgba(241, 178, 193, 0.24)" stroke-width="1.47" stroke-linecap="round" stroke-linejoin="round" />
  <polyline points="551.7,369.8 643.1,324.5 681.5,331.0" fill="none" stroke="rgba(146, 162, 227, 0.24)" stroke-width="1.56" stroke-linecap="round" stroke-linejoin="round" />
  <polyline points="110.3,340.0 216.8,384.0 255.5,381.0" fill="none" stroke="rgba(241, 178, 193, 0.24)" stroke-width="2.01" stroke-linecap="round" stroke-linejoin="round" />
  <polygon points="244.4,215.4 330.4,215.4 307.6,259.2 221.6,259.2" fill="rgba(221, 233, 248, 0.3)" stroke="rgba(241, 178, 193, 0.16)" stroke-width="1.2" />
  <polygon points="201.7,305.1 323.2,305.1 337.2,350.3 215.7,350.3" fill="rgba(246, 216, 191, 0.3)" stroke="rgba(241, 178, 193, 0.16)" stroke-width="1.2" />
  <polygon points="185.4,437.4 286.4,437.4 270.4,495.8 169.4,495.8" fill="rgba(221, 233, 248, 0.3)" stroke="rgba(241, 178, 193, 0.16)" stroke-width="1.2" />
  <polygon points="375.4,133.1 455.9,133.1 451.6,182.7 371.1,182.7" fill="rgba(246, 216, 191, 0.3)" stroke="rgba(241, 178, 193, 0.16)" stroke-width="1.2" />
  <polygon points="431.0,206.5 524.9,251.2 431.0,294.4 337.1,251.2" fill="rgba(221, 233, 248, 0.52)" stroke="rgba(146, 162, 227, 0.28)" stroke-width="1.5" />
  <polygon points="337.1,251.2 431.0,294.4 431.0,472.1 337.1,429.0" fill="rgba(221, 233, 248, 0.34)" stroke="rgba(146, 162, 227, 0.26)" stroke-width="1.3" />
  <polygon points="431.0,294.4 524.9,251.2 524.9,429.0 431.0,472.1" fill="rgba(246, 216, 191, 0.34)" stroke="rgba(241, 178, 193, 0.24)" stroke-width="1.3" />
  <polygon points="211.0,437.5 591.0,437.5 681.0,505.5 301.0,505.5" fill="none" stroke="rgba(146, 162, 227, 0.16)" stroke-width="1.2" />
  <polygon points="251.0,487.5 571.0,487.5 493.0,539.5 173.0,539.5" fill="none" stroke="rgba(241, 178, 193, 0.14)" stroke-width="1.1" />
  <polygon points="201.4,526.4 220.8,545.8 201.4,565.2 182.0,545.8" fill="rgba(241, 178, 193, 0.18)" stroke="rgba(146, 162, 227, 0.2)" stroke-width="1.2" />
  <polygon points="760.8,247.8 780.8,267.8 760.8,287.9 740.8,267.8" fill="rgba(221, 233, 248, 0.18)" stroke="rgba(146, 162, 227, 0.2)" stroke-width="1.2" />
  <polygon points="360.6,300.8 374.4,314.6 360.6,328.4 346.8,314.6" fill="rgba(241, 178, 193, 0.18)" stroke="rgba(146, 162, 227, 0.2)" stroke-width="1.2" />
  <polygon points="85.7,289.8 98.9,303.0 85.7,316.1 72.5,303.0" fill="rgba(221, 233, 248, 0.18)" stroke="rgba(146, 162, 227, 0.2)" stroke-width="1.2" />
  <polygon points="717.2,424.4 734.8,442.0 717.2,459.6 699.6,442.0" fill="rgba(241, 178, 193, 0.18)" stroke="rgba(146, 162, 227, 0.2)" stroke-width="1.2" />
</svg>
