<?xml version="1.0" encoding="UTF-8"?>
<svg xmlns="http://www.w3.org/2000/svg" viewBox="0 0 960 640" role="img" aria-labelledby="title-96 desc-96">
  <title id="title-96">Abstract geometric post art 97</title>
  <desc id="desc-96">An iridescent prism composition built from planes, lattices, and reflective block faces.</desc>
  <defs>
    <linearGradient id="bg-96" x1="0%" y1="0%" x2="100%" y2="100%">
      <stop offset="0%" stop-color="#f6f0e7" />
      <stop offset="55%" stop-color="rgba(220, 239, 246, 0.96)" />
      <stop offset="100%" stop-color="rgba(240, 212, 177, 0.92)" />
    </linearGradient>
    <linearGradient id="top-96" x1="0%" y1="0%" x2="100%" y2="100%">
      <stop offset="0%" stop-color="rgba(220, 239, 246, 0.94)" />
      <stop offset="50%" stop-color="rgba(240, 212, 177, 0.7)" />
      <stop offset="100%" stop-color="rgba(143, 182, 220, 0.56)" />
    </linearGradient>
    <linearGradient id="left-96" x1="0%" y1="0%" x2="0%" y2="100%">
      <stop offset="0%" stop-color="rgba(220, 239, 246, 0.7)" />
      <stop offset="100%" stop-color="rgba(143, 182, 220, 0.28)" />
    </linearGradient>
    <linearGradient id="right-96" x1="0%" y1="0%" x2="0%" y2="100%">
      <stop offset="0%" stop-color="rgba(240, 212, 177, 0.72)" />
      <stop offset="100%" stop-color="rgba(247, 185, 172, 0.24)" />
    </linearGradient>
  </defs>
  <rect width="960" height="640" fill="url(#bg-96)" />
  <rect x="24" y="24" width="912" height="592" rx="28" fill="none" stroke="rgba(143, 182, 220, 0.1)" stroke-width="1.4" />
  <polygon points="65.8,454.0 455.9,454.0 449.2,539.7 59.0,539.7" fill="rgba(220, 239, 246, 0.22)" stroke="rgba(143, 182, 220, 0.12)" stroke-width="1.2" />
  <polygon points="508.9,494.4 752.3,494.4 821.2,571.0 577.9,571.0" fill="rgba(240, 212, 177, 0.22)" stroke="rgba(143, 182, 220, 0.12)" stroke-width="1.2" />
  <polygon points="12.4,375.3 364.5,375.3 283.6,430.0 -68.5,430.0" fill="rgba(220, 239, 246, 0.22)" stroke="rgba(143, 182, 220, 0.12)" stroke-width="1.2" />
  <polyline points="591.6,338.5 742.3,293.0 770.9,326.8" fill="none" stroke="rgba(143, 182, 220, 0.24)" stroke-width="2.23" stroke-linecap="round" stroke-linejoin="round" />
  <polyline points="292.2,200.5 480.9,176.0 551.7,166.1" fill="none" stroke="rgba(247, 185, 172, 0.24)" stroke-width="1.45" stroke-linecap="round" stroke-linejoin="round" />
  <polyline points="354.8,318.5 557.7,375.8 623.4,402.5" fill="none" stroke="rgba(143, 182, 220, 0.24)" stroke-width="1.61" stroke-linecap="round" stroke-linejoin="round" />
  <polyline points="200.6,342.1 391.0,285.3 416.5,305.1" fill="none" stroke="rgba(247, 185, 172, 0.24)" stroke-width="1.62" stroke-linecap="round" stroke-linejoin="round" />
  <polyline points="670.5,190.6 851.6,116.7 909.7,102.1" fill="none" stroke="rgba(143, 182, 220, 0.24)" stroke-width="1.71" stroke-linecap="round" stroke-linejoin="round" />
  <polyline points="337.2,311.9 473.2,252.0 527.0,271.6" fill="none" stroke="rgba(247, 185, 172, 0.24)" stroke-width="1.55" stroke-linecap="round" stroke-linejoin="round" />
  <polygon points="686.5,455.3 821.7,455.3 806.7,509.8 671.5,509.8" fill="rgba(220, 239, 246, 0.3)" stroke="rgba(247, 185, 172, 0.16)" stroke-width="1.2" />
  <polygon points="448.2,369.5 538.0,369.5 504.5,426.0 414.8,426.0" fill="rgba(240, 212, 177, 0.3)" stroke="rgba(247, 185, 172, 0.16)" stroke-width="1.2" />
  <polygon points="537.4,462.6 635.0,462.6 605.4,500.0 507.8,500.0" fill="rgba(220, 239, 246, 0.3)" stroke="rgba(247, 185, 172, 0.16)" stroke-width="1.2" />
  <polygon points="293.9,137.0 410.7,137.0 360.9,174.9 244.2,174.9" fill="rgba(240, 212, 177, 0.3)" stroke="rgba(247, 185, 172, 0.16)" stroke-width="1.2" />
  <polygon points="537.1,178.9 642.6,229.1 537.1,277.5 431.6,229.1" fill="rgba(220, 239, 246, 0.52)" stroke="rgba(143, 182, 220, 0.34)" stroke-width="1.5" />
  <polygon points="431.6,229.1 537.1,277.5 537.1,450.3 431.6,401.8" fill="url(#left-96)" stroke="rgba(143, 182, 220, 0.28)" stroke-width="1.4" />
  <polygon points="537.1,277.5 642.6,229.1 642.6,401.8 537.1,450.3" fill="url(#right-96)" stroke="rgba(247, 185, 172, 0.28)" stroke-width="1.4" />
  <polygon points="357.1,378.6 677.1,378.6 749.1,452.6 429.1,452.6" fill="rgba(240, 212, 177, 0.2)" stroke="rgba(247, 185, 172, 0.18)" stroke-width="1.1" />
  <polygon points="417.1,90.6 677.1,90.6 611.1,148.6 351.1,148.6" fill="rgba(220, 239, 246, 0.2)" stroke="rgba(143, 182, 220, 0.18)" stroke-width="1.1" />
  <polygon points="557.4,464.5 574.3,481.5 557.4,498.5 540.4,481.5" fill="rgba(247, 185, 172, 0.18)" stroke="rgba(143, 182, 220, 0.2)" stroke-width="1.2" />
  <polygon points="437.9,99.3 453.7,115.2 437.9,131.0 422.1,115.2" fill="rgba(220, 239, 246, 0.18)" stroke="rgba(143, 182, 220, 0.2)" stroke-width="1.2" />
  <polygon points="263.8,449.7 280.6,466.5 263.8,483.3 247.0,466.5" fill="rgba(247, 185, 172, 0.18)" stroke="rgba(143, 182, 220, 0.2)" stroke-width="1.2" />
  <polygon points="180.0,465.2 196.9,482.1 180.0,499.0 163.1,482.1" fill="rgba(220, 239, 246, 0.18)" stroke="rgba(143, 182, 220, 0.2)" stroke-width="1.2" />
  <polygon points="628.2,525.5 644.3,541.6 628.2,557.7 612.1,541.6" fill="rgba(247, 185, 172, 0.18)" stroke="rgba(143, 182, 220, 0.2)" stroke-width="1.2" />
</svg>
