<?xml version="1.0" encoding="UTF-8"?>
<svg xmlns="http://www.w3.org/2000/svg" viewBox="0 0 960 640" role="img" aria-labelledby="title-48 desc-48">
  <title id="title-48">Abstract geometric post art 49</title>
  <desc id="desc-48">An iridescent prism composition built from planes, lattices, and reflective block faces.</desc>
  <defs>
    <linearGradient id="bg-48" x1="0%" y1="0%" x2="100%" y2="100%">
      <stop offset="0%" stop-color="#f6f0e7" />
      <stop offset="55%" stop-color="rgba(221, 233, 248, 0.96)" />
      <stop offset="100%" stop-color="rgba(246, 216, 191, 0.92)" />
    </linearGradient>
    <linearGradient id="top-48" x1="0%" y1="0%" x2="100%" y2="100%">
      <stop offset="0%" stop-color="rgba(221, 233, 248, 0.94)" />
      <stop offset="50%" stop-color="rgba(246, 216, 191, 0.7)" />
      <stop offset="100%" stop-color="rgba(146, 162, 227, 0.56)" />
    </linearGradient>
    <linearGradient id="left-48" x1="0%" y1="0%" x2="0%" y2="100%">
      <stop offset="0%" stop-color="rgba(221, 233, 248, 0.7)" />
      <stop offset="100%" stop-color="rgba(146, 162, 227, 0.28)" />
    </linearGradient>
    <linearGradient id="right-48" x1="0%" y1="0%" x2="0%" y2="100%">
      <stop offset="0%" stop-color="rgba(246, 216, 191, 0.72)" />
      <stop offset="100%" stop-color="rgba(241, 178, 193, 0.24)" />
    </linearGradient>
  </defs>
  <rect width="960" height="640" fill="url(#bg-48)" />
  <rect x="24" y="24" width="912" height="592" rx="28" fill="none" stroke="rgba(146, 162, 227, 0.1)" stroke-width="1.4" />
  <polygon points="-1.1,154.0 304.1,154.0 282.3,251.3 -22.8,251.3" fill="rgba(221, 233, 248, 0.22)" stroke="rgba(146, 162, 227, 0.12)" stroke-width="1.2" />
  <polygon points="-8.3,140.6 404.9,140.6 454.7,206.1 41.5,206.1" fill="rgba(246, 216, 191, 0.22)" stroke="rgba(146, 162, 227, 0.12)" stroke-width="1.2" />
  <polygon points="21.3,240.6 415.3,240.6 335.0,305.6 -58.9,305.6" fill="rgba(221, 233, 248, 0.22)" stroke="rgba(146, 162, 227, 0.12)" stroke-width="1.2" />
  <polyline points="81.7,205.0 209.9,225.7 274.4,219.2" fill="none" stroke="rgba(146, 162, 227, 0.24)" stroke-width="2.32" stroke-linecap="round" stroke-linejoin="round" />
  <polyline points="82.2,200.8 281.2,267.1 328.8,260.9" fill="none" stroke="rgba(241, 178, 193, 0.24)" stroke-width="1.47" stroke-linecap="round" stroke-linejoin="round" />
  <polyline points="478.6,116.6 631.4,182.8 687.9,212.0" fill="none" stroke="rgba(146, 162, 227, 0.24)" stroke-width="1.88" stroke-linecap="round" stroke-linejoin="round" />
  <polyline points="385.8,337.0 478.7,372.5 534.9,396.1" fill="none" stroke="rgba(241, 178, 193, 0.24)" stroke-width="2.04" stroke-linecap="round" stroke-linejoin="round" />
  <polyline points="352.8,311.7 515.4,234.9 584.3,247.0" fill="none" stroke="rgba(146, 162, 227, 0.24)" stroke-width="1.43" stroke-linecap="round" stroke-linejoin="round" />
  <polyline points="740.6,91.2 925.2,115.1 991.9,99.9" fill="none" stroke="rgba(241, 178, 193, 0.24)" stroke-width="2.29" stroke-linecap="round" stroke-linejoin="round" />
  <polygon points="196.1,182.2 273.4,182.2 245.4,218.7 168.1,218.7" fill="rgba(221, 233, 248, 0.3)" stroke="rgba(241, 178, 193, 0.16)" stroke-width="1.2" />
  <polygon points="502.7,254.4 607.1,254.4 624.9,290.6 520.5,290.6" fill="rgba(246, 216, 191, 0.3)" stroke="rgba(241, 178, 193, 0.16)" stroke-width="1.2" />
  <polygon points="682.5,409.5 800.5,409.5 821.2,450.2 703.3,450.2" fill="rgba(221, 233, 248, 0.3)" stroke="rgba(241, 178, 193, 0.16)" stroke-width="1.2" />
  <polygon points="716.2,453.5 798.6,453.5 747.8,504.9 665.3,504.9" fill="rgba(246, 216, 191, 0.3)" stroke="rgba(241, 178, 193, 0.16)" stroke-width="1.2" />
  <polygon points="527.0,115.2 628.6,163.6 527.0,210.3 425.3,163.6" fill="rgba(221, 233, 248, 0.52)" stroke="rgba(146, 162, 227, 0.28)" stroke-width="1.5" />
  <polygon points="425.3,163.6 527.0,210.3 527.0,398.3 425.3,351.6" fill="rgba(246, 216, 191, 0.34)" stroke="rgba(146, 162, 227, 0.26)" stroke-width="1.3" />
  <polygon points="527.0,210.3 628.6,163.6 628.6,351.6 527.0,398.3" fill="rgba(246, 216, 191, 0.34)" stroke="rgba(241, 178, 193, 0.24)" stroke-width="1.3" />
  <polygon points="307.0,352.1 687.0,352.1 777.0,420.1 397.0,420.1" fill="none" stroke="rgba(146, 162, 227, 0.16)" stroke-width="1.2" />
  <polygon points="347.0,402.1 667.0,402.1 589.0,454.1 269.0,454.1" fill="none" stroke="rgba(241, 178, 193, 0.14)" stroke-width="1.1" />
  <polygon points="313.9,204.2 333.9,224.3 313.9,244.3 293.8,224.3" fill="rgba(241, 178, 193, 0.18)" stroke="rgba(146, 162, 227, 0.2)" stroke-width="1.2" />
  <polygon points="591.6,471.4 605.2,485.0 591.6,498.6 578.0,485.0" fill="rgba(221, 233, 248, 0.18)" stroke="rgba(146, 162, 227, 0.2)" stroke-width="1.2" />
  <polygon points="120.4,345.0 133.8,358.4 120.4,371.8 106.9,358.4" fill="rgba(241, 178, 193, 0.18)" stroke="rgba(146, 162, 227, 0.2)" stroke-width="1.2" />
  <polygon points="579.0,389.3 600.6,410.9 579.0,432.5 557.4,410.9" fill="rgba(221, 233, 248, 0.18)" stroke="rgba(146, 162, 227, 0.2)" stroke-width="1.2" />
  <polygon points="116.4,182.2 137.4,203.2 116.4,224.3 95.3,203.2" fill="rgba(241, 178, 193, 0.18)" stroke="rgba(146, 162, 227, 0.2)" stroke-width="1.2" />
</svg>
