<?xml version="1.0" encoding="UTF-8"?>
<svg xmlns="http://www.w3.org/2000/svg" viewBox="0 0 960 640" role="img" aria-labelledby="title-74 desc-74">
  <title id="title-74">Abstract geometric post art 75</title>
  <desc id="desc-74">An iridescent prism composition built from planes, lattices, and reflective block faces.</desc>
  <defs>
    <linearGradient id="bg-74" x1="0%" y1="0%" x2="100%" y2="100%">
      <stop offset="0%" stop-color="#f6f0e7" />
      <stop offset="55%" stop-color="rgba(226, 241, 235, 0.96)" />
      <stop offset="100%" stop-color="rgba(247, 219, 197, 0.92)" />
    </linearGradient>
    <linearGradient id="top-74" x1="0%" y1="0%" x2="100%" y2="100%">
      <stop offset="0%" stop-color="rgba(226, 241, 235, 0.94)" />
      <stop offset="50%" stop-color="rgba(247, 219, 197, 0.7)" />
      <stop offset="100%" stop-color="rgba(139, 199, 184, 0.56)" />
    </linearGradient>
    <linearGradient id="left-74" x1="0%" y1="0%" x2="0%" y2="100%">
      <stop offset="0%" stop-color="rgba(226, 241, 235, 0.7)" />
      <stop offset="100%" stop-color="rgba(139, 199, 184, 0.28)" />
    </linearGradient>
    <linearGradient id="right-74" x1="0%" y1="0%" x2="0%" y2="100%">
      <stop offset="0%" stop-color="rgba(247, 219, 197, 0.72)" />
      <stop offset="100%" stop-color="rgba(243, 192, 154, 0.24)" />
    </linearGradient>
  </defs>
  <rect width="960" height="640" fill="url(#bg-74)" />
  <rect x="24" y="24" width="912" height="592" rx="28" fill="none" stroke="rgba(139, 199, 184, 0.1)" stroke-width="1.4" />
  <polygon points="58.1,175.1 543.5,175.1 432.6,264.2 -52.9,264.2" fill="rgba(226, 241, 235, 0.22)" stroke="rgba(139, 199, 184, 0.12)" stroke-width="1.2" />
  <polygon points="266.4,243.3 726.5,243.3 627.1,291.1 166.9,291.1" fill="rgba(247, 219, 197, 0.22)" stroke="rgba(139, 199, 184, 0.12)" stroke-width="1.2" />
  <polygon points="285.9,94.3 630.1,94.3 608.9,151.5 264.8,151.5" fill="rgba(226, 241, 235, 0.22)" stroke="rgba(139, 199, 184, 0.12)" stroke-width="1.2" />
  <polygon points="4.1,343.0 291.3,343.0 404.5,447.4 117.3,447.4" fill="rgba(247, 219, 197, 0.22)" stroke="rgba(139, 199, 184, 0.12)" stroke-width="1.2" />
  <polygon points="550.7,298.6 789.7,298.6 688.4,407.1 449.4,407.1" fill="rgba(226, 241, 235, 0.22)" stroke="rgba(139, 199, 184, 0.12)" stroke-width="1.2" />
  <polyline points="105.0,413.8 195.6,474.3 254.3,475.9" fill="none" stroke="rgba(139, 199, 184, 0.24)" stroke-width="2.44" stroke-linecap="round" stroke-linejoin="round" />
  <polyline points="447.3,149.3 655.1,113.6 691.8,111.0" fill="none" stroke="rgba(243, 192, 154, 0.24)" stroke-width="1.60" stroke-linecap="round" stroke-linejoin="round" />
  <polyline points="564.3,111.9 680.0,92.6 709.7,105.8" fill="none" stroke="rgba(139, 199, 184, 0.24)" stroke-width="2.18" stroke-linecap="round" stroke-linejoin="round" />
  <polyline points="581.1,383.2 747.6,444.2 787.6,463.0" fill="none" stroke="rgba(243, 192, 154, 0.24)" stroke-width="1.41" stroke-linecap="round" stroke-linejoin="round" />
  <polyline points="362.6,271.8 486.4,341.2 537.6,329.4" fill="none" stroke="rgba(139, 199, 184, 0.24)" stroke-width="2.05" stroke-linecap="round" stroke-linejoin="round" />
  <polyline points="481.3,450.2 584.1,513.5 620.3,554.6" fill="none" stroke="rgba(243, 192, 154, 0.24)" stroke-width="2.50" stroke-linecap="round" stroke-linejoin="round" />
  <polygon points="395.1,181.7 530.3,181.7 562.8,215.1 427.6,215.1" fill="rgba(226, 241, 235, 0.3)" stroke="rgba(243, 192, 154, 0.16)" stroke-width="1.2" />
  <polygon points="177.6,172.9 320.0,172.9 338.2,227.0 195.9,227.0" fill="rgba(247, 219, 197, 0.3)" stroke="rgba(243, 192, 154, 0.16)" stroke-width="1.2" />
  <polygon points="631.9,330.5 780.3,330.5 790.8,379.6 642.4,379.6" fill="rgba(226, 241, 235, 0.3)" stroke="rgba(243, 192, 154, 0.16)" stroke-width="1.2" />
  <polygon points="631.9,383.0 780.8,383.0 744.6,440.7 595.7,440.7" fill="rgba(247, 219, 197, 0.3)" stroke="rgba(243, 192, 154, 0.16)" stroke-width="1.2" />
  <polygon points="435.6,188.8 537.4,237.2 435.6,283.9 333.9,237.2" fill="url(#top-74)" stroke="rgba(139, 199, 184, 0.26)" stroke-width="1.5" />
  <polygon points="333.9,237.2 435.6,283.9 435.6,419.1 333.9,372.4" fill="url(#left-74)" stroke="rgba(139, 199, 184, 0.22)" stroke-width="1.3" />
  <polygon points="435.6,283.9 537.4,237.2 537.4,372.4 435.6,419.1" fill="url(#right-74)" stroke="rgba(243, 192, 154, 0.22)" stroke-width="1.3" />
  <polygon points="275.6,271.7 319.6,315.7 275.6,359.7 231.6,315.7" fill="rgba(226, 241, 235, 0.16)" stroke="rgba(139, 199, 184, 0.18)" stroke-width="1.2" />
  <polygon points="615.6,237.7 653.6,275.7 615.6,313.7 577.6,275.7" fill="rgba(247, 219, 197, 0.16)" stroke="rgba(243, 192, 154, 0.18)" stroke-width="1.2" />
  <polygon points="382.4,545.9 403.4,566.9 382.4,587.8 361.5,566.9" fill="rgba(243, 192, 154, 0.18)" stroke="rgba(139, 199, 184, 0.2)" stroke-width="1.2" />
  <polygon points="416.1,345.4 433.4,362.7 416.1,380.0 398.7,362.7" fill="rgba(226, 241, 235, 0.18)" stroke="rgba(139, 199, 184, 0.2)" stroke-width="1.2" />
  <polygon points="663.3,64.9 684.6,86.3 663.3,107.7 641.9,86.3" fill="rgba(243, 192, 154, 0.18)" stroke="rgba(139, 199, 184, 0.2)" stroke-width="1.2" />
  <polygon points="120.9,237.2 139.1,255.4 120.9,273.7 102.7,255.4" fill="rgba(226, 241, 235, 0.18)" stroke="rgba(139, 199, 184, 0.2)" stroke-width="1.2" />
  <polygon points="120.0,127.7 139.9,147.5 120.0,167.4 100.1,147.5" fill="rgba(243, 192, 154, 0.18)" stroke="rgba(139, 199, 184, 0.2)" stroke-width="1.2" />
</svg>
