<?xml version="1.0" encoding="UTF-8"?>
<svg xmlns="http://www.w3.org/2000/svg" viewBox="0 0 960 640" role="img" aria-labelledby="title-26 desc-26">
  <title id="title-26">Abstract geometric post art 27</title>
  <desc id="desc-26">An iridescent prism composition built from planes, lattices, and reflective block faces.</desc>
  <defs>
    <linearGradient id="bg-26" x1="0%" y1="0%" x2="100%" y2="100%">
      <stop offset="0%" stop-color="#f6f0e7" />
      <stop offset="55%" stop-color="rgba(220, 239, 246, 0.96)" />
      <stop offset="100%" stop-color="rgba(240, 212, 177, 0.92)" />
    </linearGradient>
    <linearGradient id="top-26" x1="0%" y1="0%" x2="100%" y2="100%">
      <stop offset="0%" stop-color="rgba(220, 239, 246, 0.94)" />
      <stop offset="50%" stop-color="rgba(240, 212, 177, 0.7)" />
      <stop offset="100%" stop-color="rgba(143, 182, 220, 0.56)" />
    </linearGradient>
    <linearGradient id="left-26" x1="0%" y1="0%" x2="0%" y2="100%">
      <stop offset="0%" stop-color="rgba(220, 239, 246, 0.7)" />
      <stop offset="100%" stop-color="rgba(143, 182, 220, 0.28)" />
    </linearGradient>
    <linearGradient id="right-26" x1="0%" y1="0%" x2="0%" y2="100%">
      <stop offset="0%" stop-color="rgba(240, 212, 177, 0.72)" />
      <stop offset="100%" stop-color="rgba(247, 185, 172, 0.24)" />
    </linearGradient>
  </defs>
  <rect width="960" height="640" fill="url(#bg-26)" />
  <rect x="24" y="24" width="912" height="592" rx="28" fill="none" stroke="rgba(143, 182, 220, 0.1)" stroke-width="1.4" />
  <polygon points="-49.1,233.1 406.7,233.1 356.8,289.3 -99.0,289.3" fill="rgba(220, 239, 246, 0.22)" stroke="rgba(143, 182, 220, 0.12)" stroke-width="1.2" />
  <polygon points="240.9,275.0 654.5,275.0 598.2,367.1 184.6,367.1" fill="rgba(240, 212, 177, 0.22)" stroke="rgba(143, 182, 220, 0.12)" stroke-width="1.2" />
  <polygon points="291.0,360.5 514.4,360.5 610.7,448.3 387.3,448.3" fill="rgba(220, 239, 246, 0.22)" stroke="rgba(143, 182, 220, 0.12)" stroke-width="1.2" />
  <polygon points="-51.7,103.4 177.0,103.4 96.9,209.5 -131.8,209.5" fill="rgba(240, 212, 177, 0.22)" stroke="rgba(143, 182, 220, 0.12)" stroke-width="1.2" />
  <polygon points="298.9,380.4 724.6,380.4 774.9,477.9 349.2,477.9" fill="rgba(220, 239, 246, 0.22)" stroke="rgba(143, 182, 220, 0.12)" stroke-width="1.2" />
  <polyline points="433.5,137.3 627.8,194.4 686.9,188.4" fill="none" stroke="rgba(143, 182, 220, 0.24)" stroke-width="1.60" stroke-linecap="round" stroke-linejoin="round" />
  <polyline points="164.2,232.4 293.4,193.2 328.2,216.2" fill="none" stroke="rgba(247, 185, 172, 0.24)" stroke-width="2.39" stroke-linecap="round" stroke-linejoin="round" />
  <polyline points="213.3,282.6 375.6,314.6 416.7,331.4" fill="none" stroke="rgba(143, 182, 220, 0.24)" stroke-width="1.44" stroke-linecap="round" stroke-linejoin="round" />
  <polyline points="114.1,147.4 275.8,109.0 344.9,115.1" fill="none" stroke="rgba(247, 185, 172, 0.24)" stroke-width="2.09" stroke-linecap="round" stroke-linejoin="round" />
  <polyline points="640.6,398.3 788.2,349.4 837.4,372.5" fill="none" stroke="rgba(143, 182, 220, 0.24)" stroke-width="1.42" stroke-linecap="round" stroke-linejoin="round" />
  <polyline points="334.6,288.5 533.8,347.5 577.9,360.7" fill="none" stroke="rgba(247, 185, 172, 0.24)" stroke-width="2.33" stroke-linecap="round" stroke-linejoin="round" />
  <polygon points="315.3,303.7 400.3,303.7 442.5,352.5 357.5,352.5" fill="rgba(220, 239, 246, 0.3)" stroke="rgba(247, 185, 172, 0.16)" stroke-width="1.2" />
  <polygon points="170.5,265.2 306.9,265.2 295.0,311.5 158.6,311.5" fill="rgba(240, 212, 177, 0.3)" stroke="rgba(247, 185, 172, 0.16)" stroke-width="1.2" />
  <polygon points="675.2,348.5 799.3,348.5 833.8,378.0 709.7,378.0" fill="rgba(220, 239, 246, 0.3)" stroke="rgba(247, 185, 172, 0.16)" stroke-width="1.2" />
  <polygon points="374.5,471.6 520.8,471.6 528.0,531.3 381.8,531.3" fill="rgba(240, 212, 177, 0.3)" stroke="rgba(247, 185, 172, 0.16)" stroke-width="1.2" />
  <polygon points="425.5,129.3 520.0,174.3 425.5,217.7 331.1,174.3" fill="rgba(220, 239, 246, 0.52)" stroke="rgba(143, 182, 220, 0.34)" stroke-width="1.5" />
  <polygon points="331.1,174.3 425.5,217.7 425.5,360.9 331.1,317.6" fill="url(#left-26)" stroke="rgba(143, 182, 220, 0.28)" stroke-width="1.4" />
  <polygon points="425.5,217.7 520.0,174.3 520.0,317.6 425.5,360.9" fill="url(#right-26)" stroke="rgba(247, 185, 172, 0.28)" stroke-width="1.4" />
  <polygon points="245.5,320.7 565.5,320.7 637.5,394.7 317.5,394.7" fill="rgba(240, 212, 177, 0.2)" stroke="rgba(247, 185, 172, 0.18)" stroke-width="1.1" />
  <polygon points="305.5,32.7 565.5,32.7 499.5,90.7 239.5,90.7" fill="rgba(220, 239, 246, 0.2)" stroke="rgba(143, 182, 220, 0.18)" stroke-width="1.1" />
  <polygon points="661.1,389.0 683.0,410.9 661.1,432.8 639.2,410.9" fill="rgba(247, 185, 172, 0.18)" stroke="rgba(143, 182, 220, 0.2)" stroke-width="1.2" />
  <polygon points="258.3,544.5 271.6,557.9 258.3,571.2 244.9,557.9" fill="rgba(220, 239, 246, 0.18)" stroke="rgba(143, 182, 220, 0.2)" stroke-width="1.2" />
  <polygon points="266.7,366.0 280.7,380.0 266.7,394.0 252.7,380.0" fill="rgba(247, 185, 172, 0.18)" stroke="rgba(143, 182, 220, 0.2)" stroke-width="1.2" />
  <polygon points="587.8,226.2 598.6,237.0 587.8,247.7 577.1,237.0" fill="rgba(220, 239, 246, 0.18)" stroke="rgba(143, 182, 220, 0.2)" stroke-width="1.2" />
  <polygon points="800.3,95.5 821.7,116.8 800.3,138.2 778.9,116.8" fill="rgba(247, 185, 172, 0.18)" stroke="rgba(143, 182, 220, 0.2)" stroke-width="1.2" />
</svg>
