<?xml version="1.0" encoding="UTF-8"?>
<svg xmlns="http://www.w3.org/2000/svg" viewBox="0 0 960 640" role="img" aria-labelledby="title-59 desc-59">
  <title id="title-59">Abstract geometric post art 60</title>
  <desc id="desc-59">An iridescent prism composition built from planes, lattices, and reflective block faces.</desc>
  <defs>
    <linearGradient id="bg-59" x1="0%" y1="0%" x2="100%" y2="100%">
      <stop offset="0%" stop-color="#f6f0e7" />
      <stop offset="55%" stop-color="rgba(226, 241, 235, 0.96)" />
      <stop offset="100%" stop-color="rgba(247, 219, 197, 0.92)" />
    </linearGradient>
    <linearGradient id="top-59" x1="0%" y1="0%" x2="100%" y2="100%">
      <stop offset="0%" stop-color="rgba(226, 241, 235, 0.94)" />
      <stop offset="50%" stop-color="rgba(247, 219, 197, 0.7)" />
      <stop offset="100%" stop-color="rgba(139, 199, 184, 0.56)" />
    </linearGradient>
    <linearGradient id="left-59" x1="0%" y1="0%" x2="0%" y2="100%">
      <stop offset="0%" stop-color="rgba(226, 241, 235, 0.7)" />
      <stop offset="100%" stop-color="rgba(139, 199, 184, 0.28)" />
    </linearGradient>
    <linearGradient id="right-59" x1="0%" y1="0%" x2="0%" y2="100%">
      <stop offset="0%" stop-color="rgba(247, 219, 197, 0.72)" />
      <stop offset="100%" stop-color="rgba(243, 192, 154, 0.24)" />
    </linearGradient>
  </defs>
  <rect width="960" height="640" fill="url(#bg-59)" />
  <rect x="24" y="24" width="912" height="592" rx="28" fill="none" stroke="rgba(139, 199, 184, 0.1)" stroke-width="1.4" />
  <polygon points="403.7,170.7 755.9,170.7 710.2,244.6 358.0,244.6" fill="rgba(226, 241, 235, 0.22)" stroke="rgba(139, 199, 184, 0.12)" stroke-width="1.2" />
  <polygon points="388.5,85.6 759.6,85.6 831.3,176.3 460.2,176.3" fill="rgba(247, 219, 197, 0.22)" stroke="rgba(139, 199, 184, 0.12)" stroke-width="1.2" />
  <polygon points="-41.1,414.1 219.3,414.1 232.5,490.6 -28.0,490.6" fill="rgba(226, 241, 235, 0.22)" stroke="rgba(139, 199, 184, 0.12)" stroke-width="1.2" />
  <polygon points="178.4,237.5 618.6,237.5 728.7,336.5 288.5,336.5" fill="rgba(247, 219, 197, 0.22)" stroke="rgba(139, 199, 184, 0.12)" stroke-width="1.2" />
  <polygon points="435.3,78.4 744.5,78.4 800.6,179.7 491.4,179.7" fill="rgba(226, 241, 235, 0.22)" stroke="rgba(139, 199, 184, 0.12)" stroke-width="1.2" />
  <polyline points="170.2,378.5 315.1,326.9 368.9,329.5" fill="none" stroke="rgba(139, 199, 184, 0.24)" stroke-width="1.81" stroke-linecap="round" stroke-linejoin="round" />
  <polyline points="95.3,121.6 289.1,137.2 324.5,176.4" fill="none" stroke="rgba(243, 192, 154, 0.24)" stroke-width="2.47" stroke-linecap="round" stroke-linejoin="round" />
  <polyline points="86.3,206.7 185.4,280.6 237.9,277.8" fill="none" stroke="rgba(139, 199, 184, 0.24)" stroke-width="1.55" stroke-linecap="round" stroke-linejoin="round" />
  <polyline points="296.2,360.4 469.8,296.9 517.9,318.5" fill="none" stroke="rgba(243, 192, 154, 0.24)" stroke-width="1.78" stroke-linecap="round" stroke-linejoin="round" />
  <polyline points="146.1,415.2 349.3,366.4 380.1,358.2" fill="none" stroke="rgba(139, 199, 184, 0.24)" stroke-width="2.55" stroke-linecap="round" stroke-linejoin="round" />
  <polyline points="253.9,454.7 374.8,513.1 433.1,538.8" fill="none" stroke="rgba(243, 192, 154, 0.24)" stroke-width="2.40" stroke-linecap="round" stroke-linejoin="round" />
  <polygon points="410.6,378.1 500.3,378.1 475.7,408.7 386.0,408.7" fill="rgba(226, 241, 235, 0.3)" stroke="rgba(243, 192, 154, 0.16)" stroke-width="1.2" />
  <polygon points="240.9,457.7 322.2,457.7 376.5,504.2 295.1,504.2" fill="rgba(247, 219, 197, 0.3)" stroke="rgba(243, 192, 154, 0.16)" stroke-width="1.2" />
  <polygon points="404.6,312.6 494.6,312.6 503.7,369.6 413.7,369.6" fill="rgba(226, 241, 235, 0.3)" stroke="rgba(243, 192, 154, 0.16)" stroke-width="1.2" />
  <polygon points="175.8,369.7 302.3,369.7 304.5,428.4 178.0,428.4" fill="rgba(247, 219, 197, 0.3)" stroke="rgba(243, 192, 154, 0.16)" stroke-width="1.2" />
  <polygon points="577.7,92.8 702.1,152.1 577.7,209.2 453.2,152.1" fill="url(#top-59)" stroke="rgba(139, 199, 184, 0.26)" stroke-width="1.5" />
  <polygon points="453.2,152.1 577.7,209.2 577.7,343.1 453.2,286.0" fill="url(#left-59)" stroke="rgba(139, 199, 184, 0.22)" stroke-width="1.3" />
  <polygon points="577.7,209.2 702.1,152.1 702.1,286.0 577.7,343.1" fill="url(#right-59)" stroke="rgba(243, 192, 154, 0.22)" stroke-width="1.3" />
  <polygon points="417.7,192.9 461.7,236.9 417.7,280.9 373.7,236.9" fill="rgba(226, 241, 235, 0.16)" stroke="rgba(139, 199, 184, 0.18)" stroke-width="1.2" />
  <polygon points="757.7,158.9 795.7,196.9 757.7,234.9 719.7,196.9" fill="rgba(247, 219, 197, 0.16)" stroke="rgba(243, 192, 154, 0.18)" stroke-width="1.2" />
  <polygon points="415.4,260.6 427.1,272.3 415.4,284.0 403.8,272.3" fill="rgba(243, 192, 154, 0.18)" stroke="rgba(139, 199, 184, 0.2)" stroke-width="1.2" />
  <polygon points="105.0,95.7 124.7,115.3 105.0,134.9 85.4,115.3" fill="rgba(226, 241, 235, 0.18)" stroke="rgba(139, 199, 184, 0.2)" stroke-width="1.2" />
  <polygon points="376.9,242.1 395.9,261.0 376.9,279.9 358.0,261.0" fill="rgba(243, 192, 154, 0.18)" stroke="rgba(139, 199, 184, 0.2)" stroke-width="1.2" />
  <polygon points="181.2,257.7 198.3,274.8 181.2,291.9 164.2,274.8" fill="rgba(226, 241, 235, 0.18)" stroke="rgba(139, 199, 184, 0.2)" stroke-width="1.2" />
  <polygon points="529.1,159.8 544.5,175.2 529.1,190.5 513.8,175.2" fill="rgba(243, 192, 154, 0.18)" stroke="rgba(139, 199, 184, 0.2)" stroke-width="1.2" />
</svg>
