<?xml version="1.0" encoding="UTF-8"?>
<svg xmlns="http://www.w3.org/2000/svg" viewBox="0 0 960 640" role="img" aria-labelledby="title-63 desc-63">
  <title id="title-63">Abstract geometric post art 64</title>
  <desc id="desc-63">An iridescent prism composition built from planes, lattices, and reflective block faces.</desc>
  <defs>
    <linearGradient id="bg-63" x1="0%" y1="0%" x2="100%" y2="100%">
      <stop offset="0%" stop-color="#f6f0e7" />
      <stop offset="55%" stop-color="rgba(221, 233, 248, 0.96)" />
      <stop offset="100%" stop-color="rgba(246, 216, 191, 0.92)" />
    </linearGradient>
    <linearGradient id="top-63" x1="0%" y1="0%" x2="100%" y2="100%">
      <stop offset="0%" stop-color="rgba(221, 233, 248, 0.94)" />
      <stop offset="50%" stop-color="rgba(246, 216, 191, 0.7)" />
      <stop offset="100%" stop-color="rgba(146, 162, 227, 0.56)" />
    </linearGradient>
    <linearGradient id="left-63" x1="0%" y1="0%" x2="0%" y2="100%">
      <stop offset="0%" stop-color="rgba(221, 233, 248, 0.7)" />
      <stop offset="100%" stop-color="rgba(146, 162, 227, 0.28)" />
    </linearGradient>
    <linearGradient id="right-63" x1="0%" y1="0%" x2="0%" y2="100%">
      <stop offset="0%" stop-color="rgba(246, 216, 191, 0.72)" />
      <stop offset="100%" stop-color="rgba(241, 178, 193, 0.24)" />
    </linearGradient>
  </defs>
  <rect width="960" height="640" fill="url(#bg-63)" />
  <rect x="24" y="24" width="912" height="592" rx="28" fill="none" stroke="rgba(146, 162, 227, 0.1)" stroke-width="1.4" />
  <polygon points="533.8,354.3 861.6,354.3 862.5,423.5 534.7,423.5" fill="rgba(221, 233, 248, 0.22)" stroke="rgba(146, 162, 227, 0.12)" stroke-width="1.2" />
  <polygon points="640.5,383.1 975.4,383.1 969.4,427.2 634.6,427.2" fill="rgba(246, 216, 191, 0.22)" stroke="rgba(146, 162, 227, 0.12)" stroke-width="1.2" />
  <polygon points="363.0,451.2 865.8,451.2 757.7,522.5 255.0,522.5" fill="rgba(221, 233, 248, 0.22)" stroke="rgba(146, 162, 227, 0.12)" stroke-width="1.2" />
  <polyline points="340.6,329.3 525.6,388.0 595.8,392.1" fill="none" stroke="rgba(146, 162, 227, 0.24)" stroke-width="1.84" stroke-linecap="round" stroke-linejoin="round" />
  <polyline points="630.0,268.6 739.1,346.7 766.8,336.9" fill="none" stroke="rgba(241, 178, 193, 0.24)" stroke-width="2.40" stroke-linecap="round" stroke-linejoin="round" />
  <polyline points="103.6,183.1 267.7,163.2 336.2,162.9" fill="none" stroke="rgba(146, 162, 227, 0.24)" stroke-width="2.09" stroke-linecap="round" stroke-linejoin="round" />
  <polyline points="146.7,118.2 280.5,136.0 342.9,128.8" fill="none" stroke="rgba(241, 178, 193, 0.24)" stroke-width="1.41" stroke-linecap="round" stroke-linejoin="round" />
  <polyline points="433.2,228.6 531.2,273.0 588.2,279.8" fill="none" stroke="rgba(146, 162, 227, 0.24)" stroke-width="2.09" stroke-linecap="round" stroke-linejoin="round" />
  <polyline points="608.2,174.1 718.5,125.6 760.8,157.6" fill="none" stroke="rgba(241, 178, 193, 0.24)" stroke-width="1.63" stroke-linecap="round" stroke-linejoin="round" />
  <polygon points="576.3,238.6 674.7,238.6 658.0,290.5 559.6,290.5" fill="rgba(221, 233, 248, 0.3)" stroke="rgba(241, 178, 193, 0.16)" stroke-width="1.2" />
  <polygon points="690.6,364.1 807.2,364.1 825.1,396.9 708.5,396.9" fill="rgba(246, 216, 191, 0.3)" stroke="rgba(241, 178, 193, 0.16)" stroke-width="1.2" />
  <polygon points="578.6,285.0 723.1,285.0 772.4,340.3 627.9,340.3" fill="rgba(221, 233, 248, 0.3)" stroke="rgba(241, 178, 193, 0.16)" stroke-width="1.2" />
  <polygon points="224.7,217.8 311.7,217.8 283.0,247.1 196.0,247.1" fill="rgba(246, 216, 191, 0.3)" stroke="rgba(241, 178, 193, 0.16)" stroke-width="1.2" />
  <polygon points="384.9,176.4 505.7,233.9 384.9,289.3 264.2,233.9" fill="rgba(221, 233, 248, 0.52)" stroke="rgba(146, 162, 227, 0.28)" stroke-width="1.5" />
  <polygon points="264.2,233.9 384.9,289.3 384.9,412.9 264.2,357.4" fill="rgba(221, 233, 248, 0.34)" stroke="rgba(146, 162, 227, 0.26)" stroke-width="1.3" />
  <polygon points="384.9,289.3 505.7,233.9 505.7,357.4 384.9,412.9" fill="rgba(246, 216, 191, 0.34)" stroke="rgba(241, 178, 193, 0.24)" stroke-width="1.3" />
  <polygon points="164.9,427.7 544.9,427.7 634.9,495.7 254.9,495.7" fill="none" stroke="rgba(146, 162, 227, 0.16)" stroke-width="1.2" />
  <polygon points="204.9,477.7 524.9,477.7 446.9,529.7 126.9,529.7" fill="none" stroke="rgba(241, 178, 193, 0.14)" stroke-width="1.1" />
  <polygon points="464.9,508.4 485.1,528.7 464.9,548.9 444.6,528.7" fill="rgba(241, 178, 193, 0.18)" stroke="rgba(146, 162, 227, 0.2)" stroke-width="1.2" />
  <polygon points="766.6,327.1 784.9,345.4 766.6,363.7 748.3,345.4" fill="rgba(221, 233, 248, 0.18)" stroke="rgba(146, 162, 227, 0.2)" stroke-width="1.2" />
  <polygon points="828.4,215.8 848.0,235.5 828.4,255.2 808.7,235.5" fill="rgba(241, 178, 193, 0.18)" stroke="rgba(146, 162, 227, 0.2)" stroke-width="1.2" />
  <polygon points="244.7,397.2 256.1,408.6 244.7,420.0 233.2,408.6" fill="rgba(221, 233, 248, 0.18)" stroke="rgba(146, 162, 227, 0.2)" stroke-width="1.2" />
  <polygon points="302.7,387.1 324.3,408.6 302.7,430.1 281.2,408.6" fill="rgba(241, 178, 193, 0.18)" stroke="rgba(146, 162, 227, 0.2)" stroke-width="1.2" />
</svg>
