<?xml version="1.0" encoding="UTF-8"?>
<svg xmlns="http://www.w3.org/2000/svg" viewBox="0 0 960 640" role="img" aria-labelledby="title-13 desc-13">
  <title id="title-13">Abstract geometric post art 14</title>
  <desc id="desc-13">An iridescent prism composition built from planes, lattices, and reflective block faces.</desc>
  <defs>
    <linearGradient id="bg-13" x1="0%" y1="0%" x2="100%" y2="100%">
      <stop offset="0%" stop-color="#f6f0e7" />
      <stop offset="55%" stop-color="rgba(221, 233, 248, 0.96)" />
      <stop offset="100%" stop-color="rgba(246, 216, 191, 0.92)" />
    </linearGradient>
    <linearGradient id="top-13" x1="0%" y1="0%" x2="100%" y2="100%">
      <stop offset="0%" stop-color="rgba(221, 233, 248, 0.94)" />
      <stop offset="50%" stop-color="rgba(246, 216, 191, 0.7)" />
      <stop offset="100%" stop-color="rgba(146, 162, 227, 0.56)" />
    </linearGradient>
    <linearGradient id="left-13" x1="0%" y1="0%" x2="0%" y2="100%">
      <stop offset="0%" stop-color="rgba(221, 233, 248, 0.7)" />
      <stop offset="100%" stop-color="rgba(146, 162, 227, 0.28)" />
    </linearGradient>
    <linearGradient id="right-13" x1="0%" y1="0%" x2="0%" y2="100%">
      <stop offset="0%" stop-color="rgba(246, 216, 191, 0.72)" />
      <stop offset="100%" stop-color="rgba(241, 178, 193, 0.24)" />
    </linearGradient>
  </defs>
  <rect width="960" height="640" fill="url(#bg-13)" />
  <rect x="24" y="24" width="912" height="592" rx="28" fill="none" stroke="rgba(146, 162, 227, 0.1)" stroke-width="1.4" />
  <polygon points="193.3,221.3 709.0,221.3 823.7,281.6 308.0,281.6" fill="rgba(221, 233, 248, 0.22)" stroke="rgba(146, 162, 227, 0.12)" stroke-width="1.2" />
  <polygon points="554.9,226.4 795.0,226.4 693.3,327.3 453.2,327.3" fill="rgba(246, 216, 191, 0.22)" stroke="rgba(146, 162, 227, 0.12)" stroke-width="1.2" />
  <polygon points="550.7,223.8 799.0,223.8 865.7,282.5 617.4,282.5" fill="rgba(221, 233, 248, 0.22)" stroke="rgba(146, 162, 227, 0.12)" stroke-width="1.2" />
  <polygon points="22.1,98.9 369.8,98.9 394.4,185.7 46.7,185.7" fill="rgba(246, 216, 191, 0.22)" stroke="rgba(146, 162, 227, 0.12)" stroke-width="1.2" />
  <polyline points="239.8,158.2 415.4,96.7 469.4,106.7" fill="none" stroke="rgba(146, 162, 227, 0.24)" stroke-width="2.55" stroke-linecap="round" stroke-linejoin="round" />
  <polyline points="386.0,440.2 556.5,373.7 604.2,404.8" fill="none" stroke="rgba(241, 178, 193, 0.24)" stroke-width="1.58" stroke-linecap="round" stroke-linejoin="round" />
  <polyline points="565.6,390.2 754.7,373.1 790.8,397.6" fill="none" stroke="rgba(146, 162, 227, 0.24)" stroke-width="2.39" stroke-linecap="round" stroke-linejoin="round" />
  <polyline points="302.7,375.0 393.2,395.1 441.4,419.0" fill="none" stroke="rgba(241, 178, 193, 0.24)" stroke-width="2.30" stroke-linecap="round" stroke-linejoin="round" />
  <polyline points="90.0,206.5 271.8,223.9 318.0,232.8" fill="none" stroke="rgba(146, 162, 227, 0.24)" stroke-width="1.44" stroke-linecap="round" stroke-linejoin="round" />
  <polyline points="316.5,307.8 486.0,272.9 553.0,299.1" fill="none" stroke="rgba(241, 178, 193, 0.24)" stroke-width="2.46" stroke-linecap="round" stroke-linejoin="round" />
  <polygon points="616.0,110.6 751.2,110.6 734.4,166.0 599.2,166.0" fill="rgba(221, 233, 248, 0.3)" stroke="rgba(241, 178, 193, 0.16)" stroke-width="1.2" />
  <polygon points="467.2,427.3 543.7,427.3 525.0,461.8 448.6,461.8" fill="rgba(246, 216, 191, 0.3)" stroke="rgba(241, 178, 193, 0.16)" stroke-width="1.2" />
  <polygon points="429.4,195.4 535.8,195.4 489.4,240.3 383.0,240.3" fill="rgba(221, 233, 248, 0.3)" stroke="rgba(241, 178, 193, 0.16)" stroke-width="1.2" />
  <polygon points="264.9,345.2 409.2,345.2 376.3,387.0 232.0,387.0" fill="rgba(246, 216, 191, 0.3)" stroke="rgba(241, 178, 193, 0.16)" stroke-width="1.2" />
  <polygon points="576.8,156.5 671.2,201.5 576.8,244.8 482.4,201.5" fill="rgba(221, 233, 248, 0.52)" stroke="rgba(146, 162, 227, 0.28)" stroke-width="1.5" />
  <polygon points="482.4,201.5 576.8,244.8 576.8,374.5 482.4,331.1" fill="rgba(221, 233, 248, 0.34)" stroke="rgba(146, 162, 227, 0.26)" stroke-width="1.3" />
  <polygon points="576.8,244.8 671.2,201.5 671.2,331.1 576.8,374.5" fill="rgba(246, 216, 191, 0.34)" stroke="rgba(241, 178, 193, 0.24)" stroke-width="1.3" />
  <polygon points="356.8,387.9 736.8,387.9 826.8,455.9 446.8,455.9" fill="none" stroke="rgba(146, 162, 227, 0.16)" stroke-width="1.2" />
  <polygon points="396.8,437.9 716.8,437.9 638.8,489.9 318.8,489.9" fill="none" stroke="rgba(241, 178, 193, 0.14)" stroke-width="1.1" />
  <polygon points="531.2,461.3 550.4,480.6 531.2,499.9 511.9,480.6" fill="rgba(241, 178, 193, 0.18)" stroke="rgba(146, 162, 227, 0.2)" stroke-width="1.2" />
  <polygon points="313.3,478.6 327.1,492.4 313.3,506.2 299.5,492.4" fill="rgba(221, 233, 248, 0.18)" stroke="rgba(146, 162, 227, 0.2)" stroke-width="1.2" />
  <polygon points="599.6,555.2 614.0,569.6 599.6,584.1 585.1,569.6" fill="rgba(241, 178, 193, 0.18)" stroke="rgba(146, 162, 227, 0.2)" stroke-width="1.2" />
  <polygon points="667.2,541.9 685.0,559.8 667.2,577.6 649.4,559.8" fill="rgba(221, 233, 248, 0.18)" stroke="rgba(146, 162, 227, 0.2)" stroke-width="1.2" />
  <polygon points="652.1,226.0 667.4,241.2 652.1,256.5 636.9,241.2" fill="rgba(241, 178, 193, 0.18)" stroke="rgba(146, 162, 227, 0.2)" stroke-width="1.2" />
</svg>
