<?xml version="1.0" encoding="UTF-8"?>
<svg xmlns="http://www.w3.org/2000/svg" viewBox="0 0 960 640" role="img" aria-labelledby="title-0 desc-0">
  <title id="title-0">Abstract geometric post art 1</title>
  <desc id="desc-0">An iridescent prism composition built from planes, lattices, and reflective block faces.</desc>
  <defs>
    <linearGradient id="bg-0" x1="0%" y1="0%" x2="100%" y2="100%">
      <stop offset="0%" stop-color="#f6f0e7" />
      <stop offset="55%" stop-color="rgba(217, 242, 239, 0.96)" />
      <stop offset="100%" stop-color="rgba(246, 210, 180, 0.92)" />
    </linearGradient>
    <linearGradient id="top-0" x1="0%" y1="0%" x2="100%" y2="100%">
      <stop offset="0%" stop-color="rgba(217, 242, 239, 0.94)" />
      <stop offset="50%" stop-color="rgba(246, 210, 180, 0.7)" />
      <stop offset="100%" stop-color="rgba(143, 207, 208, 0.56)" />
    </linearGradient>
    <linearGradient id="left-0" x1="0%" y1="0%" x2="0%" y2="100%">
      <stop offset="0%" stop-color="rgba(217, 242, 239, 0.7)" />
      <stop offset="100%" stop-color="rgba(143, 207, 208, 0.28)" />
    </linearGradient>
    <linearGradient id="right-0" x1="0%" y1="0%" x2="0%" y2="100%">
      <stop offset="0%" stop-color="rgba(246, 210, 180, 0.72)" />
      <stop offset="100%" stop-color="rgba(255, 179, 157, 0.24)" />
    </linearGradient>
  </defs>
  <rect width="960" height="640" fill="url(#bg-0)" />
  <rect x="24" y="24" width="912" height="592" rx="28" fill="none" stroke="rgba(143, 207, 208, 0.1)" stroke-width="1.4" />
  <polygon points="473.1,153.6 926.3,153.6 883.7,261.8 430.5,261.8" fill="rgba(217, 242, 239, 0.22)" stroke="rgba(143, 207, 208, 0.12)" stroke-width="1.2" />
  <polygon points="114.7,163.2 523.2,163.2 527.2,267.7 118.8,267.7" fill="rgba(246, 210, 180, 0.22)" stroke="rgba(143, 207, 208, 0.12)" stroke-width="1.2" />
  <polygon points="319.3,269.2 661.2,269.2 756.8,341.8 414.9,341.8" fill="rgba(217, 242, 239, 0.22)" stroke="rgba(143, 207, 208, 0.12)" stroke-width="1.2" />
  <polyline points="477.6,286.5 604.0,215.8 664.6,255.4" fill="none" stroke="rgba(143, 207, 208, 0.24)" stroke-width="1.98" stroke-linecap="round" stroke-linejoin="round" />
  <polyline points="693.0,112.8 880.6,89.7 935.3,99.4" fill="none" stroke="rgba(255, 179, 157, 0.24)" stroke-width="2.02" stroke-linecap="round" stroke-linejoin="round" />
  <polyline points="84.9,335.3 196.4,297.1 249.2,296.1" fill="none" stroke="rgba(143, 207, 208, 0.24)" stroke-width="2.30" stroke-linecap="round" stroke-linejoin="round" />
  <polyline points="593.3,392.7 793.1,338.1 818.2,364.8" fill="none" stroke="rgba(255, 179, 157, 0.24)" stroke-width="2.41" stroke-linecap="round" stroke-linejoin="round" />
  <polyline points="72.8,285.9 252.6,365.7 295.5,360.8" fill="none" stroke="rgba(143, 207, 208, 0.24)" stroke-width="1.66" stroke-linecap="round" stroke-linejoin="round" />
  <polyline points="136.6,270.1 338.0,270.3 374.2,260.3" fill="none" stroke="rgba(255, 179, 157, 0.24)" stroke-width="1.79" stroke-linecap="round" stroke-linejoin="round" />
  <polygon points="313.2,497.4 426.2,497.4 467.0,527.8 354.0,527.8" fill="rgba(217, 242, 239, 0.3)" stroke="rgba(255, 179, 157, 0.16)" stroke-width="1.2" />
  <polygon points="603.1,205.8 688.5,205.8 725.6,250.1 640.2,250.1" fill="rgba(246, 210, 180, 0.3)" stroke="rgba(255, 179, 157, 0.16)" stroke-width="1.2" />
  <polygon points="481.4,395.4 554.0,395.4 564.1,457.6 491.5,457.6" fill="rgba(217, 242, 239, 0.3)" stroke="rgba(255, 179, 157, 0.16)" stroke-width="1.2" />
  <polygon points="177.8,443.9 268.3,443.9 282.9,476.9 192.4,476.9" fill="rgba(246, 210, 180, 0.3)" stroke="rgba(255, 179, 157, 0.16)" stroke-width="1.2" />
  <polygon points="516.8,172.6 627.0,225.0 516.8,275.6 406.7,225.0" fill="url(#top-0)" stroke="rgba(143, 207, 208, 0.42)" stroke-width="1.6" />
  <polygon points="406.7,225.0 516.8,275.6 516.8,468.1 406.7,417.5" fill="rgba(217, 242, 239, 0.48)" stroke="rgba(143, 207, 208, 0.32)" stroke-width="1.4" />
  <polygon points="516.8,275.6 627.0,225.0 627.0,417.5 516.8,468.1" fill="rgba(246, 210, 180, 0.48)" stroke="rgba(255, 179, 157, 0.28)" stroke-width="1.4" />
  <polygon points="549.3,166.4 648.4,213.5 549.3,259.0 450.3,213.5" fill="none" stroke="rgba(143, 207, 208, 0.16)" stroke-width="1.3" />
  <polygon points="450.3,213.5 549.3,259.0 549.3,426.0 450.3,380.5" fill="none" stroke="rgba(143, 207, 208, 0.14)" stroke-width="1.2" />
  <polygon points="549.3,259.0 648.4,213.5 648.4,380.5 549.3,426.0" fill="none" stroke="rgba(255, 179, 157, 0.14)" stroke-width="1.2" />
  <polygon points="740.6,444.8 752.4,456.6 740.6,468.4 728.8,456.6" fill="rgba(255, 179, 157, 0.18)" stroke="rgba(143, 207, 208, 0.2)" stroke-width="1.2" />
  <polygon points="401.6,135.9 418.5,152.7 401.6,169.5 384.8,152.7" fill="rgba(217, 242, 239, 0.18)" stroke="rgba(143, 207, 208, 0.2)" stroke-width="1.2" />
  <polygon points="803.0,293.2 823.7,313.8 803.0,334.4 782.4,313.8" fill="rgba(255, 179, 157, 0.18)" stroke="rgba(143, 207, 208, 0.2)" stroke-width="1.2" />
  <polygon points="474.7,184.8 491.4,201.4 474.7,218.1 458.1,201.4" fill="rgba(217, 242, 239, 0.18)" stroke="rgba(143, 207, 208, 0.2)" stroke-width="1.2" />
  <polygon points="371.7,215.1 384.6,228.1 371.7,241.0 358.7,228.1" fill="rgba(255, 179, 157, 0.18)" stroke="rgba(143, 207, 208, 0.2)" stroke-width="1.2" />
</svg>
