<?xml version="1.0" encoding="UTF-8"?>
<svg xmlns="http://www.w3.org/2000/svg" viewBox="0 0 960 640" role="img" aria-labelledby="title-34 desc-34">
  <title id="title-34">Abstract geometric post art 35</title>
  <desc id="desc-34">An iridescent prism composition built from planes, lattices, and reflective block faces.</desc>
  <defs>
    <linearGradient id="bg-34" x1="0%" y1="0%" x2="100%" y2="100%">
      <stop offset="0%" stop-color="#f6f0e7" />
      <stop offset="55%" stop-color="rgba(226, 241, 235, 0.96)" />
      <stop offset="100%" stop-color="rgba(247, 219, 197, 0.92)" />
    </linearGradient>
    <linearGradient id="top-34" x1="0%" y1="0%" x2="100%" y2="100%">
      <stop offset="0%" stop-color="rgba(226, 241, 235, 0.94)" />
      <stop offset="50%" stop-color="rgba(247, 219, 197, 0.7)" />
      <stop offset="100%" stop-color="rgba(139, 199, 184, 0.56)" />
    </linearGradient>
    <linearGradient id="left-34" x1="0%" y1="0%" x2="0%" y2="100%">
      <stop offset="0%" stop-color="rgba(226, 241, 235, 0.7)" />
      <stop offset="100%" stop-color="rgba(139, 199, 184, 0.28)" />
    </linearGradient>
    <linearGradient id="right-34" x1="0%" y1="0%" x2="0%" y2="100%">
      <stop offset="0%" stop-color="rgba(247, 219, 197, 0.72)" />
      <stop offset="100%" stop-color="rgba(243, 192, 154, 0.24)" />
    </linearGradient>
  </defs>
  <rect width="960" height="640" fill="url(#bg-34)" />
  <rect x="24" y="24" width="912" height="592" rx="28" fill="none" stroke="rgba(139, 199, 184, 0.1)" stroke-width="1.4" />
  <polygon points="230.0,227.9 581.5,227.9 548.8,319.0 197.3,319.0" fill="rgba(226, 241, 235, 0.22)" stroke="rgba(139, 199, 184, 0.12)" stroke-width="1.2" />
  <polygon points="392.6,429.2 650.1,429.2 616.2,504.7 358.7,504.7" fill="rgba(247, 219, 197, 0.22)" stroke="rgba(139, 199, 184, 0.12)" stroke-width="1.2" />
  <polygon points="695.3,495.0 966.0,495.0 943.2,552.4 672.6,552.4" fill="rgba(226, 241, 235, 0.22)" stroke="rgba(139, 199, 184, 0.12)" stroke-width="1.2" />
  <polygon points="349.1,73.8 809.8,73.8 864.1,131.5 403.4,131.5" fill="rgba(247, 219, 197, 0.22)" stroke="rgba(139, 199, 184, 0.12)" stroke-width="1.2" />
  <polyline points="432.3,97.4 612.4,98.7 637.1,98.8" fill="none" stroke="rgba(139, 199, 184, 0.24)" stroke-width="2.58" stroke-linecap="round" stroke-linejoin="round" />
  <polyline points="358.8,156.0 539.9,180.6 611.8,179.8" fill="none" stroke="rgba(243, 192, 154, 0.24)" stroke-width="2.16" stroke-linecap="round" stroke-linejoin="round" />
  <polyline points="671.8,257.3 795.9,263.6 834.5,274.3" fill="none" stroke="rgba(139, 199, 184, 0.24)" stroke-width="2.19" stroke-linecap="round" stroke-linejoin="round" />
  <polyline points="398.6,390.9 552.5,329.0 594.7,348.4" fill="none" stroke="rgba(243, 192, 154, 0.24)" stroke-width="2.51" stroke-linecap="round" stroke-linejoin="round" />
  <polyline points="422.6,306.0 572.9,259.3 602.7,248.7" fill="none" stroke="rgba(139, 199, 184, 0.24)" stroke-width="2.33" stroke-linecap="round" stroke-linejoin="round" />
  <polyline points="399.1,286.5 519.0,277.4 588.0,275.2" fill="none" stroke="rgba(243, 192, 154, 0.24)" stroke-width="2.47" stroke-linecap="round" stroke-linejoin="round" />
  <polygon points="709.5,478.7 790.6,478.7 793.3,515.8 712.2,515.8" fill="rgba(226, 241, 235, 0.3)" stroke="rgba(243, 192, 154, 0.16)" stroke-width="1.2" />
  <polygon points="369.5,393.1 474.7,393.1 485.4,443.4 380.2,443.4" fill="rgba(247, 219, 197, 0.3)" stroke="rgba(243, 192, 154, 0.16)" stroke-width="1.2" />
  <polygon points="539.7,440.4 659.0,440.4 620.4,473.5 501.0,473.5" fill="rgba(226, 241, 235, 0.3)" stroke="rgba(243, 192, 154, 0.16)" stroke-width="1.2" />
  <polygon points="202.9,186.8 287.2,186.8 315.3,242.6 231.0,242.6" fill="rgba(247, 219, 197, 0.3)" stroke="rgba(243, 192, 154, 0.16)" stroke-width="1.2" />
  <polygon points="462.4,164.3 552.8,207.3 462.4,248.8 372.0,207.3" fill="url(#top-34)" stroke="rgba(139, 199, 184, 0.26)" stroke-width="1.5" />
  <polygon points="372.0,207.3 462.4,248.8 462.4,378.6 372.0,337.1" fill="url(#left-34)" stroke="rgba(139, 199, 184, 0.22)" stroke-width="1.3" />
  <polygon points="462.4,248.8 552.8,207.3 552.8,337.1 462.4,378.6" fill="url(#right-34)" stroke="rgba(243, 192, 154, 0.22)" stroke-width="1.3" />
  <polygon points="302.4,238.6 346.4,282.6 302.4,326.6 258.4,282.6" fill="rgba(226, 241, 235, 0.16)" stroke="rgba(139, 199, 184, 0.18)" stroke-width="1.2" />
  <polygon points="642.4,204.6 680.4,242.6 642.4,280.6 604.4,242.6" fill="rgba(247, 219, 197, 0.16)" stroke="rgba(243, 192, 154, 0.18)" stroke-width="1.2" />
  <polygon points="477.6,305.1 492.8,320.3 477.6,335.5 462.4,320.3" fill="rgba(243, 192, 154, 0.18)" stroke="rgba(139, 199, 184, 0.2)" stroke-width="1.2" />
  <polygon points="795.1,321.7 816.8,343.3 795.1,365.0 773.4,343.3" fill="rgba(226, 241, 235, 0.18)" stroke="rgba(139, 199, 184, 0.2)" stroke-width="1.2" />
  <polygon points="497.5,525.9 516.5,544.9 497.5,563.9 478.5,544.9" fill="rgba(243, 192, 154, 0.18)" stroke="rgba(139, 199, 184, 0.2)" stroke-width="1.2" />
  <polygon points="391.1,204.1 401.2,214.3 391.1,224.4 380.9,214.3" fill="rgba(226, 241, 235, 0.18)" stroke="rgba(139, 199, 184, 0.2)" stroke-width="1.2" />
  <polygon points="326.7,94.2 343.8,111.3 326.7,128.4 309.6,111.3" fill="rgba(243, 192, 154, 0.18)" stroke="rgba(139, 199, 184, 0.2)" stroke-width="1.2" />
</svg>
