<?xml version="1.0" encoding="UTF-8"?>
<svg xmlns="http://www.w3.org/2000/svg" viewBox="0 0 960 640" role="img" aria-labelledby="title-50 desc-50">
  <title id="title-50">Abstract geometric post art 51</title>
  <desc id="desc-50">An iridescent prism composition built from planes, lattices, and reflective block faces.</desc>
  <defs>
    <linearGradient id="bg-50" x1="0%" y1="0%" x2="100%" y2="100%">
      <stop offset="0%" stop-color="#f6f0e7" />
      <stop offset="55%" stop-color="rgba(217, 242, 239, 0.96)" />
      <stop offset="100%" stop-color="rgba(246, 210, 180, 0.92)" />
    </linearGradient>
    <linearGradient id="top-50" x1="0%" y1="0%" x2="100%" y2="100%">
      <stop offset="0%" stop-color="rgba(217, 242, 239, 0.94)" />
      <stop offset="50%" stop-color="rgba(246, 210, 180, 0.7)" />
      <stop offset="100%" stop-color="rgba(143, 207, 208, 0.56)" />
    </linearGradient>
    <linearGradient id="left-50" x1="0%" y1="0%" x2="0%" y2="100%">
      <stop offset="0%" stop-color="rgba(217, 242, 239, 0.7)" />
      <stop offset="100%" stop-color="rgba(143, 207, 208, 0.28)" />
    </linearGradient>
    <linearGradient id="right-50" x1="0%" y1="0%" x2="0%" y2="100%">
      <stop offset="0%" stop-color="rgba(246, 210, 180, 0.72)" />
      <stop offset="100%" stop-color="rgba(255, 179, 157, 0.24)" />
    </linearGradient>
  </defs>
  <rect width="960" height="640" fill="url(#bg-50)" />
  <rect x="24" y="24" width="912" height="592" rx="28" fill="none" stroke="rgba(143, 207, 208, 0.1)" stroke-width="1.4" />
  <polygon points="33.1,240.6 476.0,240.6 477.6,335.4 34.6,335.4" fill="rgba(217, 242, 239, 0.22)" stroke="rgba(143, 207, 208, 0.12)" stroke-width="1.2" />
  <polygon points="555.0,261.9 800.1,261.9 811.1,370.1 566.0,370.1" fill="rgba(246, 210, 180, 0.22)" stroke="rgba(143, 207, 208, 0.12)" stroke-width="1.2" />
  <polygon points="-74.5,258.4 290.6,258.4 269.8,320.9 -95.3,320.9" fill="rgba(217, 242, 239, 0.22)" stroke="rgba(143, 207, 208, 0.12)" stroke-width="1.2" />
  <polygon points="-70.8,438.9 254.0,438.9 336.9,531.7 12.2,531.7" fill="rgba(246, 210, 180, 0.22)" stroke="rgba(143, 207, 208, 0.12)" stroke-width="1.2" />
  <polygon points="-4.4,94.7 283.8,94.7 312.7,172.7 24.6,172.7" fill="rgba(217, 242, 239, 0.22)" stroke="rgba(143, 207, 208, 0.12)" stroke-width="1.2" />
  <polyline points="638.1,322.3 792.3,384.0 855.4,399.7" fill="none" stroke="rgba(143, 207, 208, 0.24)" stroke-width="2.19" stroke-linecap="round" stroke-linejoin="round" />
  <polyline points="466.2,112.9 556.5,175.4 599.7,172.4" fill="none" stroke="rgba(255, 179, 157, 0.24)" stroke-width="1.71" stroke-linecap="round" stroke-linejoin="round" />
  <polyline points="80.5,423.3 200.0,352.0 266.5,344.7" fill="none" stroke="rgba(143, 207, 208, 0.24)" stroke-width="1.49" stroke-linecap="round" stroke-linejoin="round" />
  <polyline points="575.1,236.0 708.4,198.2 762.6,229.6" fill="none" stroke="rgba(255, 179, 157, 0.24)" stroke-width="1.66" stroke-linecap="round" stroke-linejoin="round" />
  <polyline points="540.5,322.7 689.7,281.3 747.0,320.7" fill="none" stroke="rgba(143, 207, 208, 0.24)" stroke-width="2.34" stroke-linecap="round" stroke-linejoin="round" />
  <polyline points="77.9,295.8 225.0,336.5 281.0,371.2" fill="none" stroke="rgba(255, 179, 157, 0.24)" stroke-width="1.53" stroke-linecap="round" stroke-linejoin="round" />
  <polygon points="466.1,153.2 611.4,153.2 559.2,206.3 413.8,206.3" fill="rgba(217, 242, 239, 0.3)" stroke="rgba(255, 179, 157, 0.16)" stroke-width="1.2" />
  <polygon points="706.0,337.4 791.2,337.4 808.9,380.2 723.7,380.2" fill="rgba(246, 210, 180, 0.3)" stroke="rgba(255, 179, 157, 0.16)" stroke-width="1.2" />
  <polygon points="455.4,318.5 540.2,318.5 555.4,355.1 470.6,355.1" fill="rgba(217, 242, 239, 0.3)" stroke="rgba(255, 179, 157, 0.16)" stroke-width="1.2" />
  <polygon points="180.5,338.0 286.0,338.0 231.1,386.7 125.6,386.7" fill="rgba(246, 210, 180, 0.3)" stroke="rgba(255, 179, 157, 0.16)" stroke-width="1.2" />
  <polygon points="536.2,207.8 653.5,263.6 536.2,317.4 418.9,263.6" fill="url(#top-50)" stroke="rgba(143, 207, 208, 0.42)" stroke-width="1.6" />
  <polygon points="418.9,263.6 536.2,317.4 536.2,500.3 418.9,446.4" fill="rgba(217, 242, 239, 0.48)" stroke="rgba(143, 207, 208, 0.32)" stroke-width="1.4" />
  <polygon points="536.2,317.4 653.5,263.6 653.5,446.4 536.2,500.3" fill="rgba(246, 210, 180, 0.48)" stroke="rgba(255, 179, 157, 0.28)" stroke-width="1.4" />
  <polygon points="563.7,214.1 656.2,258.2 563.7,300.6 471.2,258.2" fill="none" stroke="rgba(143, 207, 208, 0.16)" stroke-width="1.3" />
  <polygon points="471.2,258.2 563.7,300.6 563.7,446.2 471.2,403.7" fill="none" stroke="rgba(143, 207, 208, 0.14)" stroke-width="1.2" />
  <polygon points="563.7,300.6 656.2,258.2 656.2,403.7 563.7,446.2" fill="none" stroke="rgba(255, 179, 157, 0.14)" stroke-width="1.2" />
  <polygon points="734.1,152.3 751.9,170.2 734.1,188.1 716.2,170.2" fill="rgba(255, 179, 157, 0.18)" stroke="rgba(143, 207, 208, 0.2)" stroke-width="1.2" />
  <polygon points="548.6,168.0 562.2,181.6 548.6,195.2 535.0,181.6" fill="rgba(217, 242, 239, 0.18)" stroke="rgba(143, 207, 208, 0.2)" stroke-width="1.2" />
  <polygon points="314.6,407.3 327.0,419.7 314.6,432.0 302.3,419.7" fill="rgba(255, 179, 157, 0.18)" stroke="rgba(143, 207, 208, 0.2)" stroke-width="1.2" />
  <polygon points="195.8,102.8 207.3,114.3 195.8,125.7 184.3,114.3" fill="rgba(217, 242, 239, 0.18)" stroke="rgba(143, 207, 208, 0.2)" stroke-width="1.2" />
  <polygon points="818.2,243.6 838.7,264.1 818.2,284.6 797.8,264.1" fill="rgba(255, 179, 157, 0.18)" stroke="rgba(143, 207, 208, 0.2)" stroke-width="1.2" />
</svg>
