<?xml version="1.0" encoding="UTF-8"?>
<svg xmlns="http://www.w3.org/2000/svg" viewBox="0 0 960 640" role="img" aria-labelledby="title-99 desc-99">
  <title id="title-99">Abstract geometric post art 100</title>
  <desc id="desc-99">An iridescent prism composition built from planes, lattices, and reflective block faces.</desc>
  <defs>
    <linearGradient id="bg-99" x1="0%" y1="0%" x2="100%" y2="100%">
      <stop offset="0%" stop-color="#f6f0e7" />
      <stop offset="55%" stop-color="rgba(226, 241, 235, 0.96)" />
      <stop offset="100%" stop-color="rgba(247, 219, 197, 0.92)" />
    </linearGradient>
    <linearGradient id="top-99" x1="0%" y1="0%" x2="100%" y2="100%">
      <stop offset="0%" stop-color="rgba(226, 241, 235, 0.94)" />
      <stop offset="50%" stop-color="rgba(247, 219, 197, 0.7)" />
      <stop offset="100%" stop-color="rgba(139, 199, 184, 0.56)" />
    </linearGradient>
    <linearGradient id="left-99" x1="0%" y1="0%" x2="0%" y2="100%">
      <stop offset="0%" stop-color="rgba(226, 241, 235, 0.7)" />
      <stop offset="100%" stop-color="rgba(139, 199, 184, 0.28)" />
    </linearGradient>
    <linearGradient id="right-99" x1="0%" y1="0%" x2="0%" y2="100%">
      <stop offset="0%" stop-color="rgba(247, 219, 197, 0.72)" />
      <stop offset="100%" stop-color="rgba(243, 192, 154, 0.24)" />
    </linearGradient>
  </defs>
  <rect width="960" height="640" fill="url(#bg-99)" />
  <rect x="24" y="24" width="912" height="592" rx="28" fill="none" stroke="rgba(139, 199, 184, 0.1)" stroke-width="1.4" />
  <polygon points="174.4,393.9 471.2,393.9 499.4,443.0 202.6,443.0" fill="rgba(226, 241, 235, 0.22)" stroke="rgba(139, 199, 184, 0.12)" stroke-width="1.2" />
  <polygon points="356.6,244.5 797.8,244.5 688.5,352.2 247.3,352.2" fill="rgba(247, 219, 197, 0.22)" stroke="rgba(139, 199, 184, 0.12)" stroke-width="1.2" />
  <polygon points="241.5,403.8 550.4,403.8 558.6,454.6 249.7,454.6" fill="rgba(226, 241, 235, 0.22)" stroke="rgba(139, 199, 184, 0.12)" stroke-width="1.2" />
  <polyline points="250.2,192.6 345.8,123.4 374.6,130.4" fill="none" stroke="rgba(139, 199, 184, 0.24)" stroke-width="1.78" stroke-linecap="round" stroke-linejoin="round" />
  <polyline points="711.3,241.2 908.3,277.6 941.5,298.3" fill="none" stroke="rgba(243, 192, 154, 0.24)" stroke-width="2.34" stroke-linecap="round" stroke-linejoin="round" />
  <polyline points="232.4,393.3 400.0,371.1 447.2,387.3" fill="none" stroke="rgba(139, 199, 184, 0.24)" stroke-width="2.49" stroke-linecap="round" stroke-linejoin="round" />
  <polyline points="476.0,289.3 649.1,222.9 691.4,232.4" fill="none" stroke="rgba(243, 192, 154, 0.24)" stroke-width="1.96" stroke-linecap="round" stroke-linejoin="round" />
  <polyline points="470.0,134.9 615.6,74.3 683.9,107.0" fill="none" stroke="rgba(139, 199, 184, 0.24)" stroke-width="2.14" stroke-linecap="round" stroke-linejoin="round" />
  <polyline points="314.1,384.3 466.8,334.7 526.6,334.3" fill="none" stroke="rgba(243, 192, 154, 0.24)" stroke-width="2.45" stroke-linecap="round" stroke-linejoin="round" />
  <polygon points="265.3,355.4 376.4,355.4 341.4,389.8 230.3,389.8" fill="rgba(226, 241, 235, 0.3)" stroke="rgba(243, 192, 154, 0.16)" stroke-width="1.2" />
  <polygon points="351.0,501.0 487.6,501.0 518.9,550.0 382.4,550.0" fill="rgba(247, 219, 197, 0.3)" stroke="rgba(243, 192, 154, 0.16)" stroke-width="1.2" />
  <polygon points="510.9,510.0 649.6,510.0 675.5,547.9 536.7,547.9" fill="rgba(226, 241, 235, 0.3)" stroke="rgba(243, 192, 154, 0.16)" stroke-width="1.2" />
  <polygon points="292.8,161.6 373.8,161.6 426.8,222.6 345.8,222.6" fill="rgba(247, 219, 197, 0.3)" stroke="rgba(243, 192, 154, 0.16)" stroke-width="1.2" />
  <polygon points="550.9,152.1 644.9,196.9 550.9,240.0 456.9,196.9" fill="url(#top-99)" stroke="rgba(139, 199, 184, 0.26)" stroke-width="1.5" />
  <polygon points="456.9,196.9 550.9,240.0 550.9,365.0 456.9,321.9" fill="url(#left-99)" stroke="rgba(139, 199, 184, 0.22)" stroke-width="1.3" />
  <polygon points="550.9,240.0 644.9,196.9 644.9,321.9 550.9,365.0" fill="url(#right-99)" stroke="rgba(243, 192, 154, 0.22)" stroke-width="1.3" />
  <polygon points="390.9,229.2 434.9,273.2 390.9,317.2 346.9,273.2" fill="rgba(226, 241, 235, 0.16)" stroke="rgba(139, 199, 184, 0.18)" stroke-width="1.2" />
  <polygon points="730.9,195.2 768.9,233.2 730.9,271.2 692.9,233.2" fill="rgba(247, 219, 197, 0.16)" stroke="rgba(243, 192, 154, 0.18)" stroke-width="1.2" />
  <polygon points="547.6,319.2 568.0,339.6 547.6,360.0 527.2,339.6" fill="rgba(243, 192, 154, 0.18)" stroke="rgba(139, 199, 184, 0.2)" stroke-width="1.2" />
  <polygon points="763.9,83.4 780.6,100.1 763.9,116.7 747.3,100.1" fill="rgba(226, 241, 235, 0.18)" stroke="rgba(139, 199, 184, 0.2)" stroke-width="1.2" />
  <polygon points="188.4,172.9 207.6,192.2 188.4,211.4 169.1,192.2" fill="rgba(243, 192, 154, 0.18)" stroke="rgba(139, 199, 184, 0.2)" stroke-width="1.2" />
  <polygon points="634.9,58.6 654.4,78.1 634.9,97.6 615.4,78.1" fill="rgba(226, 241, 235, 0.18)" stroke="rgba(139, 199, 184, 0.2)" stroke-width="1.2" />
  <polygon points="104.7,264.4 119.8,279.5 104.7,294.6 89.6,279.5" fill="rgba(243, 192, 154, 0.18)" stroke="rgba(139, 199, 184, 0.2)" stroke-width="1.2" />
</svg>
