<?xml version="1.0" encoding="UTF-8"?>
<svg xmlns="http://www.w3.org/2000/svg" viewBox="0 0 960 640" role="img" aria-labelledby="title-23 desc-23">
  <title id="title-23">Abstract geometric post art 24</title>
  <desc id="desc-23">An iridescent prism composition built from planes, lattices, and reflective block faces.</desc>
  <defs>
    <linearGradient id="bg-23" x1="0%" y1="0%" x2="100%" y2="100%">
      <stop offset="0%" stop-color="#f6f0e7" />
      <stop offset="55%" stop-color="rgba(221, 233, 248, 0.96)" />
      <stop offset="100%" stop-color="rgba(246, 216, 191, 0.92)" />
    </linearGradient>
    <linearGradient id="top-23" x1="0%" y1="0%" x2="100%" y2="100%">
      <stop offset="0%" stop-color="rgba(221, 233, 248, 0.94)" />
      <stop offset="50%" stop-color="rgba(246, 216, 191, 0.7)" />
      <stop offset="100%" stop-color="rgba(146, 162, 227, 0.56)" />
    </linearGradient>
    <linearGradient id="left-23" x1="0%" y1="0%" x2="0%" y2="100%">
      <stop offset="0%" stop-color="rgba(221, 233, 248, 0.7)" />
      <stop offset="100%" stop-color="rgba(146, 162, 227, 0.28)" />
    </linearGradient>
    <linearGradient id="right-23" x1="0%" y1="0%" x2="0%" y2="100%">
      <stop offset="0%" stop-color="rgba(246, 216, 191, 0.72)" />
      <stop offset="100%" stop-color="rgba(241, 178, 193, 0.24)" />
    </linearGradient>
  </defs>
  <rect width="960" height="640" fill="url(#bg-23)" />
  <rect x="24" y="24" width="912" height="592" rx="28" fill="none" stroke="rgba(146, 162, 227, 0.1)" stroke-width="1.4" />
  <polygon points="697.7,304.1 946.8,304.1 862.0,396.9 612.9,396.9" fill="rgba(221, 233, 248, 0.22)" stroke="rgba(146, 162, 227, 0.12)" stroke-width="1.2" />
  <polygon points="203.2,75.9 719.0,75.9 600.9,137.0 85.1,137.0" fill="rgba(246, 216, 191, 0.22)" stroke="rgba(146, 162, 227, 0.12)" stroke-width="1.2" />
  <polygon points="36.4,334.2 303.1,334.2 310.2,425.9 43.6,425.9" fill="rgba(221, 233, 248, 0.22)" stroke="rgba(146, 162, 227, 0.12)" stroke-width="1.2" />
  <polygon points="265.3,174.1 644.6,174.1 563.9,239.5 184.6,239.5" fill="rgba(246, 216, 191, 0.22)" stroke="rgba(146, 162, 227, 0.12)" stroke-width="1.2" />
  <polygon points="709.8,360.9 969.5,360.9 1003.3,417.4 743.6,417.4" fill="rgba(221, 233, 248, 0.22)" stroke="rgba(146, 162, 227, 0.12)" stroke-width="1.2" />
  <polyline points="174.5,434.2 307.7,373.0 375.4,355.1" fill="none" stroke="rgba(146, 162, 227, 0.24)" stroke-width="1.95" stroke-linecap="round" stroke-linejoin="round" />
  <polyline points="501.8,378.9 652.2,381.9 715.6,413.2" fill="none" stroke="rgba(241, 178, 193, 0.24)" stroke-width="2.56" stroke-linecap="round" stroke-linejoin="round" />
  <polyline points="253.7,149.5 436.7,136.2 491.9,161.8" fill="none" stroke="rgba(146, 162, 227, 0.24)" stroke-width="1.79" stroke-linecap="round" stroke-linejoin="round" />
  <polyline points="737.1,446.8 924.2,511.6 994.9,506.1" fill="none" stroke="rgba(241, 178, 193, 0.24)" stroke-width="1.92" stroke-linecap="round" stroke-linejoin="round" />
  <polyline points="597.3,350.9 784.8,342.4 820.3,366.3" fill="none" stroke="rgba(146, 162, 227, 0.24)" stroke-width="1.76" stroke-linecap="round" stroke-linejoin="round" />
  <polyline points="289.1,137.5 492.0,163.4 540.4,149.6" fill="none" stroke="rgba(241, 178, 193, 0.24)" stroke-width="2.07" stroke-linecap="round" stroke-linejoin="round" />
  <polygon points="302.2,257.2 426.1,257.2 412.9,305.5 289.0,305.5" fill="rgba(221, 233, 248, 0.3)" stroke="rgba(241, 178, 193, 0.16)" stroke-width="1.2" />
  <polygon points="185.6,232.7 277.7,232.7 273.0,291.9 180.9,291.9" fill="rgba(246, 216, 191, 0.3)" stroke="rgba(241, 178, 193, 0.16)" stroke-width="1.2" />
  <polygon points="403.3,169.2 483.7,169.2 473.9,200.3 393.5,200.3" fill="rgba(221, 233, 248, 0.3)" stroke="rgba(241, 178, 193, 0.16)" stroke-width="1.2" />
  <polygon points="536.9,495.5 646.7,495.5 617.6,526.6 507.8,526.6" fill="rgba(246, 216, 191, 0.3)" stroke="rgba(241, 178, 193, 0.16)" stroke-width="1.2" />
  <polygon points="411.7,156.0 517.7,206.5 411.7,255.2 305.7,206.5" fill="rgba(221, 233, 248, 0.52)" stroke="rgba(146, 162, 227, 0.28)" stroke-width="1.5" />
  <polygon points="305.7,206.5 411.7,255.2 411.7,446.2 305.7,397.5" fill="rgba(221, 233, 248, 0.34)" stroke="rgba(146, 162, 227, 0.26)" stroke-width="1.3" />
  <polygon points="411.7,255.2 517.7,206.5 517.7,397.5 411.7,446.2" fill="rgba(221, 233, 248, 0.34)" stroke="rgba(241, 178, 193, 0.24)" stroke-width="1.3" />
  <polygon points="191.7,396.2 571.7,396.2 661.7,464.2 281.7,464.2" fill="none" stroke="rgba(146, 162, 227, 0.16)" stroke-width="1.2" />
  <polygon points="231.7,446.2 551.7,446.2 473.7,498.2 153.7,498.2" fill="none" stroke="rgba(241, 178, 193, 0.14)" stroke-width="1.1" />
  <polygon points="503.7,436.7 518.9,452.0 503.7,467.2 488.5,452.0" fill="rgba(241, 178, 193, 0.18)" stroke="rgba(146, 162, 227, 0.2)" stroke-width="1.2" />
  <polygon points="688.1,187.4 709.0,208.4 688.1,229.3 667.1,208.4" fill="rgba(221, 233, 248, 0.18)" stroke="rgba(146, 162, 227, 0.2)" stroke-width="1.2" />
  <polygon points="865.5,494.2 886.2,514.9 865.5,535.6 844.7,514.9" fill="rgba(241, 178, 193, 0.18)" stroke="rgba(146, 162, 227, 0.2)" stroke-width="1.2" />
  <polygon points="107.9,327.9 120.8,340.8 107.9,353.8 95.0,340.8" fill="rgba(221, 233, 248, 0.18)" stroke="rgba(146, 162, 227, 0.2)" stroke-width="1.2" />
  <polygon points="554.1,311.5 565.0,322.4 554.1,333.2 543.3,322.4" fill="rgba(241, 178, 193, 0.18)" stroke="rgba(146, 162, 227, 0.2)" stroke-width="1.2" />
</svg>
