<?xml version="1.0" encoding="UTF-8"?>
<svg xmlns="http://www.w3.org/2000/svg" viewBox="0 0 960 640" role="img" aria-labelledby="title-77 desc-77">
  <title id="title-77">Abstract geometric post art 78</title>
  <desc id="desc-77">An iridescent prism composition built from planes, lattices, and reflective block faces.</desc>
  <defs>
    <linearGradient id="bg-77" x1="0%" y1="0%" x2="100%" y2="100%">
      <stop offset="0%" stop-color="#f6f0e7" />
      <stop offset="55%" stop-color="rgba(215, 236, 232, 0.96)" />
      <stop offset="100%" stop-color="rgba(243, 221, 194, 0.92)" />
    </linearGradient>
    <linearGradient id="top-77" x1="0%" y1="0%" x2="100%" y2="100%">
      <stop offset="0%" stop-color="rgba(215, 236, 232, 0.94)" />
      <stop offset="50%" stop-color="rgba(243, 221, 194, 0.7)" />
      <stop offset="100%" stop-color="rgba(113, 182, 177, 0.56)" />
    </linearGradient>
    <linearGradient id="left-77" x1="0%" y1="0%" x2="0%" y2="100%">
      <stop offset="0%" stop-color="rgba(215, 236, 232, 0.7)" />
      <stop offset="100%" stop-color="rgba(113, 182, 177, 0.28)" />
    </linearGradient>
    <linearGradient id="right-77" x1="0%" y1="0%" x2="0%" y2="100%">
      <stop offset="0%" stop-color="rgba(243, 221, 194, 0.72)" />
      <stop offset="100%" stop-color="rgba(242, 176, 143, 0.24)" />
    </linearGradient>
  </defs>
  <rect width="960" height="640" fill="url(#bg-77)" />
  <rect x="24" y="24" width="912" height="592" rx="28" fill="none" stroke="rgba(113, 182, 177, 0.1)" stroke-width="1.4" />
  <polygon points="157.9,92.2 550.0,92.2 474.0,144.7 81.9,144.7" fill="rgba(215, 236, 232, 0.22)" stroke="rgba(113, 182, 177, 0.12)" stroke-width="1.2" />
  <polygon points="308.7,437.5 666.7,437.5 629.0,516.4 271.0,516.4" fill="rgba(243, 221, 194, 0.22)" stroke="rgba(113, 182, 177, 0.12)" stroke-width="1.2" />
  <polygon points="533.4,120.3 834.3,120.3 902.2,173.7 601.3,173.7" fill="rgba(215, 236, 232, 0.22)" stroke="rgba(113, 182, 177, 0.12)" stroke-width="1.2" />
  <polygon points="335.9,294.3 772.6,294.3 886.4,373.3 449.8,373.3" fill="rgba(243, 221, 194, 0.22)" stroke="rgba(113, 182, 177, 0.12)" stroke-width="1.2" />
  <polygon points="167.2,359.1 572.2,359.1 487.4,442.7 82.4,442.7" fill="rgba(215, 236, 232, 0.22)" stroke="rgba(113, 182, 177, 0.12)" stroke-width="1.2" />
  <polyline points="364.0,116.9 515.7,135.8 565.8,149.2" fill="none" stroke="rgba(113, 182, 177, 0.24)" stroke-width="2.09" stroke-linecap="round" stroke-linejoin="round" />
  <polyline points="109.6,382.8 296.3,304.8 352.4,293.9" fill="none" stroke="rgba(242, 176, 143, 0.24)" stroke-width="1.43" stroke-linecap="round" stroke-linejoin="round" />
  <polyline points="523.9,245.0 618.9,271.0 682.5,275.4" fill="none" stroke="rgba(113, 182, 177, 0.24)" stroke-width="1.83" stroke-linecap="round" stroke-linejoin="round" />
  <polyline points="638.1,83.8 779.2,41.7 817.6,72.0" fill="none" stroke="rgba(242, 176, 143, 0.24)" stroke-width="1.58" stroke-linecap="round" stroke-linejoin="round" />
  <polyline points="405.9,319.1 609.8,348.1 674.7,335.7" fill="none" stroke="rgba(113, 182, 177, 0.24)" stroke-width="1.71" stroke-linecap="round" stroke-linejoin="round" />
  <polyline points="526.8,221.2 626.0,157.5 657.8,165.8" fill="none" stroke="rgba(242, 176, 143, 0.24)" stroke-width="1.56" stroke-linecap="round" stroke-linejoin="round" />
  <polygon points="414.5,229.9 510.9,229.9 488.8,263.9 392.5,263.9" fill="rgba(215, 236, 232, 0.3)" stroke="rgba(242, 176, 143, 0.16)" stroke-width="1.2" />
  <polygon points="170.2,203.9 276.8,203.9 287.8,245.0 181.2,245.0" fill="rgba(243, 221, 194, 0.3)" stroke="rgba(242, 176, 143, 0.16)" stroke-width="1.2" />
  <polygon points="353.7,503.2 465.8,503.2 520.5,550.6 408.4,550.6" fill="rgba(215, 236, 232, 0.3)" stroke="rgba(242, 176, 143, 0.16)" stroke-width="1.2" />
  <polygon points="523.6,390.9 629.0,390.9 629.2,441.1 523.8,441.1" fill="rgba(243, 221, 194, 0.3)" stroke="rgba(242, 176, 143, 0.16)" stroke-width="1.2" />
  <polygon points="449.5,162.1 539.6,205.0 449.5,246.4 359.3,205.0" fill="url(#top-77)" stroke="rgba(113, 182, 177, 0.28)" stroke-width="1.5" />
  <polygon points="359.3,205.0 449.5,246.4 449.5,413.9 359.3,372.5" fill="rgba(215, 236, 232, 0.4)" stroke="rgba(113, 182, 177, 0.26)" stroke-width="1.3" />
  <polygon points="449.5,246.4 539.6,205.0 539.6,372.5 449.5,413.9" fill="rgba(243, 221, 194, 0.44)" stroke="rgba(242, 176, 143, 0.26)" stroke-width="1.3" />
  <polygon points="449.5,144.3 569.5,264.3 449.5,384.3 329.5,264.3" fill="none" stroke="rgba(113, 182, 177, 0.16)" stroke-width="1.2" />
  <polygon points="449.5,100.3 613.5,264.3 449.5,428.3 285.5,264.3" fill="none" stroke="rgba(242, 176, 143, 0.12)" stroke-width="1.1" />
  <polygon points="539.8,510.1 555.4,525.8 539.8,541.4 524.2,525.8" fill="rgba(242, 176, 143, 0.18)" stroke="rgba(113, 182, 177, 0.2)" stroke-width="1.2" />
  <polygon points="806.3,190.6 827.9,212.2 806.3,233.9 784.6,212.2" fill="rgba(215, 236, 232, 0.18)" stroke="rgba(113, 182, 177, 0.2)" stroke-width="1.2" />
  <polygon points="884.5,436.7 899.2,451.4 884.5,466.0 869.9,451.4" fill="rgba(242, 176, 143, 0.18)" stroke="rgba(113, 182, 177, 0.2)" stroke-width="1.2" />
  <polygon points="600.8,135.6 616.8,151.6 600.8,167.6 584.8,151.6" fill="rgba(215, 236, 232, 0.18)" stroke="rgba(113, 182, 177, 0.2)" stroke-width="1.2" />
  <polygon points="366.2,423.6 384.5,442.0 366.2,460.4 347.8,442.0" fill="rgba(242, 176, 143, 0.18)" stroke="rgba(113, 182, 177, 0.2)" stroke-width="1.2" />
</svg>
