<?xml version="1.0" encoding="UTF-8"?>
<svg xmlns="http://www.w3.org/2000/svg" viewBox="0 0 960 640" role="img" aria-labelledby="title-10 desc-10">
  <title id="title-10">Abstract geometric post art 11</title>
  <desc id="desc-10">An iridescent prism composition built from planes, lattices, and reflective block faces.</desc>
  <defs>
    <linearGradient id="bg-10" x1="0%" y1="0%" x2="100%" y2="100%">
      <stop offset="0%" stop-color="#f6f0e7" />
      <stop offset="55%" stop-color="rgba(217, 242, 239, 0.96)" />
      <stop offset="100%" stop-color="rgba(246, 210, 180, 0.92)" />
    </linearGradient>
    <linearGradient id="top-10" x1="0%" y1="0%" x2="100%" y2="100%">
      <stop offset="0%" stop-color="rgba(217, 242, 239, 0.94)" />
      <stop offset="50%" stop-color="rgba(246, 210, 180, 0.7)" />
      <stop offset="100%" stop-color="rgba(143, 207, 208, 0.56)" />
    </linearGradient>
    <linearGradient id="left-10" x1="0%" y1="0%" x2="0%" y2="100%">
      <stop offset="0%" stop-color="rgba(217, 242, 239, 0.7)" />
      <stop offset="100%" stop-color="rgba(143, 207, 208, 0.28)" />
    </linearGradient>
    <linearGradient id="right-10" x1="0%" y1="0%" x2="0%" y2="100%">
      <stop offset="0%" stop-color="rgba(246, 210, 180, 0.72)" />
      <stop offset="100%" stop-color="rgba(255, 179, 157, 0.24)" />
    </linearGradient>
  </defs>
  <rect width="960" height="640" fill="url(#bg-10)" />
  <rect x="24" y="24" width="912" height="592" rx="28" fill="none" stroke="rgba(143, 207, 208, 0.1)" stroke-width="1.4" />
  <polygon points="118.3,257.9 605.0,257.9 602.8,332.6 116.1,332.6" fill="rgba(217, 242, 239, 0.22)" stroke="rgba(143, 207, 208, 0.12)" stroke-width="1.2" />
  <polygon points="-55.0,463.5 329.2,463.5 316.9,528.1 -67.3,528.1" fill="rgba(246, 210, 180, 0.22)" stroke="rgba(143, 207, 208, 0.12)" stroke-width="1.2" />
  <polygon points="586.4,371.9 946.7,371.9 982.6,477.6 622.3,477.6" fill="rgba(217, 242, 239, 0.22)" stroke="rgba(143, 207, 208, 0.12)" stroke-width="1.2" />
  <polygon points="345.7,171.6 777.2,171.6 734.9,230.2 303.4,230.2" fill="rgba(246, 210, 180, 0.22)" stroke="rgba(143, 207, 208, 0.12)" stroke-width="1.2" />
  <polyline points="643.9,255.6 753.8,271.3 817.6,255.9" fill="none" stroke="rgba(143, 207, 208, 0.24)" stroke-width="2.14" stroke-linecap="round" stroke-linejoin="round" />
  <polyline points="312.7,342.1 434.3,356.5 465.3,343.2" fill="none" stroke="rgba(255, 179, 157, 0.24)" stroke-width="1.69" stroke-linecap="round" stroke-linejoin="round" />
  <polyline points="109.1,253.1 290.8,213.5 345.1,238.8" fill="none" stroke="rgba(143, 207, 208, 0.24)" stroke-width="1.86" stroke-linecap="round" stroke-linejoin="round" />
  <polyline points="190.7,261.9 358.8,284.8 410.0,283.7" fill="none" stroke="rgba(255, 179, 157, 0.24)" stroke-width="2.13" stroke-linecap="round" stroke-linejoin="round" />
  <polyline points="748.9,378.1 875.5,314.3 942.8,346.0" fill="none" stroke="rgba(143, 207, 208, 0.24)" stroke-width="2.53" stroke-linecap="round" stroke-linejoin="round" />
  <polyline points="466.4,146.2 643.9,103.5 676.2,94.8" fill="none" stroke="rgba(255, 179, 157, 0.24)" stroke-width="2.21" stroke-linecap="round" stroke-linejoin="round" />
  <polygon points="727.5,442.4 831.4,442.4 885.8,478.8 781.9,478.8" fill="rgba(217, 242, 239, 0.3)" stroke="rgba(255, 179, 157, 0.16)" stroke-width="1.2" />
  <polygon points="314.6,249.4 434.7,249.4 450.2,289.4 330.2,289.4" fill="rgba(246, 210, 180, 0.3)" stroke="rgba(255, 179, 157, 0.16)" stroke-width="1.2" />
  <polygon points="565.5,474.4 641.8,474.4 588.1,521.6 511.8,521.6" fill="rgba(217, 242, 239, 0.3)" stroke="rgba(255, 179, 157, 0.16)" stroke-width="1.2" />
  <polygon points="210.3,404.2 322.4,404.2 307.4,450.4 195.3,450.4" fill="rgba(246, 210, 180, 0.3)" stroke="rgba(255, 179, 157, 0.16)" stroke-width="1.2" />
  <polygon points="563.0,172.1 684.7,230.0 563.0,286.0 441.2,230.0" fill="url(#top-10)" stroke="rgba(143, 207, 208, 0.42)" stroke-width="1.6" />
  <polygon points="441.2,230.0 563.0,286.0 563.0,459.8 441.2,403.9" fill="rgba(217, 242, 239, 0.48)" stroke="rgba(143, 207, 208, 0.32)" stroke-width="1.4" />
  <polygon points="563.0,286.0 684.7,230.0 684.7,403.9 563.0,459.8" fill="rgba(246, 210, 180, 0.48)" stroke="rgba(255, 179, 157, 0.28)" stroke-width="1.4" />
  <polygon points="611.2,167.4 710.4,214.7 611.2,260.2 512.0,214.7" fill="none" stroke="rgba(143, 207, 208, 0.16)" stroke-width="1.3" />
  <polygon points="512.0,214.7 611.2,260.2 611.2,390.7 512.0,345.1" fill="none" stroke="rgba(143, 207, 208, 0.14)" stroke-width="1.2" />
  <polygon points="611.2,260.2 710.4,214.7 710.4,345.1 611.2,390.7" fill="none" stroke="rgba(255, 179, 157, 0.14)" stroke-width="1.2" />
  <polygon points="876.4,347.2 890.4,361.2 876.4,375.2 862.3,361.2" fill="rgba(255, 179, 157, 0.18)" stroke="rgba(143, 207, 208, 0.2)" stroke-width="1.2" />
  <polygon points="736.2,99.8 749.1,112.7 736.2,125.6 723.4,112.7" fill="rgba(217, 242, 239, 0.18)" stroke="rgba(143, 207, 208, 0.2)" stroke-width="1.2" />
  <polygon points="369.6,196.4 384.6,211.4 369.6,226.5 354.5,211.4" fill="rgba(255, 179, 157, 0.18)" stroke="rgba(143, 207, 208, 0.2)" stroke-width="1.2" />
  <polygon points="141.1,546.4 156.1,561.4 141.1,576.4 126.1,561.4" fill="rgba(217, 242, 239, 0.18)" stroke="rgba(143, 207, 208, 0.2)" stroke-width="1.2" />
  <polygon points="157.5,435.5 177.7,455.7 157.5,476.0 137.3,455.7" fill="rgba(255, 179, 157, 0.18)" stroke="rgba(143, 207, 208, 0.2)" stroke-width="1.2" />
</svg>
