<?xml version="1.0" encoding="UTF-8"?>
<svg xmlns="http://www.w3.org/2000/svg" viewBox="0 0 960 640" role="img" aria-labelledby="title-80 desc-80">
  <title id="title-80">Abstract geometric post art 81</title>
  <desc id="desc-80">An iridescent prism composition built from planes, lattices, and reflective block faces.</desc>
  <defs>
    <linearGradient id="bg-80" x1="0%" y1="0%" x2="100%" y2="100%">
      <stop offset="0%" stop-color="#f6f0e7" />
      <stop offset="55%" stop-color="rgba(217, 242, 239, 0.96)" />
      <stop offset="100%" stop-color="rgba(246, 210, 180, 0.92)" />
    </linearGradient>
    <linearGradient id="top-80" x1="0%" y1="0%" x2="100%" y2="100%">
      <stop offset="0%" stop-color="rgba(217, 242, 239, 0.94)" />
      <stop offset="50%" stop-color="rgba(246, 210, 180, 0.7)" />
      <stop offset="100%" stop-color="rgba(143, 207, 208, 0.56)" />
    </linearGradient>
    <linearGradient id="left-80" x1="0%" y1="0%" x2="0%" y2="100%">
      <stop offset="0%" stop-color="rgba(217, 242, 239, 0.7)" />
      <stop offset="100%" stop-color="rgba(143, 207, 208, 0.28)" />
    </linearGradient>
    <linearGradient id="right-80" x1="0%" y1="0%" x2="0%" y2="100%">
      <stop offset="0%" stop-color="rgba(246, 210, 180, 0.72)" />
      <stop offset="100%" stop-color="rgba(255, 179, 157, 0.24)" />
    </linearGradient>
  </defs>
  <rect width="960" height="640" fill="url(#bg-80)" />
  <rect x="24" y="24" width="912" height="592" rx="28" fill="none" stroke="rgba(143, 207, 208, 0.1)" stroke-width="1.4" />
  <polygon points="278.6,180.0 766.7,180.0 813.5,284.7 325.5,284.7" fill="rgba(217, 242, 239, 0.22)" stroke="rgba(143, 207, 208, 0.12)" stroke-width="1.2" />
  <polygon points="251.6,284.3 640.0,284.3 539.5,349.5 151.1,349.5" fill="rgba(246, 210, 180, 0.22)" stroke="rgba(143, 207, 208, 0.12)" stroke-width="1.2" />
  <polygon points="117.0,230.7 399.8,230.7 323.4,305.8 40.7,305.8" fill="rgba(217, 242, 239, 0.22)" stroke="rgba(143, 207, 208, 0.12)" stroke-width="1.2" />
  <polygon points="711.5,222.7 964.7,222.7 864.5,292.7 611.2,292.7" fill="rgba(246, 210, 180, 0.22)" stroke="rgba(143, 207, 208, 0.12)" stroke-width="1.2" />
  <polygon points="404.6,247.1 798.7,247.1 708.2,337.9 314.1,337.9" fill="rgba(217, 242, 239, 0.22)" stroke="rgba(143, 207, 208, 0.12)" stroke-width="1.2" />
  <polyline points="738.2,386.9 878.2,375.8 936.4,412.5" fill="none" stroke="rgba(143, 207, 208, 0.24)" stroke-width="2.42" stroke-linecap="round" stroke-linejoin="round" />
  <polyline points="414.0,304.5 506.4,264.1 564.0,252.1" fill="none" stroke="rgba(255, 179, 157, 0.24)" stroke-width="2.53" stroke-linecap="round" stroke-linejoin="round" />
  <polyline points="610.4,142.2 726.5,62.8 756.4,89.3" fill="none" stroke="rgba(143, 207, 208, 0.24)" stroke-width="2.60" stroke-linecap="round" stroke-linejoin="round" />
  <polyline points="245.2,427.1 357.4,405.4 393.0,403.0" fill="none" stroke="rgba(255, 179, 157, 0.24)" stroke-width="2.57" stroke-linecap="round" stroke-linejoin="round" />
  <polyline points="604.9,317.0 702.7,259.2 761.6,260.7" fill="none" stroke="rgba(143, 207, 208, 0.24)" stroke-width="1.40" stroke-linecap="round" stroke-linejoin="round" />
  <polyline points="611.9,458.0 812.1,505.9 854.9,511.1" fill="none" stroke="rgba(255, 179, 157, 0.24)" stroke-width="1.90" stroke-linecap="round" stroke-linejoin="round" />
  <polygon points="316.9,345.6 435.3,345.6 440.1,391.9 321.7,391.9" fill="rgba(217, 242, 239, 0.3)" stroke="rgba(255, 179, 157, 0.16)" stroke-width="1.2" />
  <polygon points="360.2,273.8 454.5,273.8 406.4,308.6 312.1,308.6" fill="rgba(246, 210, 180, 0.3)" stroke="rgba(255, 179, 157, 0.16)" stroke-width="1.2" />
  <polygon points="321.7,166.9 431.6,166.9 391.7,202.0 281.8,202.0" fill="rgba(217, 242, 239, 0.3)" stroke="rgba(255, 179, 157, 0.16)" stroke-width="1.2" />
  <polygon points="197.1,433.0 330.5,433.0 315.1,472.1 181.6,472.1" fill="rgba(246, 210, 180, 0.3)" stroke="rgba(255, 179, 157, 0.16)" stroke-width="1.2" />
  <polygon points="463.3,100.6 583.7,157.9 463.3,213.2 342.9,157.9" fill="url(#top-80)" stroke="rgba(143, 207, 208, 0.42)" stroke-width="1.6" />
  <polygon points="342.9,157.9 463.3,213.2 463.3,347.3 342.9,291.9" fill="rgba(217, 242, 239, 0.48)" stroke="rgba(143, 207, 208, 0.32)" stroke-width="1.4" />
  <polygon points="463.3,213.2 583.7,157.9 583.7,291.9 463.3,347.3" fill="rgba(246, 210, 180, 0.48)" stroke="rgba(255, 179, 157, 0.28)" stroke-width="1.4" />
  <polygon points="493.6,118.7 572.1,156.0 493.6,192.1 415.1,156.0" fill="none" stroke="rgba(143, 207, 208, 0.16)" stroke-width="1.3" />
  <polygon points="415.1,156.0 493.6,192.1 493.6,320.4 415.1,284.3" fill="none" stroke="rgba(143, 207, 208, 0.14)" stroke-width="1.2" />
  <polygon points="493.6,192.1 572.1,156.0 572.1,284.3 493.6,320.4" fill="none" stroke="rgba(255, 179, 157, 0.14)" stroke-width="1.2" />
  <polygon points="726.4,189.9 746.5,210.0 726.4,230.1 706.3,210.0" fill="rgba(255, 179, 157, 0.18)" stroke="rgba(143, 207, 208, 0.2)" stroke-width="1.2" />
  <polygon points="402.3,427.9 421.3,447.0 402.3,466.0 383.3,447.0" fill="rgba(217, 242, 239, 0.18)" stroke="rgba(143, 207, 208, 0.2)" stroke-width="1.2" />
  <polygon points="504.3,552.0 514.9,562.6 504.3,573.2 493.7,562.6" fill="rgba(255, 179, 157, 0.18)" stroke="rgba(143, 207, 208, 0.2)" stroke-width="1.2" />
  <polygon points="446.4,505.9 460.4,519.9 446.4,533.8 432.4,519.9" fill="rgba(217, 242, 239, 0.18)" stroke="rgba(143, 207, 208, 0.2)" stroke-width="1.2" />
  <polygon points="404.7,247.9 420.9,264.1 404.7,280.4 388.5,264.1" fill="rgba(255, 179, 157, 0.18)" stroke="rgba(143, 207, 208, 0.2)" stroke-width="1.2" />
</svg>
