<?xml version="1.0" encoding="UTF-8"?>
<svg xmlns="http://www.w3.org/2000/svg" viewBox="0 0 960 640" role="img" aria-labelledby="title-3 desc-3">
  <title id="title-3">Abstract geometric post art 4</title>
  <desc id="desc-3">An iridescent prism composition built from planes, lattices, and reflective block faces.</desc>
  <defs>
    <linearGradient id="bg-3" x1="0%" y1="0%" x2="100%" y2="100%">
      <stop offset="0%" stop-color="#f6f0e7" />
      <stop offset="55%" stop-color="rgba(221, 233, 248, 0.96)" />
      <stop offset="100%" stop-color="rgba(246, 216, 191, 0.92)" />
    </linearGradient>
    <linearGradient id="top-3" x1="0%" y1="0%" x2="100%" y2="100%">
      <stop offset="0%" stop-color="rgba(221, 233, 248, 0.94)" />
      <stop offset="50%" stop-color="rgba(246, 216, 191, 0.7)" />
      <stop offset="100%" stop-color="rgba(146, 162, 227, 0.56)" />
    </linearGradient>
    <linearGradient id="left-3" x1="0%" y1="0%" x2="0%" y2="100%">
      <stop offset="0%" stop-color="rgba(221, 233, 248, 0.7)" />
      <stop offset="100%" stop-color="rgba(146, 162, 227, 0.28)" />
    </linearGradient>
    <linearGradient id="right-3" x1="0%" y1="0%" x2="0%" y2="100%">
      <stop offset="0%" stop-color="rgba(246, 216, 191, 0.72)" />
      <stop offset="100%" stop-color="rgba(241, 178, 193, 0.24)" />
    </linearGradient>
  </defs>
  <rect width="960" height="640" fill="url(#bg-3)" />
  <rect x="24" y="24" width="912" height="592" rx="28" fill="none" stroke="rgba(146, 162, 227, 0.1)" stroke-width="1.4" />
  <polygon points="-60.5,116.9 421.7,116.9 496.0,210.8 13.8,210.8" fill="rgba(221, 233, 248, 0.22)" stroke="rgba(146, 162, 227, 0.12)" stroke-width="1.2" />
  <polygon points="-71.9,396.5 192.5,396.5 107.2,471.4 -157.2,471.4" fill="rgba(246, 216, 191, 0.22)" stroke="rgba(146, 162, 227, 0.12)" stroke-width="1.2" />
  <polygon points="237.5,91.5 467.4,91.5 353.7,183.2 123.8,183.2" fill="rgba(221, 233, 248, 0.22)" stroke="rgba(146, 162, 227, 0.12)" stroke-width="1.2" />
  <polyline points="287.7,449.0 472.0,513.7 498.0,517.8" fill="none" stroke="rgba(146, 162, 227, 0.24)" stroke-width="1.67" stroke-linecap="round" stroke-linejoin="round" />
  <polyline points="385.2,309.6 548.2,354.2 619.4,370.3" fill="none" stroke="rgba(241, 178, 193, 0.24)" stroke-width="2.33" stroke-linecap="round" stroke-linejoin="round" />
  <polyline points="361.7,143.2 514.9,63.4 563.4,102.7" fill="none" stroke="rgba(146, 162, 227, 0.24)" stroke-width="1.54" stroke-linecap="round" stroke-linejoin="round" />
  <polyline points="634.7,446.2 789.0,389.6 835.5,426.2" fill="none" stroke="rgba(241, 178, 193, 0.24)" stroke-width="1.56" stroke-linecap="round" stroke-linejoin="round" />
  <polyline points="313.1,279.0 485.6,265.8 534.9,262.8" fill="none" stroke="rgba(146, 162, 227, 0.24)" stroke-width="2.31" stroke-linecap="round" stroke-linejoin="round" />
  <polyline points="449.3,82.7 597.9,22.2 638.5,59.0" fill="none" stroke="rgba(241, 178, 193, 0.24)" stroke-width="2.30" stroke-linecap="round" stroke-linejoin="round" />
  <polygon points="695.0,323.0 779.4,323.0 773.1,353.4 688.7,353.4" fill="rgba(221, 233, 248, 0.3)" stroke="rgba(241, 178, 193, 0.16)" stroke-width="1.2" />
  <polygon points="496.1,296.9 612.9,296.9 578.8,360.3 462.0,360.3" fill="rgba(246, 216, 191, 0.3)" stroke="rgba(241, 178, 193, 0.16)" stroke-width="1.2" />
  <polygon points="592.6,153.0 701.5,153.0 677.4,209.8 568.5,209.8" fill="rgba(221, 233, 248, 0.3)" stroke="rgba(241, 178, 193, 0.16)" stroke-width="1.2" />
  <polygon points="661.8,155.3 782.4,155.3 804.3,186.0 683.7,186.0" fill="rgba(246, 216, 191, 0.3)" stroke="rgba(241, 178, 193, 0.16)" stroke-width="1.2" />
  <polygon points="530.7,130.5 648.5,186.6 530.7,240.7 412.8,186.6" fill="rgba(221, 233, 248, 0.52)" stroke="rgba(146, 162, 227, 0.28)" stroke-width="1.5" />
  <polygon points="412.8,186.6 530.7,240.7 530.7,389.1 412.8,335.0" fill="rgba(221, 233, 248, 0.34)" stroke="rgba(146, 162, 227, 0.26)" stroke-width="1.3" />
  <polygon points="530.7,240.7 648.5,186.6 648.5,335.0 530.7,389.1" fill="rgba(221, 233, 248, 0.34)" stroke="rgba(241, 178, 193, 0.24)" stroke-width="1.3" />
  <polygon points="310.7,379.6 690.7,379.6 780.7,447.6 400.7,447.6" fill="none" stroke="rgba(146, 162, 227, 0.16)" stroke-width="1.2" />
  <polygon points="350.7,429.6 670.7,429.6 592.7,481.6 272.7,481.6" fill="none" stroke="rgba(241, 178, 193, 0.14)" stroke-width="1.1" />
  <polygon points="780.8,307.1 791.8,318.1 780.8,329.1 769.8,318.1" fill="rgba(241, 178, 193, 0.18)" stroke="rgba(146, 162, 227, 0.2)" stroke-width="1.2" />
  <polygon points="568.9,359.8 580.7,371.6 568.9,383.4 557.0,371.6" fill="rgba(221, 233, 248, 0.18)" stroke="rgba(146, 162, 227, 0.2)" stroke-width="1.2" />
  <polygon points="178.9,336.1 194.5,351.6 178.9,367.2 163.4,351.6" fill="rgba(241, 178, 193, 0.18)" stroke="rgba(146, 162, 227, 0.2)" stroke-width="1.2" />
  <polygon points="277.4,166.4 287.9,176.8 277.4,187.3 266.9,176.8" fill="rgba(221, 233, 248, 0.18)" stroke="rgba(146, 162, 227, 0.2)" stroke-width="1.2" />
  <polygon points="139.1,328.6 155.5,344.9 139.1,361.3 122.8,344.9" fill="rgba(241, 178, 193, 0.18)" stroke="rgba(146, 162, 227, 0.2)" stroke-width="1.2" />
</svg>
