<?xml version="1.0" encoding="UTF-8"?>
<svg xmlns="http://www.w3.org/2000/svg" viewBox="0 0 960 640" role="img" aria-labelledby="title-54 desc-54">
  <title id="title-54">Abstract geometric post art 55</title>
  <desc id="desc-54">An iridescent prism composition built from planes, lattices, and reflective block faces.</desc>
  <defs>
    <linearGradient id="bg-54" x1="0%" y1="0%" x2="100%" y2="100%">
      <stop offset="0%" stop-color="#f6f0e7" />
      <stop offset="55%" stop-color="rgba(226, 241, 235, 0.96)" />
      <stop offset="100%" stop-color="rgba(247, 219, 197, 0.92)" />
    </linearGradient>
    <linearGradient id="top-54" x1="0%" y1="0%" x2="100%" y2="100%">
      <stop offset="0%" stop-color="rgba(226, 241, 235, 0.94)" />
      <stop offset="50%" stop-color="rgba(247, 219, 197, 0.7)" />
      <stop offset="100%" stop-color="rgba(139, 199, 184, 0.56)" />
    </linearGradient>
    <linearGradient id="left-54" x1="0%" y1="0%" x2="0%" y2="100%">
      <stop offset="0%" stop-color="rgba(226, 241, 235, 0.7)" />
      <stop offset="100%" stop-color="rgba(139, 199, 184, 0.28)" />
    </linearGradient>
    <linearGradient id="right-54" x1="0%" y1="0%" x2="0%" y2="100%">
      <stop offset="0%" stop-color="rgba(247, 219, 197, 0.72)" />
      <stop offset="100%" stop-color="rgba(243, 192, 154, 0.24)" />
    </linearGradient>
  </defs>
  <rect width="960" height="640" fill="url(#bg-54)" />
  <rect x="24" y="24" width="912" height="592" rx="28" fill="none" stroke="rgba(139, 199, 184, 0.1)" stroke-width="1.4" />
  <polygon points="137.6,416.5 556.1,416.5 604.2,506.6 185.7,506.6" fill="rgba(226, 241, 235, 0.22)" stroke="rgba(139, 199, 184, 0.12)" stroke-width="1.2" />
  <polygon points="-41.9,110.1 466.9,110.1 400.2,171.7 -108.6,171.7" fill="rgba(247, 219, 197, 0.22)" stroke="rgba(139, 199, 184, 0.12)" stroke-width="1.2" />
  <polygon points="482.2,294.7 789.6,294.7 887.6,352.0 580.2,352.0" fill="rgba(226, 241, 235, 0.22)" stroke="rgba(139, 199, 184, 0.12)" stroke-width="1.2" />
  <polyline points="79.0,293.3 217.0,266.5 281.7,266.4" fill="none" stroke="rgba(139, 199, 184, 0.24)" stroke-width="1.41" stroke-linecap="round" stroke-linejoin="round" />
  <polyline points="240.4,282.1 335.9,310.4 404.5,305.3" fill="none" stroke="rgba(243, 192, 154, 0.24)" stroke-width="2.05" stroke-linecap="round" stroke-linejoin="round" />
  <polyline points="233.9,266.2 436.0,333.5 503.4,341.5" fill="none" stroke="rgba(139, 199, 184, 0.24)" stroke-width="2.45" stroke-linecap="round" stroke-linejoin="round" />
  <polyline points="256.7,231.3 435.0,247.7 476.7,250.6" fill="none" stroke="rgba(243, 192, 154, 0.24)" stroke-width="1.52" stroke-linecap="round" stroke-linejoin="round" />
  <polyline points="631.8,200.1 723.5,150.2 764.8,136.9" fill="none" stroke="rgba(139, 199, 184, 0.24)" stroke-width="2.29" stroke-linecap="round" stroke-linejoin="round" />
  <polyline points="694.4,236.1 792.3,280.4 822.9,285.4" fill="none" stroke="rgba(243, 192, 154, 0.24)" stroke-width="1.69" stroke-linecap="round" stroke-linejoin="round" />
  <polygon points="522.0,384.6 631.1,384.6 673.3,416.8 564.2,416.8" fill="rgba(226, 241, 235, 0.3)" stroke="rgba(243, 192, 154, 0.16)" stroke-width="1.2" />
  <polygon points="343.9,494.3 461.9,494.3 499.4,551.5 381.3,551.5" fill="rgba(247, 219, 197, 0.3)" stroke="rgba(243, 192, 154, 0.16)" stroke-width="1.2" />
  <polygon points="682.7,503.6 802.9,503.6 824.5,545.5 704.3,545.5" fill="rgba(226, 241, 235, 0.3)" stroke="rgba(243, 192, 154, 0.16)" stroke-width="1.2" />
  <polygon points="685.8,90.3 776.6,90.3 821.4,151.8 730.5,151.8" fill="rgba(247, 219, 197, 0.3)" stroke="rgba(243, 192, 154, 0.16)" stroke-width="1.2" />
  <polygon points="554.6,163.3 668.2,217.4 554.6,269.5 441.1,217.4" fill="url(#top-54)" stroke="rgba(139, 199, 184, 0.26)" stroke-width="1.5" />
  <polygon points="441.1,217.4 554.6,269.5 554.6,442.0 441.1,389.9" fill="url(#left-54)" stroke="rgba(139, 199, 184, 0.22)" stroke-width="1.3" />
  <polygon points="554.6,269.5 668.2,217.4 668.2,389.9 554.6,442.0" fill="url(#right-54)" stroke="rgba(243, 192, 154, 0.22)" stroke-width="1.3" />
  <polygon points="394.6,255.2 438.6,299.2 394.6,343.2 350.6,299.2" fill="rgba(226, 241, 235, 0.16)" stroke="rgba(139, 199, 184, 0.18)" stroke-width="1.2" />
  <polygon points="734.6,221.2 772.6,259.2 734.6,297.2 696.6,259.2" fill="rgba(247, 219, 197, 0.16)" stroke="rgba(243, 192, 154, 0.18)" stroke-width="1.2" />
  <polygon points="294.4,425.5 309.3,440.4 294.4,455.3 279.5,440.4" fill="rgba(243, 192, 154, 0.18)" stroke="rgba(139, 199, 184, 0.2)" stroke-width="1.2" />
  <polygon points="423.7,439.5 438.9,454.7 423.7,469.9 408.4,454.7" fill="rgba(226, 241, 235, 0.18)" stroke="rgba(139, 199, 184, 0.2)" stroke-width="1.2" />
  <polygon points="789.5,291.4 807.9,309.8 789.5,328.1 771.1,309.8" fill="rgba(243, 192, 154, 0.18)" stroke="rgba(139, 199, 184, 0.2)" stroke-width="1.2" />
  <polygon points="668.8,88.1 683.6,102.9 668.8,117.7 654.1,102.9" fill="rgba(226, 241, 235, 0.18)" stroke="rgba(139, 199, 184, 0.2)" stroke-width="1.2" />
  <polygon points="709.4,160.0 728.5,179.1 709.4,198.2 690.3,179.1" fill="rgba(243, 192, 154, 0.18)" stroke="rgba(139, 199, 184, 0.2)" stroke-width="1.2" />
</svg>
