<?xml version="1.0" encoding="UTF-8"?>
<svg xmlns="http://www.w3.org/2000/svg" viewBox="0 0 960 640" role="img" aria-labelledby="title-7 desc-7">
  <title id="title-7">Abstract geometric post art 8</title>
  <desc id="desc-7">An iridescent prism composition built from planes, lattices, and reflective block faces.</desc>
  <defs>
    <linearGradient id="bg-7" x1="0%" y1="0%" x2="100%" y2="100%">
      <stop offset="0%" stop-color="#f6f0e7" />
      <stop offset="55%" stop-color="rgba(215, 236, 232, 0.96)" />
      <stop offset="100%" stop-color="rgba(243, 221, 194, 0.92)" />
    </linearGradient>
    <linearGradient id="top-7" x1="0%" y1="0%" x2="100%" y2="100%">
      <stop offset="0%" stop-color="rgba(215, 236, 232, 0.94)" />
      <stop offset="50%" stop-color="rgba(243, 221, 194, 0.7)" />
      <stop offset="100%" stop-color="rgba(113, 182, 177, 0.56)" />
    </linearGradient>
    <linearGradient id="left-7" x1="0%" y1="0%" x2="0%" y2="100%">
      <stop offset="0%" stop-color="rgba(215, 236, 232, 0.7)" />
      <stop offset="100%" stop-color="rgba(113, 182, 177, 0.28)" />
    </linearGradient>
    <linearGradient id="right-7" x1="0%" y1="0%" x2="0%" y2="100%">
      <stop offset="0%" stop-color="rgba(243, 221, 194, 0.72)" />
      <stop offset="100%" stop-color="rgba(242, 176, 143, 0.24)" />
    </linearGradient>
  </defs>
  <rect width="960" height="640" fill="url(#bg-7)" />
  <rect x="24" y="24" width="912" height="592" rx="28" fill="none" stroke="rgba(113, 182, 177, 0.1)" stroke-width="1.4" />
  <polygon points="96.5,363.6 376.5,363.6 339.4,408.8 59.4,408.8" fill="rgba(215, 236, 232, 0.22)" stroke="rgba(113, 182, 177, 0.12)" stroke-width="1.2" />
  <polygon points="-46.5,237.3 439.8,237.3 365.7,336.9 -120.6,336.9" fill="rgba(243, 221, 194, 0.22)" stroke="rgba(113, 182, 177, 0.12)" stroke-width="1.2" />
  <polygon points="350.2,346.4 753.7,346.4 700.5,455.9 297.0,455.9" fill="rgba(215, 236, 232, 0.22)" stroke="rgba(113, 182, 177, 0.12)" stroke-width="1.2" />
  <polygon points="12.6,230.7 294.6,230.7 251.7,314.6 -30.4,314.6" fill="rgba(243, 221, 194, 0.22)" stroke="rgba(113, 182, 177, 0.12)" stroke-width="1.2" />
  <polyline points="267.7,399.3 423.6,397.9 484.1,419.6" fill="none" stroke="rgba(113, 182, 177, 0.24)" stroke-width="1.88" stroke-linecap="round" stroke-linejoin="round" />
  <polyline points="646.2,440.9 789.4,423.8 834.6,440.3" fill="none" stroke="rgba(242, 176, 143, 0.24)" stroke-width="2.15" stroke-linecap="round" stroke-linejoin="round" />
  <polyline points="229.1,353.5 362.3,336.1 423.5,365.0" fill="none" stroke="rgba(113, 182, 177, 0.24)" stroke-width="1.44" stroke-linecap="round" stroke-linejoin="round" />
  <polyline points="308.0,154.1 511.5,200.6 576.8,194.4" fill="none" stroke="rgba(242, 176, 143, 0.24)" stroke-width="1.88" stroke-linecap="round" stroke-linejoin="round" />
  <polyline points="212.8,242.9 343.6,308.6 404.2,336.5" fill="none" stroke="rgba(113, 182, 177, 0.24)" stroke-width="2.38" stroke-linecap="round" stroke-linejoin="round" />
  <polyline points="692.3,242.0 835.6,201.3 881.6,188.6" fill="none" stroke="rgba(242, 176, 143, 0.24)" stroke-width="1.73" stroke-linecap="round" stroke-linejoin="round" />
  <polygon points="184.6,308.4 321.6,308.4 311.3,352.3 174.2,352.3" fill="rgba(215, 236, 232, 0.3)" stroke="rgba(242, 176, 143, 0.16)" stroke-width="1.2" />
  <polygon points="326.7,201.9 405.7,201.9 365.8,241.3 286.9,241.3" fill="rgba(243, 221, 194, 0.3)" stroke="rgba(242, 176, 143, 0.16)" stroke-width="1.2" />
  <polygon points="551.6,435.5 663.7,435.5 617.2,495.6 505.1,495.6" fill="rgba(215, 236, 232, 0.3)" stroke="rgba(242, 176, 143, 0.16)" stroke-width="1.2" />
  <polygon points="497.1,231.4 645.5,231.4 696.3,279.2 547.9,279.2" fill="rgba(243, 221, 194, 0.3)" stroke="rgba(242, 176, 143, 0.16)" stroke-width="1.2" />
  <polygon points="549.1,225.3 647.4,272.1 549.1,317.2 450.8,272.1" fill="url(#top-7)" stroke="rgba(113, 182, 177, 0.28)" stroke-width="1.5" />
  <polygon points="450.8,272.1 549.1,317.2 549.1,458.8 450.8,413.6" fill="rgba(215, 236, 232, 0.4)" stroke="rgba(113, 182, 177, 0.26)" stroke-width="1.3" />
  <polygon points="549.1,317.2 647.4,272.1 647.4,413.6 549.1,458.8" fill="rgba(243, 221, 194, 0.44)" stroke="rgba(242, 176, 143, 0.26)" stroke-width="1.3" />
  <polygon points="549.1,213.6 669.1,333.6 549.1,453.6 429.1,333.6" fill="none" stroke="rgba(113, 182, 177, 0.16)" stroke-width="1.2" />
  <polygon points="549.1,169.6 713.1,333.6 549.1,497.6 385.1,333.6" fill="none" stroke="rgba(242, 176, 143, 0.12)" stroke-width="1.1" />
  <polygon points="707.3,392.8 721.7,407.2 707.3,421.5 692.9,407.2" fill="rgba(242, 176, 143, 0.18)" stroke="rgba(113, 182, 177, 0.2)" stroke-width="1.2" />
  <polygon points="558.3,315.8 577.8,335.3 558.3,354.8 538.8,335.3" fill="rgba(215, 236, 232, 0.18)" stroke="rgba(113, 182, 177, 0.2)" stroke-width="1.2" />
  <polygon points="437.0,517.9 449.7,530.6 437.0,543.4 424.2,530.6" fill="rgba(242, 176, 143, 0.18)" stroke="rgba(113, 182, 177, 0.2)" stroke-width="1.2" />
  <polygon points="387.9,319.7 409.2,341.0 387.9,362.3 366.6,341.0" fill="rgba(215, 236, 232, 0.18)" stroke="rgba(113, 182, 177, 0.2)" stroke-width="1.2" />
  <polygon points="378.8,529.4 395.8,546.4 378.8,563.4 361.9,546.4" fill="rgba(242, 176, 143, 0.18)" stroke="rgba(113, 182, 177, 0.2)" stroke-width="1.2" />
</svg>
