<?xml version="1.0" encoding="UTF-8"?>
<svg xmlns="http://www.w3.org/2000/svg" viewBox="0 0 960 640" role="img" aria-labelledby="title-18 desc-18">
  <title id="title-18">Abstract geometric post art 19</title>
  <desc id="desc-18">An iridescent prism composition built from planes, lattices, and reflective block faces.</desc>
  <defs>
    <linearGradient id="bg-18" x1="0%" y1="0%" x2="100%" y2="100%">
      <stop offset="0%" stop-color="#f6f0e7" />
      <stop offset="55%" stop-color="rgba(221, 233, 248, 0.96)" />
      <stop offset="100%" stop-color="rgba(246, 216, 191, 0.92)" />
    </linearGradient>
    <linearGradient id="top-18" x1="0%" y1="0%" x2="100%" y2="100%">
      <stop offset="0%" stop-color="rgba(221, 233, 248, 0.94)" />
      <stop offset="50%" stop-color="rgba(246, 216, 191, 0.7)" />
      <stop offset="100%" stop-color="rgba(146, 162, 227, 0.56)" />
    </linearGradient>
    <linearGradient id="left-18" x1="0%" y1="0%" x2="0%" y2="100%">
      <stop offset="0%" stop-color="rgba(221, 233, 248, 0.7)" />
      <stop offset="100%" stop-color="rgba(146, 162, 227, 0.28)" />
    </linearGradient>
    <linearGradient id="right-18" x1="0%" y1="0%" x2="0%" y2="100%">
      <stop offset="0%" stop-color="rgba(246, 216, 191, 0.72)" />
      <stop offset="100%" stop-color="rgba(241, 178, 193, 0.24)" />
    </linearGradient>
  </defs>
  <rect width="960" height="640" fill="url(#bg-18)" />
  <rect x="24" y="24" width="912" height="592" rx="28" fill="none" stroke="rgba(146, 162, 227, 0.1)" stroke-width="1.4" />
  <polygon points="472.2,215.0 732.3,215.0 665.3,302.3 405.2,302.3" fill="rgba(221, 233, 248, 0.22)" stroke="rgba(146, 162, 227, 0.12)" stroke-width="1.2" />
  <polygon points="234.8,131.7 504.6,131.7 425.9,240.4 156.1,240.4" fill="rgba(246, 216, 191, 0.22)" stroke="rgba(146, 162, 227, 0.12)" stroke-width="1.2" />
  <polygon points="468.4,269.1 944.6,269.1 919.9,321.4 443.7,321.4" fill="rgba(221, 233, 248, 0.22)" stroke="rgba(146, 162, 227, 0.12)" stroke-width="1.2" />
  <polyline points="243.8,336.5 378.6,281.0 431.8,313.3" fill="none" stroke="rgba(146, 162, 227, 0.24)" stroke-width="2.09" stroke-linecap="round" stroke-linejoin="round" />
  <polyline points="346.7,445.2 485.5,488.0 524.9,488.8" fill="none" stroke="rgba(241, 178, 193, 0.24)" stroke-width="2.02" stroke-linecap="round" stroke-linejoin="round" />
  <polyline points="548.5,363.5 678.8,442.0 711.1,470.1" fill="none" stroke="rgba(146, 162, 227, 0.24)" stroke-width="1.45" stroke-linecap="round" stroke-linejoin="round" />
  <polyline points="183.9,394.6 315.2,465.4 358.8,490.7" fill="none" stroke="rgba(241, 178, 193, 0.24)" stroke-width="2.10" stroke-linecap="round" stroke-linejoin="round" />
  <polyline points="192.0,98.0 363.7,98.9 408.5,121.4" fill="none" stroke="rgba(146, 162, 227, 0.24)" stroke-width="2.51" stroke-linecap="round" stroke-linejoin="round" />
  <polyline points="325.4,305.4 418.5,314.1 485.9,324.7" fill="none" stroke="rgba(241, 178, 193, 0.24)" stroke-width="2.41" stroke-linecap="round" stroke-linejoin="round" />
  <polygon points="656.9,486.9 771.7,486.9 721.1,528.6 606.3,528.6" fill="rgba(221, 233, 248, 0.3)" stroke="rgba(241, 178, 193, 0.16)" stroke-width="1.2" />
  <polygon points="743.1,467.2 823.0,467.2 840.9,510.2 760.9,510.2" fill="rgba(246, 216, 191, 0.3)" stroke="rgba(241, 178, 193, 0.16)" stroke-width="1.2" />
  <polygon points="240.4,213.7 385.3,213.7 349.0,261.1 204.1,261.1" fill="rgba(221, 233, 248, 0.3)" stroke="rgba(241, 178, 193, 0.16)" stroke-width="1.2" />
  <polygon points="426.7,100.3 500.1,100.3 515.0,159.7 441.7,159.7" fill="rgba(246, 216, 191, 0.3)" stroke="rgba(241, 178, 193, 0.16)" stroke-width="1.2" />
  <polygon points="388.6,222.4 487.1,269.3 388.6,314.5 290.1,269.3" fill="rgba(221, 233, 248, 0.52)" stroke="rgba(146, 162, 227, 0.28)" stroke-width="1.5" />
  <polygon points="290.1,269.3 388.6,314.5 388.6,471.3 290.1,426.0" fill="rgba(246, 216, 191, 0.34)" stroke="rgba(146, 162, 227, 0.26)" stroke-width="1.3" />
  <polygon points="388.6,314.5 487.1,269.3 487.1,426.0 388.6,471.3" fill="rgba(221, 233, 248, 0.34)" stroke="rgba(241, 178, 193, 0.24)" stroke-width="1.3" />
  <polygon points="168.6,456.8 548.6,456.8 638.6,524.8 258.6,524.8" fill="none" stroke="rgba(146, 162, 227, 0.16)" stroke-width="1.2" />
  <polygon points="208.6,506.8 528.6,506.8 450.6,558.8 130.6,558.8" fill="none" stroke="rgba(241, 178, 193, 0.14)" stroke-width="1.1" />
  <polygon points="831.9,95.9 851.5,115.5 831.9,135.2 812.2,115.5" fill="rgba(241, 178, 193, 0.18)" stroke="rgba(146, 162, 227, 0.2)" stroke-width="1.2" />
  <polygon points="241.5,247.8 257.7,264.0 241.5,280.2 225.3,264.0" fill="rgba(221, 233, 248, 0.18)" stroke="rgba(146, 162, 227, 0.2)" stroke-width="1.2" />
  <polygon points="344.3,91.4 357.2,104.3 344.3,117.2 331.5,104.3" fill="rgba(241, 178, 193, 0.18)" stroke="rgba(146, 162, 227, 0.2)" stroke-width="1.2" />
  <polygon points="427.6,397.7 445.5,415.6 427.6,433.5 409.7,415.6" fill="rgba(221, 233, 248, 0.18)" stroke="rgba(146, 162, 227, 0.2)" stroke-width="1.2" />
  <polygon points="563.6,272.3 583.7,292.4 563.6,312.5 543.5,292.4" fill="rgba(241, 178, 193, 0.18)" stroke="rgba(146, 162, 227, 0.2)" stroke-width="1.2" />
</svg>
