<?xml version="1.0" encoding="UTF-8"?>
<svg xmlns="http://www.w3.org/2000/svg" viewBox="0 0 960 640" role="img" aria-labelledby="title-66 desc-66">
  <title id="title-66">Abstract geometric post art 67</title>
  <desc id="desc-66">An iridescent prism composition built from planes, lattices, and reflective block faces.</desc>
  <defs>
    <linearGradient id="bg-66" x1="0%" y1="0%" x2="100%" y2="100%">
      <stop offset="0%" stop-color="#f6f0e7" />
      <stop offset="55%" stop-color="rgba(220, 239, 246, 0.96)" />
      <stop offset="100%" stop-color="rgba(240, 212, 177, 0.92)" />
    </linearGradient>
    <linearGradient id="top-66" x1="0%" y1="0%" x2="100%" y2="100%">
      <stop offset="0%" stop-color="rgba(220, 239, 246, 0.94)" />
      <stop offset="50%" stop-color="rgba(240, 212, 177, 0.7)" />
      <stop offset="100%" stop-color="rgba(143, 182, 220, 0.56)" />
    </linearGradient>
    <linearGradient id="left-66" x1="0%" y1="0%" x2="0%" y2="100%">
      <stop offset="0%" stop-color="rgba(220, 239, 246, 0.7)" />
      <stop offset="100%" stop-color="rgba(143, 182, 220, 0.28)" />
    </linearGradient>
    <linearGradient id="right-66" x1="0%" y1="0%" x2="0%" y2="100%">
      <stop offset="0%" stop-color="rgba(240, 212, 177, 0.72)" />
      <stop offset="100%" stop-color="rgba(247, 185, 172, 0.24)" />
    </linearGradient>
  </defs>
  <rect width="960" height="640" fill="url(#bg-66)" />
  <rect x="24" y="24" width="912" height="592" rx="28" fill="none" stroke="rgba(143, 182, 220, 0.1)" stroke-width="1.4" />
  <polygon points="706.0,253.0 940.4,253.0 976.2,351.6 741.9,351.6" fill="rgba(220, 239, 246, 0.22)" stroke="rgba(143, 182, 220, 0.12)" stroke-width="1.2" />
  <polygon points="722.0,125.2 954.7,125.2 1010.5,200.2 777.9,200.2" fill="rgba(240, 212, 177, 0.22)" stroke="rgba(143, 182, 220, 0.12)" stroke-width="1.2" />
  <polygon points="-44.4,479.5 415.1,479.5 396.2,547.0 -63.3,547.0" fill="rgba(220, 239, 246, 0.22)" stroke="rgba(143, 182, 220, 0.12)" stroke-width="1.2" />
  <polyline points="679.3,183.4 809.1,218.4 879.4,255.7" fill="none" stroke="rgba(143, 182, 220, 0.24)" stroke-width="2.58" stroke-linecap="round" stroke-linejoin="round" />
  <polyline points="369.1,309.2 486.4,288.3 524.6,309.1" fill="none" stroke="rgba(247, 185, 172, 0.24)" stroke-width="2.09" stroke-linecap="round" stroke-linejoin="round" />
  <polyline points="661.3,257.9 790.0,318.5 840.0,307.7" fill="none" stroke="rgba(143, 182, 220, 0.24)" stroke-width="1.78" stroke-linecap="round" stroke-linejoin="round" />
  <polyline points="422.2,445.3 538.6,453.6 569.8,436.1" fill="none" stroke="rgba(247, 185, 172, 0.24)" stroke-width="1.75" stroke-linecap="round" stroke-linejoin="round" />
  <polyline points="232.7,172.8 415.3,230.6 482.5,224.7" fill="none" stroke="rgba(143, 182, 220, 0.24)" stroke-width="2.52" stroke-linecap="round" stroke-linejoin="round" />
  <polyline points="585.1,246.6 712.1,208.2 760.4,220.3" fill="none" stroke="rgba(247, 185, 172, 0.24)" stroke-width="2.53" stroke-linecap="round" stroke-linejoin="round" />
  <polygon points="122.5,127.5 196.9,127.5 160.3,159.3 85.9,159.3" fill="rgba(220, 239, 246, 0.3)" stroke="rgba(247, 185, 172, 0.16)" stroke-width="1.2" />
  <polygon points="642.5,468.9 726.0,468.9 698.6,530.2 615.2,530.2" fill="rgba(240, 212, 177, 0.3)" stroke="rgba(247, 185, 172, 0.16)" stroke-width="1.2" />
  <polygon points="610.8,330.6 716.3,330.6 711.1,386.5 605.5,386.5" fill="rgba(220, 239, 246, 0.3)" stroke="rgba(247, 185, 172, 0.16)" stroke-width="1.2" />
  <polygon points="206.8,238.7 338.0,238.7 302.1,291.2 171.0,291.2" fill="rgba(240, 212, 177, 0.3)" stroke="rgba(247, 185, 172, 0.16)" stroke-width="1.2" />
  <polygon points="398.8,149.7 507.9,201.7 398.8,251.8 289.6,201.7" fill="rgba(220, 239, 246, 0.52)" stroke="rgba(143, 182, 220, 0.34)" stroke-width="1.5" />
  <polygon points="289.6,201.7 398.8,251.8 398.8,407.6 289.6,357.5" fill="url(#left-66)" stroke="rgba(143, 182, 220, 0.28)" stroke-width="1.4" />
  <polygon points="398.8,251.8 507.9,201.7 507.9,357.5 398.8,407.6" fill="url(#right-66)" stroke="rgba(247, 185, 172, 0.28)" stroke-width="1.4" />
  <polygon points="218.8,352.2 538.8,352.2 610.8,426.2 290.8,426.2" fill="rgba(240, 212, 177, 0.2)" stroke="rgba(247, 185, 172, 0.18)" stroke-width="1.1" />
  <polygon points="278.8,64.2 538.8,64.2 472.8,122.2 212.8,122.2" fill="rgba(220, 239, 246, 0.2)" stroke="rgba(143, 182, 220, 0.18)" stroke-width="1.1" />
  <polygon points="455.1,375.1 466.8,386.7 455.1,398.4 443.4,386.7" fill="rgba(247, 185, 172, 0.18)" stroke="rgba(143, 182, 220, 0.2)" stroke-width="1.2" />
  <polygon points="272.7,311.2 291.8,330.3 272.7,349.4 253.5,330.3" fill="rgba(220, 239, 246, 0.18)" stroke="rgba(143, 182, 220, 0.2)" stroke-width="1.2" />
  <polygon points="752.9,451.0 763.1,461.1 752.9,471.3 742.8,461.1" fill="rgba(247, 185, 172, 0.18)" stroke="rgba(143, 182, 220, 0.2)" stroke-width="1.2" />
  <polygon points="699.6,490.5 713.6,504.6 699.6,518.6 685.6,504.6" fill="rgba(220, 239, 246, 0.18)" stroke="rgba(143, 182, 220, 0.2)" stroke-width="1.2" />
  <polygon points="599.2,126.0 619.8,146.5 599.2,167.1 578.7,146.5" fill="rgba(247, 185, 172, 0.18)" stroke="rgba(143, 182, 220, 0.2)" stroke-width="1.2" />
</svg>
