<?xml version="1.0" encoding="UTF-8"?>
<svg xmlns="http://www.w3.org/2000/svg" viewBox="0 0 960 640" role="img" aria-labelledby="title-39 desc-39">
  <title id="title-39">Abstract geometric post art 40</title>
  <desc id="desc-39">An iridescent prism composition built from planes, lattices, and reflective block faces.</desc>
  <defs>
    <linearGradient id="bg-39" x1="0%" y1="0%" x2="100%" y2="100%">
      <stop offset="0%" stop-color="#f6f0e7" />
      <stop offset="55%" stop-color="rgba(226, 241, 235, 0.96)" />
      <stop offset="100%" stop-color="rgba(247, 219, 197, 0.92)" />
    </linearGradient>
    <linearGradient id="top-39" x1="0%" y1="0%" x2="100%" y2="100%">
      <stop offset="0%" stop-color="rgba(226, 241, 235, 0.94)" />
      <stop offset="50%" stop-color="rgba(247, 219, 197, 0.7)" />
      <stop offset="100%" stop-color="rgba(139, 199, 184, 0.56)" />
    </linearGradient>
    <linearGradient id="left-39" x1="0%" y1="0%" x2="0%" y2="100%">
      <stop offset="0%" stop-color="rgba(226, 241, 235, 0.7)" />
      <stop offset="100%" stop-color="rgba(139, 199, 184, 0.28)" />
    </linearGradient>
    <linearGradient id="right-39" x1="0%" y1="0%" x2="0%" y2="100%">
      <stop offset="0%" stop-color="rgba(247, 219, 197, 0.72)" />
      <stop offset="100%" stop-color="rgba(243, 192, 154, 0.24)" />
    </linearGradient>
  </defs>
  <rect width="960" height="640" fill="url(#bg-39)" />
  <rect x="24" y="24" width="912" height="592" rx="28" fill="none" stroke="rgba(139, 199, 184, 0.1)" stroke-width="1.4" />
  <polygon points="340.5,245.1 736.5,245.1 762.0,297.2 366.0,297.2" fill="rgba(226, 241, 235, 0.22)" stroke="rgba(139, 199, 184, 0.12)" stroke-width="1.2" />
  <polygon points="84.3,325.5 371.4,325.5 360.5,408.7 73.4,408.7" fill="rgba(247, 219, 197, 0.22)" stroke="rgba(139, 199, 184, 0.12)" stroke-width="1.2" />
  <polygon points="-17.3,75.1 481.3,75.1 367.1,126.1 -131.5,126.1" fill="rgba(226, 241, 235, 0.22)" stroke="rgba(139, 199, 184, 0.12)" stroke-width="1.2" />
  <polyline points="500.1,169.1 701.3,104.2 760.4,93.5" fill="none" stroke="rgba(139, 199, 184, 0.24)" stroke-width="1.90" stroke-linecap="round" stroke-linejoin="round" />
  <polyline points="372.6,214.3 558.0,230.8 598.5,229.2" fill="none" stroke="rgba(243, 192, 154, 0.24)" stroke-width="2.32" stroke-linecap="round" stroke-linejoin="round" />
  <polyline points="608.9,199.7 799.7,193.1 855.1,230.6" fill="none" stroke="rgba(139, 199, 184, 0.24)" stroke-width="2.23" stroke-linecap="round" stroke-linejoin="round" />
  <polyline points="495.8,450.1 633.2,484.2 668.7,518.0" fill="none" stroke="rgba(243, 192, 154, 0.24)" stroke-width="2.15" stroke-linecap="round" stroke-linejoin="round" />
  <polyline points="551.3,283.2 707.7,272.1 760.9,264.1" fill="none" stroke="rgba(139, 199, 184, 0.24)" stroke-width="1.63" stroke-linecap="round" stroke-linejoin="round" />
  <polyline points="146.8,153.2 319.0,109.9 373.9,127.8" fill="none" stroke="rgba(243, 192, 154, 0.24)" stroke-width="2.35" stroke-linecap="round" stroke-linejoin="round" />
  <polygon points="146.8,311.1 234.7,311.1 265.5,363.9 177.7,363.9" fill="rgba(226, 241, 235, 0.3)" stroke="rgba(243, 192, 154, 0.16)" stroke-width="1.2" />
  <polygon points="149.4,389.5 255.2,389.5 292.6,450.1 186.8,450.1" fill="rgba(247, 219, 197, 0.3)" stroke="rgba(243, 192, 154, 0.16)" stroke-width="1.2" />
  <polygon points="167.3,187.7 261.0,187.7 254.1,250.9 160.4,250.9" fill="rgba(226, 241, 235, 0.3)" stroke="rgba(243, 192, 154, 0.16)" stroke-width="1.2" />
  <polygon points="543.9,334.6 630.2,334.6 652.8,382.2 566.5,382.2" fill="rgba(247, 219, 197, 0.3)" stroke="rgba(243, 192, 154, 0.16)" stroke-width="1.2" />
  <polygon points="485.5,230.1 579.9,275.1 485.5,318.5 391.0,275.1" fill="url(#top-39)" stroke="rgba(139, 199, 184, 0.26)" stroke-width="1.5" />
  <polygon points="391.0,275.1 485.5,318.5 485.5,475.4 391.0,432.0" fill="url(#left-39)" stroke="rgba(139, 199, 184, 0.22)" stroke-width="1.3" />
  <polygon points="485.5,318.5 579.9,275.1 579.9,432.0 485.5,475.4" fill="url(#right-39)" stroke="rgba(243, 192, 154, 0.22)" stroke-width="1.3" />
  <polygon points="325.5,307.6 369.5,351.6 325.5,395.6 281.5,351.6" fill="rgba(226, 241, 235, 0.16)" stroke="rgba(139, 199, 184, 0.18)" stroke-width="1.2" />
  <polygon points="665.5,273.6 703.5,311.6 665.5,349.6 627.5,311.6" fill="rgba(247, 219, 197, 0.16)" stroke="rgba(243, 192, 154, 0.18)" stroke-width="1.2" />
  <polygon points="143.4,121.4 158.1,136.0 143.4,150.7 128.7,136.0" fill="rgba(243, 192, 154, 0.18)" stroke="rgba(139, 199, 184, 0.2)" stroke-width="1.2" />
  <polygon points="248.6,83.8 259.1,94.3 248.6,104.8 238.1,94.3" fill="rgba(226, 241, 235, 0.18)" stroke="rgba(139, 199, 184, 0.2)" stroke-width="1.2" />
  <polygon points="81.5,420.6 93.6,432.7 81.5,444.8 69.4,432.7" fill="rgba(243, 192, 154, 0.18)" stroke="rgba(139, 199, 184, 0.2)" stroke-width="1.2" />
  <polygon points="183.2,92.3 196.1,105.2 183.2,118.2 170.2,105.2" fill="rgba(226, 241, 235, 0.18)" stroke="rgba(139, 199, 184, 0.2)" stroke-width="1.2" />
  <polygon points="523.0,455.1 541.6,473.7 523.0,492.3 504.4,473.7" fill="rgba(243, 192, 154, 0.18)" stroke="rgba(139, 199, 184, 0.2)" stroke-width="1.2" />
</svg>
