<?xml version="1.0" encoding="UTF-8"?>
<svg xmlns="http://www.w3.org/2000/svg" viewBox="0 0 960 640" role="img" aria-labelledby="title-49 desc-49">
  <title id="title-49">Abstract geometric post art 50</title>
  <desc id="desc-49">An iridescent prism composition built from planes, lattices, and reflective block faces.</desc>
  <defs>
    <linearGradient id="bg-49" x1="0%" y1="0%" x2="100%" y2="100%">
      <stop offset="0%" stop-color="#f6f0e7" />
      <stop offset="55%" stop-color="rgba(226, 241, 235, 0.96)" />
      <stop offset="100%" stop-color="rgba(247, 219, 197, 0.92)" />
    </linearGradient>
    <linearGradient id="top-49" x1="0%" y1="0%" x2="100%" y2="100%">
      <stop offset="0%" stop-color="rgba(226, 241, 235, 0.94)" />
      <stop offset="50%" stop-color="rgba(247, 219, 197, 0.7)" />
      <stop offset="100%" stop-color="rgba(139, 199, 184, 0.56)" />
    </linearGradient>
    <linearGradient id="left-49" x1="0%" y1="0%" x2="0%" y2="100%">
      <stop offset="0%" stop-color="rgba(226, 241, 235, 0.7)" />
      <stop offset="100%" stop-color="rgba(139, 199, 184, 0.28)" />
    </linearGradient>
    <linearGradient id="right-49" x1="0%" y1="0%" x2="0%" y2="100%">
      <stop offset="0%" stop-color="rgba(247, 219, 197, 0.72)" />
      <stop offset="100%" stop-color="rgba(243, 192, 154, 0.24)" />
    </linearGradient>
  </defs>
  <rect width="960" height="640" fill="url(#bg-49)" />
  <rect x="24" y="24" width="912" height="592" rx="28" fill="none" stroke="rgba(139, 199, 184, 0.1)" stroke-width="1.4" />
  <polygon points="18.6,435.5 392.7,435.5 382.6,498.6 8.5,498.6" fill="rgba(226, 241, 235, 0.22)" stroke="rgba(139, 199, 184, 0.12)" stroke-width="1.2" />
  <polygon points="180.8,214.8 659.9,214.8 570.3,268.7 91.2,268.7" fill="rgba(247, 219, 197, 0.22)" stroke="rgba(139, 199, 184, 0.12)" stroke-width="1.2" />
  <polygon points="324.7,249.5 704.2,249.5 653.6,313.2 274.1,313.2" fill="rgba(226, 241, 235, 0.22)" stroke="rgba(139, 199, 184, 0.12)" stroke-width="1.2" />
  <polygon points="53.2,178.5 328.1,178.5 410.8,257.8 135.9,257.8" fill="rgba(247, 219, 197, 0.22)" stroke="rgba(139, 199, 184, 0.12)" stroke-width="1.2" />
  <polyline points="552.4,323.9 709.2,353.8 745.9,358.3" fill="none" stroke="rgba(139, 199, 184, 0.24)" stroke-width="2.08" stroke-linecap="round" stroke-linejoin="round" />
  <polyline points="318.7,449.5 433.6,502.1 462.0,529.0" fill="none" stroke="rgba(243, 192, 154, 0.24)" stroke-width="2.46" stroke-linecap="round" stroke-linejoin="round" />
  <polyline points="338.1,325.2 540.0,399.4 594.9,403.5" fill="none" stroke="rgba(139, 199, 184, 0.24)" stroke-width="2.34" stroke-linecap="round" stroke-linejoin="round" />
  <polyline points="729.1,191.3 897.2,254.4 961.6,259.3" fill="none" stroke="rgba(243, 192, 154, 0.24)" stroke-width="2.21" stroke-linecap="round" stroke-linejoin="round" />
  <polyline points="363.1,135.2 490.1,123.4 538.1,145.6" fill="none" stroke="rgba(139, 199, 184, 0.24)" stroke-width="1.72" stroke-linecap="round" stroke-linejoin="round" />
  <polyline points="253.7,457.1 375.6,477.4 425.8,498.7" fill="none" stroke="rgba(243, 192, 154, 0.24)" stroke-width="1.52" stroke-linecap="round" stroke-linejoin="round" />
  <polygon points="274.6,153.6 367.9,153.6 370.7,187.3 277.4,187.3" fill="rgba(226, 241, 235, 0.3)" stroke="rgba(243, 192, 154, 0.16)" stroke-width="1.2" />
  <polygon points="277.9,287.6 409.5,287.6 448.8,316.5 317.1,316.5" fill="rgba(247, 219, 197, 0.3)" stroke="rgba(243, 192, 154, 0.16)" stroke-width="1.2" />
  <polygon points="673.9,184.6 797.7,184.6 781.2,231.7 657.3,231.7" fill="rgba(226, 241, 235, 0.3)" stroke="rgba(243, 192, 154, 0.16)" stroke-width="1.2" />
  <polygon points="139.8,115.3 236.6,115.3 237.1,152.4 140.3,152.4" fill="rgba(247, 219, 197, 0.3)" stroke="rgba(243, 192, 154, 0.16)" stroke-width="1.2" />
  <polygon points="531.6,97.5 641.0,149.6 531.6,199.9 422.1,149.6" fill="url(#top-49)" stroke="rgba(139, 199, 184, 0.26)" stroke-width="1.5" />
  <polygon points="422.1,149.6 531.6,199.9 531.6,345.3 422.1,295.0" fill="url(#left-49)" stroke="rgba(139, 199, 184, 0.22)" stroke-width="1.3" />
  <polygon points="531.6,199.9 641.0,149.6 641.0,295.0 531.6,345.3" fill="url(#right-49)" stroke="rgba(243, 192, 154, 0.22)" stroke-width="1.3" />
  <polygon points="371.6,186.2 415.6,230.2 371.6,274.2 327.6,230.2" fill="rgba(226, 241, 235, 0.16)" stroke="rgba(139, 199, 184, 0.18)" stroke-width="1.2" />
  <polygon points="711.6,152.2 749.6,190.2 711.6,228.2 673.6,190.2" fill="rgba(247, 219, 197, 0.16)" stroke="rgba(243, 192, 154, 0.18)" stroke-width="1.2" />
  <polygon points="85.9,240.2 97.7,252.0 85.9,263.9 74.0,252.0" fill="rgba(243, 192, 154, 0.18)" stroke="rgba(139, 199, 184, 0.2)" stroke-width="1.2" />
  <polygon points="101.1,120.8 119.8,139.5 101.1,158.2 82.3,139.5" fill="rgba(226, 241, 235, 0.18)" stroke="rgba(139, 199, 184, 0.2)" stroke-width="1.2" />
  <polygon points="530.1,139.6 549.1,158.5 530.1,177.5 511.2,158.5" fill="rgba(243, 192, 154, 0.18)" stroke="rgba(139, 199, 184, 0.2)" stroke-width="1.2" />
  <polygon points="608.7,413.0 623.8,428.1 608.7,443.2 593.6,428.1" fill="rgba(226, 241, 235, 0.18)" stroke="rgba(139, 199, 184, 0.2)" stroke-width="1.2" />
  <polygon points="443.9,150.1 456.4,162.6 443.9,175.1 431.4,162.6" fill="rgba(243, 192, 154, 0.18)" stroke="rgba(139, 199, 184, 0.2)" stroke-width="1.2" />
</svg>
