<?xml version="1.0" encoding="UTF-8"?>
<svg xmlns="http://www.w3.org/2000/svg" viewBox="0 0 960 640" role="img" aria-labelledby="title-97 desc-97">
  <title id="title-97">Abstract geometric post art 98</title>
  <desc id="desc-97">An iridescent prism composition built from planes, lattices, and reflective block faces.</desc>
  <defs>
    <linearGradient id="bg-97" x1="0%" y1="0%" x2="100%" y2="100%">
      <stop offset="0%" stop-color="#f6f0e7" />
      <stop offset="55%" stop-color="rgba(215, 236, 232, 0.96)" />
      <stop offset="100%" stop-color="rgba(243, 221, 194, 0.92)" />
    </linearGradient>
    <linearGradient id="top-97" x1="0%" y1="0%" x2="100%" y2="100%">
      <stop offset="0%" stop-color="rgba(215, 236, 232, 0.94)" />
      <stop offset="50%" stop-color="rgba(243, 221, 194, 0.7)" />
      <stop offset="100%" stop-color="rgba(113, 182, 177, 0.56)" />
    </linearGradient>
    <linearGradient id="left-97" x1="0%" y1="0%" x2="0%" y2="100%">
      <stop offset="0%" stop-color="rgba(215, 236, 232, 0.7)" />
      <stop offset="100%" stop-color="rgba(113, 182, 177, 0.28)" />
    </linearGradient>
    <linearGradient id="right-97" x1="0%" y1="0%" x2="0%" y2="100%">
      <stop offset="0%" stop-color="rgba(243, 221, 194, 0.72)" />
      <stop offset="100%" stop-color="rgba(242, 176, 143, 0.24)" />
    </linearGradient>
  </defs>
  <rect width="960" height="640" fill="url(#bg-97)" />
  <rect x="24" y="24" width="912" height="592" rx="28" fill="none" stroke="rgba(113, 182, 177, 0.1)" stroke-width="1.4" />
  <polygon points="74.7,297.4 533.8,297.4 538.7,348.9 79.6,348.9" fill="rgba(215, 236, 232, 0.22)" stroke="rgba(113, 182, 177, 0.12)" stroke-width="1.2" />
  <polygon points="-56.5,121.2 252.8,121.2 182.3,186.2 -127.0,186.2" fill="rgba(243, 221, 194, 0.22)" stroke="rgba(113, 182, 177, 0.12)" stroke-width="1.2" />
  <polygon points="333.4,384.7 671.1,384.7 619.9,438.1 282.2,438.1" fill="rgba(215, 236, 232, 0.22)" stroke="rgba(113, 182, 177, 0.12)" stroke-width="1.2" />
  <polygon points="124.8,417.8 624.7,417.8 528.1,520.2 28.2,520.2" fill="rgba(243, 221, 194, 0.22)" stroke="rgba(113, 182, 177, 0.12)" stroke-width="1.2" />
  <polyline points="329.6,294.9 523.5,324.7 556.1,355.2" fill="none" stroke="rgba(113, 182, 177, 0.24)" stroke-width="1.46" stroke-linecap="round" stroke-linejoin="round" />
  <polyline points="277.1,443.7 370.2,421.3 418.7,444.8" fill="none" stroke="rgba(242, 176, 143, 0.24)" stroke-width="1.49" stroke-linecap="round" stroke-linejoin="round" />
  <polyline points="310.3,238.8 479.5,315.1 525.4,344.6" fill="none" stroke="rgba(113, 182, 177, 0.24)" stroke-width="1.58" stroke-linecap="round" stroke-linejoin="round" />
  <polyline points="686.5,438.6 790.7,450.6 862.4,456.6" fill="none" stroke="rgba(242, 176, 143, 0.24)" stroke-width="1.94" stroke-linecap="round" stroke-linejoin="round" />
  <polyline points="740.4,224.4 916.1,145.6 944.8,136.4" fill="none" stroke="rgba(113, 182, 177, 0.24)" stroke-width="2.60" stroke-linecap="round" stroke-linejoin="round" />
  <polyline points="647.0,222.9 738.1,290.7 765.1,323.2" fill="none" stroke="rgba(242, 176, 143, 0.24)" stroke-width="2.50" stroke-linecap="round" stroke-linejoin="round" />
  <polygon points="213.5,274.2 292.2,274.2 243.7,328.2 165.0,328.2" fill="rgba(215, 236, 232, 0.3)" stroke="rgba(242, 176, 143, 0.16)" stroke-width="1.2" />
  <polygon points="122.8,320.7 234.1,320.7 223.0,382.2 111.7,382.2" fill="rgba(243, 221, 194, 0.3)" stroke="rgba(242, 176, 143, 0.16)" stroke-width="1.2" />
  <polygon points="301.2,292.6 379.4,292.6 363.9,326.2 285.7,326.2" fill="rgba(215, 236, 232, 0.3)" stroke="rgba(242, 176, 143, 0.16)" stroke-width="1.2" />
  <polygon points="561.6,149.9 705.8,149.9 696.7,211.9 552.5,211.9" fill="rgba(243, 221, 194, 0.3)" stroke="rgba(242, 176, 143, 0.16)" stroke-width="1.2" />
  <polygon points="541.7,161.1 655.0,215.1 541.7,267.1 428.4,215.1" fill="url(#top-97)" stroke="rgba(113, 182, 177, 0.28)" stroke-width="1.5" />
  <polygon points="428.4,215.1 541.7,267.1 541.7,397.3 428.4,345.2" fill="rgba(215, 236, 232, 0.4)" stroke="rgba(113, 182, 177, 0.26)" stroke-width="1.3" />
  <polygon points="541.7,267.1 655.0,215.1 655.0,345.2 541.7,397.3" fill="rgba(243, 221, 194, 0.44)" stroke="rgba(242, 176, 143, 0.26)" stroke-width="1.3" />
  <polygon points="541.7,160.8 661.7,280.8 541.7,400.8 421.7,280.8" fill="none" stroke="rgba(113, 182, 177, 0.16)" stroke-width="1.2" />
  <polygon points="541.7,116.8 705.7,280.8 541.7,444.8 377.7,280.8" fill="none" stroke="rgba(242, 176, 143, 0.12)" stroke-width="1.1" />
  <polygon points="316.9,324.6 331.8,339.5 316.9,354.5 301.9,339.5" fill="rgba(242, 176, 143, 0.18)" stroke="rgba(113, 182, 177, 0.2)" stroke-width="1.2" />
  <polygon points="600.6,374.9 621.9,396.2 600.6,417.5 579.3,396.2" fill="rgba(215, 236, 232, 0.18)" stroke="rgba(113, 182, 177, 0.2)" stroke-width="1.2" />
  <polygon points="191.2,450.0 211.8,470.6 191.2,491.3 170.5,470.6" fill="rgba(242, 176, 143, 0.18)" stroke="rgba(113, 182, 177, 0.2)" stroke-width="1.2" />
  <polygon points="382.7,166.6 394.0,177.8 382.7,189.1 371.5,177.8" fill="rgba(215, 236, 232, 0.18)" stroke="rgba(113, 182, 177, 0.2)" stroke-width="1.2" />
  <polygon points="170.4,210.6 181.1,221.4 170.4,232.1 159.7,221.4" fill="rgba(242, 176, 143, 0.18)" stroke="rgba(113, 182, 177, 0.2)" stroke-width="1.2" />
</svg>
