<?xml version="1.0" encoding="UTF-8"?>
<svg xmlns="http://www.w3.org/2000/svg" viewBox="0 0 960 640" role="img" aria-labelledby="title-19 desc-19">
  <title id="title-19">Abstract geometric post art 20</title>
  <desc id="desc-19">An iridescent prism composition built from planes, lattices, and reflective block faces.</desc>
  <defs>
    <linearGradient id="bg-19" x1="0%" y1="0%" x2="100%" y2="100%">
      <stop offset="0%" stop-color="#f6f0e7" />
      <stop offset="55%" stop-color="rgba(226, 241, 235, 0.96)" />
      <stop offset="100%" stop-color="rgba(247, 219, 197, 0.92)" />
    </linearGradient>
    <linearGradient id="top-19" x1="0%" y1="0%" x2="100%" y2="100%">
      <stop offset="0%" stop-color="rgba(226, 241, 235, 0.94)" />
      <stop offset="50%" stop-color="rgba(247, 219, 197, 0.7)" />
      <stop offset="100%" stop-color="rgba(139, 199, 184, 0.56)" />
    </linearGradient>
    <linearGradient id="left-19" x1="0%" y1="0%" x2="0%" y2="100%">
      <stop offset="0%" stop-color="rgba(226, 241, 235, 0.7)" />
      <stop offset="100%" stop-color="rgba(139, 199, 184, 0.28)" />
    </linearGradient>
    <linearGradient id="right-19" x1="0%" y1="0%" x2="0%" y2="100%">
      <stop offset="0%" stop-color="rgba(247, 219, 197, 0.72)" />
      <stop offset="100%" stop-color="rgba(243, 192, 154, 0.24)" />
    </linearGradient>
  </defs>
  <rect width="960" height="640" fill="url(#bg-19)" />
  <rect x="24" y="24" width="912" height="592" rx="28" fill="none" stroke="rgba(139, 199, 184, 0.1)" stroke-width="1.4" />
  <polygon points="454.3,507.1 783.2,507.1 727.9,560.3 398.9,560.3" fill="rgba(226, 241, 235, 0.22)" stroke="rgba(139, 199, 184, 0.12)" stroke-width="1.2" />
  <polygon points="452.2,199.2 788.0,199.2 809.8,296.2 474.1,296.2" fill="rgba(247, 219, 197, 0.22)" stroke="rgba(139, 199, 184, 0.12)" stroke-width="1.2" />
  <polygon points="129.1,278.3 590.9,278.3 595.9,329.3 134.1,329.3" fill="rgba(226, 241, 235, 0.22)" stroke="rgba(139, 199, 184, 0.12)" stroke-width="1.2" />
  <polygon points="81.6,391.9 428.1,391.9 454.0,494.0 107.5,494.0" fill="rgba(247, 219, 197, 0.22)" stroke="rgba(139, 199, 184, 0.12)" stroke-width="1.2" />
  <polyline points="312.2,250.9 515.7,223.7 576.3,219.3" fill="none" stroke="rgba(139, 199, 184, 0.24)" stroke-width="1.87" stroke-linecap="round" stroke-linejoin="round" />
  <polyline points="399.0,242.6 526.2,239.1 593.6,270.6" fill="none" stroke="rgba(243, 192, 154, 0.24)" stroke-width="1.85" stroke-linecap="round" stroke-linejoin="round" />
  <polyline points="325.5,189.4 491.8,127.8 562.0,145.2" fill="none" stroke="rgba(139, 199, 184, 0.24)" stroke-width="2.03" stroke-linecap="round" stroke-linejoin="round" />
  <polyline points="748.1,210.5 887.8,183.6 955.8,217.6" fill="none" stroke="rgba(243, 192, 154, 0.24)" stroke-width="1.60" stroke-linecap="round" stroke-linejoin="round" />
  <polyline points="482.1,96.9 655.8,175.3 715.2,191.8" fill="none" stroke="rgba(139, 199, 184, 0.24)" stroke-width="1.73" stroke-linecap="round" stroke-linejoin="round" />
  <polyline points="544.6,116.0 662.4,77.4 702.3,111.6" fill="none" stroke="rgba(243, 192, 154, 0.24)" stroke-width="2.21" stroke-linecap="round" stroke-linejoin="round" />
  <polygon points="461.8,369.2 610.7,369.2 613.5,409.7 464.6,409.7" fill="rgba(226, 241, 235, 0.3)" stroke="rgba(243, 192, 154, 0.16)" stroke-width="1.2" />
  <polygon points="468.4,522.8 547.1,522.8 529.3,558.4 450.6,558.4" fill="rgba(247, 219, 197, 0.3)" stroke="rgba(243, 192, 154, 0.16)" stroke-width="1.2" />
  <polygon points="403.5,247.8 518.3,247.8 567.5,302.9 452.7,302.9" fill="rgba(226, 241, 235, 0.3)" stroke="rgba(243, 192, 154, 0.16)" stroke-width="1.2" />
  <polygon points="268.6,266.4 340.3,266.4 285.9,305.0 214.2,305.0" fill="rgba(247, 219, 197, 0.3)" stroke="rgba(243, 192, 154, 0.16)" stroke-width="1.2" />
  <polygon points="393.3,204.6 499.6,255.2 393.3,304.1 286.9,255.2" fill="url(#top-19)" stroke="rgba(139, 199, 184, 0.26)" stroke-width="1.5" />
  <polygon points="286.9,255.2 393.3,304.1 393.3,498.3 286.9,449.5" fill="url(#left-19)" stroke="rgba(139, 199, 184, 0.22)" stroke-width="1.3" />
  <polygon points="393.3,304.1 499.6,255.2 499.6,449.5 393.3,498.3" fill="url(#right-19)" stroke="rgba(243, 192, 154, 0.22)" stroke-width="1.3" />
  <polygon points="233.3,291.0 277.3,335.0 233.3,379.0 189.3,335.0" fill="rgba(226, 241, 235, 0.16)" stroke="rgba(139, 199, 184, 0.18)" stroke-width="1.2" />
  <polygon points="573.3,257.0 611.3,295.0 573.3,333.0 535.3,295.0" fill="rgba(247, 219, 197, 0.16)" stroke="rgba(243, 192, 154, 0.18)" stroke-width="1.2" />
  <polygon points="869.3,370.1 887.8,388.6 869.3,407.2 850.8,388.6" fill="rgba(243, 192, 154, 0.18)" stroke="rgba(139, 199, 184, 0.2)" stroke-width="1.2" />
  <polygon points="669.1,534.5 681.7,547.2 669.1,559.8 656.5,547.2" fill="rgba(226, 241, 235, 0.18)" stroke="rgba(139, 199, 184, 0.2)" stroke-width="1.2" />
  <polygon points="464.8,412.2 483.9,431.3 464.8,450.3 445.8,431.3" fill="rgba(243, 192, 154, 0.18)" stroke="rgba(139, 199, 184, 0.2)" stroke-width="1.2" />
  <polygon points="173.5,483.2 190.7,500.4 173.5,517.7 156.2,500.4" fill="rgba(226, 241, 235, 0.18)" stroke="rgba(139, 199, 184, 0.2)" stroke-width="1.2" />
  <polygon points="209.5,538.2 231.3,559.9 209.5,581.7 187.8,559.9" fill="rgba(243, 192, 154, 0.18)" stroke="rgba(139, 199, 184, 0.2)" stroke-width="1.2" />
</svg>
