<?xml version="1.0" encoding="UTF-8"?>
<svg xmlns="http://www.w3.org/2000/svg" viewBox="0 0 960 640" role="img" aria-labelledby="title-15 desc-15">
  <title id="title-15">Abstract geometric post art 16</title>
  <desc id="desc-15">An iridescent prism composition built from planes, lattices, and reflective block faces.</desc>
  <defs>
    <linearGradient id="bg-15" x1="0%" y1="0%" x2="100%" y2="100%">
      <stop offset="0%" stop-color="#f6f0e7" />
      <stop offset="55%" stop-color="rgba(217, 242, 239, 0.96)" />
      <stop offset="100%" stop-color="rgba(246, 210, 180, 0.92)" />
    </linearGradient>
    <linearGradient id="top-15" x1="0%" y1="0%" x2="100%" y2="100%">
      <stop offset="0%" stop-color="rgba(217, 242, 239, 0.94)" />
      <stop offset="50%" stop-color="rgba(246, 210, 180, 0.7)" />
      <stop offset="100%" stop-color="rgba(143, 207, 208, 0.56)" />
    </linearGradient>
    <linearGradient id="left-15" x1="0%" y1="0%" x2="0%" y2="100%">
      <stop offset="0%" stop-color="rgba(217, 242, 239, 0.7)" />
      <stop offset="100%" stop-color="rgba(143, 207, 208, 0.28)" />
    </linearGradient>
    <linearGradient id="right-15" x1="0%" y1="0%" x2="0%" y2="100%">
      <stop offset="0%" stop-color="rgba(246, 210, 180, 0.72)" />
      <stop offset="100%" stop-color="rgba(255, 179, 157, 0.24)" />
    </linearGradient>
  </defs>
  <rect width="960" height="640" fill="url(#bg-15)" />
  <rect x="24" y="24" width="912" height="592" rx="28" fill="none" stroke="rgba(143, 207, 208, 0.1)" stroke-width="1.4" />
  <polygon points="326.9,315.6 680.3,315.6 578.3,373.5 224.9,373.5" fill="rgba(217, 242, 239, 0.22)" stroke="rgba(143, 207, 208, 0.12)" stroke-width="1.2" />
  <polygon points="209.6,372.5 581.6,372.5 681.1,450.2 309.1,450.2" fill="rgba(246, 210, 180, 0.22)" stroke="rgba(143, 207, 208, 0.12)" stroke-width="1.2" />
  <polygon points="266.6,241.8 786.0,241.8 672.2,297.9 152.7,297.9" fill="rgba(217, 242, 239, 0.22)" stroke="rgba(143, 207, 208, 0.12)" stroke-width="1.2" />
  <polyline points="585.2,102.3 775.1,70.6 828.1,69.7" fill="none" stroke="rgba(143, 207, 208, 0.24)" stroke-width="2.54" stroke-linecap="round" stroke-linejoin="round" />
  <polyline points="607.7,404.5 738.1,386.4 767.1,416.6" fill="none" stroke="rgba(255, 179, 157, 0.24)" stroke-width="2.33" stroke-linecap="round" stroke-linejoin="round" />
  <polyline points="670.8,288.7 836.5,286.6 887.3,325.3" fill="none" stroke="rgba(143, 207, 208, 0.24)" stroke-width="1.77" stroke-linecap="round" stroke-linejoin="round" />
  <polyline points="588.4,447.5 737.1,367.8 763.9,403.4" fill="none" stroke="rgba(255, 179, 157, 0.24)" stroke-width="1.76" stroke-linecap="round" stroke-linejoin="round" />
  <polyline points="392.5,153.8 599.6,141.2 634.2,176.5" fill="none" stroke="rgba(143, 207, 208, 0.24)" stroke-width="2.08" stroke-linecap="round" stroke-linejoin="round" />
  <polyline points="348.5,232.9 544.9,231.5 606.3,261.9" fill="none" stroke="rgba(255, 179, 157, 0.24)" stroke-width="1.52" stroke-linecap="round" stroke-linejoin="round" />
  <polygon points="478.7,170.3 617.6,170.3 587.0,232.1 448.1,232.1" fill="rgba(217, 242, 239, 0.3)" stroke="rgba(255, 179, 157, 0.16)" stroke-width="1.2" />
  <polygon points="179.7,334.7 292.8,334.7 245.8,385.1 132.7,385.1" fill="rgba(246, 210, 180, 0.3)" stroke="rgba(255, 179, 157, 0.16)" stroke-width="1.2" />
  <polygon points="247.8,166.9 351.6,166.9 369.9,213.8 266.1,213.8" fill="rgba(217, 242, 239, 0.3)" stroke="rgba(255, 179, 157, 0.16)" stroke-width="1.2" />
  <polygon points="420.7,505.8 529.9,505.8 552.0,542.1 442.8,542.1" fill="rgba(246, 210, 180, 0.3)" stroke="rgba(255, 179, 157, 0.16)" stroke-width="1.2" />
  <polygon points="586.0,121.1 696.1,173.5 586.0,224.0 476.0,173.5" fill="url(#top-15)" stroke="rgba(143, 207, 208, 0.42)" stroke-width="1.6" />
  <polygon points="476.0,173.5 586.0,224.0 586.0,348.5 476.0,298.0" fill="rgba(217, 242, 239, 0.48)" stroke="rgba(143, 207, 208, 0.32)" stroke-width="1.4" />
  <polygon points="586.0,224.0 696.1,173.5 696.1,298.0 586.0,348.5" fill="rgba(246, 210, 180, 0.48)" stroke="rgba(255, 179, 157, 0.28)" stroke-width="1.4" />
  <polygon points="626.3,121.4 712.0,162.2 626.3,201.5 540.6,162.2" fill="none" stroke="rgba(143, 207, 208, 0.16)" stroke-width="1.3" />
  <polygon points="540.6,162.2 626.3,201.5 626.3,318.6 540.6,279.3" fill="none" stroke="rgba(143, 207, 208, 0.14)" stroke-width="1.2" />
  <polygon points="626.3,201.5 712.0,162.2 712.0,279.3 626.3,318.6" fill="none" stroke="rgba(255, 179, 157, 0.14)" stroke-width="1.2" />
  <polygon points="841.6,241.2 857.9,257.4 841.6,273.7 825.4,257.4" fill="rgba(255, 179, 157, 0.18)" stroke="rgba(143, 207, 208, 0.2)" stroke-width="1.2" />
  <polygon points="735.4,263.8 750.8,279.1 735.4,294.5 720.1,279.1" fill="rgba(217, 242, 239, 0.18)" stroke="rgba(143, 207, 208, 0.2)" stroke-width="1.2" />
  <polygon points="419.8,368.3 430.2,378.6 419.8,389.0 409.4,378.6" fill="rgba(255, 179, 157, 0.18)" stroke="rgba(143, 207, 208, 0.2)" stroke-width="1.2" />
  <polygon points="792.7,304.3 808.0,319.6 792.7,334.9 777.4,319.6" fill="rgba(217, 242, 239, 0.18)" stroke="rgba(143, 207, 208, 0.2)" stroke-width="1.2" />
  <polygon points="267.1,533.4 288.2,554.5 267.1,575.6 246.0,554.5" fill="rgba(255, 179, 157, 0.18)" stroke="rgba(143, 207, 208, 0.2)" stroke-width="1.2" />
</svg>
