<?xml version="1.0" encoding="UTF-8"?>
<svg xmlns="http://www.w3.org/2000/svg" viewBox="0 0 960 640" role="img" aria-labelledby="title-33 desc-33">
  <title id="title-33">Abstract geometric post art 34</title>
  <desc id="desc-33">An iridescent prism composition built from planes, lattices, and reflective block faces.</desc>
  <defs>
    <linearGradient id="bg-33" x1="0%" y1="0%" x2="100%" y2="100%">
      <stop offset="0%" stop-color="#f6f0e7" />
      <stop offset="55%" stop-color="rgba(221, 233, 248, 0.96)" />
      <stop offset="100%" stop-color="rgba(246, 216, 191, 0.92)" />
    </linearGradient>
    <linearGradient id="top-33" x1="0%" y1="0%" x2="100%" y2="100%">
      <stop offset="0%" stop-color="rgba(221, 233, 248, 0.94)" />
      <stop offset="50%" stop-color="rgba(246, 216, 191, 0.7)" />
      <stop offset="100%" stop-color="rgba(146, 162, 227, 0.56)" />
    </linearGradient>
    <linearGradient id="left-33" x1="0%" y1="0%" x2="0%" y2="100%">
      <stop offset="0%" stop-color="rgba(221, 233, 248, 0.7)" />
      <stop offset="100%" stop-color="rgba(146, 162, 227, 0.28)" />
    </linearGradient>
    <linearGradient id="right-33" x1="0%" y1="0%" x2="0%" y2="100%">
      <stop offset="0%" stop-color="rgba(246, 216, 191, 0.72)" />
      <stop offset="100%" stop-color="rgba(241, 178, 193, 0.24)" />
    </linearGradient>
  </defs>
  <rect width="960" height="640" fill="url(#bg-33)" />
  <rect x="24" y="24" width="912" height="592" rx="28" fill="none" stroke="rgba(146, 162, 227, 0.1)" stroke-width="1.4" />
  <polygon points="229.1,423.3 511.8,423.3 467.4,482.6 184.7,482.6" fill="rgba(221, 233, 248, 0.22)" stroke="rgba(146, 162, 227, 0.12)" stroke-width="1.2" />
  <polygon points="66.0,352.5 557.5,352.5 663.0,439.6 171.5,439.6" fill="rgba(246, 216, 191, 0.22)" stroke="rgba(146, 162, 227, 0.12)" stroke-width="1.2" />
  <polygon points="339.7,485.4 624.8,485.4 572.3,544.0 287.2,544.0" fill="rgba(221, 233, 248, 0.22)" stroke="rgba(146, 162, 227, 0.12)" stroke-width="1.2" />
  <polyline points="502.8,80.8 694.3,63.3 753.1,46.2" fill="none" stroke="rgba(146, 162, 227, 0.24)" stroke-width="1.61" stroke-linecap="round" stroke-linejoin="round" />
  <polyline points="214.5,133.0 383.3,187.6 450.9,184.9" fill="none" stroke="rgba(241, 178, 193, 0.24)" stroke-width="1.74" stroke-linecap="round" stroke-linejoin="round" />
  <polyline points="173.5,430.1 315.1,422.4 359.5,421.0" fill="none" stroke="rgba(146, 162, 227, 0.24)" stroke-width="1.67" stroke-linecap="round" stroke-linejoin="round" />
  <polyline points="624.8,175.8 797.0,229.0 846.9,223.4" fill="none" stroke="rgba(241, 178, 193, 0.24)" stroke-width="1.47" stroke-linecap="round" stroke-linejoin="round" />
  <polyline points="272.4,394.8 379.5,356.9 412.4,374.2" fill="none" stroke="rgba(146, 162, 227, 0.24)" stroke-width="1.97" stroke-linecap="round" stroke-linejoin="round" />
  <polyline points="193.0,388.3 331.8,324.6 374.9,322.3" fill="none" stroke="rgba(241, 178, 193, 0.24)" stroke-width="1.75" stroke-linecap="round" stroke-linejoin="round" />
  <polygon points="413.6,118.8 549.6,118.8 510.4,175.9 374.3,175.9" fill="rgba(221, 233, 248, 0.3)" stroke="rgba(241, 178, 193, 0.16)" stroke-width="1.2" />
  <polygon points="306.8,146.5 399.0,146.5 416.8,186.0 324.7,186.0" fill="rgba(246, 216, 191, 0.3)" stroke="rgba(241, 178, 193, 0.16)" stroke-width="1.2" />
  <polygon points="165.2,97.5 256.6,97.5 248.8,159.6 157.4,159.6" fill="rgba(221, 233, 248, 0.3)" stroke="rgba(241, 178, 193, 0.16)" stroke-width="1.2" />
  <polygon points="572.5,283.2 650.4,283.2 687.5,320.6 609.5,320.6" fill="rgba(246, 216, 191, 0.3)" stroke="rgba(241, 178, 193, 0.16)" stroke-width="1.2" />
  <polygon points="457.8,155.6 575.4,211.5 457.8,265.5 340.2,211.5" fill="rgba(221, 233, 248, 0.52)" stroke="rgba(146, 162, 227, 0.28)" stroke-width="1.5" />
  <polygon points="340.2,211.5 457.8,265.5 457.8,437.9 340.2,383.9" fill="rgba(246, 216, 191, 0.34)" stroke="rgba(146, 162, 227, 0.26)" stroke-width="1.3" />
  <polygon points="457.8,265.5 575.4,211.5 575.4,383.9 457.8,437.9" fill="rgba(221, 233, 248, 0.34)" stroke="rgba(241, 178, 193, 0.24)" stroke-width="1.3" />
  <polygon points="237.8,404.4 617.8,404.4 707.8,472.4 327.8,472.4" fill="none" stroke="rgba(146, 162, 227, 0.16)" stroke-width="1.2" />
  <polygon points="277.8,454.4 597.8,454.4 519.8,506.4 199.8,506.4" fill="none" stroke="rgba(241, 178, 193, 0.14)" stroke-width="1.1" />
  <polygon points="162.9,400.0 182.7,419.9 162.9,439.7 143.0,419.9" fill="rgba(241, 178, 193, 0.18)" stroke="rgba(146, 162, 227, 0.2)" stroke-width="1.2" />
  <polygon points="416.5,103.6 437.4,124.5 416.5,145.4 395.6,124.5" fill="rgba(221, 233, 248, 0.18)" stroke="rgba(146, 162, 227, 0.2)" stroke-width="1.2" />
  <polygon points="232.3,462.2 251.5,481.4 232.3,500.5 213.2,481.4" fill="rgba(241, 178, 193, 0.18)" stroke="rgba(146, 162, 227, 0.2)" stroke-width="1.2" />
  <polygon points="93.3,393.5 113.0,413.3 93.3,433.0 73.5,413.3" fill="rgba(221, 233, 248, 0.18)" stroke="rgba(146, 162, 227, 0.2)" stroke-width="1.2" />
  <polygon points="750.0,477.2 770.6,497.8 750.0,518.4 729.4,497.8" fill="rgba(241, 178, 193, 0.18)" stroke="rgba(146, 162, 227, 0.2)" stroke-width="1.2" />
</svg>
