<?xml version="1.0" encoding="UTF-8"?>
<svg xmlns="http://www.w3.org/2000/svg" viewBox="0 0 960 640" role="img" aria-labelledby="title-82 desc-82">
  <title id="title-82">Abstract geometric post art 83</title>
  <desc id="desc-82">An iridescent prism composition built from planes, lattices, and reflective block faces.</desc>
  <defs>
    <linearGradient id="bg-82" x1="0%" y1="0%" x2="100%" y2="100%">
      <stop offset="0%" stop-color="#f6f0e7" />
      <stop offset="55%" stop-color="rgba(215, 236, 232, 0.96)" />
      <stop offset="100%" stop-color="rgba(243, 221, 194, 0.92)" />
    </linearGradient>
    <linearGradient id="top-82" x1="0%" y1="0%" x2="100%" y2="100%">
      <stop offset="0%" stop-color="rgba(215, 236, 232, 0.94)" />
      <stop offset="50%" stop-color="rgba(243, 221, 194, 0.7)" />
      <stop offset="100%" stop-color="rgba(113, 182, 177, 0.56)" />
    </linearGradient>
    <linearGradient id="left-82" x1="0%" y1="0%" x2="0%" y2="100%">
      <stop offset="0%" stop-color="rgba(215, 236, 232, 0.7)" />
      <stop offset="100%" stop-color="rgba(113, 182, 177, 0.28)" />
    </linearGradient>
    <linearGradient id="right-82" x1="0%" y1="0%" x2="0%" y2="100%">
      <stop offset="0%" stop-color="rgba(243, 221, 194, 0.72)" />
      <stop offset="100%" stop-color="rgba(242, 176, 143, 0.24)" />
    </linearGradient>
  </defs>
  <rect width="960" height="640" fill="url(#bg-82)" />
  <rect x="24" y="24" width="912" height="592" rx="28" fill="none" stroke="rgba(113, 182, 177, 0.1)" stroke-width="1.4" />
  <polygon points="434.0,265.1 759.8,265.1 829.9,367.5 504.1,367.5" fill="rgba(215, 236, 232, 0.22)" stroke="rgba(113, 182, 177, 0.12)" stroke-width="1.2" />
  <polygon points="34.0,392.3 254.3,392.3 354.9,500.1 134.6,500.1" fill="rgba(243, 221, 194, 0.22)" stroke="rgba(113, 182, 177, 0.12)" stroke-width="1.2" />
  <polygon points="8.5,248.1 262.4,248.1 245.5,320.7 -8.4,320.7" fill="rgba(215, 236, 232, 0.22)" stroke="rgba(113, 182, 177, 0.12)" stroke-width="1.2" />
  <polygon points="393.3,312.7 746.2,312.7 646.3,409.8 293.5,409.8" fill="rgba(243, 221, 194, 0.22)" stroke="rgba(113, 182, 177, 0.12)" stroke-width="1.2" />
  <polyline points="488.7,253.3 672.8,197.4 736.9,233.6" fill="none" stroke="rgba(113, 182, 177, 0.24)" stroke-width="2.54" stroke-linecap="round" stroke-linejoin="round" />
  <polyline points="584.8,177.7 785.8,157.8 857.0,150.3" fill="none" stroke="rgba(242, 176, 143, 0.24)" stroke-width="1.40" stroke-linecap="round" stroke-linejoin="round" />
  <polyline points="230.5,360.7 396.7,388.3 429.3,375.6" fill="none" stroke="rgba(113, 182, 177, 0.24)" stroke-width="1.88" stroke-linecap="round" stroke-linejoin="round" />
  <polyline points="592.9,279.8 754.0,249.4 800.5,290.2" fill="none" stroke="rgba(242, 176, 143, 0.24)" stroke-width="1.87" stroke-linecap="round" stroke-linejoin="round" />
  <polyline points="100.2,308.6 296.4,237.2 339.7,268.9" fill="none" stroke="rgba(113, 182, 177, 0.24)" stroke-width="1.85" stroke-linecap="round" stroke-linejoin="round" />
  <polyline points="416.8,322.3 576.9,399.6 624.0,412.1" fill="none" stroke="rgba(242, 176, 143, 0.24)" stroke-width="2.51" stroke-linecap="round" stroke-linejoin="round" />
  <polygon points="609.2,480.4 693.9,480.4 651.4,535.8 566.8,535.8" fill="rgba(215, 236, 232, 0.3)" stroke="rgba(242, 176, 143, 0.16)" stroke-width="1.2" />
  <polygon points="691.4,94.3 837.2,94.3 879.0,153.0 733.2,153.0" fill="rgba(243, 221, 194, 0.3)" stroke="rgba(242, 176, 143, 0.16)" stroke-width="1.2" />
  <polygon points="351.6,144.3 448.7,144.3 469.3,206.5 372.1,206.5" fill="rgba(215, 236, 232, 0.3)" stroke="rgba(242, 176, 143, 0.16)" stroke-width="1.2" />
  <polygon points="324.9,139.9 410.6,139.9 400.2,173.9 314.5,173.9" fill="rgba(243, 221, 194, 0.3)" stroke="rgba(242, 176, 143, 0.16)" stroke-width="1.2" />
  <polygon points="472.5,219.6 573.6,267.7 472.5,314.1 371.4,267.7" fill="url(#top-82)" stroke="rgba(113, 182, 177, 0.28)" stroke-width="1.5" />
  <polygon points="371.4,267.7 472.5,314.1 472.5,443.0 371.4,396.6" fill="rgba(215, 236, 232, 0.4)" stroke="rgba(113, 182, 177, 0.26)" stroke-width="1.3" />
  <polygon points="472.5,314.1 573.6,267.7 573.6,396.6 472.5,443.0" fill="rgba(243, 221, 194, 0.44)" stroke="rgba(242, 176, 143, 0.26)" stroke-width="1.3" />
  <polygon points="472.5,210.0 592.5,330.0 472.5,450.0 352.5,330.0" fill="none" stroke="rgba(113, 182, 177, 0.16)" stroke-width="1.2" />
  <polygon points="472.5,166.0 636.5,330.0 472.5,494.0 308.5,330.0" fill="none" stroke="rgba(242, 176, 143, 0.12)" stroke-width="1.1" />
  <polygon points="291.5,552.7 308.3,569.5 291.5,586.2 274.7,569.5" fill="rgba(242, 176, 143, 0.18)" stroke="rgba(113, 182, 177, 0.2)" stroke-width="1.2" />
  <polygon points="530.9,491.0 549.2,509.2 530.9,527.4 512.7,509.2" fill="rgba(215, 236, 232, 0.18)" stroke="rgba(113, 182, 177, 0.2)" stroke-width="1.2" />
  <polygon points="528.0,545.5 549.2,566.6 528.0,587.8 506.9,566.6" fill="rgba(242, 176, 143, 0.18)" stroke="rgba(113, 182, 177, 0.2)" stroke-width="1.2" />
  <polygon points="797.0,57.5 815.7,76.2 797.0,94.8 778.3,76.2" fill="rgba(215, 236, 232, 0.18)" stroke="rgba(113, 182, 177, 0.2)" stroke-width="1.2" />
  <polygon points="457.0,156.1 475.5,174.6 457.0,193.1 438.5,174.6" fill="rgba(242, 176, 143, 0.18)" stroke="rgba(113, 182, 177, 0.2)" stroke-width="1.2" />
</svg>
