<?xml version="1.0" encoding="UTF-8"?>
<svg xmlns="http://www.w3.org/2000/svg" viewBox="0 0 960 640" role="img" aria-labelledby="title-78 desc-78">
  <title id="title-78">Abstract geometric post art 79</title>
  <desc id="desc-78">An iridescent prism composition built from planes, lattices, and reflective block faces.</desc>
  <defs>
    <linearGradient id="bg-78" x1="0%" y1="0%" x2="100%" y2="100%">
      <stop offset="0%" stop-color="#f6f0e7" />
      <stop offset="55%" stop-color="rgba(221, 233, 248, 0.96)" />
      <stop offset="100%" stop-color="rgba(246, 216, 191, 0.92)" />
    </linearGradient>
    <linearGradient id="top-78" x1="0%" y1="0%" x2="100%" y2="100%">
      <stop offset="0%" stop-color="rgba(221, 233, 248, 0.94)" />
      <stop offset="50%" stop-color="rgba(246, 216, 191, 0.7)" />
      <stop offset="100%" stop-color="rgba(146, 162, 227, 0.56)" />
    </linearGradient>
    <linearGradient id="left-78" x1="0%" y1="0%" x2="0%" y2="100%">
      <stop offset="0%" stop-color="rgba(221, 233, 248, 0.7)" />
      <stop offset="100%" stop-color="rgba(146, 162, 227, 0.28)" />
    </linearGradient>
    <linearGradient id="right-78" x1="0%" y1="0%" x2="0%" y2="100%">
      <stop offset="0%" stop-color="rgba(246, 216, 191, 0.72)" />
      <stop offset="100%" stop-color="rgba(241, 178, 193, 0.24)" />
    </linearGradient>
  </defs>
  <rect width="960" height="640" fill="url(#bg-78)" />
  <rect x="24" y="24" width="912" height="592" rx="28" fill="none" stroke="rgba(146, 162, 227, 0.1)" stroke-width="1.4" />
  <polygon points="157.5,352.7 618.5,352.7 554.1,437.0 93.1,437.0" fill="rgba(221, 233, 248, 0.22)" stroke="rgba(146, 162, 227, 0.12)" stroke-width="1.2" />
  <polygon points="487.5,517.6 911.3,517.6 974.3,584.8 550.4,584.8" fill="rgba(246, 216, 191, 0.22)" stroke="rgba(146, 162, 227, 0.12)" stroke-width="1.2" />
  <polygon points="92.4,129.0 378.9,129.0 476.6,181.2 190.1,181.2" fill="rgba(221, 233, 248, 0.22)" stroke="rgba(146, 162, 227, 0.12)" stroke-width="1.2" />
  <polyline points="674.0,360.1 823.1,300.2 894.0,290.2" fill="none" stroke="rgba(146, 162, 227, 0.24)" stroke-width="1.97" stroke-linecap="round" stroke-linejoin="round" />
  <polyline points="685.4,92.0 835.7,154.8 867.9,177.9" fill="none" stroke="rgba(241, 178, 193, 0.24)" stroke-width="2.04" stroke-linecap="round" stroke-linejoin="round" />
  <polyline points="172.0,177.1 279.1,240.0 303.2,246.8" fill="none" stroke="rgba(146, 162, 227, 0.24)" stroke-width="1.71" stroke-linecap="round" stroke-linejoin="round" />
  <polyline points="164.1,233.8 331.1,204.1 381.5,205.2" fill="none" stroke="rgba(241, 178, 193, 0.24)" stroke-width="1.91" stroke-linecap="round" stroke-linejoin="round" />
  <polyline points="110.6,329.6 271.6,281.0 331.5,284.4" fill="none" stroke="rgba(146, 162, 227, 0.24)" stroke-width="1.83" stroke-linecap="round" stroke-linejoin="round" />
  <polyline points="492.7,156.5 686.3,158.9 710.5,151.2" fill="none" stroke="rgba(241, 178, 193, 0.24)" stroke-width="2.52" stroke-linecap="round" stroke-linejoin="round" />
  <polygon points="168.4,92.5 306.5,92.5 300.1,151.7 162.0,151.7" fill="rgba(221, 233, 248, 0.3)" stroke="rgba(241, 178, 193, 0.16)" stroke-width="1.2" />
  <polygon points="315.9,146.1 426.6,146.1 438.4,177.5 327.7,177.5" fill="rgba(246, 216, 191, 0.3)" stroke="rgba(241, 178, 193, 0.16)" stroke-width="1.2" />
  <polygon points="611.8,100.1 721.8,100.1 718.3,158.2 608.2,158.2" fill="rgba(221, 233, 248, 0.3)" stroke="rgba(241, 178, 193, 0.16)" stroke-width="1.2" />
  <polygon points="163.4,359.0 311.4,359.0 356.7,395.8 208.7,395.8" fill="rgba(246, 216, 191, 0.3)" stroke="rgba(241, 178, 193, 0.16)" stroke-width="1.2" />
  <polygon points="454.1,144.4 552.1,191.0 454.1,236.0 356.1,191.0" fill="rgba(221, 233, 248, 0.52)" stroke="rgba(146, 162, 227, 0.28)" stroke-width="1.5" />
  <polygon points="356.1,191.0 454.1,236.0 454.1,360.9 356.1,315.9" fill="rgba(221, 233, 248, 0.34)" stroke="rgba(146, 162, 227, 0.26)" stroke-width="1.3" />
  <polygon points="454.1,236.0 552.1,191.0 552.1,315.9 454.1,360.9" fill="rgba(246, 216, 191, 0.34)" stroke="rgba(241, 178, 193, 0.24)" stroke-width="1.3" />
  <polygon points="234.1,378.5 614.1,378.5 704.1,446.5 324.1,446.5" fill="none" stroke="rgba(146, 162, 227, 0.16)" stroke-width="1.2" />
  <polygon points="274.1,428.5 594.1,428.5 516.1,480.5 196.1,480.5" fill="none" stroke="rgba(241, 178, 193, 0.14)" stroke-width="1.1" />
  <polygon points="416.1,305.7 429.5,319.0 416.1,332.4 402.8,319.0" fill="rgba(241, 178, 193, 0.18)" stroke="rgba(146, 162, 227, 0.2)" stroke-width="1.2" />
  <polygon points="756.8,259.5 767.1,269.8 756.8,280.2 746.5,269.8" fill="rgba(221, 233, 248, 0.18)" stroke="rgba(146, 162, 227, 0.2)" stroke-width="1.2" />
  <polygon points="451.2,343.8 471.3,363.8 451.2,383.8 431.2,363.8" fill="rgba(241, 178, 193, 0.18)" stroke="rgba(146, 162, 227, 0.2)" stroke-width="1.2" />
  <polygon points="879.3,376.0 891.8,388.5 879.3,400.9 866.9,388.5" fill="rgba(221, 233, 248, 0.18)" stroke="rgba(146, 162, 227, 0.2)" stroke-width="1.2" />
  <polygon points="145.3,81.6 161.9,98.2 145.3,114.9 128.7,98.2" fill="rgba(241, 178, 193, 0.18)" stroke="rgba(146, 162, 227, 0.2)" stroke-width="1.2" />
</svg>
