<?xml version="1.0" encoding="UTF-8"?>
<svg xmlns="http://www.w3.org/2000/svg" viewBox="0 0 960 640" role="img" aria-labelledby="title-85 desc-85">
  <title id="title-85">Abstract geometric post art 86</title>
  <desc id="desc-85">An iridescent prism composition built from planes, lattices, and reflective block faces.</desc>
  <defs>
    <linearGradient id="bg-85" x1="0%" y1="0%" x2="100%" y2="100%">
      <stop offset="0%" stop-color="#f6f0e7" />
      <stop offset="55%" stop-color="rgba(217, 242, 239, 0.96)" />
      <stop offset="100%" stop-color="rgba(246, 210, 180, 0.92)" />
    </linearGradient>
    <linearGradient id="top-85" x1="0%" y1="0%" x2="100%" y2="100%">
      <stop offset="0%" stop-color="rgba(217, 242, 239, 0.94)" />
      <stop offset="50%" stop-color="rgba(246, 210, 180, 0.7)" />
      <stop offset="100%" stop-color="rgba(143, 207, 208, 0.56)" />
    </linearGradient>
    <linearGradient id="left-85" x1="0%" y1="0%" x2="0%" y2="100%">
      <stop offset="0%" stop-color="rgba(217, 242, 239, 0.7)" />
      <stop offset="100%" stop-color="rgba(143, 207, 208, 0.28)" />
    </linearGradient>
    <linearGradient id="right-85" x1="0%" y1="0%" x2="0%" y2="100%">
      <stop offset="0%" stop-color="rgba(246, 210, 180, 0.72)" />
      <stop offset="100%" stop-color="rgba(255, 179, 157, 0.24)" />
    </linearGradient>
  </defs>
  <rect width="960" height="640" fill="url(#bg-85)" />
  <rect x="24" y="24" width="912" height="592" rx="28" fill="none" stroke="rgba(143, 207, 208, 0.1)" stroke-width="1.4" />
  <polygon points="593.8,193.0 826.3,193.0 931.4,258.8 698.9,258.8" fill="rgba(217, 242, 239, 0.22)" stroke="rgba(143, 207, 208, 0.12)" stroke-width="1.2" />
  <polygon points="-5.8,180.9 412.3,180.9 334.8,253.8 -83.3,253.8" fill="rgba(246, 210, 180, 0.22)" stroke="rgba(143, 207, 208, 0.12)" stroke-width="1.2" />
  <polygon points="146.1,274.6 656.8,274.6 729.0,343.3 218.3,343.3" fill="rgba(217, 242, 239, 0.22)" stroke="rgba(143, 207, 208, 0.12)" stroke-width="1.2" />
  <polygon points="30.6,260.8 532.8,260.8 433.6,332.6 -68.6,332.6" fill="rgba(246, 210, 180, 0.22)" stroke="rgba(143, 207, 208, 0.12)" stroke-width="1.2" />
  <polyline points="184.9,109.6 323.0,70.9 390.3,69.9" fill="none" stroke="rgba(143, 207, 208, 0.24)" stroke-width="1.61" stroke-linecap="round" stroke-linejoin="round" />
  <polyline points="251.3,458.9 430.7,470.5 487.7,493.2" fill="none" stroke="rgba(255, 179, 157, 0.24)" stroke-width="2.14" stroke-linecap="round" stroke-linejoin="round" />
  <polyline points="110.5,260.3 205.3,265.6 230.9,249.4" fill="none" stroke="rgba(143, 207, 208, 0.24)" stroke-width="2.30" stroke-linecap="round" stroke-linejoin="round" />
  <polyline points="475.6,387.6 601.3,333.6 633.7,319.5" fill="none" stroke="rgba(255, 179, 157, 0.24)" stroke-width="2.12" stroke-linecap="round" stroke-linejoin="round" />
  <polyline points="636.2,443.8 828.3,402.8 878.3,438.4" fill="none" stroke="rgba(143, 207, 208, 0.24)" stroke-width="2.00" stroke-linecap="round" stroke-linejoin="round" />
  <polyline points="190.8,226.4 385.2,301.8 418.6,318.3" fill="none" stroke="rgba(255, 179, 157, 0.24)" stroke-width="1.79" stroke-linecap="round" stroke-linejoin="round" />
  <polygon points="499.7,192.1 631.2,192.1 653.5,240.0 522.1,240.0" fill="rgba(217, 242, 239, 0.3)" stroke="rgba(255, 179, 157, 0.16)" stroke-width="1.2" />
  <polygon points="731.3,139.8 838.2,139.8 825.4,199.1 718.5,199.1" fill="rgba(246, 210, 180, 0.3)" stroke="rgba(255, 179, 157, 0.16)" stroke-width="1.2" />
  <polygon points="324.8,173.9 466.2,173.9 479.5,223.1 338.1,223.1" fill="rgba(217, 242, 239, 0.3)" stroke="rgba(255, 179, 157, 0.16)" stroke-width="1.2" />
  <polygon points="599.5,317.9 728.9,317.9 762.7,350.3 633.3,350.3" fill="rgba(246, 210, 180, 0.3)" stroke="rgba(255, 179, 157, 0.16)" stroke-width="1.2" />
  <polygon points="486.4,166.4 610.9,225.7 486.4,282.9 361.8,225.7" fill="url(#top-85)" stroke="rgba(143, 207, 208, 0.42)" stroke-width="1.6" />
  <polygon points="361.8,225.7 486.4,282.9 486.4,444.0 361.8,386.8" fill="rgba(217, 242, 239, 0.48)" stroke="rgba(143, 207, 208, 0.32)" stroke-width="1.4" />
  <polygon points="486.4,282.9 610.9,225.7 610.9,386.8 486.4,444.0" fill="rgba(246, 210, 180, 0.48)" stroke="rgba(255, 179, 157, 0.28)" stroke-width="1.4" />
  <polygon points="533.4,160.8 637.4,210.3 533.4,258.0 429.5,210.3" fill="none" stroke="rgba(143, 207, 208, 0.16)" stroke-width="1.3" />
  <polygon points="429.5,210.3 533.4,258.0 533.4,409.3 429.5,361.6" fill="none" stroke="rgba(143, 207, 208, 0.14)" stroke-width="1.2" />
  <polygon points="533.4,258.0 637.4,210.3 637.4,361.6 533.4,409.3" fill="none" stroke="rgba(255, 179, 157, 0.14)" stroke-width="1.2" />
  <polygon points="460.6,507.1 477.0,523.5 460.6,539.9 444.2,523.5" fill="rgba(255, 179, 157, 0.18)" stroke="rgba(143, 207, 208, 0.2)" stroke-width="1.2" />
  <polygon points="708.9,274.9 720.5,286.6 708.9,298.3 697.2,286.6" fill="rgba(217, 242, 239, 0.18)" stroke="rgba(143, 207, 208, 0.2)" stroke-width="1.2" />
  <polygon points="460.7,236.0 472.1,247.4 460.7,258.9 449.2,247.4" fill="rgba(255, 179, 157, 0.18)" stroke="rgba(143, 207, 208, 0.2)" stroke-width="1.2" />
  <polygon points="550.1,284.1 562.5,296.5 550.1,308.9 537.8,296.5" fill="rgba(217, 242, 239, 0.18)" stroke="rgba(143, 207, 208, 0.2)" stroke-width="1.2" />
  <polygon points="235.7,62.2 257.4,83.9 235.7,105.7 213.9,83.9" fill="rgba(255, 179, 157, 0.18)" stroke="rgba(143, 207, 208, 0.2)" stroke-width="1.2" />
</svg>
