<?xml version="1.0" encoding="UTF-8"?>
<svg xmlns="http://www.w3.org/2000/svg" viewBox="0 0 960 640" role="img" aria-labelledby="title-14 desc-14">
  <title id="title-14">Abstract geometric post art 15</title>
  <desc id="desc-14">An iridescent prism composition built from planes, lattices, and reflective block faces.</desc>
  <defs>
    <linearGradient id="bg-14" x1="0%" y1="0%" x2="100%" y2="100%">
      <stop offset="0%" stop-color="#f6f0e7" />
      <stop offset="55%" stop-color="rgba(226, 241, 235, 0.96)" />
      <stop offset="100%" stop-color="rgba(247, 219, 197, 0.92)" />
    </linearGradient>
    <linearGradient id="top-14" x1="0%" y1="0%" x2="100%" y2="100%">
      <stop offset="0%" stop-color="rgba(226, 241, 235, 0.94)" />
      <stop offset="50%" stop-color="rgba(247, 219, 197, 0.7)" />
      <stop offset="100%" stop-color="rgba(139, 199, 184, 0.56)" />
    </linearGradient>
    <linearGradient id="left-14" x1="0%" y1="0%" x2="0%" y2="100%">
      <stop offset="0%" stop-color="rgba(226, 241, 235, 0.7)" />
      <stop offset="100%" stop-color="rgba(139, 199, 184, 0.28)" />
    </linearGradient>
    <linearGradient id="right-14" x1="0%" y1="0%" x2="0%" y2="100%">
      <stop offset="0%" stop-color="rgba(247, 219, 197, 0.72)" />
      <stop offset="100%" stop-color="rgba(243, 192, 154, 0.24)" />
    </linearGradient>
  </defs>
  <rect width="960" height="640" fill="url(#bg-14)" />
  <rect x="24" y="24" width="912" height="592" rx="28" fill="none" stroke="rgba(139, 199, 184, 0.1)" stroke-width="1.4" />
  <polygon points="335.4,468.1 619.9,468.1 506.3,560.2 221.7,560.2" fill="rgba(226, 241, 235, 0.22)" stroke="rgba(139, 199, 184, 0.12)" stroke-width="1.2" />
  <polygon points="-16.2,297.7 289.9,297.7 288.8,387.0 -17.3,387.0" fill="rgba(247, 219, 197, 0.22)" stroke="rgba(139, 199, 184, 0.12)" stroke-width="1.2" />
  <polygon points="79.3,232.8 313.2,232.8 409.6,290.2 175.8,290.2" fill="rgba(226, 241, 235, 0.22)" stroke="rgba(139, 199, 184, 0.12)" stroke-width="1.2" />
  <polygon points="593.2,357.1 990.6,357.1 1015.5,457.4 618.0,457.4" fill="rgba(247, 219, 197, 0.22)" stroke="rgba(139, 199, 184, 0.12)" stroke-width="1.2" />
  <polygon points="78.6,298.3 528.9,298.3 644.3,347.5 194.1,347.5" fill="rgba(226, 241, 235, 0.22)" stroke="rgba(139, 199, 184, 0.12)" stroke-width="1.2" />
  <polyline points="700.0,91.5 866.2,149.3 903.5,180.3" fill="none" stroke="rgba(139, 199, 184, 0.24)" stroke-width="1.48" stroke-linecap="round" stroke-linejoin="round" />
  <polyline points="513.7,214.2 644.1,144.1 682.2,166.9" fill="none" stroke="rgba(243, 192, 154, 0.24)" stroke-width="2.44" stroke-linecap="round" stroke-linejoin="round" />
  <polyline points="311.4,438.3 475.6,444.3 511.0,480.9" fill="none" stroke="rgba(139, 199, 184, 0.24)" stroke-width="2.29" stroke-linecap="round" stroke-linejoin="round" />
  <polyline points="111.1,263.7 316.2,256.0 344.4,238.3" fill="none" stroke="rgba(243, 192, 154, 0.24)" stroke-width="1.61" stroke-linecap="round" stroke-linejoin="round" />
  <polyline points="389.6,233.7 549.8,289.5 578.1,308.2" fill="none" stroke="rgba(139, 199, 184, 0.24)" stroke-width="1.56" stroke-linecap="round" stroke-linejoin="round" />
  <polyline points="132.9,211.3 234.3,179.0 264.2,189.0" fill="none" stroke="rgba(243, 192, 154, 0.24)" stroke-width="1.84" stroke-linecap="round" stroke-linejoin="round" />
  <polygon points="670.2,286.7 760.3,286.7 760.1,345.4 670.0,345.4" fill="rgba(226, 241, 235, 0.3)" stroke="rgba(243, 192, 154, 0.16)" stroke-width="1.2" />
  <polygon points="405.1,349.1 552.9,349.1 540.7,389.7 393.0,389.7" fill="rgba(247, 219, 197, 0.3)" stroke="rgba(243, 192, 154, 0.16)" stroke-width="1.2" />
  <polygon points="559.6,117.8 691.8,117.8 673.7,159.1 541.5,159.1" fill="rgba(226, 241, 235, 0.3)" stroke="rgba(243, 192, 154, 0.16)" stroke-width="1.2" />
  <polygon points="466.2,249.7 550.7,249.7 603.6,286.9 519.0,286.9" fill="rgba(247, 219, 197, 0.3)" stroke="rgba(243, 192, 154, 0.16)" stroke-width="1.2" />
  <polygon points="581.4,138.8 683.6,187.5 581.4,234.4 479.2,187.5" fill="url(#top-14)" stroke="rgba(139, 199, 184, 0.26)" stroke-width="1.5" />
  <polygon points="479.2,187.5 581.4,234.4 581.4,401.5 479.2,354.6" fill="url(#left-14)" stroke="rgba(139, 199, 184, 0.22)" stroke-width="1.3" />
  <polygon points="581.4,234.4 683.6,187.5 683.6,354.6 581.4,401.5" fill="url(#right-14)" stroke="rgba(243, 192, 154, 0.22)" stroke-width="1.3" />
  <polygon points="421.4,222.1 465.4,266.1 421.4,310.1 377.4,266.1" fill="rgba(226, 241, 235, 0.16)" stroke="rgba(139, 199, 184, 0.18)" stroke-width="1.2" />
  <polygon points="761.4,188.1 799.4,226.1 761.4,264.1 723.4,226.1" fill="rgba(247, 219, 197, 0.16)" stroke="rgba(243, 192, 154, 0.18)" stroke-width="1.2" />
  <polygon points="426.9,198.2 441.3,212.6 426.9,226.9 412.6,212.6" fill="rgba(243, 192, 154, 0.18)" stroke="rgba(139, 199, 184, 0.2)" stroke-width="1.2" />
  <polygon points="734.5,205.9 746.0,217.3 734.5,228.7 723.1,217.3" fill="rgba(226, 241, 235, 0.18)" stroke="rgba(139, 199, 184, 0.2)" stroke-width="1.2" />
  <polygon points="502.4,531.1 517.9,546.7 502.4,562.2 486.9,546.7" fill="rgba(243, 192, 154, 0.18)" stroke="rgba(139, 199, 184, 0.2)" stroke-width="1.2" />
  <polygon points="625.3,403.0 638.7,416.4 625.3,429.8 611.9,416.4" fill="rgba(226, 241, 235, 0.18)" stroke="rgba(139, 199, 184, 0.2)" stroke-width="1.2" />
  <polygon points="739.4,159.5 755.1,175.1 739.4,190.8 723.8,175.1" fill="rgba(243, 192, 154, 0.18)" stroke="rgba(139, 199, 184, 0.2)" stroke-width="1.2" />
</svg>
