<?xml version="1.0" encoding="UTF-8"?>
<svg xmlns="http://www.w3.org/2000/svg" viewBox="0 0 960 640" role="img" aria-labelledby="title-8 desc-8">
  <title id="title-8">Abstract geometric post art 9</title>
  <desc id="desc-8">An iridescent prism composition built from planes, lattices, and reflective block faces.</desc>
  <defs>
    <linearGradient id="bg-8" x1="0%" y1="0%" x2="100%" y2="100%">
      <stop offset="0%" stop-color="#f6f0e7" />
      <stop offset="55%" stop-color="rgba(221, 233, 248, 0.96)" />
      <stop offset="100%" stop-color="rgba(246, 216, 191, 0.92)" />
    </linearGradient>
    <linearGradient id="top-8" x1="0%" y1="0%" x2="100%" y2="100%">
      <stop offset="0%" stop-color="rgba(221, 233, 248, 0.94)" />
      <stop offset="50%" stop-color="rgba(246, 216, 191, 0.7)" />
      <stop offset="100%" stop-color="rgba(146, 162, 227, 0.56)" />
    </linearGradient>
    <linearGradient id="left-8" x1="0%" y1="0%" x2="0%" y2="100%">
      <stop offset="0%" stop-color="rgba(221, 233, 248, 0.7)" />
      <stop offset="100%" stop-color="rgba(146, 162, 227, 0.28)" />
    </linearGradient>
    <linearGradient id="right-8" x1="0%" y1="0%" x2="0%" y2="100%">
      <stop offset="0%" stop-color="rgba(246, 216, 191, 0.72)" />
      <stop offset="100%" stop-color="rgba(241, 178, 193, 0.24)" />
    </linearGradient>
  </defs>
  <rect width="960" height="640" fill="url(#bg-8)" />
  <rect x="24" y="24" width="912" height="592" rx="28" fill="none" stroke="rgba(146, 162, 227, 0.1)" stroke-width="1.4" />
  <polygon points="109.0,167.3 457.9,167.3 432.4,244.3 83.5,244.3" fill="rgba(221, 233, 248, 0.22)" stroke="rgba(146, 162, 227, 0.12)" stroke-width="1.2" />
  <polygon points="237.0,309.1 489.3,309.1 515.7,397.0 263.5,397.0" fill="rgba(246, 216, 191, 0.22)" stroke="rgba(146, 162, 227, 0.12)" stroke-width="1.2" />
  <polygon points="-34.5,354.9 354.6,354.9 331.2,463.1 -57.9,463.1" fill="rgba(221, 233, 248, 0.22)" stroke="rgba(146, 162, 227, 0.12)" stroke-width="1.2" />
  <polygon points="640.3,486.5 972.2,486.5 929.4,584.0 597.6,584.0" fill="rgba(246, 216, 191, 0.22)" stroke="rgba(146, 162, 227, 0.12)" stroke-width="1.2" />
  <polygon points="-25.5,438.8 437.1,438.8 345.1,530.0 -117.5,530.0" fill="rgba(221, 233, 248, 0.22)" stroke="rgba(146, 162, 227, 0.12)" stroke-width="1.2" />
  <polyline points="153.3,258.6 245.4,316.7 271.7,306.2" fill="none" stroke="rgba(146, 162, 227, 0.24)" stroke-width="1.41" stroke-linecap="round" stroke-linejoin="round" />
  <polyline points="348.4,395.1 539.4,469.5 603.2,492.2" fill="none" stroke="rgba(241, 178, 193, 0.24)" stroke-width="1.87" stroke-linecap="round" stroke-linejoin="round" />
  <polyline points="360.5,136.1 525.6,209.1 558.2,195.6" fill="none" stroke="rgba(146, 162, 227, 0.24)" stroke-width="1.52" stroke-linecap="round" stroke-linejoin="round" />
  <polyline points="449.6,131.9 556.4,139.5 612.1,140.0" fill="none" stroke="rgba(241, 178, 193, 0.24)" stroke-width="1.97" stroke-linecap="round" stroke-linejoin="round" />
  <polyline points="604.1,151.4 710.6,179.5 776.5,196.0" fill="none" stroke="rgba(146, 162, 227, 0.24)" stroke-width="2.24" stroke-linecap="round" stroke-linejoin="round" />
  <polyline points="372.0,362.7 544.5,364.8 615.4,403.2" fill="none" stroke="rgba(241, 178, 193, 0.24)" stroke-width="2.20" stroke-linecap="round" stroke-linejoin="round" />
  <polygon points="531.8,481.6 624.5,481.6 603.1,545.2 510.4,545.2" fill="rgba(221, 233, 248, 0.3)" stroke="rgba(241, 178, 193, 0.16)" stroke-width="1.2" />
  <polygon points="575.2,172.2 648.7,172.2 636.4,228.0 562.9,228.0" fill="rgba(246, 216, 191, 0.3)" stroke="rgba(241, 178, 193, 0.16)" stroke-width="1.2" />
  <polygon points="211.1,429.8 347.4,429.8 302.9,477.0 166.6,477.0" fill="rgba(221, 233, 248, 0.3)" stroke="rgba(241, 178, 193, 0.16)" stroke-width="1.2" />
  <polygon points="492.9,126.1 586.5,126.1 552.2,188.1 458.5,188.1" fill="rgba(246, 216, 191, 0.3)" stroke="rgba(241, 178, 193, 0.16)" stroke-width="1.2" />
  <polygon points="553.7,207.5 659.9,258.1 553.7,306.8 447.6,258.1" fill="rgba(221, 233, 248, 0.52)" stroke="rgba(146, 162, 227, 0.28)" stroke-width="1.5" />
  <polygon points="447.6,258.1 553.7,306.8 553.7,485.8 447.6,437.1" fill="rgba(221, 233, 248, 0.34)" stroke="rgba(146, 162, 227, 0.26)" stroke-width="1.3" />
  <polygon points="553.7,306.8 659.9,258.1 659.9,437.1 553.7,485.8" fill="rgba(221, 233, 248, 0.34)" stroke="rgba(241, 178, 193, 0.24)" stroke-width="1.3" />
  <polygon points="333.7,447.8 713.7,447.8 803.7,515.8 423.7,515.8" fill="none" stroke="rgba(146, 162, 227, 0.16)" stroke-width="1.2" />
  <polygon points="373.7,497.8 693.7,497.8 615.7,549.8 295.7,549.8" fill="none" stroke="rgba(241, 178, 193, 0.14)" stroke-width="1.1" />
  <polygon points="309.8,102.8 320.4,113.4 309.8,124.0 299.2,113.4" fill="rgba(241, 178, 193, 0.18)" stroke="rgba(146, 162, 227, 0.2)" stroke-width="1.2" />
  <polygon points="152.7,536.5 163.2,547.0 152.7,557.5 142.2,547.0" fill="rgba(221, 233, 248, 0.18)" stroke="rgba(146, 162, 227, 0.2)" stroke-width="1.2" />
  <polygon points="620.3,369.7 630.5,380.0 620.3,390.3 610.0,380.0" fill="rgba(241, 178, 193, 0.18)" stroke="rgba(146, 162, 227, 0.2)" stroke-width="1.2" />
  <polygon points="644.0,235.4 664.7,256.1 644.0,276.8 623.3,256.1" fill="rgba(221, 233, 248, 0.18)" stroke="rgba(146, 162, 227, 0.2)" stroke-width="1.2" />
  <polygon points="299.0,185.4 317.8,204.3 299.0,223.1 280.2,204.3" fill="rgba(241, 178, 193, 0.18)" stroke="rgba(146, 162, 227, 0.2)" stroke-width="1.2" />
</svg>
