<?xml version="1.0" encoding="UTF-8"?>
<svg xmlns="http://www.w3.org/2000/svg" viewBox="0 0 960 640" role="img" aria-labelledby="title-45 desc-45">
  <title id="title-45">Abstract geometric post art 46</title>
  <desc id="desc-45">An iridescent prism composition built from planes, lattices, and reflective block faces.</desc>
  <defs>
    <linearGradient id="bg-45" x1="0%" y1="0%" x2="100%" y2="100%">
      <stop offset="0%" stop-color="#f6f0e7" />
      <stop offset="55%" stop-color="rgba(217, 242, 239, 0.96)" />
      <stop offset="100%" stop-color="rgba(246, 210, 180, 0.92)" />
    </linearGradient>
    <linearGradient id="top-45" x1="0%" y1="0%" x2="100%" y2="100%">
      <stop offset="0%" stop-color="rgba(217, 242, 239, 0.94)" />
      <stop offset="50%" stop-color="rgba(246, 210, 180, 0.7)" />
      <stop offset="100%" stop-color="rgba(143, 207, 208, 0.56)" />
    </linearGradient>
    <linearGradient id="left-45" x1="0%" y1="0%" x2="0%" y2="100%">
      <stop offset="0%" stop-color="rgba(217, 242, 239, 0.7)" />
      <stop offset="100%" stop-color="rgba(143, 207, 208, 0.28)" />
    </linearGradient>
    <linearGradient id="right-45" x1="0%" y1="0%" x2="0%" y2="100%">
      <stop offset="0%" stop-color="rgba(246, 210, 180, 0.72)" />
      <stop offset="100%" stop-color="rgba(255, 179, 157, 0.24)" />
    </linearGradient>
  </defs>
  <rect width="960" height="640" fill="url(#bg-45)" />
  <rect x="24" y="24" width="912" height="592" rx="28" fill="none" stroke="rgba(143, 207, 208, 0.1)" stroke-width="1.4" />
  <polygon points="492.9,151.1 946.8,151.1 966.2,240.5 512.3,240.5" fill="rgba(217, 242, 239, 0.22)" stroke="rgba(143, 207, 208, 0.12)" stroke-width="1.2" />
  <polygon points="425.4,329.4 724.4,329.4 774.8,419.3 475.7,419.3" fill="rgba(246, 210, 180, 0.22)" stroke="rgba(143, 207, 208, 0.12)" stroke-width="1.2" />
  <polygon points="542.4,165.1 817.0,165.1 764.4,254.1 489.8,254.1" fill="rgba(217, 242, 239, 0.22)" stroke="rgba(143, 207, 208, 0.12)" stroke-width="1.2" />
  <polyline points="120.2,114.1 317.4,160.2 355.2,198.1" fill="none" stroke="rgba(143, 207, 208, 0.24)" stroke-width="2.48" stroke-linecap="round" stroke-linejoin="round" />
  <polyline points="437.0,227.9 573.3,219.8 598.6,231.2" fill="none" stroke="rgba(255, 179, 157, 0.24)" stroke-width="1.74" stroke-linecap="round" stroke-linejoin="round" />
  <polyline points="482.6,195.5 636.7,265.6 683.4,263.6" fill="none" stroke="rgba(143, 207, 208, 0.24)" stroke-width="1.90" stroke-linecap="round" stroke-linejoin="round" />
  <polyline points="578.5,177.1 745.0,207.2 775.3,200.7" fill="none" stroke="rgba(255, 179, 157, 0.24)" stroke-width="1.66" stroke-linecap="round" stroke-linejoin="round" />
  <polyline points="351.8,269.6 493.6,232.3 559.7,228.0" fill="none" stroke="rgba(143, 207, 208, 0.24)" stroke-width="1.74" stroke-linecap="round" stroke-linejoin="round" />
  <polyline points="92.1,158.4 278.9,153.9 342.7,145.2" fill="none" stroke="rgba(255, 179, 157, 0.24)" stroke-width="2.17" stroke-linecap="round" stroke-linejoin="round" />
  <polygon points="251.3,397.3 361.8,397.3 408.2,449.9 297.7,449.9" fill="rgba(217, 242, 239, 0.3)" stroke="rgba(255, 179, 157, 0.16)" stroke-width="1.2" />
  <polygon points="607.7,173.7 696.2,173.7 701.3,236.3 612.7,236.3" fill="rgba(246, 210, 180, 0.3)" stroke="rgba(255, 179, 157, 0.16)" stroke-width="1.2" />
  <polygon points="440.6,109.9 526.9,109.9 561.6,162.2 475.2,162.2" fill="rgba(217, 242, 239, 0.3)" stroke="rgba(255, 179, 157, 0.16)" stroke-width="1.2" />
  <polygon points="288.1,199.6 434.5,199.6 471.9,242.7 325.4,242.7" fill="rgba(246, 210, 180, 0.3)" stroke="rgba(255, 179, 157, 0.16)" stroke-width="1.2" />
  <polygon points="513.1,146.1 622.9,198.3 513.1,248.8 403.3,198.3" fill="url(#top-45)" stroke="rgba(143, 207, 208, 0.42)" stroke-width="1.6" />
  <polygon points="403.3,198.3 513.1,248.8 513.1,397.3 403.3,346.9" fill="rgba(217, 242, 239, 0.48)" stroke="rgba(143, 207, 208, 0.32)" stroke-width="1.4" />
  <polygon points="513.1,248.8 622.9,198.3 622.9,346.9 513.1,397.3" fill="rgba(246, 210, 180, 0.48)" stroke="rgba(255, 179, 157, 0.28)" stroke-width="1.4" />
  <polygon points="543.0,148.4 631.9,190.7 543.0,231.6 454.2,190.7" fill="none" stroke="rgba(143, 207, 208, 0.16)" stroke-width="1.3" />
  <polygon points="454.2,190.7 543.0,231.6 543.0,388.8 454.2,348.0" fill="none" stroke="rgba(143, 207, 208, 0.14)" stroke-width="1.2" />
  <polygon points="543.0,231.6 631.9,190.7 631.9,348.0 543.0,388.8" fill="none" stroke="rgba(255, 179, 157, 0.14)" stroke-width="1.2" />
  <polygon points="223.8,346.1 236.8,359.2 223.8,372.3 210.7,359.2" fill="rgba(255, 179, 157, 0.18)" stroke="rgba(143, 207, 208, 0.2)" stroke-width="1.2" />
  <polygon points="583.1,519.6 595.6,532.0 583.1,544.5 570.7,532.0" fill="rgba(217, 242, 239, 0.18)" stroke="rgba(143, 207, 208, 0.2)" stroke-width="1.2" />
  <polygon points="473.2,494.4 487.2,508.4 473.2,522.4 459.2,508.4" fill="rgba(255, 179, 157, 0.18)" stroke="rgba(143, 207, 208, 0.2)" stroke-width="1.2" />
  <polygon points="608.5,543.5 621.1,556.1 608.5,568.6 596.0,556.1" fill="rgba(217, 242, 239, 0.18)" stroke="rgba(143, 207, 208, 0.2)" stroke-width="1.2" />
  <polygon points="877.9,194.1 891.3,207.4 877.9,220.8 864.6,207.4" fill="rgba(255, 179, 157, 0.18)" stroke="rgba(143, 207, 208, 0.2)" stroke-width="1.2" />
</svg>
