<?xml version="1.0" encoding="UTF-8"?>
<svg xmlns="http://www.w3.org/2000/svg" viewBox="0 0 960 640" role="img" aria-labelledby="title-22 desc-22">
  <title id="title-22">Abstract geometric post art 23</title>
  <desc id="desc-22">An iridescent prism composition built from planes, lattices, and reflective block faces.</desc>
  <defs>
    <linearGradient id="bg-22" x1="0%" y1="0%" x2="100%" y2="100%">
      <stop offset="0%" stop-color="#f6f0e7" />
      <stop offset="55%" stop-color="rgba(215, 236, 232, 0.96)" />
      <stop offset="100%" stop-color="rgba(243, 221, 194, 0.92)" />
    </linearGradient>
    <linearGradient id="top-22" x1="0%" y1="0%" x2="100%" y2="100%">
      <stop offset="0%" stop-color="rgba(215, 236, 232, 0.94)" />
      <stop offset="50%" stop-color="rgba(243, 221, 194, 0.7)" />
      <stop offset="100%" stop-color="rgba(113, 182, 177, 0.56)" />
    </linearGradient>
    <linearGradient id="left-22" x1="0%" y1="0%" x2="0%" y2="100%">
      <stop offset="0%" stop-color="rgba(215, 236, 232, 0.7)" />
      <stop offset="100%" stop-color="rgba(113, 182, 177, 0.28)" />
    </linearGradient>
    <linearGradient id="right-22" x1="0%" y1="0%" x2="0%" y2="100%">
      <stop offset="0%" stop-color="rgba(243, 221, 194, 0.72)" />
      <stop offset="100%" stop-color="rgba(242, 176, 143, 0.24)" />
    </linearGradient>
  </defs>
  <rect width="960" height="640" fill="url(#bg-22)" />
  <rect x="24" y="24" width="912" height="592" rx="28" fill="none" stroke="rgba(113, 182, 177, 0.1)" stroke-width="1.4" />
  <polygon points="458.7,504.6 938.9,504.6 842.4,565.6 362.2,565.6" fill="rgba(215, 236, 232, 0.22)" stroke="rgba(113, 182, 177, 0.12)" stroke-width="1.2" />
  <polygon points="30.6,453.6 480.5,453.6 501.8,526.3 51.9,526.3" fill="rgba(243, 221, 194, 0.22)" stroke="rgba(113, 182, 177, 0.12)" stroke-width="1.2" />
  <polygon points="489.7,325.6 770.8,325.6 748.3,418.5 467.2,418.5" fill="rgba(215, 236, 232, 0.22)" stroke="rgba(113, 182, 177, 0.12)" stroke-width="1.2" />
  <polygon points="404.8,356.3 734.3,356.3 653.4,408.2 323.9,408.2" fill="rgba(243, 221, 194, 0.22)" stroke="rgba(113, 182, 177, 0.12)" stroke-width="1.2" />
  <polyline points="488.0,199.6 628.9,161.0 666.5,184.6" fill="none" stroke="rgba(113, 182, 177, 0.24)" stroke-width="2.43" stroke-linecap="round" stroke-linejoin="round" />
  <polyline points="199.2,157.5 325.7,120.8 392.6,150.8" fill="none" stroke="rgba(242, 176, 143, 0.24)" stroke-width="2.10" stroke-linecap="round" stroke-linejoin="round" />
  <polyline points="678.7,184.0 811.0,189.7 851.8,209.1" fill="none" stroke="rgba(113, 182, 177, 0.24)" stroke-width="1.48" stroke-linecap="round" stroke-linejoin="round" />
  <polyline points="409.3,329.1 549.2,319.9 577.5,339.1" fill="none" stroke="rgba(242, 176, 143, 0.24)" stroke-width="1.67" stroke-linecap="round" stroke-linejoin="round" />
  <polyline points="668.3,378.7 836.4,428.8 895.0,456.0" fill="none" stroke="rgba(113, 182, 177, 0.24)" stroke-width="1.81" stroke-linecap="round" stroke-linejoin="round" />
  <polyline points="470.8,155.1 658.4,134.0 685.2,174.0" fill="none" stroke="rgba(242, 176, 143, 0.24)" stroke-width="2.22" stroke-linecap="round" stroke-linejoin="round" />
  <polygon points="404.5,436.0 489.2,436.0 504.8,485.9 420.1,485.9" fill="rgba(215, 236, 232, 0.3)" stroke="rgba(242, 176, 143, 0.16)" stroke-width="1.2" />
  <polygon points="712.5,374.0 822.8,374.0 791.1,434.1 680.8,434.1" fill="rgba(243, 221, 194, 0.3)" stroke="rgba(242, 176, 143, 0.16)" stroke-width="1.2" />
  <polygon points="185.1,493.3 315.8,493.3 276.9,556.7 146.1,556.7" fill="rgba(215, 236, 232, 0.3)" stroke="rgba(242, 176, 143, 0.16)" stroke-width="1.2" />
  <polygon points="714.1,401.9 806.5,401.9 782.0,433.6 689.5,433.6" fill="rgba(243, 221, 194, 0.3)" stroke="rgba(242, 176, 143, 0.16)" stroke-width="1.2" />
  <polygon points="407.1,173.8 505.3,220.5 407.1,265.6 308.9,220.5" fill="url(#top-22)" stroke="rgba(113, 182, 177, 0.28)" stroke-width="1.5" />
  <polygon points="308.9,220.5 407.1,265.6 407.1,419.2 308.9,374.1" fill="rgba(215, 236, 232, 0.4)" stroke="rgba(113, 182, 177, 0.26)" stroke-width="1.3" />
  <polygon points="407.1,265.6 505.3,220.5 505.3,374.1 407.1,419.2" fill="rgba(243, 221, 194, 0.44)" stroke="rgba(242, 176, 143, 0.26)" stroke-width="1.3" />
  <polygon points="407.1,162.0 527.1,282.0 407.1,402.0 287.1,282.0" fill="none" stroke="rgba(113, 182, 177, 0.16)" stroke-width="1.2" />
  <polygon points="407.1,118.0 571.1,282.0 407.1,446.0 243.1,282.0" fill="none" stroke="rgba(242, 176, 143, 0.12)" stroke-width="1.1" />
  <polygon points="829.8,156.1 847.2,173.5 829.8,190.9 812.4,173.5" fill="rgba(242, 176, 143, 0.18)" stroke="rgba(113, 182, 177, 0.2)" stroke-width="1.2" />
  <polygon points="465.2,508.1 486.2,529.2 465.2,550.2 444.2,529.2" fill="rgba(215, 236, 232, 0.18)" stroke="rgba(113, 182, 177, 0.2)" stroke-width="1.2" />
  <polygon points="172.2,451.3 187.8,466.9 172.2,482.4 156.6,466.9" fill="rgba(242, 176, 143, 0.18)" stroke="rgba(113, 182, 177, 0.2)" stroke-width="1.2" />
  <polygon points="652.5,259.7 669.7,276.8 652.5,294.0 635.4,276.8" fill="rgba(215, 236, 232, 0.18)" stroke="rgba(113, 182, 177, 0.2)" stroke-width="1.2" />
  <polygon points="600.1,201.0 620.7,221.6 600.1,242.1 579.5,221.6" fill="rgba(242, 176, 143, 0.18)" stroke="rgba(113, 182, 177, 0.2)" stroke-width="1.2" />
</svg>
