<?xml version="1.0" encoding="UTF-8"?>
<svg xmlns="http://www.w3.org/2000/svg" viewBox="0 0 960 640" role="img" aria-labelledby="title-79 desc-79">
  <title id="title-79">Abstract geometric post art 80</title>
  <desc id="desc-79">An iridescent prism composition built from planes, lattices, and reflective block faces.</desc>
  <defs>
    <linearGradient id="bg-79" x1="0%" y1="0%" x2="100%" y2="100%">
      <stop offset="0%" stop-color="#f6f0e7" />
      <stop offset="55%" stop-color="rgba(226, 241, 235, 0.96)" />
      <stop offset="100%" stop-color="rgba(247, 219, 197, 0.92)" />
    </linearGradient>
    <linearGradient id="top-79" x1="0%" y1="0%" x2="100%" y2="100%">
      <stop offset="0%" stop-color="rgba(226, 241, 235, 0.94)" />
      <stop offset="50%" stop-color="rgba(247, 219, 197, 0.7)" />
      <stop offset="100%" stop-color="rgba(139, 199, 184, 0.56)" />
    </linearGradient>
    <linearGradient id="left-79" x1="0%" y1="0%" x2="0%" y2="100%">
      <stop offset="0%" stop-color="rgba(226, 241, 235, 0.7)" />
      <stop offset="100%" stop-color="rgba(139, 199, 184, 0.28)" />
    </linearGradient>
    <linearGradient id="right-79" x1="0%" y1="0%" x2="0%" y2="100%">
      <stop offset="0%" stop-color="rgba(247, 219, 197, 0.72)" />
      <stop offset="100%" stop-color="rgba(243, 192, 154, 0.24)" />
    </linearGradient>
  </defs>
  <rect width="960" height="640" fill="url(#bg-79)" />
  <rect x="24" y="24" width="912" height="592" rx="28" fill="none" stroke="rgba(139, 199, 184, 0.1)" stroke-width="1.4" />
  <polygon points="295.3,366.6 714.5,366.6 749.7,439.6 330.5,439.6" fill="rgba(226, 241, 235, 0.22)" stroke="rgba(139, 199, 184, 0.12)" stroke-width="1.2" />
  <polygon points="35.9,210.0 358.4,210.0 397.3,286.8 74.8,286.8" fill="rgba(247, 219, 197, 0.22)" stroke="rgba(139, 199, 184, 0.12)" stroke-width="1.2" />
  <polygon points="559.7,222.0 856.9,222.0 750.8,298.5 453.6,298.5" fill="rgba(226, 241, 235, 0.22)" stroke="rgba(139, 199, 184, 0.12)" stroke-width="1.2" />
  <polygon points="-16.3,404.7 487.2,404.7 386.7,461.2 -116.7,461.2" fill="rgba(247, 219, 197, 0.22)" stroke="rgba(139, 199, 184, 0.12)" stroke-width="1.2" />
  <polyline points="112.6,397.0 222.7,324.0 283.5,337.3" fill="none" stroke="rgba(139, 199, 184, 0.24)" stroke-width="2.28" stroke-linecap="round" stroke-linejoin="round" />
  <polyline points="238.3,276.4 340.9,225.1 378.3,247.3" fill="none" stroke="rgba(243, 192, 154, 0.24)" stroke-width="1.86" stroke-linecap="round" stroke-linejoin="round" />
  <polyline points="350.6,81.0 468.1,130.9 507.7,121.8" fill="none" stroke="rgba(139, 199, 184, 0.24)" stroke-width="1.46" stroke-linecap="round" stroke-linejoin="round" />
  <polyline points="710.2,172.1 906.7,165.1 967.3,200.9" fill="none" stroke="rgba(243, 192, 154, 0.24)" stroke-width="1.61" stroke-linecap="round" stroke-linejoin="round" />
  <polyline points="244.2,173.5 444.4,231.5 481.1,259.4" fill="none" stroke="rgba(139, 199, 184, 0.24)" stroke-width="1.70" stroke-linecap="round" stroke-linejoin="round" />
  <polyline points="642.8,418.2 768.7,497.4 829.4,505.8" fill="none" stroke="rgba(243, 192, 154, 0.24)" stroke-width="2.03" stroke-linecap="round" stroke-linejoin="round" />
  <polygon points="658.9,351.1 776.7,351.1 779.4,414.0 661.7,414.0" fill="rgba(226, 241, 235, 0.3)" stroke="rgba(243, 192, 154, 0.16)" stroke-width="1.2" />
  <polygon points="731.2,460.5 835.9,460.5 822.2,518.7 717.5,518.7" fill="rgba(247, 219, 197, 0.3)" stroke="rgba(243, 192, 154, 0.16)" stroke-width="1.2" />
  <polygon points="348.8,118.9 481.7,118.9 509.5,157.9 376.6,157.9" fill="rgba(226, 241, 235, 0.3)" stroke="rgba(243, 192, 154, 0.16)" stroke-width="1.2" />
  <polygon points="618.9,397.5 740.9,397.5 686.3,433.1 564.2,433.1" fill="rgba(247, 219, 197, 0.3)" stroke="rgba(243, 192, 154, 0.16)" stroke-width="1.2" />
  <polygon points="458.7,118.3 571.3,171.9 458.7,223.7 346.1,171.9" fill="url(#top-79)" stroke="rgba(139, 199, 184, 0.26)" stroke-width="1.5" />
  <polygon points="346.1,171.9 458.7,223.7 458.7,400.2 346.1,348.5" fill="url(#left-79)" stroke="rgba(139, 199, 184, 0.22)" stroke-width="1.3" />
  <polygon points="458.7,223.7 571.3,171.9 571.3,348.5 458.7,400.2" fill="url(#right-79)" stroke="rgba(243, 192, 154, 0.22)" stroke-width="1.3" />
  <polygon points="298.7,209.5 342.7,253.5 298.7,297.5 254.7,253.5" fill="rgba(226, 241, 235, 0.16)" stroke="rgba(139, 199, 184, 0.18)" stroke-width="1.2" />
  <polygon points="638.7,175.5 676.7,213.5 638.7,251.5 600.7,213.5" fill="rgba(247, 219, 197, 0.16)" stroke="rgba(243, 192, 154, 0.18)" stroke-width="1.2" />
  <polygon points="122.4,98.3 139.6,115.5 122.4,132.6 105.3,115.5" fill="rgba(243, 192, 154, 0.18)" stroke="rgba(139, 199, 184, 0.2)" stroke-width="1.2" />
  <polygon points="353.0,219.0 365.8,231.8 353.0,244.6 340.2,231.8" fill="rgba(226, 241, 235, 0.18)" stroke="rgba(139, 199, 184, 0.2)" stroke-width="1.2" />
  <polygon points="595.4,367.0 614.3,385.8 595.4,404.7 576.6,385.8" fill="rgba(243, 192, 154, 0.18)" stroke="rgba(139, 199, 184, 0.2)" stroke-width="1.2" />
  <polygon points="223.8,342.9 236.8,355.8 223.8,368.8 210.9,355.8" fill="rgba(226, 241, 235, 0.18)" stroke="rgba(139, 199, 184, 0.2)" stroke-width="1.2" />
  <polygon points="678.3,249.9 693.6,265.2 678.3,280.5 663.0,265.2" fill="rgba(243, 192, 154, 0.18)" stroke="rgba(139, 199, 184, 0.2)" stroke-width="1.2" />
</svg>
