<?xml version="1.0" encoding="UTF-8"?>
<svg xmlns="http://www.w3.org/2000/svg" viewBox="0 0 960 640" role="img" aria-labelledby="title-98 desc-98">
  <title id="title-98">Abstract geometric post art 99</title>
  <desc id="desc-98">An iridescent prism composition built from planes, lattices, and reflective block faces.</desc>
  <defs>
    <linearGradient id="bg-98" x1="0%" y1="0%" x2="100%" y2="100%">
      <stop offset="0%" stop-color="#f6f0e7" />
      <stop offset="55%" stop-color="rgba(221, 233, 248, 0.96)" />
      <stop offset="100%" stop-color="rgba(246, 216, 191, 0.92)" />
    </linearGradient>
    <linearGradient id="top-98" x1="0%" y1="0%" x2="100%" y2="100%">
      <stop offset="0%" stop-color="rgba(221, 233, 248, 0.94)" />
      <stop offset="50%" stop-color="rgba(246, 216, 191, 0.7)" />
      <stop offset="100%" stop-color="rgba(146, 162, 227, 0.56)" />
    </linearGradient>
    <linearGradient id="left-98" x1="0%" y1="0%" x2="0%" y2="100%">
      <stop offset="0%" stop-color="rgba(221, 233, 248, 0.7)" />
      <stop offset="100%" stop-color="rgba(146, 162, 227, 0.28)" />
    </linearGradient>
    <linearGradient id="right-98" x1="0%" y1="0%" x2="0%" y2="100%">
      <stop offset="0%" stop-color="rgba(246, 216, 191, 0.72)" />
      <stop offset="100%" stop-color="rgba(241, 178, 193, 0.24)" />
    </linearGradient>
  </defs>
  <rect width="960" height="640" fill="url(#bg-98)" />
  <rect x="24" y="24" width="912" height="592" rx="28" fill="none" stroke="rgba(146, 162, 227, 0.1)" stroke-width="1.4" />
  <polygon points="164.5,107.8 392.5,107.8 409.0,191.1 181.1,191.1" fill="rgba(221, 233, 248, 0.22)" stroke="rgba(146, 162, 227, 0.12)" stroke-width="1.2" />
  <polygon points="171.6,195.0 546.8,195.0 577.0,248.4 201.7,248.4" fill="rgba(246, 216, 191, 0.22)" stroke="rgba(146, 162, 227, 0.12)" stroke-width="1.2" />
  <polygon points="666.8,394.2 990.1,394.2 968.6,446.4 645.3,446.4" fill="rgba(221, 233, 248, 0.22)" stroke="rgba(146, 162, 227, 0.12)" stroke-width="1.2" />
  <polygon points="86.0,281.6 335.7,281.6 239.2,331.6 -10.5,331.6" fill="rgba(246, 216, 191, 0.22)" stroke="rgba(146, 162, 227, 0.12)" stroke-width="1.2" />
  <polygon points="158.6,94.6 648.5,94.6 656.9,167.6 167.0,167.6" fill="rgba(221, 233, 248, 0.22)" stroke="rgba(146, 162, 227, 0.12)" stroke-width="1.2" />
  <polyline points="252.0,125.4 398.9,184.6 453.3,172.2" fill="none" stroke="rgba(146, 162, 227, 0.24)" stroke-width="1.49" stroke-linecap="round" stroke-linejoin="round" />
  <polyline points="428.3,185.7 633.6,211.8 663.8,209.6" fill="none" stroke="rgba(241, 178, 193, 0.24)" stroke-width="1.49" stroke-linecap="round" stroke-linejoin="round" />
  <polyline points="368.1,180.5 480.0,213.3 521.0,246.9" fill="none" stroke="rgba(146, 162, 227, 0.24)" stroke-width="1.67" stroke-linecap="round" stroke-linejoin="round" />
  <polyline points="587.0,150.5 786.9,150.3 812.6,156.5" fill="none" stroke="rgba(241, 178, 193, 0.24)" stroke-width="2.37" stroke-linecap="round" stroke-linejoin="round" />
  <polyline points="184.6,221.0 283.2,241.0 328.2,238.2" fill="none" stroke="rgba(146, 162, 227, 0.24)" stroke-width="1.76" stroke-linecap="round" stroke-linejoin="round" />
  <polyline points="204.8,224.5 383.2,150.4 447.6,138.0" fill="none" stroke="rgba(241, 178, 193, 0.24)" stroke-width="2.26" stroke-linecap="round" stroke-linejoin="round" />
  <polygon points="321.4,202.8 446.4,202.8 453.8,252.5 328.8,252.5" fill="rgba(221, 233, 248, 0.3)" stroke="rgba(241, 178, 193, 0.16)" stroke-width="1.2" />
  <polygon points="286.0,451.2 405.5,451.2 424.2,480.5 304.7,480.5" fill="rgba(246, 216, 191, 0.3)" stroke="rgba(241, 178, 193, 0.16)" stroke-width="1.2" />
  <polygon points="274.7,341.4 406.8,341.4 412.5,402.9 280.4,402.9" fill="rgba(221, 233, 248, 0.3)" stroke="rgba(241, 178, 193, 0.16)" stroke-width="1.2" />
  <polygon points="541.8,455.9 654.1,455.9 636.7,486.5 524.3,486.5" fill="rgba(246, 216, 191, 0.3)" stroke="rgba(241, 178, 193, 0.16)" stroke-width="1.2" />
  <polygon points="546.3,143.4 667.4,201.1 546.3,256.7 425.1,201.1" fill="rgba(221, 233, 248, 0.52)" stroke="rgba(146, 162, 227, 0.28)" stroke-width="1.5" />
  <polygon points="425.1,201.1 546.3,256.7 546.3,424.3 425.1,368.7" fill="rgba(221, 233, 248, 0.34)" stroke="rgba(146, 162, 227, 0.26)" stroke-width="1.3" />
  <polygon points="546.3,256.7 667.4,201.1 667.4,368.7 546.3,424.3" fill="rgba(221, 233, 248, 0.34)" stroke="rgba(241, 178, 193, 0.24)" stroke-width="1.3" />
  <polygon points="326.3,395.0 706.3,395.0 796.3,463.0 416.3,463.0" fill="none" stroke="rgba(146, 162, 227, 0.16)" stroke-width="1.2" />
  <polygon points="366.3,445.0 686.3,445.0 608.3,497.0 288.3,497.0" fill="none" stroke="rgba(241, 178, 193, 0.14)" stroke-width="1.1" />
  <polygon points="850.8,451.5 862.8,463.5 850.8,475.6 838.7,463.5" fill="rgba(241, 178, 193, 0.18)" stroke="rgba(146, 162, 227, 0.2)" stroke-width="1.2" />
  <polygon points="283.5,522.8 304.6,543.9 283.5,564.9 262.4,543.9" fill="rgba(221, 233, 248, 0.18)" stroke="rgba(146, 162, 227, 0.2)" stroke-width="1.2" />
  <polygon points="191.9,234.6 210.2,252.9 191.9,271.3 173.5,252.9" fill="rgba(241, 178, 193, 0.18)" stroke="rgba(146, 162, 227, 0.2)" stroke-width="1.2" />
  <polygon points="865.9,383.7 878.9,396.6 865.9,409.6 853.0,396.6" fill="rgba(221, 233, 248, 0.18)" stroke="rgba(146, 162, 227, 0.2)" stroke-width="1.2" />
  <polygon points="241.8,511.7 261.0,531.0 241.8,550.2 222.5,531.0" fill="rgba(241, 178, 193, 0.18)" stroke="rgba(146, 162, 227, 0.2)" stroke-width="1.2" />
</svg>
